<svg width="340" height="324" viewBox="0 0 340 324" fill="none" xmlns="http://www.w3.org/2000/svg">
<line x1="181" y1="172" x2="339" y2="172" stroke="black" stroke-width="2" stroke-linecap="round"/>
<path d="M245.906 170.461C236.842 159.308 227.197 148.63 217.038 138.471C184.522 105.956 146.703 78.7482 105.481 58.3676C104.65 57.9574 103.645 58.2967 103.235 59.1281C102.825 59.9551 103.166 60.9617 103.993 61.3719C144.885 81.5862 182.411 108.585 214.667 140.841C224.747 150.92 234.312 161.514 243.307 172.576C243.89 173.292 244.946 173.403 245.664 172.818C246.385 172.235 246.491 171.179 245.906 170.461Z" fill="#100F0D"/>
<path d="M231.658 156C215.523 164.694 194.125 162.842 179.724 151.51L178.687 152.827L179.576 154.248C195.429 144.32 217.772 145.719 232.268 157.545C232.988 158.129 234.041 158.02 234.627 157.301C235.212 156.583 235.101 155.528 234.383 154.942C218.663 142.198 194.985 140.715 177.802 151.406L175.773 152.672L177.654 154.144C193.198 166.314 215.84 168.274 233.241 158.953C234.057 158.514 234.363 157.499 233.924 156.683C233.487 155.869 232.472 155.563 231.658 156Z" fill="#100F0D"/>
<path d="M232.265 150.235C230.128 148.679 228.119 146.954 226.252 145.087C214.053 132.905 207.911 114.6 210.8 97.5875L209.146 97.308L208.275 98.7382C211.561 100.743 214.581 103.142 217.295 105.855C229.565 118.108 235.549 136.814 231.828 153.772C231.633 154.676 232.205 155.567 233.11 155.767C234.012 155.964 234.906 155.39 235.105 154.485C239.063 136.284 232.72 116.558 219.665 103.485C216.769 100.59 213.541 98.022 210.018 95.878L207.907 94.592L207.495 97.031C204.437 115.205 210.92 134.482 223.882 147.457C225.869 149.443 228.01 151.284 230.294 152.947C231.041 153.49 232.092 153.326 232.635 152.579C233.181 151.829 233.015 150.78 232.265 150.235Z" fill="#100F0D"/>
<path d="M231.405 154.018C213.716 155.88 195.73 154.976 178.314 151.346C177.407 151.158 176.52 151.739 176.33 152.643C176.141 153.55 176.722 154.437 177.629 154.625C195.389 158.328 213.721 159.25 231.755 157.353C232.678 157.255 233.345 156.432 233.248 155.51C233.152 154.59 232.325 153.923 231.405 154.018Z" fill="#100F0D"/>
<path d="M232.494 150.233C230.358 130.768 222.434 111.997 209.982 96.885C209.395 96.1732 208.337 96.069 207.623 96.6588C206.909 97.2486 206.807 98.304 207.397 99.0179C219.43 113.614 227.101 131.795 229.161 150.599C229.261 151.519 230.09 152.184 231.01 152.08C231.931 151.98 232.593 151.153 232.494 150.233Z" fill="#100F0D"/>
<path d="M120.849 66.5646C102.876 74.5422 81.1007 73.6043 63.8796 64.1213L63.0725 65.589L63.8663 67.0657C79.3557 58.7202 98.978 58.321 114.796 66.0236C115.627 66.4294 116.631 66.0813 117.035 65.2477C117.441 64.4162 117.095 63.414 116.261 63.0105C99.4215 54.8312 78.7726 55.2547 62.2788 64.1124L59.5671 65.5735L62.2655 67.0568C80.451 77.052 103.228 78.0298 122.205 69.6288C123.05 69.2541 123.434 68.2631 123.059 67.4183C122.682 66.5713 121.693 66.1899 120.849 66.5646Z" fill="#100F0D"/>
<path d="M115.713 64.7328C98.2264 65.001 80.7459 65.2715 63.2588 65.5398C62.332 65.5531 61.5915 66.3159 61.607 67.2405C61.6203 68.1672 62.3852 68.9055 63.3098 68.8899C80.7947 68.6239 98.2795 68.3534 115.767 68.0851C116.691 68.0696 117.432 67.3069 117.416 66.3824C117.403 65.4556 116.64 64.7194 115.713 64.7328Z" fill="#100F0D"/>
<path d="M154.923 83.0429C157.124 64.2388 150.28 44.6896 136.912 31.3088C136.558 30.954 136.196 30.6016 135.833 30.2557L134.034 28.5462L133.121 30.8521C126.804 46.8759 131.551 66.0481 143.544 78.0675C146.149 80.6728 149.098 82.9387 152.357 84.7523C153.167 85.2024 154.189 84.912 154.639 84.1027C155.087 83.2957 154.796 82.2736 153.987 81.8235C151.016 80.1694 148.311 78.0941 145.914 75.6973C134.83 64.6446 130.427 46.6718 136.236 32.087L134.677 31.4685L133.522 32.6857C133.866 33.0117 134.207 33.3442 134.542 33.679C147.171 46.2949 153.685 64.9194 151.595 82.6504C151.486 83.5706 152.147 84.4043 153.065 84.5107C153.985 84.6194 154.816 83.9608 154.925 83.0407" fill="#100F0D"/>
<path d="M152.377 79.1673C150.191 63.7045 144.448 48.7693 135.708 35.8297C135.191 35.0648 134.149 34.8608 133.382 35.3797C132.615 35.8985 132.413 36.9384 132.932 37.7055C141.382 50.2172 146.945 64.6845 149.058 79.6351C149.189 80.5508 150.036 81.1894 150.951 81.0585C151.869 80.9299 152.506 80.0808 152.377 79.1673Z" fill="#100F0D"/>
<path d="M179.98 108.525C164.04 117.755 143.44 118.631 126.771 110.787L126.059 112.305L127.467 113.212C128.627 111.414 129.981 109.745 131.498 108.228C136.6 103.122 143.511 99.776 150.681 99.102C159.75 98.2328 169.213 101.656 175.649 108.106L176.135 108.6C176.773 109.27 177.836 109.294 178.505 108.656C179.172 108.015 179.199 106.955 178.558 106.288L178.02 105.736C170.84 98.5654 160.475 94.8117 150.367 95.7629C142.371 96.5256 134.78 100.211 129.128 105.858C127.449 107.536 125.944 109.392 124.649 111.396L123.612 113.006L125.345 113.822C143.065 122.137 164.71 121.214 181.656 111.425C182.458 110.964 182.731 109.937 182.268 109.137C181.804 108.337 180.78 108.062 179.977 108.523" fill="#100F0D"/>
<path d="M177.27 106.046C159.493 102.863 140.897 104.492 123.944 110.718C123.075 111.037 122.629 112.002 122.949 112.871C123.268 113.74 124.23 114.184 125.099 113.864C141.482 107.845 159.499 106.266 176.678 109.343C177.589 109.51 178.458 108.902 178.625 107.991C178.787 107.08 178.181 106.208 177.27 106.046Z" fill="#100F0D"/>
<path d="M181.39 109.519C187.491 101.391 190.028 91.1161 189.294 81.1054C188.558 71.0969 184.545 61.3013 177.381 54.1286C177.144 53.8914 176.904 53.6607 176.66 53.4301L174.88 51.7385L173.955 54.0155C166.9 71.3851 168.457 91.9209 178.048 108.031C178.52 108.827 179.551 109.086 180.345 108.612C181.141 108.14 181.403 107.111 180.926 106.315C171.88 91.1582 170.401 71.6268 177.062 55.2771L175.507 54.6452L174.354 55.8603C174.576 56.0731 174.796 56.2837 175.011 56.4988C181.531 63.0152 185.272 72.0636 185.953 81.3515C186.635 90.6416 184.259 100.122 178.711 107.506C178.155 108.244 178.303 109.297 179.044 109.851C179.786 110.408 180.835 110.259 181.39 109.519Z" fill="#100F0D"/>
<path d="M183.915 104.448C182.983 88.7722 182.052 73.0966 181.123 57.4187C181.068 56.4941 180.276 55.7913 179.352 55.8467C178.429 55.8999 177.724 56.6937 177.777 57.616C178.706 73.2939 179.638 88.974 180.569 104.65C180.622 105.572 181.416 106.277 182.34 106.222C183.265 106.166 183.97 105.372 183.915 104.448Z" fill="#100F0D"/>
<path d="M183.771 111.846C184.465 111.773 185.119 112.037 185.757 112.662C186.604 113.483 187.159 114.937 187.043 116.099C186.875 118.418 185.179 120.722 183.161 122.868C182.547 123.531 181.919 124.181 181.281 124.819C173.193 132.912 163.224 139.133 152.397 142.825L152.936 144.41L154.515 143.843C151.426 135.326 153.167 125.107 158.898 118.09C159.484 117.372 159.377 116.316 158.657 115.733C157.938 115.148 156.885 115.256 156.3 115.975C149.808 123.97 147.879 135.287 151.36 144.98L151.921 146.53L153.477 145.998C164.798 142.135 175.197 135.643 183.651 127.189C184.318 126.522 184.975 125.843 185.618 125.152C187.715 122.872 190.043 120.083 190.385 116.38C190.553 114.097 189.682 111.868 188.128 110.292C186.972 109.119 185.287 108.308 183.409 108.514C182.489 108.614 181.824 109.443 181.924 110.363C182.024 111.283 182.851 111.946 183.771 111.846Z" fill="#100F0D"/>
<path d="M157.28 144.289C160.923 134.154 166.878 124.855 174.498 117.235C177.877 113.855 181.585 110.809 185.56 108.159C186.329 107.647 186.538 106.605 186.026 105.836C185.511 105.064 184.471 104.858 183.702 105.37C179.538 108.142 175.66 111.332 172.128 114.864C164.164 122.833 157.943 132.54 154.127 143.154C153.814 144.025 154.264 144.985 155.136 145.298C156.007 145.61 156.967 145.16 157.28 144.289Z" fill="#100F0D"/>
<path d="M120.811 66.5536C125.979 51.031 121.544 32.9651 110.037 21.4312C109.33 20.7239 108.596 20.0433 107.835 19.3892L106.268 18.0345L105.272 19.8503C97.583 33.9429 100.066 52.6473 111.159 64.25C111.8 64.9174 112.862 64.9373 113.529 64.2965C114.199 63.6579 114.219 62.5959 113.578 61.9285C103.525 51.5032 101.224 34.1469 108.21 21.4623L106.74 20.6575L105.647 21.9279C106.343 22.5266 107.017 23.1517 107.667 23.8014C118.265 34.373 122.405 51.2793 117.633 65.4916C117.341 66.3696 117.813 67.3208 118.691 67.6134C119.569 67.9061 120.518 67.4316 120.811 66.5536Z" fill="#100F0D"/>
<path d="M120.558 64.8285C117.51 51.7448 114.461 38.6566 111.41 25.5706C111.199 24.6727 110.299 24.1095 109.397 24.3202C108.494 24.5308 107.936 25.4309 108.146 26.3333C111.197 39.4193 114.244 52.5053 117.297 65.589C117.507 66.4914 118.408 67.0501 119.308 66.8417C120.21 66.6311 120.771 65.7287 120.558 64.8285Z" fill="#100F0D"/>
<path d="M230.47 181.174L230.612 181.041C231.292 180.392 231.507 179.365 231.339 178.638C231.19 177.891 230.822 177.327 230.372 176.868C229.913 176.418 229.35 176.05 228.6 175.9C227.875 175.733 226.844 175.948 226.199 176.629L226.08 176.753C225.465 177.447 225.53 178.505 226.219 179.119C226.913 179.733 227.973 179.671 228.585 178.979L228.248 178.678L228.569 178.999L228.585 178.979L228.248 178.678L228.569 178.999L228.102 178.531L227.975 179.194L228.569 178.999L228.102 178.531L227.975 179.194L228.028 178.924L227.929 179.179L227.975 179.194L228.028 178.924L227.929 179.179L227.944 179.19L228.002 179.239L228.059 179.31L228.062 179.316L228.461 179.143L228.042 179.097L228.062 179.316L228.461 179.143L228.042 179.097L228.745 179.174L228.241 178.671L228.042 179.097L228.745 179.174L228.241 178.671L228.647 179.077L228.27 178.642L228.241 178.671L228.647 179.077L228.27 178.642C227.572 179.252 227.498 180.31 228.104 181.008C228.713 181.706 229.771 181.78 230.47 181.174Z" fill="#100F0D"/>
<path d="M199.347 113.184C199.302 112.456 199.256 111.727 199.209 111.006C199.152 110.08 198.358 109.379 197.431 109.436C196.509 109.494 195.806 110.29 195.866 111.215C195.91 111.942 195.957 112.671 196.003 113.392C196.061 114.319 196.857 115.017 197.781 114.962C198.704 114.904 199.407 114.108 199.347 113.184Z" fill="#100F0D"/>
<path d="M202.936 94.0605L201.916 94.3975L202.956 94.6215L202.936 94.0605L201.916 94.3975L202.956 94.6215L201.79 94.3687L202.637 95.2156L202.956 94.6215L201.79 94.3687L202.637 95.2156L202.191 94.77L202.173 95.4661C202.187 95.444 202.266 95.5326 202.637 95.2156L202.191 94.77L202.173 95.4661L202.189 94.8431L201.787 95.2444C202.113 95.526 202.158 95.4462 202.173 95.4661L202.189 94.8431L201.787 95.2444L202.626 94.4063L201.464 94.6236L201.787 95.2444L202.626 94.4063L201.464 94.6236L202.524 94.4241L201.519 94.005L201.464 94.6236L202.524 94.4241L201.519 94.005C201.16 94.8564 201.561 95.8387 202.417 96.1979C203.269 96.5571 204.251 96.1557 204.61 95.2999C204.765 94.9407 204.849 94.4706 204.759 94.0072C204.674 93.5416 204.426 93.138 204.158 92.8742C203.488 92.2489 202.85 92.147 202.244 92.1137C201.639 92.1248 200.972 92.1935 200.267 92.8454C200.005 93.1026 199.77 93.4884 199.681 93.9141C199.588 94.3398 199.637 94.77 199.757 95.1159C200.045 95.9939 200.996 96.4706 201.874 96.1779C202.752 95.8852 203.227 94.9363 202.936 94.0605Z" fill="#100F0D"/>
<path d="M197.812 100.075C197.502 99.7647 197.069 99.5851 196.628 99.5873C196.187 99.5851 195.755 99.7647 195.442 100.077C195.129 100.39 194.952 100.82 194.952 101.264C194.952 101.703 195.131 102.135 195.442 102.445C195.755 102.758 196.187 102.938 196.626 102.938C197.069 102.938 197.499 102.76 197.812 102.448C198.125 102.135 198.304 101.703 198.302 101.261C198.304 100.82 198.125 100.388 197.812 100.075Z" fill="#100F0D"/>
<path d="M112.552 86.9585C112.239 86.6459 111.809 86.4686 111.368 86.4664C110.925 86.4664 110.492 86.646 110.182 86.9564C109.869 87.269 109.69 87.7013 109.692 88.1426C109.692 88.586 109.869 89.0161 110.182 89.3287C110.494 89.6414 110.925 89.8188 111.368 89.8188C111.807 89.8188 112.239 89.6392 112.552 89.3266C112.863 89.0161 113.042 88.5838 113.044 88.1426C113.042 87.7014 112.865 87.2711 112.552 86.9585Z" fill="#100F0D"/>
<path d="M123.483 87.1402C124.21 86.4129 124.939 85.6835 125.667 84.9562C126.321 84.3021 126.323 83.2401 125.669 82.5861C125.013 81.9298 123.95 81.932 123.296 82.586C122.569 83.3133 121.84 84.0427 121.112 84.77C120.456 85.4263 120.456 86.4861 121.112 87.1424C121.767 87.7965 122.826 87.7965 123.483 87.1402Z" fill="#100F0D"/>
<path d="M224.95 173.45C216.408 180.464 208.229 187.926 200.447 195.794C175.549 220.969 154.735 250.282 139.183 282.248C138.865 282.896 138.089 283.159 137.445 282.837C136.802 282.513 136.537 281.725 136.851 281.077C152.533 248.852 173.509 219.308 198.605 193.933C206.449 186.002 214.694 178.478 223.307 171.409C223.862 170.952 224.678 171.04 225.133 171.604C225.588 172.168 225.505 172.994 224.95 173.45Z" fill="#100F0D"/>
<path d="M214.428 181.296C221.689 194.942 220.227 212.664 210.841 224.805L209.704 226.275L208.719 224.683C200.399 211.202 201.488 192.67 211.319 180.392C211.771 179.831 212.586 179.748 213.145 180.207C213.703 180.667 213.788 181.493 213.34 182.054C204.218 193.374 203.19 210.864 210.917 223.3L209.819 223.993L208.795 223.179C217.534 211.932 218.915 195.183 212.143 182.53C211.803 181.891 212.037 181.097 212.668 180.755C213.299 180.414 214.086 180.656 214.428 181.296Z" fill="#100F0D"/>
<path d="M209.782 183.589C208.5 185.373 207.082 187.044 205.547 188.596C195.534 198.71 180.621 203.74 166.54 201.301L164.65 200.973L165.641 199.323C167.294 196.568 169.274 194.047 171.508 191.789C181.6 181.599 196.858 176.683 210.962 179.826C211.665 179.983 212.112 180.684 211.959 181.392C211.809 182.098 211.118 182.545 210.419 182.389C197.277 179.435 182.806 184.074 173.349 193.651C171.254 195.769 169.404 198.127 167.862 200.693L166.752 200.007L166.963 198.715C180.145 201.017 194.303 196.255 203.706 186.735C205.149 185.276 206.479 183.707 207.679 182.038C208.1 181.452 208.91 181.327 209.492 181.755C210.072 182.183 210.203 183.004 209.782 183.589Z" fill="#100F0D"/>
<path d="M213.192 182.455C214.704 196.581 214.037 210.929 211.214 224.825C211.07 225.534 210.385 225.987 209.682 225.837C208.98 225.687 208.528 224.992 208.671 224.282C211.44 210.654 212.096 196.574 210.61 182.721C210.534 182 211.047 181.356 211.761 181.282C212.474 181.209 213.114 181.732 213.192 182.455Z" fill="#100F0D"/>
<path d="M207.967 184.471C193.411 186.037 179.352 191.998 168.079 201.383C167.529 201.841 166.71 201.76 166.253 201.198C165.795 200.638 165.871 199.812 166.422 199.352C178.094 189.64 192.608 183.484 207.676 181.861C208.39 181.783 209.032 182.304 209.111 183.025C209.193 183.747 208.681 184.393 207.967 184.471Z" fill="#100F0D"/>
<path d="M145.533 268.007C152.085 282.886 151.385 300.716 143.688 314.931L142.544 317.042L141.408 314.914C134.508 301.978 134.131 285.809 140.421 272.647C140.732 271.995 141.508 271.725 142.153 272.045C142.798 272.364 143.068 273.15 142.758 273.802C136.834 286.165 137.192 301.529 143.691 313.678L142.549 314.296L141.411 313.66C148.713 300.199 149.386 283.153 143.162 269.064C142.871 268.4 143.164 267.627 143.818 267.335C144.472 267.042 145.241 267.345 145.533 268.007Z" fill="#100F0D"/>
<path d="M144.352 273.046C144.603 286.738 144.858 300.426 145.109 314.118C145.119 314.842 144.551 315.438 143.834 315.446C143.118 315.455 142.525 314.874 142.511 314.15C142.26 300.458 142.009 286.77 141.758 273.078C141.744 272.354 142.314 271.757 143.031 271.749C143.745 271.741 144.34 272.321 144.352 273.046Z" fill="#100F0D"/>
<path d="M155.544 245.03C141.809 243.35 127.401 248.405 117.663 258.262C117.405 258.523 117.15 258.788 116.896 259.058L115.953 258.149L116.428 256.93C127.734 261.516 141.641 258.113 150.174 249.461C152.024 247.59 153.623 245.479 154.898 243.155C155.244 242.523 156.035 242.298 156.661 242.651C157.287 243.007 157.516 243.806 157.17 244.439C155.773 246.986 154.024 249.291 152.015 251.322C142.736 260.684 127.901 264.353 115.477 259.368L113.69 258.647L115.011 257.241C115.278 256.958 115.548 256.677 115.822 256.4C126.15 245.968 141.271 240.657 155.84 242.426C156.551 242.511 157.061 243.166 156.981 243.884C156.899 244.604 156.257 245.118 155.544 245.03Z" fill="#100F0D"/>
<path d="M153.216 247.009C141.642 248.628 130.455 252.946 120.787 259.53C120.194 259.935 119.387 259.776 118.985 259.172C118.581 258.57 118.735 257.757 119.327 257.352C129.324 250.543 140.875 246.084 152.843 244.411C153.552 244.31 154.21 244.813 154.313 245.53C154.417 246.247 153.923 246.91 153.216 247.009Z" fill="#100F0D"/>
<path d="M177.752 221.566C185.37 234.861 186.14 251.807 179.747 265.659L179.119 267.014L177.87 266.198C176.313 265.181 174.874 263.996 173.57 262.677C169.183 258.239 166.309 252.287 165.699 246.026C164.939 238.108 167.82 230.002 173.355 224.398L173.779 223.98C174.295 223.48 175.117 223.501 175.613 224.027C176.111 224.551 176.095 225.383 175.578 225.881L175.196 226.26C170.218 231.283 167.588 238.686 168.284 245.788C168.825 251.401 171.433 256.821 175.4 260.828C176.578 262.019 177.874 263.083 179.269 263.996L178.569 265.097L177.393 264.535C183.426 251.504 182.695 235.375 175.508 222.873C175.147 222.245 175.358 221.443 175.978 221.081C176.597 220.72 177.391 220.938 177.752 221.566Z" fill="#100F0D"/>
<path d="M176.152 225.458C173.81 238.901 175.078 253.01 179.78 265.851C180.03 266.532 179.687 267.286 179.015 267.534C178.342 267.782 177.596 267.429 177.347 266.748C172.482 253.461 171.176 238.897 173.596 224.988C173.719 224.275 174.394 223.801 175.098 223.932C175.806 224.063 176.277 224.746 176.152 225.458Z" fill="#100F0D"/>
<path d="M174.722 223.863C168.992 219.5 161.643 217.617 154.451 218.129C147.261 218.639 140.265 221.544 135.235 226.633C135.069 226.801 134.905 226.974 134.742 227.145L133.798 226.239L134.282 225.026C146.958 230.283 162.082 229.17 173.796 222.124C174.41 221.755 175.207 221.962 175.576 222.585C175.946 223.208 175.747 224.014 175.132 224.382C162.681 231.852 146.781 233.021 133.311 227.453L131.549 226.723L132.855 225.334C133.031 225.145 133.211 224.956 133.394 224.771C138.929 219.182 146.504 216.064 154.254 215.511C162.004 214.961 169.965 216.974 176.276 221.77C176.849 222.207 176.967 223.029 176.539 223.607C176.112 224.185 175.297 224.299 174.722 223.863Z" fill="#100F0D"/>
<path d="M172.506 222.401C160.37 223.092 148.232 223.78 136.094 224.469C135.378 224.51 134.761 223.956 134.718 223.234C134.673 222.51 135.217 221.89 135.933 221.849C148.071 221.16 160.207 220.47 172.343 219.78C173.059 219.739 173.675 220.293 173.721 221.017C173.766 221.741 173.222 222.36 172.506 222.401Z" fill="#100F0D"/>
<path d="M175.493 220.186C175.327 218.716 175.953 217.397 176.856 216.498C178.073 215.285 179.797 214.608 181.564 214.747C184.435 215.02 186.598 216.853 188.368 218.498C188.907 219.005 189.435 219.518 189.954 220.042C196.521 226.682 201.574 234.84 204.593 243.713L205.007 244.935L203.81 245.368C196.312 248.07 187.543 246.533 181.336 241.431C180.778 240.971 180.693 240.144 181.144 239.583C181.592 239.022 182.411 238.94 182.969 239.4C188.415 243.906 196.333 245.294 202.92 242.897L203.365 244.133L202.137 244.552C199.252 236.067 194.409 228.247 188.124 221.892C187.628 221.391 187.124 220.898 186.609 220.415C184.94 218.832 183.154 217.497 181.356 217.361C180.456 217.268 179.331 217.698 178.698 218.359C178.217 218.856 178.014 219.367 178.073 219.911C178.152 220.631 177.641 221.277 176.928 221.353C176.214 221.431 175.572 220.906 175.493 220.186Z" fill="#100F0D"/>
<path d="M202.387 243.199C194.159 240.185 186.627 235.29 180.438 229.033C177.694 226.259 175.214 223.215 173.056 219.95C172.657 219.347 172.816 218.531 173.411 218.132C174.007 217.731 174.813 217.899 175.211 218.502C177.273 221.621 179.643 224.53 182.268 227.184C188.187 233.169 195.401 237.856 203.258 240.733C203.934 240.98 204.286 241.731 204.046 242.413C203.806 243.094 203.062 243.446 202.387 243.199Z" fill="#100F0D"/>
<path d="M142.339 271.578C131.324 267.806 118.241 271.007 110.081 279.278C109.579 279.785 109.097 280.311 108.633 280.857L107.648 279.996L108.268 278.847C118.108 284.348 131.542 282.589 139.592 274.743C140.107 274.243 140.928 274.263 141.425 274.787C141.923 275.311 141.91 276.142 141.395 276.642C132.438 285.298 117.96 287.196 107.027 281.143L105.618 280.359L106.662 279.137C107.166 278.543 107.693 277.969 108.239 277.417C117.144 268.434 131.121 265.009 143.155 269.092C143.836 269.323 144.204 270.069 143.979 270.756C143.755 271.442 143.02 271.81 142.339 271.578Z" fill="#100F0D"/>
<path d="M142.416 271.842C132.294 274.198 122.166 276.553 112.04 278.909C111.344 279.07 110.645 278.63 110.48 277.923C110.315 277.216 110.747 276.515 111.443 276.35C121.569 273.994 131.695 271.641 141.821 269.285C142.517 269.121 143.216 269.564 143.383 270.269C143.546 270.974 143.114 271.68 142.416 271.842Z" fill="#100F0D"/>
<path d="M229.69 185.24L229.988 184.977L229.707 185.26L229.69 185.24L229.988 184.977L229.707 185.26L230.068 184.895L230.17 185.413L229.707 185.26L230.068 184.895L230.17 185.413L230.128 185.205L230.204 185.403L230.17 185.413L230.128 185.205L230.204 185.403L230.192 185.411L230.147 185.449L230.103 185.505L230.103 185.508L229.792 185.374L230.116 185.338L230.103 185.508L229.792 185.374L230.116 185.338L229.574 185.395L229.961 185.004L230.116 185.338L229.574 185.395L229.961 185.004L229.546 185.423L229.926 184.973L229.961 185.004L229.546 185.423L229.926 184.973C230.474 185.447 230.542 186.273 230.076 186.824C229.614 187.374 228.796 187.436 228.248 186.966L228.131 186.854C227.602 186.344 227.433 185.54 227.562 184.971C227.675 184.386 227.959 183.946 228.306 183.588C228.661 183.237 229.096 182.95 229.674 182.835C230.237 182.705 231.034 182.874 231.537 183.411L231.639 183.517C232.111 184.063 232.058 184.893 231.522 185.369C230.983 185.844 230.164 185.788 229.69 185.24Z" fill="#100F0D"/>
<path d="M179.239 210.338C178.681 210.372 178.117 210.407 177.552 210.442C176.838 210.484 176.22 209.932 176.173 209.21C176.124 208.486 176.667 207.864 177.382 207.823C177.94 207.789 178.505 207.754 179.07 207.719C179.784 207.676 180.402 208.229 180.449 208.951C180.496 209.673 179.955 210.296 179.239 210.338Z" fill="#100F0D"/>
<path d="M165.076 207.356C164.81 207.447 164.477 207.484 164.145 207.412C163.816 207.341 163.518 207.158 163.316 206.951C162.81 206.397 162.755 205.875 162.745 205.401C162.771 204.925 162.847 204.427 163.329 203.904C163.533 203.695 163.845 203.502 164.205 203.437C164.564 203.367 164.926 203.432 165.206 203.556C165.87 203.836 166.183 204.606 165.909 205.274C165.634 205.941 164.875 206.253 164.213 205.971L164.535 205.189L164.69 206.018L164.211 205.973L164.535 205.189L164.69 206.018L164.519 205.108L165.17 205.766L164.69 206.018L164.519 205.108L165.17 205.766L164.859 205.451L165.341 205.461C165.324 205.475 165.388 205.511 165.17 205.766L164.859 205.451L165.341 205.461L164.802 205.449L165.146 205.101C165.394 205.39 165.326 205.452 165.341 205.461L164.802 205.449L165.146 205.101L164.492 205.762L164.687 204.848L165.146 205.101L164.492 205.762L164.687 204.848L164.516 205.661L164.251 204.864L164.687 204.848L164.516 205.661L164.251 204.864C164.93 204.637 165.666 205.011 165.895 205.699C166.122 206.389 165.757 207.13 165.076 207.356Z" fill="#100F0D"/>
<path d="M168.923 208.888C169.165 208.644 169.497 208.506 169.841 208.507C170.182 208.507 170.517 208.648 170.76 208.894C171.003 209.139 171.142 209.477 171.143 209.824C171.142 210.169 171.006 210.505 170.764 210.749C170.523 210.993 170.19 211.131 169.849 211.132C169.507 211.129 169.174 210.989 168.931 210.744C168.688 210.498 168.548 210.159 168.547 209.815C168.546 209.468 168.682 209.132 168.923 208.888Z" fill="#100F0D"/>
<path d="M158.976 275.608C159.216 275.366 159.55 275.227 159.89 275.228C160.234 275.229 160.569 275.37 160.81 275.614C161.053 275.86 161.193 276.199 161.192 276.544C161.195 276.89 161.057 277.228 160.818 277.47C160.576 277.714 160.242 277.853 159.9 277.851C159.559 277.851 159.223 277.71 158.981 277.464C158.739 277.22 158.599 276.881 158.598 276.534C158.597 276.19 158.735 275.852 158.976 275.608Z" fill="#100F0D"/>
<path d="M157.261 268.9C156.696 268.329 156.129 267.756 155.564 267.185C155.056 266.671 155.052 265.84 155.556 265.329C156.061 264.819 156.885 264.822 157.394 265.335C157.959 265.906 158.525 266.479 159.09 267.051C159.6 267.566 159.601 268.397 159.096 268.908C158.591 269.418 157.77 269.416 157.261 268.9Z" fill="#100F0D"/>
<path d="M182.559 173.188C171.56 172.107 160.5 171.6 149.433 171.661C114.027 171.857 78.5814 177.867 44.9815 189.473C44.2988 189.707 43.5634 189.343 43.3359 188.661C43.1109 187.977 43.4801 187.233 44.1604 186.996C78.0357 175.298 113.759 169.24 149.448 169.043C160.602 168.981 171.752 169.491 182.842 170.583C183.557 170.652 184.072 171.291 183.995 172.012C183.918 172.732 183.275 173.258 182.559 173.188Z" fill="#100F0D"/>
<path d="M169.572 171.295C165.056 186.079 151.491 197.577 136.27 199.525L134.426 199.76L134.855 197.938C138.505 182.523 152.379 170.188 168.013 168.458C168.729 168.381 169.363 168.899 169.435 169.619C169.504 170.338 168.98 170.983 168.266 171.063C153.811 172.617 140.717 184.257 137.388 198.515L136.121 198.228L135.973 196.928C150.105 195.155 162.925 184.288 167.084 170.552C167.294 169.861 168.022 169.465 168.709 169.669C169.397 169.873 169.782 170.601 169.572 171.295Z" fill="#100F0D"/>
<path d="M164.665 169.633C162.497 169.987 160.313 170.166 158.13 170.178C143.897 170.249 129.796 163.261 121.564 151.58L120.46 150.011L122.327 149.545C125.444 148.766 128.627 148.384 131.803 148.366C146.145 148.297 160.41 155.61 168.16 167.806C168.546 168.413 168.366 169.225 167.758 169.618C167.153 170.011 166.348 169.839 165.964 169.234C158.76 157.853 145.247 150.9 131.788 150.985C128.81 151.001 125.834 151.36 122.929 152.084L122.629 150.815L123.692 150.05C131.385 160.999 144.764 167.643 158.144 167.56C160.196 167.548 162.246 167.38 164.275 167.048C164.986 166.932 165.648 167.415 165.756 168.13C165.864 168.842 165.376 169.516 164.665 169.633Z" fill="#100F0D"/>
<path d="M167.878 171.241C158.959 182.299 148.342 191.973 136.52 199.802C135.916 200.203 135.112 200.038 134.721 199.435C134.33 198.832 134.502 198.021 135.105 197.621C146.7 189.942 157.12 180.45 165.865 169.604C166.321 169.04 167.139 168.948 167.696 169.4C168.251 169.852 168.334 170.675 167.878 171.241Z" fill="#100F0D"/>
<path d="M162.758 168.972C151.358 159.787 137.201 154.06 122.594 152.725C121.882 152.661 121.359 152.024 121.434 151.304C121.506 150.583 122.144 150.053 122.859 150.118C137.979 151.504 152.595 157.414 164.398 166.92C164.957 167.37 165.043 168.193 164.59 168.759C164.136 169.327 163.318 169.422 162.758 168.972Z" fill="#100F0D"/>
<path d="M59.5415 183.894C53.654 199.048 40.5503 211.16 25.0566 215.769L22.7554 216.453L23.4568 214.145C27.7246 200.119 38.8912 188.419 52.6463 183.56C53.3266 183.318 54.0669 183.677 54.2967 184.359C54.5266 185.041 54.1624 185.787 53.4821 186.029C40.5513 190.582 29.9403 201.699 25.9449 214.885L24.7008 214.515L24.3451 213.26C39.0271 208.906 51.5559 197.328 57.1177 182.964C57.3819 182.289 58.1358 181.95 58.8036 182.206C59.4739 182.461 59.8031 183.219 59.5415 183.894Z" fill="#100F0D"/>
<path d="M55.1433 186.622C45.6392 196.481 36.14 206.34 26.636 216.199C26.1318 216.719 25.3091 216.738 24.7959 216.236C24.2827 215.737 24.2751 214.907 24.7769 214.385C34.2809 204.526 43.7825 194.669 53.2866 184.81C53.7884 184.288 54.6135 184.269 55.1267 184.77C55.6375 185.27 55.6475 186.1 55.1433 186.622Z" fill="#100F0D"/>
<path d="M82.8672 174.725C74.3434 163.825 60.5806 157.212 46.7252 157.296C46.3577 157.298 45.9902 157.305 45.6202 157.316L45.5957 156.006L46.7935 155.48C51.5457 166.718 63.7854 174.145 75.9373 174.061C78.5682 174.046 81.1913 173.684 83.7361 172.943C84.4284 172.74 85.1465 173.141 85.3398 173.833C85.5307 174.527 85.1276 175.254 84.4354 175.457C81.6468 176.27 78.7802 176.663 75.9229 176.679C62.7418 176.737 49.6578 168.842 44.3979 156.532L43.6434 154.758L45.5713 154.699C45.9608 154.687 46.3501 154.68 46.7395 154.677C61.4199 154.604 75.8672 161.541 84.918 173.093C85.3603 173.656 85.2585 174.48 84.6938 174.931C84.1267 175.382 83.3095 175.291 82.8672 174.725Z" fill="#100F0D"/>
<path d="M79.8218 174.478C70.4932 167.439 59.5293 162.581 48.0372 160.401C47.3322 160.268 46.8735 159.585 47.0161 158.874C47.1563 158.163 47.8403 157.696 48.5453 157.829C60.4288 160.083 71.7496 165.098 81.3957 172.378C81.9677 172.808 82.0776 173.628 81.6437 174.208C81.2097 174.789 80.3914 174.908 79.8218 174.478Z" fill="#100F0D"/>
<path d="M115.163 173.836C111.149 188.625 99.7097 201.152 85.395 206.426L83.9928 206.94L83.687 205.48C83.3051 203.66 83.1254 201.804 83.1356 199.95C83.1723 193.71 85.3481 187.469 89.3441 182.61C94.4058 176.474 102.175 172.779 110.051 172.731L110.647 172.735C111.365 172.746 111.931 173.342 111.91 174.065C111.891 174.788 111.292 175.364 110.574 175.351L110.036 175.349C102.964 175.381 95.8705 178.756 91.3404 184.269C87.7536 188.622 85.7658 194.298 85.7373 199.936C85.7281 201.611 85.8918 203.281 86.2333 204.912L84.9589 205.196L84.5251 203.967C98.0057 199.018 108.894 187.097 112.652 173.174C112.841 172.475 113.556 172.057 114.251 172.24C114.944 172.422 115.351 173.137 115.163 173.836Z" fill="#100F0D"/>
<path d="M111.279 175.457C100.117 183.307 91.0379 194.181 85.2823 206.586C84.9769 207.244 84.2015 207.535 83.5509 207.234C82.9003 206.934 82.6222 206.157 82.9276 205.499C88.8826 192.664 98.2579 181.442 109.804 173.318C110.395 172.9 111.207 173.043 111.613 173.633C112.021 174.226 111.871 175.043 111.279 175.457Z" fill="#100F0D"/>
<path d="M111.396 173.319C110.43 166.182 106.564 159.655 101.117 154.931C95.6717 150.207 88.6712 147.314 81.516 147.356C81.2799 147.357 81.0414 147.363 80.8053 147.369L80.7784 146.062L81.9786 145.546C87.2242 158.226 98.7056 168.133 111.971 171.435C112.666 171.607 113.083 172.318 112.904 173.019C112.725 173.721 112.014 174.151 111.319 173.976C97.2326 170.453 85.1627 160.037 79.5757 146.575L78.8456 144.814L80.7515 144.754C81.0095 144.745 81.2699 144.739 81.5303 144.738C89.3962 144.699 96.9575 147.851 102.829 152.94C108.698 158.031 112.903 165.084 113.975 172.937C114.071 173.652 113.573 174.316 112.862 174.423C112.151 174.53 111.494 174.034 111.396 173.319Z" fill="#100F0D"/>
<path d="M110.862 170.718C101.792 162.625 92.7226 154.529 83.6529 146.433C83.1177 145.956 83.0735 145.128 83.5535 144.587C84.0335 144.043 84.8564 143.989 85.3916 144.466C94.4614 152.562 103.531 160.656 112.601 168.749C113.136 169.226 113.18 170.054 112.7 170.598C112.22 171.142 111.397 171.195 110.862 170.718Z" fill="#100F0D"/>
<path d="M114.541 171.263C115.463 170.107 116.838 169.617 118.113 169.62C119.832 169.623 121.529 170.363 122.68 171.711C124.517 173.934 124.75 176.759 124.839 179.174C124.862 179.913 124.872 180.65 124.868 181.388C124.817 190.727 122.621 200.068 118.482 208.477L117.911 209.633L116.758 209.094C109.546 205.702 104.431 198.415 103.65 190.417C103.581 189.698 104.106 189.053 104.822 188.976C105.535 188.896 106.172 189.417 106.241 190.136C106.906 197.174 111.523 203.754 117.876 206.717L117.317 207.905L116.152 207.334C120.112 199.293 122.217 190.339 122.266 181.402C122.27 180.697 122.262 179.991 122.239 179.286C122.179 176.987 121.86 174.779 120.684 173.412C120.114 172.71 119.014 172.218 118.099 172.238C117.408 172.249 116.903 172.468 116.56 172.893C116.106 173.459 115.288 173.554 114.731 173.104C114.171 172.654 114.088 171.829 114.541 171.263Z" fill="#100F0D"/>
<path d="M117.285 206.553C113.598 198.604 111.733 189.817 111.782 181.017C111.803 177.115 112.202 173.209 112.985 169.374C113.13 168.665 113.818 168.201 114.521 168.339C115.226 168.477 115.677 169.165 115.532 169.874C114.785 173.537 114.404 177.27 114.383 181.002C114.337 189.42 116.124 197.836 119.645 205.426C119.948 206.078 119.666 206.859 119.015 207.171C118.363 207.483 117.588 207.206 117.285 206.553Z" fill="#100F0D"/>
<path d="M54.7578 184.16C49.6363 173.704 38.1219 166.716 26.503 166.795C25.79 166.799 25.0767 166.83 24.3633 166.887L24.2756 165.582L25.5261 165.208C28.5939 176.056 39.3372 184.312 50.5776 184.455C51.2955 184.466 51.8617 185.06 51.8431 185.783C51.8246 186.506 51.2275 187.085 50.5096 187.074C38.0552 186.861 26.4758 177.966 23.025 165.954L22.5833 164.404L24.1854 164.277C24.9621 164.214 25.741 164.181 26.5174 164.176C39.1656 164.121 51.4708 171.582 57.0934 182.979C57.4111 183.624 57.1439 184.412 56.4996 184.738C55.8553 185.065 55.0755 184.805 54.7578 184.16Z" fill="#100F0D"/>
<path d="M54.6254 184.401C45.8018 178.91 36.9758 173.414 28.1497 167.92C27.5434 167.541 27.3604 166.736 27.7434 166.119C28.1265 165.502 28.9282 165.312 29.5369 165.688C38.363 171.182 47.1866 176.678 56.0127 182.172C56.6214 182.548 56.802 183.356 56.4214 183.972C56.0384 184.587 55.2342 184.78 54.6254 184.401Z" fill="#100F0D"/>
<path d="M177.575 184.876L177.971 184.901L177.572 184.903L177.575 184.876L177.971 184.901L177.572 184.903L178.086 184.9L177.791 185.338L177.572 184.903L178.086 184.9L177.791 185.338L177.909 185.161L177.823 185.355L177.791 185.338L177.909 185.161L177.823 185.355L177.808 185.353L177.75 185.348L177.679 185.356L177.677 185.358L177.552 185.043L177.807 185.247L177.677 185.358L177.552 185.043L177.807 185.247L177.382 184.904L177.933 184.901L177.807 185.247L177.382 184.904L177.933 184.901L177.344 184.904L177.93 184.855L177.933 184.901L177.344 184.904L177.93 184.855C177.982 185.577 177.446 186.209 176.728 186.27C176.012 186.332 175.389 185.797 175.335 185.077L175.331 184.916C175.318 184.181 175.767 183.493 176.26 183.181C176.754 182.848 177.265 182.737 177.764 182.73C178.263 182.732 178.774 182.837 179.264 183.165C179.754 183.471 180.198 184.154 180.174 184.889L180.171 185.036C180.118 185.756 179.495 186.306 178.779 186.263C178.062 186.218 177.522 185.599 177.575 184.876Z" fill="#100F0D"/>
<path d="M124.154 166.949C123.735 166.579 123.311 166.204 122.887 165.829C122.352 165.355 122.305 164.527 122.783 163.983C123.261 163.437 124.083 163.381 124.619 163.858C125.038 164.228 125.462 164.603 125.885 164.978C126.421 165.452 126.467 166.28 125.99 166.824C125.512 167.368 124.689 167.426 124.154 166.949Z" fill="#100F0D"/>
<path d="M116.247 154.825C115.995 154.702 115.733 154.493 115.55 154.207C115.366 153.924 115.286 153.584 115.29 153.295C115.323 152.545 115.654 152.137 115.982 151.795C116.336 151.477 116.742 151.178 117.453 151.15C117.745 151.146 118.102 151.23 118.403 151.439C118.706 151.643 118.916 151.945 119.026 152.231C119.298 152.898 118.975 153.664 118.309 153.942C117.643 154.22 116.885 153.903 116.616 153.236L117.397 152.911L116.921 153.607L116.614 153.236L117.397 152.911L116.921 153.607L117.443 152.842L117.438 153.768L116.921 153.607L117.443 152.842L117.438 153.768L117.441 153.325L117.775 153.673C117.753 153.671 117.772 153.742 117.438 153.768L117.441 153.325L117.775 153.673L117.402 153.283L117.891 153.281C117.862 153.661 117.77 153.656 117.775 153.673L117.402 153.283L117.891 153.281L116.962 153.286L117.746 152.777L117.891 153.281L116.962 153.286L117.746 152.777L117.05 153.232L117.426 152.48L117.746 152.777L117.05 153.232L117.426 152.48C118.067 152.8 118.323 153.585 117.998 154.233C117.671 154.881 116.888 155.148 116.247 154.825Z" fill="#100F0D"/>
<path d="M117.884 158.629C118.228 158.627 118.56 158.765 118.802 159.009C119.044 159.25 119.181 159.587 119.179 159.932C119.177 160.278 119.037 160.614 118.792 160.86C118.547 161.104 118.213 161.246 117.87 161.248C117.527 161.249 117.194 161.112 116.952 160.871C116.713 160.627 116.576 160.292 116.578 159.947C116.579 159.601 116.72 159.263 116.962 159.019C117.207 158.773 117.541 158.631 117.884 158.629Z" fill="#100F0D"/>
<path d="M63.6724 198.774C64.0132 198.773 64.3483 198.91 64.5879 199.151C64.8299 199.395 64.9668 199.732 64.9649 200.075C64.963 200.421 64.8224 200.759 64.5777 201.003C64.3354 201.249 63.9988 201.391 63.6581 201.393C63.3149 201.395 62.9798 201.257 62.7402 201.013C62.4982 200.772 62.3613 200.435 62.3632 200.09C62.3651 199.747 62.5057 199.408 62.7504 199.162C62.9927 198.918 63.3293 198.776 63.6724 198.774Z" fill="#100F0D"/>
<path d="M67.2025 192.818C67.2069 192.015 67.2113 191.209 67.2157 190.405C67.2197 189.683 67.8045 189.092 68.5225 189.088C69.2404 189.084 69.8214 189.669 69.8174 190.391C69.813 191.194 69.8086 192 69.8042 192.804C69.8002 193.529 69.2128 194.117 68.4949 194.121C67.7769 194.125 67.1985 193.543 67.2025 192.818Z" fill="#100F0D"/>
</svg>
