<svg width="685" height="304" viewBox="0 0 685 304" fill="none" xmlns="http://www.w3.org/2000/svg">
<path fill-rule="evenodd" clip-rule="evenodd" d="M163.718 162.245C161.993 162.325 160.529 160.987 160.451 159.261C160.369 157.537 161.707 156.072 163.431 155.992C208.357 154.047 243.734 149.446 276.765 139.554C309.763 129.666 340.53 114.461 376.286 91.2987C377.735 90.3607 379.677 90.777 380.61 92.2282C381.551 93.6771 381.134 95.6132 379.686 96.553C343.436 120.036 312.175 135.474 278.55 145.543C244.967 155.606 209.136 160.278 163.718 162.245Z" fill="#3D3F41"/>
<path fill-rule="evenodd" clip-rule="evenodd" d="M275.635 140.104C275.25 141.174 274.288 141.994 273.081 142.145C232.789 147.265 204.213 139.786 184.143 124.382C164.1 108.996 152.695 85.8215 146.654 59.4387L146.6 59.2382C146.215 57.5571 147.265 55.8789 148.951 55.4963C253.818 31.6028 280.272 136.373 280.349 136.675C280.793 138.347 279.789 140.055 278.119 140.495C277.237 140.729 276.348 140.561 275.635 140.104ZM272.307 135.933C272.783 135.877 273.245 135.926 273.674 136.066C269.343 121.78 241.252 42.8897 153.425 60.9395C159.314 84.7791 169.92 105.57 187.939 119.403C206.758 133.846 233.829 140.821 272.307 135.933Z" fill="#3D3F41"/>
<path fill-rule="evenodd" clip-rule="evenodd" d="M278.228 136.651C279.074 136.829 279.615 137.659 279.439 138.505C279.254 139.347 278.427 139.885 277.582 139.707C277.37 139.662 202.455 124.201 167.439 74.8606C166.936 74.1559 167.1 73.1784 167.806 72.6787C168.509 72.1785 169.485 72.3414 169.988 73.0432C204.296 121.392 278.02 136.605 278.228 136.651Z" fill="#3D3F41"/>
<path fill-rule="evenodd" clip-rule="evenodd" d="M224.975 139.281C224.13 139.436 223.316 138.875 223.158 138.03C223.007 137.178 223.568 136.364 224.413 136.21L256.1 130.412L258.147 101.292C258.208 100.429 258.955 99.7792 259.815 99.8409C260.676 99.9027 261.329 100.649 261.269 101.512L259.137 131.836C259.086 132.532 258.575 133.131 257.858 133.261L224.975 139.281Z" fill="#3D3F41"/>
<path fill-rule="evenodd" clip-rule="evenodd" d="M199.58 129.513C198.731 129.638 197.936 129.049 197.807 128.197C197.683 127.344 198.273 126.554 199.125 126.426L232.661 121.439L243.214 81.8208C243.44 80.9886 244.29 80.4939 245.128 80.7133C245.959 80.9383 246.457 81.7916 246.235 82.6257L235.417 123.234C235.262 123.815 234.769 124.279 234.138 124.375L199.58 129.513Z" fill="#3D3F41"/>
<path fill-rule="evenodd" clip-rule="evenodd" d="M176.019 111.495C175.164 111.439 174.509 110.7 174.563 109.839C174.612 108.979 175.358 108.326 176.216 108.377L211.269 110.556L225.96 68.1054C226.241 67.2926 227.133 66.8545 227.945 67.1361C228.761 67.4178 229.195 68.3072 228.918 69.1191L213.847 112.66C213.635 113.327 212.992 113.792 212.262 113.747L176.019 111.495Z" fill="#3D3F41"/>
<path fill-rule="evenodd" clip-rule="evenodd" d="M161.254 90.6971C160.413 90.495 159.898 89.6468 160.099 88.8104C160.3 87.9696 161.148 87.4531 161.986 87.6602L188.155 93.9167L197.208 58.3777C197.422 57.5423 198.272 57.0344 199.106 57.2559C199.942 57.4696 200.447 58.3235 200.229 59.1567L190.81 96.1652C190.605 97.004 189.766 97.5215 188.925 97.3196L161.254 90.6971Z" fill="#3D3F41"/>
<path fill-rule="evenodd" clip-rule="evenodd" d="M152.378 69.861C151.568 69.5446 151.177 68.6405 151.489 67.8315C151.804 67.0296 152.714 66.6322 153.52 66.9459L168.106 72.7061L170.281 55.8627C170.396 55.003 171.181 54.3973 172.037 54.5133C172.896 54.6247 173.498 55.4111 173.383 56.2708L170.957 75.069C170.939 75.2038 170.91 75.339 170.858 75.4731C170.543 76.2768 169.633 76.6735 168.831 76.3581L152.378 69.861Z" fill="#3D3F41"/>
<path fill-rule="evenodd" clip-rule="evenodd" d="M252.316 148.208C251.568 147.352 250.379 146.936 249.195 147.229C209.777 157.016 185.832 174.309 172.688 195.927C159.557 217.519 157.296 243.249 161.2 270.035L161.219 270.235C161.466 271.945 163.054 273.131 164.763 272.878C271.184 257.261 257.987 150.012 257.95 149.704C257.755 147.986 256.207 146.749 254.487 146.947C253.586 147.051 252.813 147.528 252.316 148.208ZM250.718 153.301C251.182 153.184 251.596 152.968 251.942 152.685C253.068 167.57 255.383 251.276 166.969 266.188C163.845 241.829 166.219 218.612 178.024 199.2C190.351 178.929 213.074 162.645 250.718 153.301Z" fill="#3D3F41"/>
<path fill-rule="evenodd" clip-rule="evenodd" d="M255.981 150.489C256.703 150.018 256.904 149.05 256.435 148.329C255.965 147.608 254.997 147.403 254.275 147.873C254.089 147.994 189.828 189.479 175.007 248.142C174.793 248.978 175.297 249.828 176.134 250.043C176.97 250.256 177.821 249.753 178.033 248.912C192.559 191.438 255.802 150.609 255.981 150.489Z" fill="#3D3F41"/>
<path fill-rule="evenodd" clip-rule="evenodd" d="M205.376 167.282C204.532 167.44 203.973 168.261 204.134 169.107C204.295 169.951 205.112 170.509 205.96 170.349L237.6 164.305L250.031 190.721C250.398 191.503 251.332 191.837 252.116 191.47C252.895 191.099 253.229 190.167 252.862 189.386L239.919 161.875C239.621 161.25 238.927 160.877 238.211 161.013L205.376 167.282Z" fill="#3D3F41"/>
<path fill-rule="evenodd" clip-rule="evenodd" d="M185.226 185.563C184.387 185.755 183.86 186.594 184.047 187.435C184.241 188.275 185.077 188.8 185.919 188.608L218.986 181.142L243.145 214.265C243.654 214.964 244.632 215.119 245.332 214.609C246.028 214.1 246.181 213.122 245.672 212.427L220.912 178.476C220.55 177.987 219.929 177.731 219.303 177.871L185.226 185.563Z" fill="#3D3F41"/>
<path fill-rule="evenodd" clip-rule="evenodd" d="M169.77 210.882C168.988 211.241 168.645 212.168 169.005 212.953C169.365 213.736 170.292 214.076 171.082 213.715L202.979 199.018L232.011 233.29C232.572 233.951 233.558 234.035 234.214 233.477C234.875 232.92 234.96 231.935 234.399 231.276L204.617 196.126C204.179 195.579 203.413 195.381 202.746 195.687L169.77 210.882Z" fill="#3D3F41"/>
<path fill-rule="evenodd" clip-rule="evenodd" d="M163.514 235.61C162.805 236.1 162.629 237.076 163.122 237.784C163.612 238.496 164.587 238.67 165.296 238.179L187.437 222.887L208.717 252.756C209.219 253.454 210.195 253.619 210.897 253.117C211.599 252.614 211.758 251.634 211.256 250.934L189.097 219.83C188.606 219.117 187.631 218.944 186.923 219.438L163.514 235.61Z" fill="#3D3F41"/>
<path fill-rule="evenodd" clip-rule="evenodd" d="M162.766 258.246C162.127 258.828 162.087 259.822 162.674 260.454C163.26 261.092 164.249 261.131 164.886 260.547L176.402 249.908L184.521 264.83C184.939 265.588 185.885 265.867 186.645 265.453C187.404 265.035 187.684 264.088 187.269 263.33L178.21 246.676C178.147 246.554 178.069 246.437 177.97 246.336C177.388 245.698 176.395 245.657 175.761 246.243L162.766 258.246Z" fill="#3D3F41"/>
<path fill-rule="evenodd" clip-rule="evenodd" d="M103.135 229.031C101.576 229.771 99.7108 229.111 98.967 227.552C98.2271 225.994 98.8884 224.123 100.448 223.383C101.203 223.023 102.565 222.691 104.537 222.218C115.408 219.599 147.922 211.774 156.892 179.82C157.189 178.754 157.459 177.727 157.684 176.748C161.87 158.918 159.023 141.117 151.918 126.874C144.9 112.811 133.763 102.282 121.249 98.7662C120.722 98.6195 120.232 98.4934 119.789 98.3897C117.631 97.8814 115.46 97.8113 113.422 98.1551C110.907 98.5787 108.611 99.6315 106.792 101.265C104.975 102.903 103.607 105.147 102.949 107.961C102.412 110.253 102.337 112.936 102.854 115.998C103.142 117.702 101.999 119.32 100.295 119.606C98.589 119.899 96.9737 118.753 96.6821 117.049C96.0269 113.143 96.1449 109.631 96.8652 106.548C97.837 102.414 99.8842 99.0846 102.611 96.6299C105.339 94.1679 108.722 92.6019 112.372 91.9867C115.202 91.5102 118.213 91.6055 121.203 92.3108C121.825 92.456 122.403 92.6053 122.929 92.752C137.185 96.7518 149.736 108.492 157.521 124.099C165.221 139.532 168.303 158.824 163.765 178.161C163.492 179.321 163.208 180.436 162.906 181.502C152.948 216.985 117.757 225.46 105.991 228.289C104.441 228.663 103.374 228.919 103.135 229.031Z" fill="#3D3F41"/>
<path fill-rule="evenodd" clip-rule="evenodd" d="M103.95 225.153C104.486 226.797 103.595 228.568 101.951 229.106C100.304 229.648 98.5326 228.751 97.9929 227.109C96.0684 221.287 95.0023 215.762 94.6835 210.534C93.7599 195.373 99.0483 182.831 107.653 173.056C116.128 163.43 127.816 156.54 139.865 152.547C146.66 150.296 153.591 148.954 160.133 148.555C161.862 148.447 163.349 149.758 163.455 151.487C163.561 153.212 162.248 154.698 160.523 154.805C154.502 155.175 148.108 156.416 141.82 158.498C130.74 162.171 120.038 168.456 112.346 177.195C104.78 185.79 100.123 196.823 100.934 210.145C101.22 214.85 102.192 219.853 103.95 225.153Z" fill="#3D3F41"/>
<path fill-rule="evenodd" clip-rule="evenodd" d="M63.902 170.235C63.9258 170.238 63.9534 170.241 63.9301 170.24L63.902 170.235ZM63.8227 130.616C64.3151 131.938 64.7549 133.379 65.1544 134.684C65.4265 135.57 65.6775 136.407 65.8362 136.884C67.9244 143.16 69.3347 152.232 68.6129 159.677C68.1237 164.739 66.6996 168.876 63.8768 170.227C63.7338 170.18 63.4915 169.978 63.1831 169.658C62.5498 168.998 61.9132 167.997 61.3139 166.749C59.2538 162.44 57.9677 155.864 58.4373 149.855C58.766 145.626 60.0596 139.613 62.2057 134.204C62.7042 132.957 63.2476 131.749 63.8227 130.616ZM69.8827 116.844C83.0086 113.217 100.142 113.247 116.117 120.238C129.053 125.901 141.228 136.083 149.906 152.529C150.711 154.057 150.121 155.951 148.59 156.754C147.057 157.562 145.164 156.972 144.355 155.442C136.422 140.399 125.349 131.109 113.613 125.976C103.037 121.348 91.9233 120.066 82.0593 120.973C89.4878 127.116 93.0915 138.059 93.6796 150.035C94.0472 157.536 93.2488 165.454 91.4799 172.8C89.7004 180.208 86.9168 187.104 83.3417 192.464C80.7135 196.403 77.655 199.538 74.2283 201.528C75.0015 201.635 75.789 201.724 76.5726 201.799C83.4819 202.424 90.5718 201.603 94.9712 199.005C96.4559 198.13 98.3753 198.62 99.2501 200.109C100.131 201.594 99.6358 203.511 98.1482 204.389C92.5815 207.672 84.0924 208.755 76.0264 208.023C68.7314 207.362 61.6188 205.191 57.1307 201.803C56.7346 201.599 56.3318 201.384 55.9271 201.148C55.1554 200.703 54.3953 200.172 53.6441 199.559C46.216 193.475 42.243 180.266 41.4233 166.523C40.6113 152.996 42.8054 138.716 47.7109 130.244C48.3612 129.12 49.0861 128.059 49.8814 127.089C55.5924 120.106 59.9956 118.796 63.491 120.385C65.39 118.564 67.5196 117.304 69.8827 116.844ZM70.6341 123.128L70.4229 123.185C69.5835 123.489 68.7619 124.031 67.9739 124.757C69.4188 127.228 70.3414 130.256 71.1392 132.875C71.3311 133.505 71.5211 134.114 71.7931 134.929C74.0963 141.878 75.6536 151.957 74.8503 160.272C74.1597 167.39 71.7147 173.415 66.5625 175.883C65.5523 176.366 64.5088 176.553 63.4587 176.471C61.6947 176.332 60.0904 175.443 58.679 173.985C57.5572 172.82 56.5379 171.264 55.6604 169.436C53.1926 164.278 51.6528 156.47 52.2062 149.384C52.5812 144.612 54.0131 137.884 56.395 131.894C57.0709 130.192 57.8286 128.538 58.6641 126.987C57.6431 127.745 56.3505 129.036 54.7062 131.047C54.1649 131.705 53.635 132.491 53.1206 133.378C48.8271 140.797 46.9304 153.71 47.6734 166.135C48.4097 178.348 51.6473 189.858 57.6029 194.729L58.0351 195.067C58.7074 195.142 59.366 195.438 59.8842 195.954C60.0559 196.122 60.238 196.286 60.4241 196.451C60.7659 196.609 61.1037 196.753 61.4368 196.879C62.1711 197.156 62.8778 197.359 63.5608 197.488L63.9824 197.558C69.3661 198.361 74.2425 194.836 78.1323 189.003C81.2888 184.272 83.769 178.077 85.3903 171.34C87.0299 164.527 87.773 157.219 87.4358 150.347C86.8194 137.836 82.6858 126.806 73.8822 123.307C73.3105 123.078 72.7776 122.951 72.2918 122.913C71.9083 122.886 71.5197 122.91 71.1435 122.981L70.6341 123.128Z" fill="#3D3F41"/>
<path fill-rule="evenodd" clip-rule="evenodd" d="M44.848 157.898C46.3425 158.765 46.8512 160.677 45.9856 162.173C45.1189 163.664 43.2026 164.173 41.7091 163.311C37.8572 161.065 34.2913 157.924 31.3256 154.203C27.2885 149.132 24.3557 142.955 23.3349 136.496C22.2941 129.905 23.2163 123.007 26.9345 116.635C28.9108 113.228 31.6887 109.99 35.3823 107.049C44.9483 99.4304 57.9663 94.9284 70.4484 93.4817C83.8655 91.9299 96.8584 93.9221 104.567 99.3781C105.974 100.376 106.305 102.325 105.308 103.732C104.311 105.138 102.359 105.471 100.951 104.472C94.5215 99.9218 83.1626 98.3144 71.1787 99.7013C59.7233 101.028 47.8584 105.093 39.2691 111.931C36.2243 114.358 33.9451 117.008 32.3368 119.769C29.4162 124.794 28.6909 130.264 29.5235 135.519C30.3755 140.905 32.8247 146.064 36.2124 150.315C38.6911 153.422 41.653 156.042 44.848 157.898Z" fill="#3D3F41"/>
<path fill-rule="evenodd" clip-rule="evenodd" d="M40.5952 160.842C41.5522 159.401 43.4923 159.009 44.9339 159.964C46.3683 160.921 46.7613 162.86 45.8035 164.298C40.15 172.827 36.6982 179.378 35.2676 185.939C33.8751 192.327 34.3663 198.944 36.5601 207.69C40.6735 214.836 48.4391 220.002 58.9822 222.059C69.1747 224.054 81.9198 223.145 96.4958 218.371C98.1405 217.836 99.9048 218.735 100.439 220.383C100.971 222.029 100.071 223.794 98.425 224.325C82.8161 229.44 68.9893 230.379 57.7848 228.188C45.1923 225.728 35.8653 219.316 30.9041 210.381C30.7781 210.155 30.6762 209.903 30.6078 209.634C28.0777 199.704 27.5203 192.125 29.1592 184.608C30.7798 177.167 34.5167 170.005 40.5952 160.842Z" fill="#3D3F41"/>
<path fill-rule="evenodd" clip-rule="evenodd" d="M112.353 204.93C112.068 205.743 111.179 206.176 110.362 205.89C109.549 205.606 109.114 204.714 109.402 203.899C113.637 191.721 120.287 182.716 127.49 176.175C137.863 166.768 149.4 162.467 156.546 161.17L168.31 159.032C169.163 158.88 169.977 159.441 170.132 160.29C170.286 161.138 169.722 161.956 168.873 162.109L157.105 164.245C150.366 165.471 139.451 169.545 129.593 178.494C122.735 184.72 116.398 193.306 112.353 204.93Z" fill="#3D3F41"/>
<path fill-rule="evenodd" clip-rule="evenodd" d="M136.2 156.256C136.8 156.878 136.782 157.869 136.16 158.47C135.539 159.071 134.552 159.056 133.948 158.434L131.281 155.656C123.034 147.044 119.267 143.11 108.932 140.84C108.087 140.654 107.554 139.823 107.738 138.979C107.919 138.136 108.755 137.602 109.598 137.783C120.882 140.261 124.853 144.408 133.541 153.492L136.2 156.256Z" fill="#3D3F41"/>
<path fill-rule="evenodd" clip-rule="evenodd" d="M95.8858 140.097C95.0228 140.155 94.2769 139.505 94.2181 138.641C94.1572 137.784 94.8049 137.036 95.667 136.975C96.6914 136.903 97.6015 136.791 98.3553 136.697C100.322 136.447 101.554 136.292 102.346 137.356C102.862 138.049 102.713 139.024 102.018 139.54C101.324 140.058 100.345 139.911 99.8287 139.217C99.5304 138.805 99.6025 139.69 98.749 139.799C97.9548 139.899 96.9967 140.018 95.8858 140.097Z" fill="#3D3F41"/>
<path fill-rule="evenodd" clip-rule="evenodd" d="M38.8897 142.633C38.8986 143.497 38.2017 144.203 37.3435 144.208C36.479 144.218 35.7721 143.528 35.7632 142.664C35.6898 133.984 38.5622 126.775 43.2861 121.062C48.6004 114.632 56.2487 110.124 64.6344 107.552C80.3289 102.743 96.5419 107.602 96.5876 107.615C97.4126 107.859 97.8866 108.725 97.6409 109.556C97.4017 110.381 96.5297 110.85 95.7058 110.611C95.6632 110.595 80.3545 106.004 65.5435 110.545C57.704 112.95 50.5889 117.127 45.6891 123.057C41.4198 128.217 38.8255 134.746 38.8897 142.633Z" fill="#3D3F41"/>
<path fill-rule="evenodd" clip-rule="evenodd" d="M154.895 149.758C155.017 150.612 154.423 151.403 153.574 151.53C152.721 151.653 151.93 151.063 151.804 150.209C150.435 140.601 145.038 130.742 138.428 122.829C131.021 113.971 122.187 107.625 115.885 106.918C115.028 106.827 114.414 106.053 114.503 105.198C114.596 104.341 115.366 103.722 116.224 103.816C123.305 104.61 132.943 111.395 140.832 120.829C147.773 129.133 153.439 139.538 154.895 149.758Z" fill="#3D3F41"/>
<path fill-rule="evenodd" clip-rule="evenodd" d="M96.8308 208.309C97.6796 208.169 98.4864 208.745 98.6299 209.596C98.7705 210.45 98.1948 211.252 97.3436 211.397C83.4002 213.677 69.9284 212.418 59.4652 208.253C49.0842 204.123 41.6046 197.131 39.3813 187.86C39.1838 187.023 39.6975 186.176 40.5445 185.972C41.3814 185.773 42.2297 186.289 42.429 187.133C44.3933 195.338 51.1756 201.589 60.6201 205.346C70.5806 209.31 83.4537 210.497 96.8308 208.309Z" fill="#3D3F41"/>
<path fill-rule="evenodd" clip-rule="evenodd" d="M521.006 162.245C522.73 162.325 524.194 160.987 524.272 159.261C524.355 157.537 523.016 156.072 521.292 155.992C476.366 154.047 440.989 149.446 407.958 139.554C374.96 129.666 344.193 114.461 308.437 91.2987C306.988 90.3607 305.046 90.777 304.113 92.2282C303.172 93.6771 303.589 95.6132 305.037 96.553C341.287 120.036 372.549 135.474 406.173 145.543C439.757 155.606 475.587 160.278 521.006 162.245Z" fill="#3D3F41"/>
<path fill-rule="evenodd" clip-rule="evenodd" d="M409.088 140.104C409.473 141.174 410.435 141.994 411.642 142.145C451.934 147.265 480.51 139.786 500.581 124.382C520.623 108.996 532.029 85.8215 538.07 59.4387L538.123 59.2382C538.508 57.5571 537.458 55.8789 535.772 55.4963C430.905 31.6028 404.451 136.373 404.374 136.675C403.93 138.347 404.934 140.055 406.605 140.495C407.486 140.729 408.375 140.561 409.088 140.104ZM412.416 135.933C411.94 135.877 411.478 135.926 411.049 136.066C415.38 121.78 443.471 42.8897 531.298 60.9395C525.409 84.7791 514.803 105.57 496.784 119.403C477.965 133.846 450.894 140.821 412.416 135.933Z" fill="#3D3F41"/>
<path fill-rule="evenodd" clip-rule="evenodd" d="M406.495 136.651C405.649 136.829 405.108 137.659 405.284 138.505C405.469 139.347 406.296 139.885 407.142 139.707C407.353 139.662 482.268 124.201 517.284 74.8606C517.787 74.1559 517.623 73.1784 516.917 72.6787C516.214 72.1785 515.238 72.3414 514.736 73.0432C480.427 121.392 406.703 136.605 406.495 136.651Z" fill="#3D3F41"/>
<path fill-rule="evenodd" clip-rule="evenodd" d="M459.748 139.281C460.593 139.436 461.408 138.875 461.565 138.03C461.716 137.178 461.156 136.364 460.311 136.21L428.623 130.412L426.576 101.292C426.515 100.429 425.769 99.7792 424.908 99.8409C424.047 99.9027 423.394 100.649 423.455 101.512L425.586 131.836C425.637 132.532 426.148 133.131 426.866 133.261L459.748 139.281Z" fill="#3D3F41"/>
<path fill-rule="evenodd" clip-rule="evenodd" d="M485.143 129.513C485.992 129.638 486.787 129.049 486.916 128.197C487.041 127.344 486.45 126.554 485.598 126.426L452.063 121.439L441.509 81.8208C441.283 80.9886 440.433 80.4939 439.595 80.7133C438.764 80.9383 438.267 81.7916 438.488 82.6257L449.306 123.234C449.461 123.815 449.955 124.279 450.585 124.375L485.143 129.513Z" fill="#3D3F41"/>
<path fill-rule="evenodd" clip-rule="evenodd" d="M508.704 111.495C509.559 111.439 510.214 110.7 510.16 109.839C510.111 108.979 509.365 108.326 508.507 108.377L473.454 110.556L458.763 68.1054C458.482 67.2926 457.59 66.8545 456.778 67.1361C455.962 67.4178 455.528 68.3072 455.805 69.1191L470.876 112.66C471.089 113.327 471.731 113.792 472.461 113.747L508.704 111.495Z" fill="#3D3F41"/>
<path fill-rule="evenodd" clip-rule="evenodd" d="M523.47 90.6971C524.31 90.495 524.825 89.6468 524.624 88.8104C524.423 87.9696 523.575 87.4531 522.737 87.6602L496.568 93.9167L487.515 58.3777C487.302 57.5423 486.452 57.0344 485.617 57.2559C484.781 57.4696 484.276 58.3235 484.494 59.1567L493.913 96.1652C494.118 97.004 494.958 97.5215 495.798 97.3196L523.47 90.6971Z" fill="#3D3F41"/>
<path fill-rule="evenodd" clip-rule="evenodd" d="M532.345 69.861C533.155 69.5446 533.547 68.6405 533.234 67.8315C532.919 67.0296 532.009 66.6322 531.203 66.9459L516.618 72.7061L514.443 55.8627C514.328 55.003 513.542 54.3973 512.686 54.5133C511.827 54.6247 511.225 55.4112 511.34 56.2708L513.767 75.069C513.784 75.2038 513.813 75.339 513.865 75.4731C514.18 76.2768 515.09 76.6735 515.892 76.3581L532.345 69.861Z" fill="#3D3F41"/>
<path fill-rule="evenodd" clip-rule="evenodd" d="M432.408 148.208C433.155 147.352 434.345 146.936 435.529 147.229C474.946 157.016 498.891 174.309 512.035 195.927C525.166 217.519 527.427 243.249 523.523 270.035L523.504 270.235C523.257 271.945 521.669 273.131 519.96 272.878C413.54 257.261 426.736 150.012 426.773 149.704C426.969 147.986 428.516 146.749 430.236 146.947C431.137 147.051 431.911 147.528 432.408 148.208ZM434.005 153.301C433.542 153.184 433.127 152.968 432.781 152.685C431.655 167.57 429.34 251.276 517.755 266.188C520.878 241.829 518.504 218.612 506.699 199.2C494.372 178.929 471.649 162.645 434.005 153.301Z" fill="#3D3F41"/>
<path fill-rule="evenodd" clip-rule="evenodd" d="M428.742 150.489C428.02 150.018 427.819 149.05 428.288 148.329C428.758 147.608 429.726 147.403 430.448 147.873C430.635 147.994 494.895 189.479 509.716 248.142C509.93 248.978 509.426 249.828 508.589 250.043C507.753 250.256 506.902 249.753 506.69 248.912C492.164 191.438 428.921 150.609 428.742 150.489Z" fill="#3D3F41"/>
<path fill-rule="evenodd" clip-rule="evenodd" d="M479.348 167.282C480.191 167.44 480.75 168.261 480.589 169.107C480.428 169.951 479.611 170.509 478.763 170.349L447.123 164.305L434.692 190.721C434.325 191.503 433.391 191.837 432.607 191.47C431.828 191.099 431.494 190.167 431.861 189.386L444.804 161.875C445.102 161.25 445.797 160.877 446.512 161.014L479.348 167.282Z" fill="#3D3F41"/>
<path fill-rule="evenodd" clip-rule="evenodd" d="M499.497 185.563C500.336 185.755 500.863 186.594 500.676 187.435C500.482 188.275 499.647 188.8 498.804 188.608L465.737 181.142L441.578 214.265C441.069 214.964 440.091 215.119 439.391 214.609C438.695 214.1 438.542 213.122 439.051 212.427L463.811 178.476C464.173 177.987 464.794 177.731 465.42 177.871L499.497 185.563Z" fill="#3D3F41"/>
<path fill-rule="evenodd" clip-rule="evenodd" d="M514.953 210.882C515.735 211.241 516.078 212.168 515.718 212.953C515.359 213.736 514.431 214.076 513.641 213.715L481.744 199.018L452.712 233.29C452.151 233.951 451.165 234.035 450.509 233.477C449.848 232.92 449.763 231.935 450.324 231.276L480.106 196.126C480.544 195.579 481.31 195.381 481.977 195.687L514.953 210.882Z" fill="#3D3F41"/>
<path fill-rule="evenodd" clip-rule="evenodd" d="M521.209 235.61C521.918 236.1 522.094 237.076 521.601 237.784C521.111 238.496 520.136 238.67 519.427 238.179L497.286 222.887L476.006 252.756C475.505 253.454 474.528 253.619 473.826 253.117C473.124 252.614 472.965 251.634 473.467 250.934L495.627 219.83C496.117 219.117 497.092 218.944 497.8 219.438L521.209 235.61Z" fill="#3D3F41"/>
<path fill-rule="evenodd" clip-rule="evenodd" d="M521.957 258.246C522.596 258.828 522.636 259.822 522.049 260.454C521.464 261.092 520.475 261.131 519.837 260.547L508.321 249.908L500.202 264.83C499.784 265.588 498.838 265.867 498.078 265.453C497.319 265.035 497.039 264.088 497.454 263.33L506.513 246.676C506.576 246.554 506.654 246.437 506.754 246.336C507.335 245.698 508.329 245.657 508.962 246.243L521.957 258.246Z" fill="#3D3F41"/>
<path fill-rule="evenodd" clip-rule="evenodd" d="M581.588 229.031C583.147 229.771 585.012 229.111 585.756 227.552C586.496 225.994 585.835 224.123 584.276 223.383C583.52 223.023 582.159 222.691 580.187 222.218C569.315 219.599 536.801 211.774 527.831 179.82C527.534 178.754 527.264 177.727 527.039 176.748C522.853 158.918 525.7 141.117 532.805 126.874C539.823 112.811 550.96 102.282 563.475 98.7662C564.001 98.6195 564.492 98.4934 564.934 98.3898C567.092 97.8814 569.264 97.8113 571.301 98.1551C573.816 98.5787 576.113 99.6315 577.931 101.265C579.748 102.903 581.116 105.147 581.774 107.961C582.311 110.253 582.386 112.936 581.869 115.998C581.581 117.702 582.725 119.32 584.428 119.606C586.134 119.899 587.749 118.753 588.041 117.049C588.696 113.143 588.578 109.631 587.858 106.548C586.886 102.414 584.839 99.0846 582.112 96.63C579.384 94.1679 576.001 92.6019 572.352 91.9867C569.521 91.5102 566.51 91.6055 563.52 92.3108C562.898 92.4561 562.32 92.6053 561.794 92.752C547.538 96.7518 534.987 108.492 527.202 124.099C519.502 139.532 516.42 158.824 520.958 178.161C521.231 179.321 521.515 180.436 521.817 181.502C531.775 216.985 566.966 225.46 578.733 228.289C580.282 228.664 581.349 228.919 581.588 229.031Z" fill="#3D3F41"/>
<path fill-rule="evenodd" clip-rule="evenodd" d="M580.773 225.153C580.237 226.797 581.128 228.568 582.772 229.106C584.419 229.648 586.191 228.751 586.73 227.109C588.655 221.287 589.721 215.762 590.04 210.534C590.963 195.373 585.675 182.831 577.07 173.056C568.595 163.43 556.908 156.54 544.858 152.547C538.063 150.296 531.132 148.954 524.59 148.555C522.861 148.447 521.374 149.758 521.268 151.487C521.162 153.212 522.475 154.698 524.2 154.805C530.222 155.175 536.615 156.416 542.903 158.498C553.983 162.171 564.685 168.456 572.378 177.195C579.944 185.79 584.6 196.823 583.789 210.145C583.503 214.85 582.531 219.853 580.773 225.153Z" fill="#3D3F41"/>
<path fill-rule="evenodd" clip-rule="evenodd" d="M620.821 170.235C620.797 170.238 620.77 170.241 620.793 170.24L620.821 170.235ZM620.9 130.616C620.408 131.938 619.968 133.379 619.569 134.684C619.297 135.57 619.046 136.407 618.887 136.884C616.799 143.16 615.388 152.232 616.11 159.677C616.599 164.739 618.024 168.876 620.846 170.227C620.989 170.18 621.232 169.978 621.54 169.658C622.173 168.998 622.81 167.997 623.409 166.749C625.469 162.44 626.755 155.864 626.286 149.855C625.957 145.626 624.664 139.613 622.517 134.204C622.019 132.957 621.476 131.749 620.9 130.616ZM614.84 116.844C601.715 113.217 584.581 113.247 568.607 120.238C555.67 125.901 543.495 136.083 534.817 152.529C534.013 154.057 534.603 155.951 536.133 156.754C537.667 157.562 539.559 156.972 540.368 155.442C548.301 140.399 559.374 131.109 571.11 125.976C581.686 121.348 592.8 120.066 602.664 120.973C595.235 127.116 591.632 138.059 591.044 150.035C590.676 157.536 591.474 165.454 593.243 172.8C595.023 180.208 597.806 187.104 601.381 192.464C604.01 196.403 607.068 199.538 610.495 201.528C609.722 201.635 608.934 201.724 608.151 201.799C601.241 202.424 594.151 201.603 589.752 199.005C588.267 198.13 586.348 198.62 585.473 200.109C584.592 201.594 585.087 203.511 586.575 204.389C592.142 207.672 600.631 208.755 608.697 208.023C615.992 207.362 623.104 205.191 627.592 201.803C627.989 201.599 628.391 201.384 628.796 201.148C629.568 200.703 630.328 200.172 631.079 199.559C638.507 193.475 642.48 180.266 643.3 166.523C644.112 152.996 641.918 138.716 637.012 130.244C636.362 129.12 635.637 128.059 634.842 127.089C629.131 120.106 624.728 118.796 621.232 120.385C619.333 118.564 617.204 117.304 614.84 116.844ZM614.089 123.128L614.3 123.185C615.14 123.489 615.961 124.031 616.749 124.757C615.304 127.228 614.382 130.256 613.584 132.875C613.392 133.505 613.202 134.114 612.93 134.929C610.627 141.878 609.069 151.957 609.873 160.272C610.563 167.39 613.008 173.415 618.161 175.883C619.171 176.366 620.214 176.553 621.264 176.471C623.028 176.332 624.633 175.443 626.044 173.985C627.166 172.82 628.185 171.264 629.063 169.436C631.531 164.278 633.07 156.47 632.517 149.384C632.142 144.612 630.71 137.884 628.328 131.894C627.652 130.192 626.895 128.538 626.059 126.987C627.08 127.745 628.373 129.036 630.017 131.047C630.558 131.705 631.088 132.491 631.603 133.378C635.896 140.797 637.793 153.71 637.05 166.135C636.313 178.348 633.076 189.858 627.12 194.729L626.688 195.067C626.016 195.142 625.357 195.438 624.839 195.954C624.667 196.122 624.485 196.286 624.299 196.451C623.957 196.609 623.619 196.753 623.286 196.879C622.552 197.156 621.845 197.359 621.162 197.488L620.741 197.558C615.357 198.361 610.481 194.836 606.591 189.003C603.434 184.272 600.954 178.077 599.333 171.34C597.693 164.527 596.95 157.219 597.287 150.347C597.904 137.836 602.037 126.806 610.841 123.307C611.413 123.078 611.946 122.951 612.431 122.913C612.815 122.886 613.203 122.91 613.58 122.981L614.089 123.128Z" fill="#3D3F41"/>
<path fill-rule="evenodd" clip-rule="evenodd" d="M639.875 157.898C638.381 158.765 637.872 160.677 638.738 162.173C639.604 163.664 641.521 164.173 643.014 163.311C646.866 161.065 650.432 157.924 653.398 154.203C657.435 149.132 660.367 142.955 661.388 136.496C662.429 129.905 661.507 123.007 657.789 116.635C655.812 113.228 653.034 109.99 649.341 107.049C639.775 99.4304 626.757 94.9284 614.275 93.4817C600.858 91.9299 587.865 93.9221 580.156 99.3781C578.749 100.376 578.418 102.325 579.415 103.732C580.412 105.138 582.364 105.471 583.772 104.472C590.202 99.9218 601.561 98.3144 613.544 99.7013C625 101.028 636.865 105.093 645.454 111.931C648.499 114.358 650.778 117.008 652.386 119.769C655.307 124.794 656.032 130.264 655.2 135.519C654.348 140.905 651.898 146.064 648.511 150.315C646.032 153.422 643.07 156.042 639.875 157.898Z" fill="#3D3F41"/>
<path fill-rule="evenodd" clip-rule="evenodd" d="M644.128 160.842C643.171 159.401 641.231 159.009 639.789 159.964C638.355 160.921 637.962 162.86 638.92 164.298C644.573 172.827 648.025 179.378 649.456 185.939C650.848 192.328 650.357 198.944 648.163 207.69C644.05 214.836 636.284 220.002 625.741 222.059C615.548 224.054 602.803 223.145 588.227 218.371C586.583 217.836 584.818 218.735 584.285 220.383C583.752 222.029 584.652 223.794 586.298 224.325C601.907 229.44 615.734 230.379 626.938 228.188C639.531 225.728 648.858 219.316 653.819 210.381C653.945 210.155 654.047 209.903 654.115 209.634C656.645 199.704 657.203 192.125 655.564 184.608C653.943 177.167 650.206 170.005 644.128 160.842Z" fill="#3D3F41"/>
<path fill-rule="evenodd" clip-rule="evenodd" d="M572.37 204.93C572.655 205.743 573.544 206.177 574.361 205.891C575.174 205.606 575.609 204.714 575.321 203.899C571.086 191.721 564.436 182.716 557.233 176.175C546.861 166.768 535.324 162.467 528.177 161.17L516.414 159.032C515.56 158.88 514.746 159.441 514.592 160.29C514.437 161.138 515.001 161.956 515.85 162.109L527.618 164.245C534.358 165.471 545.272 169.545 555.13 178.494C561.988 184.72 568.325 193.306 572.37 204.93Z" fill="#3D3F41"/>
<path fill-rule="evenodd" clip-rule="evenodd" d="M548.523 156.256C547.923 156.878 547.941 157.869 548.563 158.47C549.184 159.072 550.171 159.056 550.775 158.434L553.442 155.656C561.689 147.044 565.456 143.11 575.792 140.84C576.636 140.654 577.169 139.823 576.985 138.979C576.804 138.136 575.969 137.602 575.126 137.783C563.841 140.261 559.871 144.408 551.182 153.492L548.523 156.256Z" fill="#3D3F41"/>
<path fill-rule="evenodd" clip-rule="evenodd" d="M588.837 140.097C589.7 140.155 590.446 139.505 590.505 138.641C590.566 137.784 589.918 137.036 589.056 136.975C588.032 136.903 587.122 136.791 586.368 136.697C584.401 136.447 583.169 136.292 582.377 137.356C581.861 138.049 582.011 139.024 582.705 139.54C583.399 140.058 584.379 139.911 584.894 139.217C585.193 138.805 585.121 139.69 585.974 139.799C586.768 139.899 587.726 140.018 588.837 140.097Z" fill="#3D3F41"/>
<path fill-rule="evenodd" clip-rule="evenodd" d="M645.833 142.633C645.825 143.497 646.521 144.203 647.38 144.208C648.244 144.218 648.951 143.528 648.96 142.664C649.033 133.984 646.161 126.775 641.437 121.062C636.123 114.632 628.474 110.124 620.089 107.552C604.394 102.743 588.181 107.602 588.136 107.615C587.311 107.859 586.837 108.725 587.082 109.556C587.321 110.381 588.193 110.85 589.017 110.611C589.06 110.595 604.369 106.004 619.18 110.545C627.019 112.95 634.134 117.127 639.034 123.057C643.303 128.217 645.898 134.746 645.833 142.633Z" fill="#3D3F41"/>
<path fill-rule="evenodd" clip-rule="evenodd" d="M529.828 149.758C529.706 150.612 530.3 151.403 531.149 151.53C532.002 151.653 532.794 151.063 532.919 150.209C534.288 140.601 539.685 130.742 546.295 122.829C553.703 113.971 562.536 107.625 568.838 106.918C569.695 106.827 570.309 106.053 570.22 105.198C570.127 104.341 569.357 103.722 568.499 103.816C561.418 104.61 551.78 111.395 543.892 120.829C536.951 129.133 531.285 139.538 529.828 149.758Z" fill="#3D3F41"/>
<path fill-rule="evenodd" clip-rule="evenodd" d="M587.892 208.309C587.044 208.169 586.237 208.745 586.093 209.596C585.953 210.45 586.528 211.252 587.38 211.397C601.323 213.677 614.795 212.418 625.258 208.253C635.639 204.123 643.119 197.131 645.342 187.86C645.539 187.023 645.026 186.176 644.179 185.972C643.342 185.773 642.493 186.289 642.294 187.133C640.33 195.338 633.548 201.589 624.103 205.346C614.143 209.31 601.269 210.497 587.892 208.309Z" fill="#3D3F41"/>
</svg>
