<svg width="959" height="307" viewBox="0 0 959 307" fill="none" xmlns="http://www.w3.org/2000/svg">
<path fill-rule="evenodd" clip-rule="evenodd" d="M943.385 70.8784C942.981 70.6502 942.623 70.4422 943.128 70.7554L943.218 70.8158C943.283 70.8494 943.338 70.8717 943.385 70.8784ZM927.759 79.563C929.117 83.9366 930.457 88.252 931.166 91.4288C936.737 87.6972 946.629 78.827 951.947 72.1246C953.403 70.2879 954.479 68.6614 954.963 67.4243C955.144 66.9679 955.504 66.8404 955.399 66.78C955.079 66.601 954.283 66.6234 952.911 66.8985C952.321 67.0171 949.054 69.5473 946.551 71.4891C945.423 72.3639 944.406 73.1514 943.517 73.6436C942.913 74.2946 941.916 74.4489 941.133 73.9634C940.126 73.3348 940.173 72.4399 940.253 70.9992C940.39 68.4824 940.723 62.4243 938.392 59.7755C936.05 61.6816 936.535 68.8001 936.699 71.1446C936.804 72.6815 936.862 73.6099 935.343 73.9589L935.213 73.9903C934.07 74.2185 933.061 73.2073 931.589 71.7331C929.54 69.6838 926.115 66.2521 923.764 65.1671C924.153 67.9456 925.976 73.8114 927.759 79.563ZM927.882 94.6032C927.656 91.9545 925.92 86.3638 924.153 80.6703C921.717 72.8225 919.22 64.7801 920.294 62.2387C920.558 61.6056 921.13 61.1961 921.764 61.1044V61.0999C925.142 60.6077 929.654 64.5586 932.781 67.6033C932.793 63.1291 933.591 56.9411 938.211 55.7218C938.799 55.5652 939.399 55.7107 939.849 56.0552C943.685 58.7353 944.173 64.6324 944.121 68.6122L944.247 68.5027C947.048 66.3326 950.701 63.4981 952.171 63.2051C954.5 62.7375 956.155 62.8717 957.247 63.4869C959.144 64.554 959.412 66.4153 958.479 68.8001C957.851 70.4064 956.58 72.3572 954.902 74.4735C948.511 82.5317 935.589 93.6882 930.596 96.1424C929.661 96.5987 928.531 96.2095 928.075 95.2766C927.967 95.0596 927.907 94.8314 927.889 94.6032H927.882Z" fill="#3D3F41"/>
<path fill-rule="evenodd" clip-rule="evenodd" d="M837.616 101.442C836.952 102.245 835.759 102.359 834.956 101.693C834.153 101.028 834.039 99.8381 834.703 99.0327C848.07 82.8784 849.017 73.1267 850.556 57.2028C851.453 47.9143 852.549 36.5898 856.269 20.9165C859.361 7.88745 862.558 3.34164 865.648 4.07542C870.909 5.32374 873.733 28.836 875.12 45.5272C877.768 33.1067 882.46 19.7085 889.392 30.1C893.925 36.8942 895.193 46.1044 895.33 53.6413C897.211 50.0463 899.567 47.3438 902.175 48.355C904.01 49.0664 906.021 54.818 906.354 62.6928C906.596 68.3684 906.146 75.3281 904.395 82.375C902.63 89.4802 899.536 96.6927 894.493 102.807C885.871 113.268 871.645 120.471 848.793 118.397C847.757 118.306 846.992 117.388 847.086 116.353C847.178 115.315 848.095 114.552 849.133 114.646C870.502 116.583 883.679 109.997 891.583 100.413C896.225 94.7799 899.084 88.0909 900.73 81.4757C902.39 74.8001 902.813 68.2096 902.587 62.8404C902.316 56.4736 901.484 52.1313 900.818 51.874C898.464 50.9635 894.748 65.9209 894.437 67.1871C894.247 68.1916 893.287 68.8628 892.272 68.695C891.245 68.525 890.551 67.5496 890.721 66.5227C890.732 66.4601 894.5 44.5563 886.258 32.1984C880.625 23.7577 876.455 60.2431 876.252 62.0641C876.189 62.9836 875.462 63.7442 874.515 63.818C873.473 63.8985 872.565 63.1223 872.482 62.082L872.354 60.0261C871.755 50.1201 869.263 8.81819 864.775 7.75555C863.916 7.54974 862.413 11.4177 859.95 21.7891C856.272 37.2902 855.193 48.4243 854.312 57.5563C852.699 74.2095 851.712 84.4063 837.616 101.442Z" fill="#3D3F41"/>
<path fill-rule="evenodd" clip-rule="evenodd" d="M833.873 86.2519C833.746 87.2877 832.802 88.026 831.766 87.9007C830.73 87.7732 829.992 86.8313 830.12 85.7955C831.064 78.2161 830.075 71.2698 828.813 62.4175C827.502 53.2139 825.903 41.9902 825.824 25.809C825.759 12.4176 827.766 7.24312 830.905 7.2297C838.017 7.19614 850.012 46.3191 853.547 57.8582L853.889 58.9745C854.196 59.97 853.636 61.026 852.639 61.3303C851.643 61.639 850.587 61.0797 850.283 60.0819L849.938 58.9656C846.589 48.0372 835.229 10.9792 830.918 10.9993C830.073 11.0015 829.54 15.12 829.594 25.7956C829.67 41.6546 831.254 52.771 832.554 61.8873C833.856 71.0282 834.876 78.2027 833.873 86.2519Z" fill="#3D3F41"/>
<path fill-rule="evenodd" clip-rule="evenodd" d="M891.54 154.442C891.893 154.824 891.876 155.419 891.493 155.775C891.113 156.131 890.513 156.109 890.16 155.728C876.03 140.529 862.976 132.449 848.936 129.048C834.873 125.643 819.746 126.914 801.52 130.424C801.006 130.522 800.511 130.187 800.415 129.675C800.316 129.162 800.65 128.668 801.164 128.569C819.636 125.012 834.999 123.733 849.379 127.216C863.788 130.704 877.14 138.952 891.54 154.442Z" fill="#3D3F41"/>
<path fill-rule="evenodd" clip-rule="evenodd" d="M792.223 99.9701C793.171 99.5406 794.29 99.9657 794.719 100.914C795.146 101.867 794.724 102.986 793.773 103.413L785.73 107.06L795.513 110.912C796.486 111.292 796.965 112.388 796.587 113.359C796.207 114.33 795.113 114.809 794.14 114.431L780.231 108.952C779.773 108.782 779.381 108.438 779.167 107.957C778.739 107.006 779.162 105.887 780.113 105.46L792.223 99.9701Z" fill="#3D3F41"/>
<path fill-rule="evenodd" clip-rule="evenodd" d="M803.135 91.3794C803.234 90.8671 803.724 90.5293 804.238 90.6255C804.746 90.7217 805.086 91.2138 804.992 91.7261C804.652 93.5203 804.86 94.9947 805.417 95.894C805.638 96.2497 805.909 96.498 806.209 96.6143C806.498 96.7284 806.849 96.7284 807.24 96.5919C808.225 96.2496 809.395 95.1423 810.598 93.0327C810.855 92.5786 811.433 92.4197 811.885 92.6747C812.336 92.932 812.495 93.5091 812.238 93.9633C810.784 96.5114 809.243 97.8895 807.853 98.3728C807.019 98.6636 806.229 98.6457 805.527 98.3728C804.831 98.1021 804.251 97.592 803.813 96.8918C803.023 95.6188 802.708 93.6591 803.135 91.3794Z" fill="#3D3F41"/>
<path fill-rule="evenodd" clip-rule="evenodd" d="M883.479 112.632C882.439 112.646 881.585 111.811 881.573 110.771C881.56 109.731 882.392 108.876 883.435 108.865C893.083 108.728 900.916 107.239 908.057 104.545C915.218 101.843 921.721 97.9141 928.674 92.9186C929.52 92.3101 930.696 92.5025 931.305 93.3481C931.638 93.809 931.73 94.3706 931.609 94.8829L931.614 94.885C927.737 111.153 921.171 127.887 910.75 140.912C902.189 151.614 891.048 159.795 876.696 163.165C842.104 171.285 817.435 156.972 803.893 137.977C798.735 130.735 795.191 122.8 793.339 115.165C791.464 107.451 791.305 100.01 792.934 93.847C795.359 84.6546 801.638 78.2721 811.978 77.7799C825.918 77.1177 833.766 84.9388 841.811 92.9544H841.817L841.891 93.0283C842.629 93.7665 842.629 94.9656 841.891 95.7016C841.153 96.4421 839.954 96.4421 839.213 95.7016L839.142 95.63L839.144 95.6255C831.699 88.205 824.43 80.9634 812.155 81.5495C803.723 81.95 798.587 87.2162 796.585 94.809C795.117 100.373 795.276 107.167 797.001 114.277C798.748 121.464 802.09 128.943 806.967 135.787C819.735 153.699 843.054 167.18 875.84 159.484C889.289 156.328 899.752 148.634 907.81 138.565C916.797 127.33 922.826 113.118 926.692 98.8873C920.989 102.708 915.428 105.798 909.385 108.077C901.853 110.919 893.611 112.489 883.479 112.632Z" fill="#3D3F41"/>
<path fill-rule="evenodd" clip-rule="evenodd" d="M874.198 46.8649C874.186 46.3459 874.6 45.9141 875.119 45.9052C875.641 45.894 876.07 46.3101 876.081 46.8291C876.314 57.2877 875.784 64.4733 874.247 70.4778C872.697 76.518 870.153 81.3212 866.363 86.999C866.075 87.433 865.491 87.5494 865.057 87.2586C864.625 86.9677 864.509 86.3816 864.797 85.9498C868.473 80.442 870.938 75.8022 872.419 70.0103C873.911 64.187 874.428 57.1512 874.198 46.8649Z" fill="#3D3F41"/>
<path fill-rule="evenodd" clip-rule="evenodd" d="M917.368 108.798C917.527 108.301 918.059 108.028 918.553 108.187C919.05 108.346 919.321 108.878 919.164 109.373C916.86 116.541 912.48 124.885 906.77 131.928C901.914 137.925 896.075 142.992 889.719 145.623C889.238 145.82 888.685 145.59 888.489 145.109C888.292 144.628 888.522 144.077 889.001 143.878C895.043 141.379 900.63 136.511 905.307 130.737C910.864 123.881 915.128 115.764 917.368 108.798Z" fill="#3D3F41"/>
<path fill-rule="evenodd" clip-rule="evenodd" d="M833.876 31.7935C833.82 31.2744 834.196 30.8092 834.715 30.7555C835.231 30.6996 835.697 31.0754 835.753 31.5944C838.551 57.2543 839.949 84.2497 839.952 84.328C839.979 84.8471 839.578 85.2922 839.057 85.3168C838.538 85.3437 838.095 84.9433 838.068 84.4243C838.064 84.346 836.67 57.4176 833.876 31.7935Z" fill="#3D3F41"/>
<path fill-rule="evenodd" clip-rule="evenodd" d="M167.625 109.992C166.737 109.019 166.803 107.514 167.773 106.627C168.743 105.737 170.251 105.802 171.141 106.775C171.34 106.991 238.175 182.555 455.131 182.555C672.511 182.555 791.084 112.975 791.429 112.776C792.569 112.119 794.026 112.513 794.682 113.654C795.339 114.794 794.945 116.253 793.804 116.907C793.452 117.109 673.763 187.343 455.131 187.343C236.074 187.343 167.827 110.213 167.625 109.992Z" fill="#3D3F41"/>
<path fill-rule="evenodd" clip-rule="evenodd" d="M435.373 186.127C435.478 184.812 436.637 183.832 437.953 183.939C439.271 184.046 440.248 185.203 440.139 186.521L431.043 294.629L473.934 269.355C474.734 268.886 475.697 268.937 476.427 269.404L523.053 299.375L511.822 185.442C511.693 184.131 512.651 182.961 513.964 182.833C515.275 182.704 516.442 183.664 516.573 184.975L528.279 303.72C528.356 304.267 528.245 304.841 527.924 305.344C527.214 306.453 525.735 306.776 524.624 306.064L475.082 274.214L429.642 300.992C429.199 301.301 428.655 301.461 428.076 301.415C426.761 301.308 425.778 300.151 425.888 298.835L435.373 186.127Z" fill="#3D3F41"/>
<path fill-rule="evenodd" clip-rule="evenodd" d="M527.026 185.726C526.912 184.413 527.882 183.258 529.193 183.144C530.506 183.032 531.663 184.002 531.778 185.313L541.538 293.712L580.301 262.255C580.977 261.704 581.864 261.587 582.628 261.866L632.051 280.013L605.297 173.634C604.976 172.353 605.756 171.057 607.035 170.736C608.317 170.415 609.618 171.195 609.936 172.474L637.789 283.218C637.903 283.672 637.891 284.163 637.716 284.64C637.264 285.878 635.89 286.515 634.65 286.06L582.253 266.817L541.068 300.238C540.711 300.527 540.264 300.717 539.77 300.758C538.457 300.873 537.302 299.903 537.188 298.592L527.026 185.726Z" fill="#3D3F41"/>
<path fill-rule="evenodd" clip-rule="evenodd" d="M328.566 177.048C328.812 175.752 330.067 174.904 331.363 175.149C332.656 175.397 333.507 176.649 333.257 177.948L312.613 284.881C312.365 286.177 311.111 287.028 309.817 286.78C309.292 286.678 308.84 286.415 308.504 286.048L272.469 250.21L220.559 263.522C219.282 263.848 217.986 263.077 217.658 261.801C217.539 261.322 217.57 260.836 217.731 260.4L255.086 157.19C255.538 155.95 256.907 155.31 258.148 155.76C259.388 156.208 260.025 157.577 259.577 158.817L223.749 257.784L272.469 245.289C273.291 245.031 274.225 245.225 274.879 245.872L308.767 279.578L328.566 177.048Z" fill="#3D3F41"/>
<path fill-rule="evenodd" clip-rule="evenodd" d="M419.529 187.18C419.561 185.865 420.653 184.822 421.971 184.853C423.286 184.883 424.329 185.977 424.298 187.292L421.227 300.574C421.195 301.892 420.103 302.932 418.785 302.903C418.289 302.891 417.835 302.728 417.46 302.461L374.259 271.685L323.171 294.174C321.965 294.704 320.552 294.157 320.02 292.949C319.798 292.445 319.764 291.903 319.888 291.407L340.724 179.268C340.96 177.97 342.205 177.111 343.501 177.35C344.799 177.588 345.655 178.831 345.417 180.126L325.381 287.979L373.574 266.764C374.318 266.44 375.21 266.504 375.92 267.009L416.58 295.976L419.529 187.18Z" fill="#3D3F41"/>
<path fill-rule="evenodd" clip-rule="evenodd" d="M620.545 171.572C620.273 170.281 621.104 169.017 622.395 168.747C623.686 168.477 624.951 169.309 625.221 170.597L646.496 271.855L678.087 238.529C678.728 237.855 679.665 237.639 680.499 237.887L729.411 252.571L690.353 154.185C689.87 152.962 690.468 151.576 691.691 151.089C692.914 150.605 694.3 151.201 694.784 152.427L735.601 255.241C735.852 255.759 735.918 256.367 735.74 256.962C735.363 258.227 734.033 258.946 732.766 258.569L680.538 242.886L646.825 278.449C646.504 278.79 646.078 279.038 645.582 279.142C644.291 279.41 643.027 278.581 642.759 277.29L620.545 171.572Z" fill="#3D3F41"/>
<path fill-rule="evenodd" clip-rule="evenodd" d="M312.178 184.965C310.86 184.856 309.88 183.701 309.992 182.383C310.099 181.068 311.254 180.088 312.572 180.197C313.841 180.302 315.003 180.377 316.037 180.416C317.167 180.46 318.259 180.474 319.31 180.457C320.627 180.443 321.707 181.498 321.724 182.814C321.739 184.131 320.686 185.211 319.368 185.226C318.208 185.243 317.041 185.23 315.869 185.184C314.558 185.136 313.33 185.063 312.178 184.965ZM264.255 170.867C263.086 170.257 262.636 168.815 263.244 167.651C263.854 166.483 265.294 166.031 266.461 166.639C271.793 169.421 278.584 172.217 285.913 174.563C292.614 176.71 299.76 178.476 306.632 179.499C307.937 179.691 308.842 180.907 308.652 182.213C308.46 183.519 307.247 184.423 305.939 184.231C298.829 183.173 291.418 181.34 284.454 179.108C276.887 176.684 269.831 173.776 264.255 170.867Z" fill="#3D3F41"/>
<path fill-rule="evenodd" clip-rule="evenodd" d="M402.224 196.5C400.914 196.634 399.739 195.678 399.605 194.368C399.472 193.057 400.425 191.883 401.738 191.749L403.698 191.559L405.76 191.229C407.061 191.029 408.279 191.919 408.481 193.22C408.682 194.523 407.79 195.742 406.489 195.943L404.952 196.191C404.678 196.235 404.554 196.257 404.315 196.291C403.742 196.291 402.781 196.444 402.224 196.5ZM352.546 191.231C351.284 190.842 350.574 189.51 350.966 188.248C351.352 186.988 352.687 186.281 353.947 186.67C359.709 188.452 366.894 189.989 374.51 190.981C381.508 191.895 388.858 192.35 395.788 192.128C397.103 192.087 398.205 193.12 398.249 194.438C398.29 195.754 397.254 196.855 395.939 196.897C388.742 197.128 381.126 196.656 373.892 195.712C365.997 194.681 358.537 193.089 352.546 191.231Z" fill="#3D3F41"/>
<path fill-rule="evenodd" clip-rule="evenodd" d="M593.944 189.06C592.675 189.417 591.357 188.678 591 187.406C590.642 186.137 591.386 184.817 592.655 184.462L594.136 184.053V184.046C594.948 183.822 595.722 183.533 596.522 183.256C597.774 182.83 599.128 183.501 599.554 184.751C599.977 186.001 599.303 187.358 598.058 187.783L595.972 188.496C595.722 188.574 595.607 188.605 595.388 188.663L595.386 188.656L593.944 189.06ZM544.103 192.41C542.797 192.248 541.868 191.054 542.036 189.748C542.202 188.442 543.393 187.516 544.699 187.681C550.67 188.447 558.011 188.722 565.695 188.391C572.741 188.087 580.058 187.273 586.851 185.858C588.145 185.59 589.409 186.419 589.677 187.71C589.947 189.001 589.118 190.266 587.826 190.533C580.78 192 573.196 192.846 565.902 193.159C557.963 193.502 550.34 193.213 544.103 192.41Z" fill="#3D3F41"/>
<path fill-rule="evenodd" clip-rule="evenodd" d="M498.065 197.575C496.774 197.833 495.517 196.996 495.259 195.705C495.001 194.414 495.84 193.157 497.129 192.899C498.189 192.685 499.319 192.425 500.516 192.124C501.629 191.844 502.677 191.552 503.657 191.251C504.914 190.864 506.252 191.572 506.636 192.831C507.025 194.093 506.317 195.428 505.058 195.815C503.92 196.167 502.792 196.483 501.673 196.763C500.594 197.035 499.385 197.308 498.065 197.575ZM448.134 197.502C446.835 197.249 445.989 195.995 446.242 194.696C446.495 193.4 447.749 192.554 449.05 192.807C454.983 193.989 462.29 194.771 469.942 194.966C476.993 195.148 484.351 194.837 491.235 193.891C492.54 193.719 493.744 194.635 493.919 195.941C494.094 197.247 493.177 198.448 491.872 198.625C484.747 199.6 477.127 199.921 469.83 199.737C461.85 199.532 454.264 198.723 448.134 197.502Z" fill="#3D3F41"/>
<path fill-rule="evenodd" clip-rule="evenodd" d="M683.676 168.414C682.487 168.985 681.06 168.489 680.486 167.303C679.915 166.114 680.413 164.686 681.6 164.113L683.382 163.259L683.808 163.028C684.044 162.89 684.411 162.683 685.201 162.248C686.356 161.615 687.81 162.036 688.445 163.193C689.079 164.351 688.656 165.802 687.501 166.44L685.568 167.505L683.676 168.414ZM635.173 180.404C633.855 180.467 632.736 179.448 632.675 178.133C632.615 176.815 633.633 175.696 634.949 175.636C640.974 175.351 648.249 174.342 655.743 172.679C662.62 171.154 669.681 169.078 676.131 166.498C677.354 166.007 678.745 166.602 679.234 167.826C679.725 169.051 679.132 170.439 677.909 170.931C671.229 173.6 663.908 175.755 656.772 177.338C648.998 179.062 641.441 180.107 635.173 180.404Z" fill="#3D3F41"/>
<path fill-rule="evenodd" clip-rule="evenodd" d="M241.509 207.863C240.901 208.113 240.203 207.822 239.953 207.214C239.702 206.603 239.994 205.908 240.602 205.655L295.836 182.852C296.446 182.604 297.142 182.894 297.392 183.504C297.643 184.114 297.353 184.812 296.743 185.06L241.509 207.863Z" fill="#3D3F41"/>
<path fill-rule="evenodd" clip-rule="evenodd" d="M328.233 182.869C328.834 182.599 329.539 182.872 329.807 183.472C330.076 184.073 329.807 184.778 329.204 185.048L232.422 228.117C231.822 228.385 231.116 228.117 230.846 227.514C230.579 226.914 230.849 226.209 231.447 225.939L328.233 182.869Z" fill="#3D3F41"/>
<path fill-rule="evenodd" clip-rule="evenodd" d="M228.34 243.334C227.729 243.587 227.031 243.297 226.776 242.689C226.526 242.079 226.815 241.379 227.423 241.128L327.754 199.071C328.362 198.815 329.063 199.105 329.315 199.715C329.568 200.325 329.279 201.023 328.671 201.276L228.34 243.334Z" fill="#3D3F41"/>
<path fill-rule="evenodd" clip-rule="evenodd" d="M257.788 251.919C257.194 252.206 256.482 251.956 256.195 251.363C255.91 250.769 256.159 250.054 256.752 249.77L320.596 218.858C321.192 218.574 321.904 218.822 322.193 219.415C322.48 220.008 322.23 220.723 321.637 221.01L257.788 251.919Z" fill="#3D3F41"/>
<path fill-rule="evenodd" clip-rule="evenodd" d="M283.591 257.006C282.988 257.268 282.285 256.991 282.02 256.388C281.757 255.783 282.032 255.08 282.638 254.817L317.345 239.613C317.95 239.353 318.655 239.628 318.918 240.233C319.181 240.836 318.904 241.539 318.298 241.804L283.591 257.006Z" fill="#3D3F41"/>
<path fill-rule="evenodd" clip-rule="evenodd" d="M294.788 267.878C294.197 268.169 293.48 267.926 293.19 267.335C292.899 266.744 293.139 266.027 293.735 265.735L311.721 256.868C312.309 256.576 313.027 256.819 313.319 257.41C313.61 258.001 313.37 258.716 312.779 259.01L294.788 267.878Z" fill="#3D3F41"/>
<path fill-rule="evenodd" clip-rule="evenodd" d="M435.633 242.478C435.118 242.889 434.369 242.804 433.958 242.293C433.549 241.777 433.632 241.029 434.145 240.618L480.794 203.274C481.309 202.866 482.058 202.949 482.469 203.462C482.88 203.975 482.795 204.724 482.282 205.135L435.633 242.478Z" fill="#3D3F41"/>
<path fill-rule="evenodd" clip-rule="evenodd" d="M511.902 194.222C512.403 193.797 513.16 193.86 513.585 194.363C514.011 194.866 513.947 195.62 513.444 196.046L432.572 264.468C432.069 264.894 431.317 264.833 430.889 264.33C430.464 263.827 430.527 263.07 431.028 262.645L511.902 194.222Z" fill="#3D3F41"/>
<path fill-rule="evenodd" clip-rule="evenodd" d="M432.915 280.212C432.404 280.628 431.65 280.55 431.237 280.037C430.819 279.527 430.899 278.775 431.41 278.359L515.97 209.917C516.483 209.502 517.235 209.579 517.648 210.09C518.064 210.601 517.986 211.354 517.475 211.768L432.915 280.212Z" fill="#3D3F41"/>
<path fill-rule="evenodd" clip-rule="evenodd" d="M463.586 280.225C463.097 280.665 462.338 280.626 461.901 280.135C461.458 279.646 461.497 278.887 461.988 278.447L514.638 230.911C515.129 230.471 515.885 230.51 516.325 230.999C516.768 231.492 516.729 232.246 516.238 232.689L463.586 280.225Z" fill="#3D3F41"/>
<path fill-rule="evenodd" clip-rule="evenodd" d="M489.783 277.888C489.275 278.311 488.524 278.245 488.098 277.739C487.677 277.234 487.743 276.48 488.251 276.057L517.322 251.751C517.828 251.326 518.582 251.396 519.005 251.902C519.428 252.408 519.362 253.159 518.857 253.585L489.783 277.888Z" fill="#3D3F41"/>
<path fill-rule="evenodd" clip-rule="evenodd" d="M503.57 285.195C503.086 285.637 502.332 285.606 501.887 285.117C501.442 284.633 501.476 283.879 501.96 283.434L516.751 269.891C517.235 269.446 517.991 269.48 518.436 269.964C518.878 270.447 518.847 271.204 518.36 271.646L503.57 285.195Z" fill="#3D3F41"/>
<path fill-rule="evenodd" clip-rule="evenodd" d="M635.987 217.329C635.545 217.82 634.788 217.859 634.297 217.418C633.808 216.976 633.767 216.22 634.21 215.731L676.664 168.462C677.106 167.971 677.863 167.932 678.354 168.375C678.843 168.815 678.884 169.571 678.441 170.062L635.987 217.329Z" fill="#3D3F41"/>
<path fill-rule="evenodd" clip-rule="evenodd" d="M696.537 167.206C696.965 166.702 697.716 166.639 698.219 167.065C698.723 167.49 698.786 168.244 698.36 168.747L639.014 238.544C638.591 239.047 637.838 239.108 637.332 238.682C636.831 238.257 636.768 237.503 637.191 237.002L696.537 167.206Z" fill="#3D3F41"/>
<path fill-rule="evenodd" clip-rule="evenodd" d="M642.54 254.468C642.098 254.961 641.344 255.005 640.85 254.567C640.357 254.127 640.316 253.373 640.753 252.88L703.241 182.548C703.678 182.055 704.434 182.011 704.928 182.449C705.422 182.886 705.465 183.642 705.025 184.138L642.54 254.468Z" fill="#3D3F41"/>
<path fill-rule="evenodd" clip-rule="evenodd" d="M672.263 249.126C671.852 249.641 671.101 249.726 670.585 249.315C670.07 248.907 669.985 248.153 670.395 247.637L708.609 199.649C709.018 199.131 709.771 199.046 710.287 199.455C710.802 199.868 710.887 200.619 710.479 201.135L672.263 249.126Z" fill="#3D3F41"/>
<path fill-rule="evenodd" clip-rule="evenodd" d="M694.28 243.438C693.852 243.939 693.099 243.997 692.6 243.569C692.099 243.141 692.038 242.388 692.466 241.887L713.842 217.047C714.272 216.546 715.024 216.487 715.524 216.915C716.025 217.343 716.084 218.097 715.656 218.598L694.28 243.438Z" fill="#3D3F41"/>
<path fill-rule="evenodd" clip-rule="evenodd" d="M707.082 247.723C706.676 248.243 705.922 248.333 705.402 247.924C704.884 247.516 704.794 246.765 705.203 246.247L715.909 232.601C716.315 232.083 717.068 231.993 717.589 232.402C718.107 232.81 718.197 233.559 717.788 234.079L707.082 247.723Z" fill="#3D3F41"/>
<path fill-rule="evenodd" clip-rule="evenodd" d="M629.928 203.408C629.5 203.909 628.746 203.968 628.245 203.54C627.744 203.112 627.684 202.355 628.114 201.857L649.489 177.014C649.917 176.516 650.669 176.455 651.17 176.885C651.675 177.311 651.731 178.067 651.301 178.568L629.928 203.408Z" fill="#3D3F41"/>
<path fill-rule="evenodd" clip-rule="evenodd" d="M15.8704 66.7572L15.7829 66.8153C15.7174 66.8511 15.6606 66.8691 15.6169 66.878C16.0189 66.6498 16.3798 66.4395 15.8704 66.7572ZM34.8466 76.67C33.0786 82.3634 31.3467 87.954 31.1178 90.6028H31.1109C31.0932 90.8309 31.0321 91.0592 30.9272 91.2762C30.4686 92.2113 29.3411 92.5984 28.4062 92.142C23.412 89.6878 10.4917 78.5312 4.09908 70.4731C2.41966 68.3567 1.14718 66.4038 0.520561 64.7997C-0.412769 62.4172 -0.143421 60.5537 1.75545 59.4865C2.84516 58.8736 4.50109 58.7371 6.82994 59.2024C8.29817 59.4977 11.9554 62.3322 14.7561 64.5045L14.8785 64.6118C14.8277 60.6365 15.3154 54.7371 19.1534 52.0547C19.6017 51.708 20.1977 51.5671 20.7885 51.7215C25.4104 52.9429 26.2084 59.1264 26.2187 63.6007C29.3455 60.5559 33.8616 56.6051 37.2453 57.0995V57.104C37.8746 57.198 38.4426 57.6073 38.7091 58.2382C39.7797 60.7796 37.2822 68.8199 34.8466 76.67ZM27.8337 87.4283C28.5442 84.2538 29.8829 79.9384 31.242 75.5603C33.0263 69.8087 34.8466 63.9429 35.2354 61.1644C32.8891 62.2494 29.4592 65.6812 27.4115 67.7349C25.9391 69.2091 24.9323 70.2203 23.7876 69.9899L23.6068 69.9451C22.1605 69.5805 22.1999 68.6588 22.3037 67.1442C22.4637 64.7997 22.9514 57.6834 20.6111 55.7774C18.2796 58.4239 18.6082 64.4754 18.748 66.9988C18.8259 68.4396 18.8809 69.3344 17.867 69.963C17.0849 70.4485 16.0845 70.2941 15.4814 69.6409C14.5928 69.1487 13.5765 68.3612 12.4492 67.4888C9.94536 65.5492 6.68139 63.019 6.0899 62.8982C4.71697 62.623 3.92167 62.6029 3.60109 62.7818C3.49617 62.84 3.85881 62.9675 4.038 63.4239C4.52033 64.6588 5.59795 66.2896 7.05298 68.1241C12.3704 74.8265 22.2628 83.6967 27.8337 87.4283Z" fill="#3D3F41"/>
<path fill-rule="evenodd" clip-rule="evenodd" d="M124.297 95.0348C124.963 95.8379 124.849 97.0303 124.046 97.6947C123.242 98.3592 122.051 98.2473 121.385 97.442C107.287 80.4062 106.301 70.2093 104.691 53.5561C103.807 44.4241 102.729 33.2877 99.053 17.7889C96.5904 7.41754 95.083 3.54955 94.2249 3.75537C89.7365 4.82024 87.2444 46.1199 86.6457 56.0282L86.5188 58.0819C86.4358 59.1222 85.5271 59.9006 84.4871 59.8179C83.5417 59.744 82.811 58.9857 82.7482 58.064C82.5455 56.2452 78.3743 19.7576 72.7421 28.2005C64.4999 40.5539 68.2679 62.4599 68.2784 62.5225C68.4498 63.5516 67.754 64.5248 66.7256 64.6948C65.7135 64.8626 64.7549 64.1914 64.5601 63.1892C64.2498 61.9185 60.5368 46.9633 58.186 47.8738C57.5122 48.1333 56.6874 52.4734 56.4138 58.838C56.1849 64.2116 56.6104 70.7977 58.2681 77.4733C59.9138 84.0885 62.7739 90.7775 67.416 96.4084C75.3157 105.994 88.4956 112.583 109.869 110.646C110.904 110.552 111.819 111.317 111.914 112.352C112.008 113.388 111.244 114.305 110.207 114.399C87.3535 116.473 73.1294 109.267 64.5032 98.8021C59.461 92.6857 56.3702 85.4778 54.6048 78.3749C52.8527 71.328 52.4044 64.3682 52.6447 58.6904C52.9796 50.8179 54.9894 45.0662 56.8245 44.3548C59.433 43.3459 61.7883 46.0461 63.6713 49.6434C63.8041 42.1043 65.0784 32.894 69.6093 26.0998C76.5437 15.7061 81.2336 29.1066 83.8799 41.5271C85.2676 24.8359 88.0902 1.32143 93.3526 0.075352C96.4445 -0.658427 99.6385 3.88967 102.729 16.9187C106.449 32.592 107.547 43.9142 108.445 53.2027C109.985 69.1266 110.929 78.8782 124.297 95.0348Z" fill="#3D3F41"/>
<path fill-rule="evenodd" clip-rule="evenodd" d="M128.88 81.7956C129.01 82.8314 128.27 83.7732 127.233 83.8985C126.198 84.026 125.254 83.2877 125.127 82.2519C124.124 74.2027 125.146 67.0283 126.447 57.8874C127.746 48.7711 129.33 37.657 129.406 21.7958C129.46 11.1202 128.927 7.00164 128.082 6.99717C123.768 6.97703 112.408 44.0417 109.061 54.9679L108.718 56.082C108.413 57.0775 107.354 57.6391 106.359 57.3326C105.364 57.0261 104.805 55.9702 105.111 54.9747L105.453 53.8583C108.989 42.3236 120.982 3.19621 128.097 3.22976C131.236 3.24542 133.241 8.41768 133.176 21.8114C133.097 37.9925 131.498 49.2163 130.187 58.4198C128.925 67.2677 127.936 74.2162 128.88 81.7956Z" fill="#3D3F41"/>
<path fill-rule="evenodd" clip-rule="evenodd" d="M68.8433 151.728C68.4867 152.111 67.8907 152.131 67.5079 151.775C67.1278 151.422 67.1059 150.824 67.4598 150.442C81.8614 134.954 95.2143 126.704 109.62 123.216C124 119.733 139.366 121.012 157.836 124.569C158.35 124.668 158.684 125.162 158.587 125.674C158.487 126.187 157.994 126.522 157.482 126.424C139.254 122.914 124.127 121.643 110.062 125.048C96.0253 128.449 82.9712 136.529 68.8433 151.728Z" fill="#3D3F41"/>
<path fill-rule="evenodd" clip-rule="evenodd" d="M165.227 99.4106C164.276 98.9833 163.853 97.8647 164.281 96.9139C164.71 95.9632 165.829 95.5403 166.777 95.9676L178.889 101.46C179.838 101.889 180.263 103.006 179.831 103.956C179.618 104.435 179.225 104.782 178.768 104.952L164.86 110.431C163.887 110.811 162.791 110.33 162.415 109.359C162.035 108.388 162.513 107.292 163.487 106.914L173.27 103.059L165.227 99.4106Z" fill="#3D3F41"/>
<path fill-rule="evenodd" clip-rule="evenodd" d="M154.008 87.726C153.914 87.2137 154.252 86.7238 154.764 86.6254C155.276 86.5292 155.771 86.867 155.865 87.3793C156.294 89.6589 155.977 91.6208 155.187 92.8915C154.751 93.5917 154.167 94.1041 153.471 94.3725C152.773 94.6455 151.981 94.6633 151.147 94.3725C149.757 93.8915 148.216 92.5112 146.762 89.9631C146.505 89.509 146.663 88.9341 147.115 88.6768C147.569 88.4195 148.147 88.5783 148.404 89.0325C149.608 91.1443 150.773 92.2473 151.76 92.5918C152.151 92.7282 152.502 92.7283 152.793 92.6142C153.093 92.4978 153.361 92.2495 153.583 91.8938C154.142 90.9944 154.348 89.5224 154.008 87.726Z" fill="#3D3F41"/>
<path fill-rule="evenodd" clip-rule="evenodd" d="M75.5652 104.865C76.605 104.876 77.4395 105.73 77.4265 106.771C77.416 107.811 76.5614 108.643 75.5213 108.632C65.3914 108.491 57.148 106.918 49.6152 104.077C43.5724 101.798 38.01 98.7081 32.308 94.8871C36.1767 109.115 42.2047 123.33 51.1926 134.565C59.2498 144.632 69.7102 152.328 83.1591 155.482C115.947 163.18 139.265 149.699 152.033 131.786C156.909 124.943 160.252 117.462 161.999 110.276C163.724 103.167 163.883 96.3725 162.415 90.8088C160.413 83.216 155.276 77.9498 146.845 77.5471C134.567 76.9632 127.301 84.2071 119.853 91.6276L119.779 91.7036C119.04 92.4374 117.846 92.4352 117.111 91.697C116.377 90.9587 116.38 89.7641 117.118 89.028L117.195 88.9543C125.236 80.9364 133.084 73.1154 147.021 73.782C157.361 74.272 163.641 80.6545 166.066 89.8469C167.695 96.0102 167.536 103.451 165.663 111.164C163.809 118.8 160.267 126.735 155.109 133.977C141.565 152.974 116.897 167.285 82.3028 159.164C67.9509 155.795 56.8116 147.614 48.2503 136.914C37.8311 123.887 31.2638 107.153 27.3855 90.8849L27.3926 90.8826C27.2703 90.3681 27.362 89.8088 27.6967 89.348C28.304 88.5024 29.4828 88.31 30.3271 88.9185C37.2805 93.914 43.7821 97.8446 50.9463 100.545C58.0858 103.238 65.9176 104.728 75.5652 104.865Z" fill="#3D3F41"/>
<path fill-rule="evenodd" clip-rule="evenodd" d="M95.1095 22.9971C95.0849 22.4781 95.4869 22.0351 96.007 22.0105C96.5278 21.9859 96.9681 22.3886 96.9927 22.9098C98.0412 44.5384 99.5488 57.4891 101.288 66.0685C103.011 74.5719 104.969 78.7777 106.929 82.9253C107.152 83.3951 106.949 83.9588 106.479 84.1803C106.007 84.404 105.446 84.2004 105.223 83.7284C103.219 79.4868 101.213 75.1826 99.4394 66.4376C97.6831 57.7665 96.1598 44.7241 95.1095 22.9971Z" fill="#3D3F41"/>
<path fill-rule="evenodd" clip-rule="evenodd" d="M107.903 87.9252C107.68 87.4554 107.881 86.8916 108.353 86.6701C108.825 86.4464 109.386 86.65 109.609 87.122C110.57 89.1488 114.61 92.6321 114.621 92.6411C115.012 92.9834 115.051 93.5807 114.71 93.9699C114.368 94.3637 113.771 94.4017 113.38 94.0594C113.366 94.0482 109.039 90.3234 107.903 87.9252Z" fill="#3D3F41"/>
<path fill-rule="evenodd" clip-rule="evenodd" d="M143.885 129.981C144.187 129.558 144.775 129.458 145.2 129.76C145.623 130.062 145.722 130.652 145.422 131.075C141.393 136.744 135.308 142.138 127.661 146.2C120.876 149.807 112.853 152.37 103.942 153.151C103.423 153.194 102.963 152.809 102.917 152.29C102.874 151.769 103.258 151.31 103.778 151.265C112.421 150.509 120.201 148.026 126.777 144.531C134.156 140.607 140.019 135.42 143.885 129.981Z" fill="#3D3F41"/>
<path fill-rule="evenodd" clip-rule="evenodd" d="M123.915 28.7016C124.022 28.1915 124.52 27.8649 125.031 27.97C125.542 28.0752 125.867 28.5762 125.762 29.0863L125.621 29.7597C122.593 44.187 117.725 67.3882 122.488 85.5358C122.619 86.0392 122.318 86.556 121.812 86.6858C121.308 86.8155 120.793 86.5134 120.662 86.0078C115.787 67.4352 120.711 43.9678 123.775 29.3772L123.915 28.7016Z" fill="#3D3F41"/>
<path fill-rule="evenodd" clip-rule="evenodd" d="M40.5109 104.173C40.1317 103.818 40.1116 103.222 40.4682 102.842C40.8221 102.464 41.4181 102.444 41.7982 102.8C55.9621 116.048 82.5455 115.131 82.6215 115.131C83.1415 115.117 83.5757 115.527 83.5898 116.048C83.6019 116.567 83.1938 117.001 82.6712 117.014C82.5936 117.017 55.2516 117.961 40.5109 104.173Z" fill="#3D3F41"/>
</svg>
