<svg width="262" height="312" viewBox="0 0 262 312" fill="none" xmlns="http://www.w3.org/2000/svg">
<path fill-rule="evenodd" clip-rule="evenodd" d="M150.195 201.022C144.633 197.74 133.787 195.232 120.355 197.638C123.033 200.078 128.839 203.963 139.718 205.533C146.994 206.585 151.24 206.188 153.066 205.074C153.536 204.786 153.669 204.426 153.519 204.056C153.131 203.143 151.988 202.078 150.195 201.022ZM97.5944 184.999C94.0106 183.213 89.2674 179.851 84.2892 173.532L83.4879 172.497C80.9605 169.161 79.3993 166.465 78.6109 164.39C77.9127 162.56 77.8325 161.461 78.2052 161.031C78.253 160.975 78.3333 160.931 78.4351 160.899C79.0848 160.697 80.158 160.9 81.5247 161.492C83.1372 162.189 85.0116 163.396 86.9903 165.102C91.8553 169.307 97.2234 176.423 100.803 186.331C99.9125 186.041 98.8314 185.617 97.5944 184.999ZM113.632 191.359C112.966 190.465 112.026 189.863 110.813 189.703C109.552 189.537 108.369 189.524 107.265 189.638C106.124 189.755 105.084 190.012 104.14 190.382L104.106 190.396C99.1236 192.361 96.5602 197.557 96.3145 202.373C96.2324 203.943 96.4024 205.463 96.8156 206.815C97.2096 208.082 97.8165 209.179 98.6248 209.981C100.188 211.52 102.685 212.018 106.127 210.592C109.83 209.054 112.404 205.901 113.804 202.459C114.663 200.336 115.072 198.111 115.018 196.096C114.965 194.206 114.506 192.529 113.632 191.359ZM111.568 211.453L112.359 212.685C116.966 219.881 121.548 227.035 126.325 229.829C130.607 232.33 135.4 231.044 141.247 222.258L140.693 222.299C134.232 222.651 127.242 219.018 121.003 214.532C120.202 213.96 120.017 212.845 120.591 212.045C121.164 211.245 122.28 211.06 123.08 211.633C128.763 215.718 135.021 219.037 140.505 218.738C144.848 218.497 148.836 215.855 151.847 209.239C149 209.834 144.839 209.876 139.2 209.061C127.866 207.424 121.396 203.265 118.159 200.405C117.913 201.542 117.562 202.686 117.109 203.805C115.946 206.68 114.093 209.393 111.568 211.453ZM68.0521 174.762C68.0477 173.374 68.2213 171.943 68.5867 170.477C69.5214 166.737 71.7261 162.761 75.5401 158.645L75.6434 158.538C76.1187 158.048 76.7067 157.696 77.3891 157.487C78.8567 157.034 80.786 157.277 82.9502 158.212C84.8693 159.044 87.063 160.446 89.3262 162.403C94.7966 167.126 100.836 175.215 104.637 186.481C105.358 186.299 106.113 186.163 106.895 186.084C108.253 185.942 109.718 185.962 111.289 186.169C113.537 186.466 115.27 187.576 116.498 189.218C117.539 190.617 118.189 192.396 118.454 194.364C133.419 191.393 145.715 194.241 152.001 197.948C154.475 199.405 156.135 201.069 156.807 202.665C157.35 203.949 157.368 205.16 156.817 206.22C154.228 214.262 150.548 218.785 146.281 220.874C146.252 220.938 146.222 221.004 146.183 221.067C138.121 234.859 131.09 236.743 124.533 232.91C118.997 229.675 114.189 222.165 109.354 214.616L108.574 213.396C108.225 213.568 107.869 213.734 107.504 213.885C102.502 215.96 98.6771 215.042 96.124 212.52C94.8725 211.288 93.9645 209.677 93.4037 207.861C93.0719 206.783 92.8601 205.623 92.7769 204.421C83.3849 203.959 74.0133 203.309 68.3775 199.61C62.1437 195.52 60.4775 188.255 68.0521 174.762ZM90.2629 192.442C91.22 192.68 91.8011 193.655 91.5622 194.609C91.3192 195.566 90.3469 196.151 89.3901 195.908C83.7281 194.493 78.3711 191.829 74.4581 188.2C72.0604 185.981 70.194 183.395 69.1088 180.502C65.1028 189.228 66.3285 193.999 70.3281 196.623C75.1801 199.802 83.9922 200.412 92.8722 200.851C93.3915 196.62 95.3654 192.305 98.8371 189.421C97.9794 189.105 97.0249 188.705 95.9925 188.192C92.0573 186.227 86.867 182.567 81.4953 175.746L81.0595 175.19L80.6473 174.648C77.8972 171.021 76.1764 168.026 75.2762 165.663C75.1865 165.427 75.1046 165.195 75.0305 164.967C73.5273 167.188 72.561 169.321 72.054 171.348C71.3542 174.149 71.537 176.751 72.3904 179.105C73.2591 181.504 74.8302 183.683 76.8761 185.579C80.3413 188.786 85.1436 191.163 90.2629 192.442Z" fill="#F9F5F0"/>
<path fill-rule="evenodd" clip-rule="evenodd" d="M218.125 71.9949C217.33 71.7596 216.535 71.4386 215.877 71.1731L215.581 71.0544C212.98 70.0126 210.46 68.9555 208.879 67.6138C207.608 66.5368 206.95 65.1869 207.454 63.3046C207.589 62.8003 207.844 62.3677 208.185 62.0603C208.435 61.8302 208.743 61.6671 209.091 61.582C209.447 61.4965 209.864 61.5034 210.323 61.6278C211.177 61.8556 212.14 62.4662 213.148 63.5738C213.864 64.3612 214.691 65.4549 215.505 66.7334C216.523 68.338 217.486 70.1832 218.125 71.9949ZM221.537 79.7472C219.652 83.4169 215.302 87.088 210.21 90.2787C203.303 94.6052 194.911 98.1345 189.662 99.4718C188.706 99.713 187.733 99.1331 187.491 98.1794C187.251 97.2249 187.83 96.2539 188.784 96.0115C193.742 94.7506 201.706 91.3903 208.304 87.2571C210.096 86.1359 211.775 84.9688 213.25 83.7792C210.219 83.7607 207.095 82.5967 204.13 80.6715C201.215 78.7757 198.461 76.1348 196.135 73.1516C193.82 70.182 191.914 66.8356 190.693 63.5201C190.103 61.9293 189.679 60.3453 189.432 58.8042C188.435 60.7609 187.467 62.8565 186.494 65.0244C186.092 65.9232 185.036 66.3249 184.137 65.9229C183.237 65.5179 182.836 64.4618 183.238 63.5629C184.394 60.9833 185.559 58.484 186.806 56.1307C188.055 53.7686 189.379 51.5743 190.85 49.634C191.275 48.9483 191.787 48.3083 192.39 47.72L192.479 47.6336C192.909 47.2266 193.393 46.8431 193.93 46.488C194.448 46.1499 195.002 45.8432 195.597 45.5783C196.419 45.208 197.293 44.9739 198.197 44.8567C202.634 44.2878 208.165 46.5869 213.049 50.1605C217.831 53.6624 222.089 58.4372 224.101 62.9269C224.722 64.3149 225.139 65.6816 225.307 66.9899C225.975 72.1908 224.612 74.5734 222.468 75.4726C222.529 77.0337 222.258 78.4942 221.537 79.7472ZM218.587 77.6203L218.655 77.4801C218.83 76.9883 218.906 76.4289 218.903 75.8245C217.305 75.5903 215.738 74.9668 214.543 74.4875L214.246 74.3677C211.382 73.2214 208.586 72.0388 206.581 70.3377C204.261 68.3716 203.062 65.8826 204.005 62.3794L204.009 62.3735C204.317 61.2178 204.936 60.1999 205.781 59.4295C206.475 58.7952 207.314 58.3362 208.25 58.1119C209.179 57.8893 210.196 57.8938 211.25 58.175C212.712 58.5694 214.268 59.5091 215.778 61.1714C216.66 62.1352 217.624 63.4016 218.521 64.8112C219.751 66.7462 220.912 69.018 221.653 71.2787C221.928 70.5326 222.007 69.3228 221.766 67.4492C221.642 66.4835 221.327 65.4537 220.85 64.3931C219.088 60.4592 215.271 56.2142 210.946 53.0464C206.727 49.9605 202.119 47.9529 198.655 48.3966C198.078 48.472 197.542 48.6124 197.061 48.8286C196.633 49.0208 196.243 49.2324 195.894 49.4627C195.551 49.6882 195.232 49.9434 194.941 50.2175L194.883 50.2726C192.165 52.9178 192.274 57.5071 194.034 62.2853C195.124 65.2388 196.848 68.2464 198.954 70.9522C201.051 73.6474 203.508 76.0071 206.07 77.676C209.97 80.211 214.101 81.1248 217.439 79.0009C217.621 78.8828 217.77 78.7737 217.88 78.6734C218.084 78.4869 218.256 78.2743 218.395 78.0375C218.465 77.8985 218.53 77.7591 218.587 77.6203Z" fill="#F9F5F0"/>
<path fill-rule="evenodd" clip-rule="evenodd" d="M163.447 32.8326C165.147 32.6935 166.725 32.6945 167.978 32.807C169.737 32.967 170.995 33.4409 171.822 34.0797C172.28 34.435 172.593 34.8423 172.78 35.2701C172.96 35.6753 173.024 36.1079 172.985 36.5373C172.932 37.1101 172.699 37.6852 172.308 38.1903C170.884 40.0275 169.116 40.3744 167.17 39.9398C164.81 39.4118 162.101 37.848 159.362 36.2018L159.107 36.0493C158.286 35.5572 157.251 34.9362 156.364 34.2394C158.584 33.4698 161.12 33.0228 163.447 32.8326ZM149.231 45.9728C148.98 48.5966 148.923 51.6134 149.148 54.8115C149.568 60.6511 150.955 67.016 153.891 72.6163C154.35 73.4871 154.016 74.5656 153.144 75.0267C152.273 75.4859 151.194 75.1488 150.734 74.2798C147.536 68.1826 146.031 61.3235 145.583 55.0615C145.05 47.5496 146.072 40.7767 147.54 37.1526C148.131 35.4086 149.383 33.9968 151.037 32.8745C150.319 30.3671 151.464 27.5336 156.613 24.5813C158.646 23.4152 161.292 22.7408 164.252 22.513C169.479 22.1115 175.812 23.0979 181.43 25.2287C187.163 27.4027 192.209 30.7943 194.718 35.1675C195.66 36.8088 196.25 38.5874 196.397 40.4866C196.415 40.7651 196.388 40.9027 196.359 41.0391C196.246 41.91 196.032 42.7435 195.734 43.5356L195.71 43.626C193.827 50.3362 189.899 56.7491 185.669 63.6513L185.308 64.2359C184.799 65.0779 183.701 65.3439 182.862 64.8305C182.019 64.3179 181.755 63.2217 182.264 62.3797L182.624 61.797C184.945 58.0072 187.172 54.3743 188.985 50.788C187.304 51.7463 185.409 52.5374 183.373 53.1556C179.547 54.319 175.227 54.8849 170.968 54.828C166.689 54.7729 162.423 54.0881 158.725 52.7565C154.657 51.2918 151.27 49.0427 149.231 45.9728ZM151.289 37.5622L151.243 37.6522C151.173 37.7731 151.107 37.9013 151.037 38.0353C150.885 38.3793 150.79 38.7377 150.754 39.1149C150.734 39.3346 150.735 39.5585 150.754 39.7857C151.127 44.3868 154.864 47.5769 159.938 49.4036C163.239 50.5943 167.099 51.2033 171.013 51.2557C174.944 51.31 178.887 50.7972 182.34 49.7486C187.95 48.0426 192.249 44.9374 192.819 40.5735C192.692 39.2969 192.275 38.0835 191.623 36.9479C189.556 33.3446 185.19 30.4729 180.164 28.5643C175.026 26.6166 169.254 25.7104 164.521 26.0739C162.072 26.2618 159.945 26.7858 158.393 27.6762C156.036 29.0297 154.942 30.1452 154.62 31.0721C157.294 30.0705 160.375 29.5039 163.159 29.2786C165.076 29.1193 166.871 29.1231 168.304 29.2515C170.79 29.4774 172.669 30.2247 174.001 31.2559C174.957 31.9952 175.633 32.8821 176.049 33.8321C176.479 34.8082 176.634 35.8444 176.541 36.8617C176.428 38.1067 175.942 39.3264 175.134 40.3704C172.668 43.5482 169.667 44.156 166.388 43.4245C163.526 42.7887 160.539 41.067 157.533 39.2615L157.276 39.1079C155.974 38.3277 154.239 37.2894 152.908 35.9253C152.223 36.4138 151.665 36.9573 151.289 37.5622Z" fill="#F9F5F0"/>
<path fill-rule="evenodd" clip-rule="evenodd" d="M190.459 78.8936C189.715 78.9034 188.917 78.8535 188.192 78.807C187.868 78.7885 187.551 78.7695 186.972 78.7499C183.541 78.6358 178.869 77.5685 175.366 75.6343C172.946 74.2966 171.151 72.587 170.981 70.6017C170.974 70.5377 170.98 70.4916 170.996 70.4643C171.062 70.3412 171.251 70.2164 171.527 70.0928C171.979 69.8909 172.587 69.7609 173.299 69.6987C175.725 69.4923 178.995 70.1193 181.726 71.5583C182.8 72.1242 184.082 72.9526 185.394 73.9624C187.207 75.3574 189.052 77.0751 190.459 78.8936ZM196.156 85.737C195.456 89.4354 192.69 95.6043 188.604 101.552C185.09 106.665 180.561 111.704 175.48 114.993C174.652 115.526 173.549 115.289 173.014 114.463C172.48 113.637 172.713 112.535 173.542 111.999C178.176 109.004 182.367 104.316 185.657 99.5279C187.392 97.0042 188.866 94.473 190.014 92.1693C186.746 93.566 182.821 93.6038 178.757 92.6588C175.053 91.7938 171.222 90.1022 167.704 87.8917C164.194 85.6857 160.972 82.9492 158.478 79.9911C156.932 78.1622 155.662 76.241 154.757 74.2963C153.726 78.4046 152.79 82.8717 152.143 87.2482C151.309 92.8714 150.959 98.2926 151.517 102.496C151.649 103.475 150.964 104.372 149.988 104.505C149.009 104.634 148.112 103.949 147.983 102.975C147.37 98.3808 147.73 92.6223 148.604 86.723C149.706 79.3022 151.631 71.5737 153.458 65.6893L153.467 65.6586C153.647 64.8079 153.93 63.9756 154.323 63.1599L154.381 63.0403C154.669 62.4654 155.01 61.9109 155.403 61.3787L155.435 61.3322C155.834 60.7983 156.286 60.2817 156.802 59.7841C157.479 59.1296 158.254 58.584 159.116 58.1405C163.393 55.9379 169.774 56.3905 176.003 58.3955C182.077 60.3529 188.108 63.8088 191.871 67.6944C193.117 68.9807 194.131 70.3277 194.838 71.7057C197.25 76.3899 197.075 79.1021 195.635 80.6781C196.313 82.3721 196.555 84.0874 196.156 85.737ZM192.752 84.2525L192.769 84.0931C192.767 83.52 192.646 82.9146 192.428 82.2973C190.964 82.5625 189.362 82.4643 187.969 82.3777L186.849 82.3135C182.961 82.185 177.641 80.9618 173.633 78.7491C170.245 76.8793 167.715 74.2691 167.429 70.909C167.363 70.1323 167.51 69.4269 167.838 68.8L167.842 68.7942C168.301 67.926 169.071 67.2731 170.071 66.8288C170.901 66.463 171.9 66.2315 173.001 66.1361C176.014 65.8792 180.05 66.6439 183.385 68.4006C184.628 69.0532 186.089 69.9984 187.563 71.1299C189.432 72.5706 191.351 74.3361 192.903 76.236C192.682 75.4974 192.286 74.5486 191.665 73.3422C191.125 72.295 190.316 71.2295 189.305 70.1833C185.935 66.7036 180.456 63.5845 174.898 61.7953C169.495 60.0537 164.117 59.5826 160.755 61.3126C160.208 61.5944 159.715 61.9391 159.292 62.3525C158.914 62.7142 158.585 63.0909 158.301 63.4703L158.272 63.5109C157.994 63.8836 157.763 64.2621 157.574 64.6392L157.534 64.7225L157.537 64.7247C155.676 68.5563 157.529 73.341 161.197 77.687C163.455 80.3636 166.389 82.8527 169.599 84.8671C172.798 86.881 176.255 88.414 179.569 89.1859C184.634 90.3655 189.33 89.7436 192.044 86.2225C192.179 86.046 192.296 85.8664 192.393 85.6805C192.532 85.4175 192.627 85.1398 192.69 84.8561C192.721 84.64 192.742 84.4415 192.752 84.2525Z" fill="#F9F5F0"/>
<path fill-rule="evenodd" clip-rule="evenodd" d="M226.493 119.86C226.021 118.998 226.334 117.915 227.195 117.442C228.057 116.967 229.139 117.28 229.614 118.142C230.707 120.13 231.162 121.815 231.074 123.233C230.861 126.605 228.107 128.16 223.684 128.422C220.073 128.633 215.164 127.963 209.647 126.761C189.03 122.267 159.286 110.245 158.401 109.828C141.114 101.7 126.233 92.7059 116.121 84.718C105.418 76.2638 99.9258 68.5974 102.15 63.7093C102.838 62.1981 104.216 60.8777 106.358 60.0913C108.017 59.4818 110.168 59.1922 112.83 59.4004C113.816 59.4808 114.549 60.3409 114.472 61.3258C114.392 62.3096 113.531 63.0447 112.548 62.9686C110.427 62.8019 108.788 63.0052 107.584 63.4484C106.417 63.8747 105.704 64.5057 105.391 65.193C103.945 68.3776 108.985 74.5268 118.325 81.9056C128.235 89.7332 142.875 98.5731 159.93 106.594C160.805 107.006 190.118 118.855 210.414 123.28C215.633 124.417 220.214 125.057 223.477 124.863C225.928 124.721 227.437 124.152 227.51 122.998C227.557 122.25 227.239 121.216 226.493 119.86Z" fill="#F9F5F0"/>
<path fill-rule="evenodd" clip-rule="evenodd" d="M137.739 57.4881C137.504 57.7373 137.262 57.982 137.034 58.2144C136.768 58.485 136.515 58.7441 136.35 58.9219C134.523 60.8832 131.495 63.0922 128.556 64.1666C126.628 64.871 124.811 65.0646 123.641 64.2539C123.649 64.209 123.671 64.1306 123.7 64.0305C123.804 63.6877 124.025 63.2874 124.339 62.8604C125.441 61.3488 127.464 59.7665 129.692 58.9025C130.563 58.5654 131.707 58.2357 132.99 57.9778C134.503 57.6712 136.168 57.4755 137.739 57.4881ZM145.916 57.1003C147.685 59.3591 149.533 63.5929 150.649 68.5584C151.666 73.0609 152.119 78.2438 151.411 83.1755C150.703 88.1435 149.147 91.8803 147.078 94.4274C144.654 97.4141 141.555 98.7916 138.247 98.6495C137.259 98.6044 136.493 97.7695 136.537 96.7836C136.583 95.7957 137.416 95.0317 138.404 95.0768C140.579 95.1731 142.649 94.223 144.306 92.1819C145.987 90.116 147.266 86.9647 147.88 82.668C148.521 78.2074 148.099 73.4763 147.165 69.3388C146.872 68.031 146.53 66.7909 146.16 65.6439C145.111 67.9293 143.251 69.9573 140.896 71.6579C138.405 73.4594 135.349 74.8949 132.144 75.8657C128.956 76.8303 125.593 77.3376 122.47 77.2924C120.679 77.2646 118.965 77.0548 117.393 76.6386C119.702 80.6105 122.372 84.7624 125.859 87.3423C126.653 87.9256 126.823 89.0454 126.24 89.8376C125.656 90.6338 124.538 90.8048 123.741 90.2223C119.032 86.7369 115.852 81.1541 113.092 76.3059C112.377 75.0504 111.692 73.8462 110.96 72.6643L110.93 72.6162C110.548 72.099 110.217 71.5364 109.944 70.9289L109.847 70.7273L109.851 70.7246L109.827 70.6686C109.62 70.1619 109.451 69.6303 109.333 69.0835C109.218 68.5571 109.144 67.9918 109.11 67.3926C109.068 66.6093 109.151 65.8224 109.343 65.039C110.28 61.2196 113.947 57.5469 118.475 54.8156C122.87 52.1611 128.161 50.323 132.525 50.0917C133.981 50.0146 135.357 50.1123 136.587 50.4141C140.691 51.4241 142.337 52.9695 142.637 54.7104C143.99 55.2164 145.13 55.9889 145.916 57.1003ZM142.691 58.8365L142.6 58.7422C142.357 58.5319 142.068 58.3522 141.739 58.2013C141.126 59.142 140.302 59.9792 139.578 60.7155C139.378 60.9174 139.188 61.1118 138.966 61.3526C136.823 63.6541 133.257 66.2514 129.783 67.5217C126.78 68.6165 123.769 68.7707 121.487 67.1025C120.926 66.6956 120.541 66.1822 120.309 65.5903C119.995 64.7826 120.007 63.8926 120.285 62.9792C120.509 62.2532 120.912 61.5006 121.45 60.7582C122.912 58.7629 125.541 56.6853 128.403 55.574C129.47 55.1579 130.822 54.7659 132.284 54.4713C133.487 54.2298 134.786 54.0465 136.092 53.9686L135.735 53.8765C134.86 53.6626 133.833 53.5949 132.712 53.6547C128.924 53.857 124.257 55.4966 120.326 57.8683C116.53 60.1613 113.499 63.0702 112.806 65.8914C112.698 66.3339 112.65 66.7738 112.673 67.2059C112.693 67.5914 112.743 67.9636 112.822 68.3215C112.894 68.6566 112.99 68.9671 113.101 69.2522L113.141 69.3322L113.204 69.4884C114.515 72.3744 118.194 73.6615 122.528 73.7249C125.272 73.7676 128.258 73.3103 131.116 72.4458C133.957 71.5854 136.644 70.3314 138.803 68.7723C142.043 66.4288 144.059 63.4065 143.391 60.096C143.358 59.9317 143.319 59.789 143.271 59.6682C143.195 59.4709 143.092 59.2893 142.964 59.1242C142.872 59.0188 142.78 58.9215 142.691 58.8365Z" fill="#F9F5F0"/>
<path fill-rule="evenodd" clip-rule="evenodd" d="M220.949 95.9046C221.553 97.0434 222.025 98.14 222.318 99.0453C223.061 101.312 223.118 103.883 222.648 105.697C222.517 106.203 222.347 106.628 222.149 106.927C222.087 107.016 222.042 107.081 222.01 107.117C220.643 106.728 219.641 105.2 218.965 103.263C217.929 100.302 217.716 96.5599 218.077 93.9084L218.082 93.9006C218.141 93.4693 218.17 93.2078 218.199 92.9312C218.232 92.6093 218.27 92.2646 218.314 91.9263C219.325 93.1339 220.229 94.5449 220.949 95.9046ZM201.568 88.955C206.087 86.6892 210.508 85.4355 213.375 85.3594C214.753 85.2474 216.089 85.6393 217.352 86.3688C218.89 85.4987 221.13 85.7885 224.513 88.3269C225.527 89.0838 226.475 90.089 227.34 91.2666C229.923 94.7889 231.854 100.045 232.588 105.128C233.343 110.369 232.827 115.531 230.472 118.674C229.992 119.312 229.436 119.875 228.795 120.345C228.32 120.694 227.831 120.992 227.34 121.244C226.848 121.498 226.333 121.705 225.802 121.864L225.749 121.878L225.751 121.884L225.553 121.93C224.905 122.11 224.253 122.212 223.606 122.244L223.546 122.254C219.218 122.828 214.092 123.35 209.062 123.42C203.948 123.491 198.918 123.104 194.878 121.85C191.675 120.859 189.014 119.471 187.085 117.7C185.537 116.283 184.459 114.629 183.938 112.744C183.416 110.865 183.46 108.8 184.153 106.559C184.994 103.846 186.809 100.859 189.774 97.6285C193.142 93.9571 197.439 91.0253 201.568 88.955ZM206.671 90.5727C205.563 92.8325 205.17 95.5587 205.345 98.4654C205.53 101.528 206.357 104.801 207.642 107.898C208.914 110.972 210.654 113.898 212.67 116.284C213.706 117.511 214.819 118.596 215.988 119.494C213.698 119.686 211.338 119.82 209.006 119.852C204.226 119.921 199.578 119.572 195.94 118.444C193.224 117.604 191.02 116.474 189.492 115.072C188.439 114.108 187.713 113.01 187.376 111.792C187.038 110.567 187.078 109.175 187.557 107.619C188.251 105.391 189.814 102.859 192.406 100.032C195.452 96.7104 199.38 94.036 203.167 92.1379C204.367 91.5361 205.549 91.0118 206.671 90.5727ZM214.227 88.9503L214.13 88.9414C214.021 88.9278 213.907 88.9189 213.785 88.9136C213.591 88.9161 213.399 88.9429 213.208 88.994L213.116 89.0269C212.962 89.0781 212.822 89.1353 212.709 89.1971C209.73 90.7766 208.67 94.2516 208.908 98.2475C209.071 100.91 209.802 103.784 210.938 106.525C212.08 109.285 213.62 111.887 215.39 113.981C218.194 117.302 221.532 119.334 224.601 118.503L224.818 118.438C225.108 118.351 225.412 118.225 225.722 118.066C226.037 117.902 226.359 117.706 226.674 117.474C227.017 117.223 227.33 116.907 227.604 116.535C229.354 114.207 229.681 110.02 229.05 105.636C228.395 101.093 226.704 96.4427 224.458 93.3805C223.798 92.4794 223.096 91.7311 222.376 91.1906L222.075 90.9697C222.836 92.0282 223.518 93.1475 224.093 94.2331C224.8 95.5667 225.356 96.8601 225.706 97.9333C226.66 100.85 226.721 104.2 226.102 106.591C225.872 107.485 225.541 108.274 225.123 108.904C224.597 109.697 223.915 110.266 223.088 110.537C222.483 110.734 221.841 110.761 221.173 110.588C218.438 109.877 216.646 107.452 215.594 104.432C214.375 100.951 214.125 96.5481 214.549 93.4263L214.645 92.5433C214.755 91.5169 214.88 90.3493 215.218 89.2781C214.883 89.1157 214.551 89.005 214.227 88.9503Z" fill="#F9F5F0"/>
<path fill-rule="evenodd" clip-rule="evenodd" d="M129.419 50.9866C130.11 51.6848 130.106 52.8133 129.409 53.5078C128.707 54.2001 127.579 54.1959 126.887 53.4977C124.097 50.6802 122.541 47.2105 121.976 42.9116C121.434 38.8108 121.811 33.9611 122.881 28.1988C123.044 27.3178 123.83 26.7083 124.701 26.7404C130.648 26.9501 135.322 28.3826 138.926 30.562C142.858 32.9416 145.492 36.1966 147.114 39.7328C148.72 43.2418 149.322 47.0184 149.199 50.4781C149.069 54.1391 148.121 57.5049 146.68 59.8788C146.173 60.7219 145.077 60.9941 144.235 60.4846C143.393 59.975 143.119 58.8782 143.629 58.0362C144.765 56.1626 145.515 53.4184 145.626 50.3524C145.729 47.3908 145.222 44.1758 143.867 41.2175C142.524 38.2841 140.341 35.5858 137.085 33.615C134.289 31.9229 130.686 30.7523 126.118 30.4005C125.325 35.1243 125.075 39.111 125.516 42.4543C125.978 45.9632 127.216 48.7632 129.419 50.9866Z" fill="#F9F5F0"/>
<path fill-rule="evenodd" clip-rule="evenodd" d="M145.977 56.8598C145.956 57.8461 145.138 58.6272 144.152 58.6063C143.168 58.5866 142.384 57.7699 142.404 56.7835C142.462 53.9857 142.115 50.5714 140.061 46.7208C137.946 42.7465 134.032 38.2818 126.936 33.4678C126.121 32.9165 125.906 31.8041 126.456 30.9857C127.008 30.1685 128.12 29.9547 128.939 30.5083C136.582 35.6931 140.856 40.6101 143.212 45.0357C145.633 49.5791 146.043 53.5833 145.977 56.8598Z" fill="#F9F5F0"/>
<path fill-rule="evenodd" clip-rule="evenodd" d="M134.689 196.723C133.754 197.028 132.747 196.52 132.437 195.584C132.132 194.649 132.64 193.642 133.575 193.334C148.36 188.468 161.927 181.162 176.71 170.031C191.561 158.853 207.642 143.811 227.397 123.523C228.082 122.814 229.214 122.794 229.925 123.48C230.635 124.165 230.652 125.298 229.967 126.006C210.093 146.416 193.881 161.576 178.858 172.885C163.761 184.248 149.868 191.723 134.689 196.723ZM105.224 213.196C105.012 212.234 105.619 211.282 106.581 211.07C107.538 210.858 108.49 211.465 108.703 212.425C119.783 262.651 117.048 267.712 112.564 276.009C111.9 277.241 111.192 278.548 110.484 280.139C110.08 281.036 109.024 281.438 108.125 281.036C107.976 280.971 107.841 280.885 107.723 280.788C97.3174 272.201 91.3355 265.292 86.8952 260.163C76.0308 247.611 75.0714 246.503 33.5615 258.851C32.7184 259.1 32.0387 258.876 31.5193 258.186L31.5176 258.18C31.4948 258.157 31.4766 258.125 31.4571 258.096C31.1298 257.6 31.0845 256.994 31.2842 256.473C31.3842 255.664 31.6831 254.651 32.1926 253.49C32.9437 251.784 34.1511 249.431 35.8152 246.648C43.9558 233.052 63.1567 209.216 93.8316 201.658C94.787 201.421 95.7546 202.006 95.9927 202.963C96.2289 203.918 95.6443 204.885 94.6859 205.123C65.2221 212.384 46.7251 235.366 38.8748 248.477C37.4429 250.871 36.3689 252.934 35.65 254.508C76.3075 242.498 77.6326 244.017 89.5848 257.823C93.675 262.551 99.1011 268.819 108.238 276.564C108.64 275.767 109.042 275.026 109.428 274.313C113.52 266.739 116.017 262.117 105.224 213.196ZM101.967 64.2119C102.179 63.2502 103.13 62.6425 104.092 62.8546C105.05 63.0675 105.659 64.0169 105.447 64.9786C105.412 65.1349 93.2183 119.695 102.33 180.796C102.477 181.775 101.802 182.683 100.826 182.829C99.8525 182.975 98.9418 182.301 98.7976 181.326C89.5893 119.586 101.93 64.3701 101.967 64.2119Z" fill="#F9F5F0"/>
<path fill-rule="evenodd" clip-rule="evenodd" d="M67.9973 233.174C67.6333 233.507 67.0681 233.477 66.7349 233.113C66.4059 232.746 66.4355 232.186 66.7995 231.853C66.874 231.787 93.1608 208.011 98.7575 211.472C104.256 214.872 101.455 243.812 101.448 243.896C101.399 244.385 100.961 244.743 100.47 244.697C99.9802 244.645 99.621 244.209 99.6718 243.716C99.6783 243.641 102.106 218.55 98.4578 213.607C96.5173 216.46 89.9401 226.528 87.6421 235.151C87.5145 235.628 87.0234 235.911 86.5458 235.784C86.0714 235.656 85.7882 235.164 85.9177 234.688C88.2382 225.977 94.7567 215.893 96.8753 212.764C90.5885 212.751 68.0665 233.112 67.9973 233.174Z" fill="#F9F5F0"/>
<path fill-rule="evenodd" clip-rule="evenodd" d="M106.913 187.043C106.894 187.534 106.479 187.921 105.989 187.9C105.492 187.882 105.109 187.465 105.128 186.972L109.095 87.9802C109.115 87.4901 109.53 87.1054 110.021 87.1238C110.514 87.1433 110.898 87.5598 110.881 88.0521L106.913 187.043Z" fill="#F9F5F0"/>
<path fill-rule="evenodd" clip-rule="evenodd" d="M123.053 195.805C122.599 195.998 122.076 195.787 121.882 195.335C121.689 194.882 121.899 194.359 122.351 194.167C122.368 194.159 129.064 191.338 136.637 185.297C138.257 184.005 141.467 181.633 145.638 178.55C161.073 167.154 189.739 145.982 199.829 133.593C200.137 133.209 200.701 133.15 201.083 133.461C201.466 133.771 201.524 134.332 201.213 134.714C190.979 147.283 162.195 168.543 146.7 179.985C142.564 183.041 139.38 185.391 137.752 186.693C129.996 192.877 123.074 195.796 123.053 195.805Z" fill="#F9F5F0"/>
<path fill-rule="evenodd" clip-rule="evenodd" d="M111.604 187.882C111.464 188.355 110.97 188.626 110.496 188.488C110.023 188.347 109.753 187.851 109.892 187.38C109.94 187.221 126.265 131.921 127.009 127.283C127.088 126.795 127.547 126.463 128.033 126.541C128.52 126.619 128.852 127.081 128.774 127.567C128.018 132.286 111.65 187.722 111.604 187.882Z" fill="#F9F5F0"/>
<path fill-rule="evenodd" clip-rule="evenodd" d="M116.769 192.367C116.302 192.206 116.05 191.702 116.209 191.232C116.369 190.766 116.876 190.515 117.345 190.671C117.346 190.672 118.036 190.977 123.483 186.218C129.293 181.143 165.511 144.913 165.614 144.811C165.962 144.461 166.527 144.46 166.878 144.81C167.227 145.157 167.227 145.724 166.877 146.073C166.775 146.178 130.528 182.431 124.66 187.56C118.428 193.005 116.774 192.367 116.769 192.367Z" fill="#F9F5F0"/>
<path fill-rule="evenodd" clip-rule="evenodd" d="M114.202 189.296C113.94 189.714 113.389 189.835 112.972 189.571C112.556 189.305 112.436 188.757 112.696 188.338C112.807 188.168 150.84 128.557 155.133 122.188C155.409 121.778 155.961 121.668 156.373 121.945C156.783 122.218 156.892 122.772 156.617 123.18C152.287 129.603 114.311 189.125 114.202 189.296Z" fill="#F9F5F0"/>
<path fill-rule="evenodd" clip-rule="evenodd" d="M212.065 112.167C212.487 112.416 212.629 112.963 212.377 113.387C212.127 113.81 211.578 113.951 211.155 113.698C207.547 111.54 203.077 110.402 198.881 109.914C192.89 109.222 187.54 109.824 186.014 110.685C185.586 110.93 185.044 110.78 184.799 110.353C184.556 109.927 184.705 109.381 185.133 109.139C186.893 108.14 192.733 107.409 199.086 108.145C203.504 108.657 208.219 109.866 212.065 112.167Z" fill="#F9F5F0"/>
<path fill-rule="evenodd" clip-rule="evenodd" d="M176.412 89.5423C176.681 89.1307 177.237 89.0198 177.651 89.2928C178.058 89.5644 178.169 90.1198 177.898 90.5302C174.404 95.7768 170.109 99.893 165.88 102.561C161.31 105.442 156.773 106.649 153.327 105.796C152.848 105.68 152.555 105.197 152.673 104.716C152.79 104.24 153.275 103.949 153.752 104.065C156.724 104.798 160.765 103.676 164.928 101.049C168.958 98.5085 173.061 94.5725 176.412 89.5423Z" fill="#F9F5F0"/>
<path fill-rule="evenodd" clip-rule="evenodd" d="M130.67 73.1272C130.655 72.635 131.041 72.2234 131.534 72.2066C132.027 72.1918 132.441 72.5768 132.456 73.069C133.011 89.8365 142.203 96.0403 142.231 96.0591C142.636 96.3396 142.736 96.8964 142.456 97.3043C142.173 97.708 141.617 97.8108 141.212 97.5272C141.184 97.5083 131.254 90.8033 130.67 73.1272Z" fill="#F9F5F0"/>
<path fill-rule="evenodd" clip-rule="evenodd" d="M155.691 50.5268C155.715 50.0339 156.135 49.6546 156.625 49.678C157.117 49.6994 157.497 50.1187 157.475 50.6107C156.92 62.2859 156.756 67.4328 156.755 67.4479C156.739 67.9402 156.327 68.3291 155.837 68.3138C155.342 68.2962 154.956 67.8856 154.972 67.3933C154.972 67.3802 155.137 62.2344 155.691 50.5268Z" fill="#F9F5F0"/>
<path fill-rule="evenodd" clip-rule="evenodd" d="M203.641 78.4914C203.959 78.1161 204.524 78.0702 204.899 78.3883C205.274 78.7064 205.32 79.2711 205 79.6453C195.563 90.7269 191.754 92.6146 191.742 92.621C191.306 92.8531 190.765 92.6884 190.534 92.254C190.299 91.8192 190.466 91.2783 190.899 91.0451C190.911 91.0387 194.435 89.3034 203.641 78.4914Z" fill="#F9F5F0"/>
<path fill-rule="evenodd" clip-rule="evenodd" d="M199.577 49.7979C199.921 49.4453 200.484 49.4377 200.836 49.7836C201.19 50.1257 201.194 50.6898 200.85 51.0424C199.176 52.7486 198.199 54.4987 198.02 56.5297L198.016 56.5768C197.846 58.6497 198.483 61.0686 200.019 64.0821C203.154 70.229 203.071 70.1807 203.071 70.1807C203.5 70.4283 203.643 70.9766 203.398 71.4017C203.15 71.8307 202.605 71.9785 202.176 71.7309C202.174 71.7297 201.809 71.5192 198.43 64.8936C196.736 61.573 196.039 58.8438 196.236 56.4306L196.239 56.3723C196.459 53.8969 197.606 51.803 199.577 49.7979Z" fill="#F9F5F0"/>
<path fill-rule="evenodd" clip-rule="evenodd" d="M163.732 61.9393C164.142 61.6612 164.696 61.7682 164.972 62.1772C165.249 62.5861 165.14 63.1425 164.731 63.4186C163.552 64.2143 162.636 65.2145 162.032 66.3474C161.38 67.5752 161.086 68.9759 161.22 70.4597C161.354 71.9698 161.934 73.5783 163.024 75.1932C164.617 77.5585 167.288 79.9219 171.238 82.0232C171.67 82.2569 171.834 82.7964 171.601 83.2313C171.369 83.6643 170.83 83.8286 170.393 83.5945C166.167 81.3446 163.285 78.7808 161.544 76.1948C160.278 74.3202 159.602 72.4245 159.441 70.6183C159.277 68.7816 159.643 67.0403 160.461 65.5056C161.204 64.1117 162.315 62.8942 163.732 61.9393Z" fill="#F9F5F0"/>
<path fill-rule="evenodd" clip-rule="evenodd" d="M211.048 102.715C210.868 102.257 211.094 101.738 211.55 101.556C212.011 101.375 212.528 101.601 212.71 102.06C214.161 105.744 215.362 108.081 216.64 109.718C217.884 111.31 219.23 112.261 220.994 113.191C221.43 113.422 221.594 113.962 221.363 114.398C221.133 114.832 220.594 114.996 220.157 114.767C218.181 113.723 216.663 112.646 215.236 110.821C213.843 109.037 212.565 106.562 211.048 102.715Z" fill="#F9F5F0"/>
<path fill-rule="evenodd" clip-rule="evenodd" d="M174.904 37.5989C175.021 37.1207 175.504 36.8249 175.984 36.9435C176.462 37.0578 176.757 37.5407 176.642 38.02L172.863 53.6709C172.745 54.1491 172.262 54.4418 171.784 54.3244C171.306 54.21 171.01 53.7271 171.126 53.2479L174.904 37.5989Z" fill="#F9F5F0"/>
<path fill-rule="evenodd" clip-rule="evenodd" d="M179.415 31.7454C178.999 31.4794 178.879 30.9264 179.147 30.5117C179.412 30.0979 179.963 29.9767 180.377 30.2447C183.333 32.141 186.922 34.8006 188.742 37.6244C190.763 40.765 190.761 44.0292 185.99 46.6773C185.558 46.9166 185.016 46.762 184.778 46.3311C184.538 45.9011 184.692 45.3586 185.122 45.1181C188.636 43.1662 188.678 40.8244 187.238 38.5893C185.594 36.0333 182.21 33.5413 179.415 31.7454Z" fill="#F9F5F0"/>
</svg>
