<svg width="240" height="240" viewBox="0 0 240 240" fill="none" xmlns="http://www.w3.org/2000/svg">
<path d="M3.16173 96.0637L2.32959 95.8508C2.22091 96.2701 2.17188 96.6943 2.17188 97.1136C2.17445 98.3781 2.60836 99.585 3.23328 100.609C4.06156 101.96 5.17441 103.004 6.2006 103.999H6.19995C7.22872 104.99 8.19639 105.962 8.81567 107.073C8.94815 107.31 9.18866 107.471 9.45939 107.505C9.72997 107.538 10.0025 107.441 10.1903 107.244C11.7139 105.64 13.2386 103.943 14.408 101.954C15.5146 100.067 16.2876 97.8979 16.2895 95.6315L16.2813 95.2425C16.2273 94.1397 15.9535 92.7744 14.8521 91.8476C14.3277 91.4123 13.6896 91.217 13.1055 91.2218C12.0574 91.2346 11.1864 91.7244 10.4949 92.1902C9.91212 92.5903 9.443 93.1265 9.11583 93.7364H9.11647C8.95313 94.0405 8.82371 94.367 8.73706 94.7079C8.72709 94.748 8.68995 94.8744 8.65603 95.0185C8.62275 95.1689 8.58513 95.3354 8.58256 95.5626C8.58706 95.6971 8.58642 95.8636 8.70635 96.1069C8.92419 96.5262 9.44235 96.6895 9.86373 96.4734C10.2857 96.2557 10.451 95.7403 10.233 95.321C9.88768 94.6551 9.40216 94.0725 8.8213 93.6083H8.82194C8.11986 93.0401 7.262 92.6479 6.29609 92.6511C5.99336 92.6511 5.68372 92.6896 5.37167 92.7632C3.81864 93.1457 2.71142 94.4182 2.33023 95.8508H2.32959L3.16173 96.0637L3.99371 96.2781C4.20915 95.4122 4.96284 94.6023 5.76909 94.4278C5.96073 94.383 6.13404 94.3622 6.29609 94.3622C6.80155 94.3654 7.23869 94.5415 7.74479 94.9416H7.74543C8.14237 95.2601 8.47516 95.6603 8.70571 96.1053C8.81117 96.3085 8.98963 96.459 9.20875 96.5278C9.42724 96.5982 9.66036 96.5774 9.86373 96.4734C10.0679 96.3677 10.2185 96.1901 10.2883 95.9724C10.3579 95.7547 10.3378 95.5226 10.2324 95.3193L9.76084 95.5626H10.3015C10.297 95.5498 10.3128 95.4874 10.2324 95.3193L9.76084 95.5626H10.3015V95.5594C10.3052 95.4922 10.3618 95.2777 10.4033 95.1289C10.4541 94.9272 10.5319 94.7287 10.6324 94.5415L10.633 94.5399C10.8333 94.1653 11.1261 93.834 11.4695 93.5987C12.0222 93.2113 12.6716 92.9217 13.1055 92.9329C13.3529 92.9393 13.5338 92.9889 13.7611 93.1697C14.2566 93.5491 14.5379 94.4454 14.5643 95.3113L14.5707 95.6315C14.5725 97.501 13.9195 99.3977 12.924 101.09C11.8721 102.884 10.4435 104.489 8.94188 106.067L9.56614 106.656L10.3166 106.239C9.53463 104.848 8.43063 103.772 7.39753 102.772L7.39688 102.77C6.36008 101.773 5.36781 100.814 4.70158 99.7194C4.20352 98.9095 3.88825 97.9748 3.89082 97.1136C3.89082 96.8271 3.9241 96.5486 3.99371 96.2781L3.16173 96.0637Z" fill="#9780C6" fill-opacity="0.8"/>
<path d="M23.2923 150.197L22.5223 149.759C21.9464 150.652 21.7195 151.661 21.7195 152.641C21.7195 153.284 21.8162 153.919 21.9827 154.524C22.4032 156.039 23.2035 157.344 23.9308 158.578V158.576C24.6619 159.808 25.3372 161.005 25.6209 162.231C25.682 162.494 25.8736 162.714 26.1349 162.823C26.3968 162.932 26.6995 162.918 26.9477 162.785C28.9655 161.699 31.0103 160.525 32.788 158.972H32.7873C34.5664 157.417 36.0689 155.453 36.7053 153.149C36.833 152.682 36.9224 152.166 36.9231 151.627C36.9224 150.935 36.7723 150.186 36.3031 149.526C35.9879 149.079 35.5555 148.752 35.0934 148.56C34.6307 148.367 34.1524 148.302 33.6982 148.3C33.0204 148.302 32.3833 148.445 31.8258 148.611C31.1197 148.825 30.4859 149.2 29.9725 149.686L29.9745 149.683C29.7152 149.927 29.4881 150.201 29.2985 150.497C29.2696 150.543 29.1676 150.688 29.0708 150.856L28.9233 151.152C28.8787 151.271 28.8273 151.401 28.8234 151.623L28.8418 151.811C28.8853 152.034 29.0189 152.228 29.217 152.356C29.415 152.484 29.6546 152.532 29.8914 152.49C30.1278 152.449 30.3332 152.324 30.4693 152.137C30.6056 151.95 30.6564 151.726 30.6122 151.504C30.468 150.774 30.1575 150.083 29.7157 149.479L29.7164 149.48C29.3624 148.994 28.9287 148.563 28.3884 148.247C27.8499 147.928 27.2095 147.737 26.5127 147.699H26.512L26.2856 147.692C24.7001 147.705 23.3029 148.565 22.5216 149.759H22.5223L23.2923 150.197L24.0624 150.636C24.5178 149.914 25.4538 149.372 26.2856 149.385L26.4047 149.388C26.8325 149.414 27.1477 149.515 27.4341 149.681C27.719 149.849 27.9803 150.095 28.231 150.437V150.438C28.5331 150.85 28.7458 151.327 28.8418 151.813C28.9326 152.272 29.4018 152.576 29.8914 152.49C30.3806 152.405 30.703 151.963 30.6129 151.504L29.9277 151.623H30.624L30.6129 151.504L29.9277 151.623H30.624H30.0929L30.6115 151.738L30.624 151.623H30.0929L30.6115 151.738L30.4528 151.703L30.6063 151.756L30.6115 151.738L30.4528 151.703L30.6063 151.756L30.8412 151.369H30.8419C30.9551 151.192 31.0932 151.026 31.2479 150.88L31.2506 150.878C31.5665 150.578 31.9614 150.348 32.3754 150.223C32.8215 150.088 33.3021 149.993 33.6982 149.993C33.9654 149.993 34.1878 150.034 34.3603 150.107C34.5333 150.182 34.669 150.278 34.8064 150.468C35.0164 150.76 35.1224 151.16 35.1217 151.627C35.1224 151.985 35.0592 152.37 34.9611 152.725C34.4432 154.617 33.1605 156.337 31.5613 157.732C29.9607 159.133 28.0401 160.248 26.0532 161.315L26.5007 162.05L27.38 161.868C27.0188 160.331 26.2382 158.997 25.505 157.754H25.5043C24.7679 156.514 24.0624 155.325 23.7261 154.099C23.5939 153.621 23.5201 153.124 23.5207 152.641C23.5207 151.901 23.6924 151.209 24.0624 150.638V150.636L23.2923 150.197Z" fill="#9780C6" fill-opacity="0.8"/>
<path d="M203.451 48.1173L202.736 47.6787C202.201 48.5702 201.991 49.5788 201.991 50.559C201.991 51.2018 202.08 51.8367 202.235 52.4432C202.626 53.9553 203.368 55.2616 204.044 56.4967C204.723 57.727 205.35 58.924 205.613 60.1495C205.671 60.4124 205.849 60.6325 206.092 60.7417C206.334 60.851 206.616 60.8367 206.846 60.7021C208.719 59.6159 210.618 58.4442 212.269 56.8909C213.921 55.3345 215.317 53.3726 215.907 51.0672C216.026 50.6001 216.109 50.0839 216.109 49.5472C216.109 48.8536 215.969 48.1063 215.533 47.4444C215.24 46.9995 214.838 46.6702 214.409 46.4801C213.981 46.287 213.536 46.2204 213.115 46.2204C212.485 46.222 211.894 46.3645 211.376 46.5308C210.72 46.7445 210.132 47.1182 209.655 47.6043C209.417 47.8466 209.205 48.119 209.029 48.4166L209.027 48.4182C209.002 48.4625 208.907 48.6082 208.817 48.7745L208.681 49.0706C208.639 49.1893 208.591 49.3207 208.587 49.5408L208.606 49.7356C208.692 50.1948 209.129 50.494 209.583 50.4085C210.036 50.3214 210.334 49.8812 210.249 49.4221C210.115 48.6921 209.827 48.0034 209.417 47.3985C209.088 46.9124 208.686 46.4817 208.184 46.1651C207.683 45.8468 207.089 45.6552 206.441 45.6172L206.23 45.6109C204.757 45.6235 203.46 46.4849 202.736 47.6787L203.451 48.1173L204.166 48.5559C204.59 47.8339 205.458 47.2908 206.23 47.3035L206.341 47.3067C206.738 47.332 207.031 47.4349 207.297 47.6012C207.561 47.7674 207.805 48.0128 208.038 48.3564C208.318 48.7697 208.515 49.2447 208.605 49.7309C208.645 49.9525 208.771 50.1473 208.955 50.2755C209.138 50.4022 209.362 50.4497 209.583 50.4085C209.802 50.3658 209.992 50.2391 210.118 50.0522C210.244 49.8654 210.29 49.639 210.248 49.4173L209.606 49.5408H210.26L210.248 49.4173L209.606 49.5408H210.26H209.902L210.244 49.6738L210.26 49.5408H209.902L210.244 49.6738L210.463 49.2859L210.46 49.2891C210.567 49.1117 210.695 48.9455 210.842 48.7966C211.135 48.4974 211.499 48.2678 211.887 48.1427C212.3 48.0065 212.746 47.9115 213.115 47.9131C213.363 47.9131 213.569 47.9543 213.73 48.0255C213.89 48.1015 214.015 48.1981 214.143 48.3866C214.339 48.6795 214.436 49.0801 214.436 49.5472C214.436 49.9034 214.378 50.2882 214.287 50.6429C213.807 52.5366 212.615 54.2546 211.13 55.6511C209.644 57.0509 207.86 58.1656 206.015 59.2344L206.43 59.9675L207.248 59.787C206.912 58.2479 206.186 56.9147 205.505 55.6733C204.821 54.4335 204.166 53.2428 203.854 52.0173C203.731 51.5391 203.664 51.0419 203.664 50.559C203.664 49.8195 203.823 49.1276 204.166 48.5559L203.451 48.1173Z" fill="#9780C6" fill-opacity="0.8"/>
<path d="M225.974 125.924L225.112 125.608C224.891 126.235 224.796 126.882 224.796 127.519C224.798 128.704 225.119 129.854 225.607 130.871C226.355 132.42 227.436 133.666 228.428 134.849C229.425 136.027 230.358 137.182 230.906 138.45C231.025 138.721 231.265 138.92 231.549 138.983C231.832 139.046 232.132 138.968 232.35 138.772C234.125 137.177 235.91 135.485 237.345 133.437C238.782 131.386 239.854 128.952 239.99 126.328L240 125.934C239.993 124.816 239.772 123.488 238.803 122.494C238.205 121.881 237.416 121.62 236.711 121.629C235.718 121.638 234.85 122.036 234.14 122.436H234.142C233.482 122.814 232.932 123.35 232.525 123.981C232.323 124.296 232.155 124.638 232.03 124.998L232.028 125C232.012 125.047 231.954 125.199 231.899 125.372C231.846 125.554 231.781 125.744 231.774 126.055C231.776 126.174 231.784 126.322 231.86 126.518C232.05 126.995 232.585 127.226 233.053 127.03C233.523 126.836 233.748 126.293 233.557 125.814C233.256 125.056 232.796 124.374 232.225 123.813C231.457 123.043 230.443 122.498 229.267 122.506C229.063 122.506 228.854 122.52 228.643 122.552C226.957 122.816 225.656 124.088 225.112 125.61L225.974 125.924L226.837 126.237C227.149 125.318 228.029 124.512 228.903 124.4L229.267 124.374C229.907 124.381 230.39 124.615 230.951 125.157C231.344 125.54 231.657 126.01 231.86 126.516C231.951 126.747 232.126 126.929 232.352 127.027C232.577 127.123 232.827 127.124 233.053 127.03C233.28 126.937 233.458 126.757 233.552 126.529C233.648 126.298 233.65 126.045 233.557 125.814L232.974 126.055H233.607L233.557 125.814L232.974 126.055H233.607H233.365L233.605 126.088L233.607 126.055H233.365L233.605 126.088C233.604 126.059 233.693 125.788 233.756 125.62V125.623C233.832 125.407 233.933 125.199 234.058 125.007C234.309 124.617 234.65 124.287 235.037 124.067L235.039 124.065C235.607 123.733 236.255 123.488 236.711 123.497C237.042 123.506 237.256 123.574 237.515 123.824C237.951 124.24 238.174 125.077 238.167 125.934L238.158 126.232C238.052 128.386 237.147 130.511 235.854 132.352C234.562 134.199 232.889 135.801 231.14 137.371L231.745 138.071L232.582 137.692C231.887 136.104 230.819 134.825 229.819 133.633C228.816 132.445 227.854 131.306 227.254 130.049C226.864 129.244 226.628 128.349 226.63 127.519C226.63 127.07 226.696 126.64 226.837 126.239L225.974 125.924Z" fill="#9780C6" fill-opacity="0.8"/>
<path d="M8.38748 105.991C7.13816 110.542 6.51587 115.262 6.51587 119.985C6.51587 125.462 7.35383 130.941 9.02532 136.152C9.57735 137.85 10.2931 139.777 11.9538 141.027L11.9545 141.029C12.7399 141.607 13.6949 141.898 14.6429 141.901C15.2405 141.901 15.8411 141.783 16.3919 141.512C16.9408 141.246 17.4398 140.816 17.7761 140.23C18.0557 139.749 18.1849 139.213 18.1837 138.7C18.1773 137.644 17.6885 136.696 16.9855 135.986C16.2787 135.279 15.3179 134.782 14.2438 134.777L14.0493 134.784H14.0499C12.77 134.859 11.6672 135.502 10.8502 136.379C10.0303 137.259 9.46403 138.38 9.212 139.552C9.07133 140.207 9.015 140.861 9.015 141.506C9.01631 143.098 9.35414 144.637 9.67397 146.079C11.5451 154.457 13.6744 163.233 19.0728 170.16C19.3734 170.547 19.9241 170.61 20.3029 170.304C20.681 169.998 20.7443 169.438 20.4436 169.052C15.3543 162.541 13.2375 154.047 11.3813 145.684C11.0607 144.252 10.7639 142.836 10.7653 141.506C10.7653 140.967 10.8126 140.442 10.9226 139.932V139.93C11.1023 139.08 11.538 138.225 12.1187 137.608C12.7029 136.984 13.4001 136.606 14.1505 136.562H14.1516L14.2438 136.559C14.7556 136.556 15.3274 136.821 15.7566 137.254C16.1891 137.685 16.4392 138.25 16.4328 138.7C16.4315 138.923 16.3828 139.123 16.2666 139.327V139.328C16.1167 139.585 15.9096 139.77 15.6325 139.907C15.3569 140.044 15.0114 140.119 14.6429 140.119C14.0583 140.122 13.4301 139.922 12.9855 139.588H12.9862C11.8656 138.772 11.2059 137.234 10.6898 135.6C9.07641 130.572 8.26597 125.277 8.26597 119.985C8.26597 115.422 8.86794 110.861 10.0737 106.471C10.2036 105.997 9.93172 105.506 9.46599 105.372C9.00092 105.24 8.51799 105.517 8.38748 105.991Z" fill="#9780C6" fill-opacity="0.8"/>
<path d="M232.646 118.787C233.219 116.539 233.484 114.242 233.484 111.945C233.484 107.347 232.427 102.75 230.659 98.4958C229.827 96.5025 228.785 94.4336 227.016 92.8508C225.613 91.603 223.736 90.7443 221.761 90.7377C221.21 90.7377 220.652 90.8067 220.106 90.9594C219.018 91.2615 218.084 91.91 217.403 92.7359C216.727 93.5618 216.292 94.5831 216.289 95.6651C216.289 96.0904 216.359 96.5222 216.508 96.9442C216.853 97.9227 217.572 98.6764 218.424 99.1657C219.28 99.6582 220.274 99.9078 221.277 99.9078C222.038 99.9078 222.81 99.7617 223.52 99.4415C225.996 98.3069 227.291 95.7932 227.551 93.3713C227.589 93.0052 227.606 92.6407 227.606 92.2794C227.605 90.2665 227.072 88.3405 226.53 86.5262C223.845 77.5991 220.043 68.8904 214.518 61.1947C214.232 60.7957 213.662 60.6939 213.246 60.9698C212.83 61.244 212.726 61.7907 213.012 62.1897C218.393 69.685 222.129 78.2165 224.773 87.0122C225.31 88.7953 225.779 90.5702 225.777 92.2794C225.777 92.5865 225.762 92.8919 225.731 93.1957C225.531 95.1692 224.432 97.1116 222.741 97.8538C222.302 98.0525 221.793 98.1542 221.277 98.1526C220.597 98.1542 219.909 97.9769 219.367 97.6617C218.823 97.3464 218.429 96.9146 218.239 96.3793C218.157 96.1478 218.12 95.9097 218.12 95.6651C218.116 95.0494 218.38 94.3811 218.84 93.8229C219.297 93.263 219.94 92.8295 220.613 92.6456C220.986 92.5422 221.369 92.4929 221.761 92.4929C223.155 92.4863 224.665 93.1447 225.77 94.1365C227.211 95.4172 228.167 97.2331 228.96 99.146C230.654 103.22 231.655 107.607 231.655 111.945C231.655 114.112 231.405 116.268 230.869 118.37C230.75 118.841 231.049 119.315 231.54 119.432C232.031 119.547 232.526 119.258 232.646 118.787Z" fill="#9780C6" fill-opacity="0.8"/>
<path d="M0.225092 115.915C0.075078 117.606 0 119.307 0 121.007C0 125.771 0.587207 130.533 1.7456 135.105C1.86514 135.578 2.2944 135.849 2.70329 135.71C3.11218 135.572 3.34623 135.075 3.22668 134.602C2.11002 130.196 1.54375 125.601 1.54375 121.007C1.54375 119.368 1.61594 117.728 1.7609 116.097C1.80422 115.606 1.49581 115.168 1.07161 115.118C0.648137 115.066 0.269129 115.424 0.225092 115.915Z" fill="#9780C6" fill-opacity="0.8"/>
<path d="M129.385 5.85437L128.533 6.01436C128.567 6.21478 128.585 6.41855 128.585 6.62402C128.588 7.6076 128.185 8.67538 127.567 9.57138C126.816 10.6695 125.746 11.5975 124.631 12.5659C123.518 13.5377 122.328 14.5819 121.44 15.9798L122.163 16.4749L122.834 15.9057C121.441 14.1339 120.125 12.3402 119.202 10.3764C118.424 8.7276 117.929 6.92888 117.93 5.17226C117.93 4.84215 117.948 4.51371 117.983 4.18698C118.074 3.27919 118.423 2.35962 118.95 2.00088C119.162 1.84762 119.331 1.80384 119.539 1.80047C119.98 1.78363 120.658 2.14403 121.221 2.6274C121.548 2.90024 121.817 3.27077 121.991 3.68003C122.079 3.8855 122.142 4.09772 122.178 4.31329C122.21 4.47835 122.252 4.72593 122.248 4.77982H122.441L122.253 4.74446L122.248 4.77982H122.441L122.253 4.74446L122.85 4.85729L122.336 4.52888L122.253 4.74446L122.85 4.85729L122.336 4.52888C122.216 4.73098 122.179 4.97857 122.232 5.2093C122.285 5.44004 122.427 5.64384 122.621 5.76679C122.816 5.89142 123.054 5.93014 123.276 5.87456C123.497 5.81898 123.693 5.67247 123.812 5.47036C124.076 5.02068 124.44 4.62657 124.864 4.32341H124.864C125.35 3.97815 125.772 3.8232 126.22 3.82152C126.425 3.82152 126.642 3.85519 126.887 3.93603C127.684 4.18024 128.381 5.08973 128.533 6.01436L129.385 5.85437L130.237 5.69434C129.96 4.16171 128.943 2.74194 127.411 2.21815C127.011 2.08678 126.611 2.02111 126.22 2.02111C125.35 2.01943 124.56 2.3512 123.881 2.8413H123.882C123.263 3.28256 122.732 3.85688 122.336 4.52888C122.086 4.9533 122.214 5.50742 122.621 5.76679C123.029 6.02784 123.562 5.89478 123.812 5.47036C123.988 5.14363 123.971 4.94824 123.98 4.77982C123.976 4.4093 123.896 4.09774 123.883 4.00005C123.822 3.63795 123.718 3.28591 123.575 2.95076C123.292 2.28718 122.861 1.6876 122.305 1.22444C121.601 0.648446 120.69 0.016906 119.539 6.39611e-05C119.011 -0.00330445 118.444 0.163414 117.952 0.528887C116.776 1.41646 116.399 2.82951 116.263 3.98151C116.219 4.37898 116.199 4.77647 116.199 5.17226C116.2 7.2792 116.782 9.33054 117.647 11.168C118.674 13.3474 120.08 15.2438 121.493 17.0442C121.666 17.2665 121.933 17.3895 122.208 17.3743C122.482 17.3592 122.736 17.2093 122.887 16.9701C123.59 15.8535 124.635 14.9069 125.742 13.9469C126.847 12.9819 128.043 11.9714 128.975 10.619C129.75 9.48717 130.312 8.10444 130.317 6.62402C130.317 6.31581 130.291 6.00423 130.237 5.69434L129.385 5.85437Z" fill="#9780C6" fill-opacity="0.8"/>
<path d="M110.901 13.1579L110.057 13.3476C110.106 13.5864 110.129 13.8285 110.129 14.0774C110.132 15.0325 109.768 16.0706 109.202 16.9545C108.488 18.0823 107.452 19.0509 106.369 20.0618C105.289 21.0745 104.136 22.165 103.294 23.5993L104.03 24.0717L104.681 23.4774C103.24 21.7433 101.873 19.9839 100.893 18.0416C100.024 16.3229 99.4627 14.4246 99.4639 12.5669C99.4639 12.3299 99.4728 12.0962 99.4911 11.8608C99.5536 10.9481 99.8739 10.0116 100.387 9.63398C100.606 9.46464 100.78 9.41556 101.005 9.41218C101.443 9.39694 102.109 9.73558 102.67 10.1877C103.004 10.4502 103.284 10.8126 103.468 11.219L103.469 11.2207C103.562 11.4222 103.631 11.6356 103.674 11.8506C103.713 12.02 103.765 12.2943 103.759 12.3214H104.269L103.837 12.064C103.738 12.2672 103.765 12.3197 103.759 12.3214H104.269L103.837 12.064C103.602 12.4975 103.747 13.0495 104.161 13.2968C104.575 13.544 105.101 13.3933 105.337 12.9581C105.587 12.4975 105.937 12.0894 106.35 11.771C106.845 11.3917 107.276 11.2224 107.747 11.2207C107.933 11.2207 108.133 11.2478 108.354 11.3138C109.156 11.534 109.878 12.423 110.057 13.3476L110.901 13.1579L111.745 12.97C111.423 11.4392 110.366 10.0438 108.823 9.57134C108.461 9.46466 108.1 9.41048 107.747 9.41048C106.837 9.4071 106.017 9.77453 105.326 10.313C104.723 10.7787 104.212 11.3731 103.837 12.0623C103.723 12.2723 103.694 12.5161 103.755 12.7498C103.816 12.9835 103.96 13.1782 104.161 13.2968C104.361 13.417 104.594 13.4475 104.816 13.3831C105.039 13.3188 105.224 13.1681 105.338 12.9581C105.486 12.6635 105.478 12.4755 105.485 12.3214C105.479 11.9116 105.379 11.5848 105.364 11.4798C105.291 11.1174 105.176 10.7669 105.024 10.435L105.025 10.4367C104.722 9.77626 104.274 9.18866 103.706 8.74161C103.006 8.20142 102.111 7.61716 101.005 7.60192C100.452 7.59684 99.855 7.78146 99.3472 8.18787C98.2031 9.11923 97.8708 10.5501 97.7711 11.7135C97.7484 11.9979 97.7375 12.2824 97.7375 12.5669C97.7395 14.8056 98.4012 16.9731 99.3674 18.89C100.458 21.044 101.916 22.905 103.38 24.6661C103.559 24.8829 103.829 24.998 104.102 24.9743C104.375 24.9506 104.622 24.7897 104.766 24.5459C105.433 23.4012 106.445 22.4139 107.518 21.4114C108.59 20.4056 109.75 19.3506 110.638 17.9604C111.347 16.8427 111.852 15.4999 111.855 14.0774C111.855 13.71 111.82 13.3391 111.745 12.97L110.901 13.1579Z" fill="#9780C6" fill-opacity="0.8"/>
<path d="M126.91 12.7177C127.976 12.6472 129.043 12.6127 130.111 12.6127C138.765 12.6127 147.425 14.9003 154.925 19.205C156.398 20.0413 157.748 20.9974 158.304 22.2601C158.455 22.5929 158.538 22.9915 158.536 23.3899C158.538 23.8721 158.416 24.3476 158.209 24.7051C157.998 25.0659 157.728 25.3037 157.376 25.4217L156.992 25.4857C156.578 25.4906 156.094 25.2512 155.707 24.8084C155.322 24.3739 155.078 23.7704 155.082 23.2424C155.082 23.0849 155.101 22.9341 155.141 22.7914C155.338 22.0649 155.847 21.4582 156.569 21.0105C157.287 20.5661 158.202 20.3119 159.063 20.307H159.112C160.881 20.3004 162.69 21.0745 164.527 21.919C172.219 25.4283 179.991 29.218 185.231 35.5201C185.54 35.8923 186.095 35.9448 186.469 35.6348C186.844 35.3265 186.895 34.7739 186.584 34.4C181.005 27.711 172.966 23.8524 165.259 20.325C163.413 19.4887 161.388 18.5605 159.112 18.554H159.048C157.865 18.5655 156.665 18.8934 155.644 19.5198C154.631 20.143 153.78 21.0941 153.442 22.3322C153.36 22.634 153.322 22.9406 153.322 23.2424C153.327 24.2673 153.74 25.2249 154.382 25.9612C155.022 26.691 155.932 27.2338 156.992 27.2387C157.303 27.2387 157.624 27.1895 157.937 27.0846C158.745 26.8156 159.356 26.2417 159.734 25.5792C160.116 24.9118 160.295 24.1508 160.295 23.3899C160.295 22.7602 160.172 22.1256 159.909 21.5402C159.045 19.6592 157.328 18.5687 155.804 17.6848C148.029 13.2244 139.076 10.8597 130.111 10.8597C129.005 10.8597 127.898 10.8958 126.794 10.9679C126.31 11.0007 125.943 11.4173 125.975 11.901C126.006 12.3831 126.425 12.7488 126.91 12.7177Z" fill="#9780C6" fill-opacity="0.8"/>
<path d="M137.62 7.01043C143.714 7.58527 149.686 9.24014 155.085 11.8521C155.514 12.058 156.047 11.9129 156.275 11.5277C156.505 11.1425 156.344 10.6624 155.917 10.4565C150.312 7.74672 144.125 6.03259 137.802 5.43405C137.319 5.3896 136.888 5.70517 136.837 6.13926C136.787 6.57484 137.137 6.9645 137.62 7.01043Z" fill="#9780C6" fill-opacity="0.8"/>
<path d="M223.856 71.9548C227.666 77.7719 230.028 84.5604 230.661 91.5087C230.705 91.9927 231.129 92.3484 231.608 92.3039C232.087 92.2595 232.439 91.8314 232.395 91.3473C231.735 84.106 229.278 77.0474 225.307 70.9834C225.041 70.5767 224.502 70.4664 224.1 70.7348C223.699 71.0031 223.59 71.5481 223.856 71.9548Z" fill="#9780C6" fill-opacity="0.8"/>
<path d="M78.2102 219.863L77.314 220.076C77.3892 220.348 77.425 220.627 77.4257 220.914C77.4276 221.775 77.0881 222.71 76.5525 223.518C75.8342 224.615 74.7648 225.572 73.6482 226.572C72.5362 227.573 71.3466 228.648 70.5045 230.039L71.3128 230.456L71.9851 229.868C70.3679 228.29 68.8292 226.684 67.6963 224.89C66.6243 223.198 65.9208 221.299 65.9229 219.431L65.9297 219.111C65.9581 218.245 66.2611 217.347 66.7947 216.968C67.0388 216.788 67.2336 216.739 67.5001 216.734C67.9683 216.721 68.6676 217.011 69.2634 217.398C69.6334 217.634 69.9479 217.963 70.1636 218.34C70.2725 218.528 70.3565 218.729 70.4119 218.929L70.4112 218.927L70.4903 219.207L70.516 219.326L70.5208 219.359L70.5215 219.362H71.1024L70.5946 219.121C70.5085 219.289 70.5255 219.35 70.5215 219.362H71.1024L70.5946 219.121C70.4815 219.324 70.4599 219.556 70.5357 219.774C70.6107 219.992 70.7731 220.169 70.9928 220.273C71.2127 220.379 71.4629 220.398 71.6989 220.328C71.9344 220.259 72.1264 220.108 72.2395 219.905C72.4876 219.46 72.8455 219.06 73.2749 218.74L73.2742 218.741C73.8194 218.341 74.2907 218.165 74.836 218.162C75.0103 218.162 75.1971 218.181 75.4027 218.226H75.402C76.2712 218.402 77.082 219.212 77.314 220.078L78.2102 219.863L79.1065 219.649C78.6952 218.218 77.5035 216.945 75.8309 216.561H75.8302C75.4939 216.487 75.1613 216.451 74.836 216.451C73.7957 216.447 72.8711 216.84 72.115 217.406L72.1136 217.408C71.4899 217.872 70.9672 218.453 70.5946 219.121C70.3605 219.542 70.5383 220.057 70.9928 220.273C71.4466 220.491 72.0047 220.326 72.2395 219.907C72.3679 219.663 72.3679 219.497 72.3719 219.362C72.3693 219.135 72.3286 218.969 72.2928 218.818C72.2563 218.674 72.2164 218.548 72.2062 218.508L72.2055 218.506C72.1122 218.167 71.9728 217.842 71.7978 217.536C71.4454 216.924 70.9402 216.388 70.3125 215.988H70.3118C69.5678 215.524 68.6297 215.034 67.5001 215.023C66.8719 215.016 66.1854 215.212 65.6206 215.645H65.6199C64.4335 216.574 64.1386 217.939 64.0805 219.042L64.0725 219.431C64.0744 221.696 64.9064 223.867 66.0981 225.754C67.3574 227.744 68.9997 229.439 70.6405 231.045C70.8427 231.242 71.1362 231.339 71.4285 231.306C71.72 231.27 71.9784 231.11 72.1217 230.872C72.7878 229.763 73.8302 228.791 74.9374 227.8C76.0431 226.804 77.2417 225.759 78.1332 224.408C78.806 223.385 79.2735 222.178 79.2761 220.914C79.2761 220.494 79.2233 220.07 79.1065 219.651L78.2102 219.863Z" fill="#9780C6" fill-opacity="0.8"/>
<path d="M162.946 225.208L162.129 225.477C162.225 225.819 162.271 226.177 162.271 226.546C162.273 227.426 162.004 228.376 161.573 229.215C160.959 230.426 160.013 231.502 159.024 232.625C158.039 233.751 156.988 234.96 156.271 236.492L157.034 236.906L157.63 236.243C156.068 234.615 154.578 232.952 153.454 231.071C152.331 229.192 151.578 227.054 151.575 224.925V224.908C151.574 224.451 151.626 223.966 151.746 223.554C151.866 223.138 152.046 222.807 152.281 222.581C152.515 222.364 152.703 222.303 152.979 222.296C153.408 222.286 154.037 222.564 154.579 222.938V222.94C154.931 223.176 155.237 223.518 155.451 223.913C155.56 224.109 155.645 224.32 155.704 224.534L155.706 224.539L155.794 224.848L155.821 224.972L155.826 225.003L155.935 224.989H155.826V225.003L155.935 224.989H155.826H156.393L155.882 224.737L155.826 224.989H156.393L155.882 224.737C155.685 225.199 155.872 225.746 156.301 225.96C156.73 226.172 157.238 225.972 157.436 225.51C157.646 225.02 157.959 224.572 158.34 224.213L158.342 224.211C158.856 223.733 159.299 223.525 159.843 223.519C159.979 223.519 160.125 223.533 160.283 223.566C161.093 223.718 161.879 224.556 162.129 225.477L162.946 225.208L163.766 224.941C163.326 223.416 162.169 222.096 160.607 221.757H160.608C160.349 221.703 160.093 221.676 159.843 221.676C158.819 221.67 157.923 222.146 157.212 222.826L157.214 222.824C156.655 223.352 156.197 224.002 155.884 224.735C155.788 224.958 155.778 225.21 155.856 225.441C155.935 225.672 156.093 225.857 156.301 225.96C156.508 226.064 156.741 226.072 156.956 225.988C157.17 225.901 157.342 225.732 157.436 225.508C157.529 225.284 157.534 225.122 157.537 224.989C157.532 224.715 157.484 224.53 157.442 224.358C157.401 224.196 157.356 224.051 157.343 224.004L157.345 224.009C157.244 223.644 157.102 223.299 156.927 222.978C156.573 222.333 156.084 221.779 155.487 221.377H155.488C154.81 220.925 153.966 220.463 152.979 220.453C152.361 220.446 151.679 220.677 151.138 221.208C150.613 221.717 150.298 222.364 150.112 223.007C149.927 223.652 149.864 224.308 149.864 224.908V224.932C149.874 227.524 150.767 229.977 152.015 232.069C153.265 234.156 154.853 235.912 156.439 237.568C156.634 237.772 156.909 237.865 157.177 237.815C157.446 237.766 157.678 237.582 157.799 237.32C158.366 236.097 159.288 235.005 160.267 233.891C161.245 232.773 162.308 231.597 163.073 230.105C163.614 229.044 163.98 227.819 163.982 226.546C163.982 226.013 163.916 225.472 163.766 224.941L162.946 225.208Z" fill="#9780C6" fill-opacity="0.8"/>
<path d="M145.284 230.255C140.766 232.777 135.532 233.886 130.273 233.886C128.861 233.886 127.447 233.806 126.048 233.652C123.978 233.428 121.958 233.026 120.336 232.027L120.337 232.029C119.544 231.544 118.832 230.871 118.333 230.109C117.833 229.347 117.546 228.508 117.546 227.656V227.62L117.546 227.617C117.551 226.83 117.901 225.988 118.455 225.376C119.011 224.758 119.729 224.392 120.449 224.395L120.57 224.398H120.572C121.278 224.438 121.924 224.819 122.423 225.442C122.918 226.058 123.221 226.899 123.219 227.688C123.219 227.862 123.205 228.034 123.176 228.203C123.023 229.094 122.563 229.917 121.89 230.618C121.219 231.318 120.337 231.886 119.41 232.243L119.409 232.244C117.732 232.897 115.825 233.021 113.861 233.019C113.619 233.019 113.376 233.018 113.132 233.014C103.872 232.918 94.5863 231.732 85.8838 228.731C85.4206 228.572 84.9151 228.817 84.7548 229.279C84.5945 229.742 84.8405 230.245 85.3038 230.406C94.2391 233.486 103.715 234.687 113.114 234.785C113.361 234.788 113.61 234.79 113.861 234.79C115.891 234.788 118.023 234.677 120.052 233.894H120.052C121.207 233.447 122.298 232.751 123.172 231.843C124.045 230.936 124.703 229.801 124.927 228.499C124.973 228.229 124.995 227.958 124.995 227.688C124.991 226.467 124.557 225.278 123.813 224.34C123.072 223.406 121.976 222.706 120.674 222.631H120.675L120.449 222.624C119.121 222.626 117.954 223.279 117.132 224.195C116.308 225.116 115.787 226.323 115.771 227.598V227.597V227.656C115.771 228.908 116.191 230.081 116.848 231.08C117.506 232.08 118.4 232.918 119.406 233.536C121.408 234.758 123.695 235.174 125.854 235.413C127.316 235.572 128.793 235.656 130.273 235.656C135.778 235.656 141.314 234.5 146.151 231.8C146.58 231.562 146.732 231.022 146.493 230.595C146.252 230.169 145.713 230.016 145.284 230.255Z" fill="#9780C6" fill-opacity="0.8"/>
<path d="M97.287 237.578C101.905 239.187 106.759 240 111.613 240C114.351 240 117.09 239.742 119.786 239.22C120.286 239.124 120.618 238.612 120.528 238.076C120.438 237.541 119.961 237.185 119.461 237.281C116.873 237.781 114.243 238.03 111.613 238.03C106.951 238.03 102.287 237.248 97.8554 235.705C97.373 235.536 96.8535 235.82 96.697 236.337C96.5398 236.855 96.8038 237.41 97.287 237.578Z" fill="#9780C6" fill-opacity="0.8"/>
<path d="M9.8758 74.5525L9.01573 74.2521C8.78679 74.8512 8.68774 75.4734 8.68774 76.084C8.68912 77.1821 9.00031 78.2507 9.4755 79.1978C10.2125 80.6587 11.2842 81.8372 12.2682 82.955H12.2689C13.2563 84.0679 14.1813 85.1579 14.7209 86.3512C14.8373 86.6056 15.0749 86.7944 15.3587 86.8567C15.642 86.9175 15.9412 86.8453 16.1607 86.6631C17.9466 85.1792 19.7413 83.6001 21.1898 81.6862L21.1905 81.6846C22.6384 79.7674 23.7262 77.4874 23.8787 75.0236L23.8914 74.61C23.8854 73.5709 23.6658 72.3415 22.7187 71.4157H22.718C22.1169 70.8281 21.3202 70.5802 20.6101 70.5884C19.6275 70.5966 18.7659 70.9611 18.0597 71.3304H18.0604C17.3998 71.68 16.8461 72.1806 16.4352 72.7699C16.2291 73.067 16.0596 73.3871 15.9324 73.7236L15.9311 73.7269C15.915 73.7695 15.8555 73.9124 15.7993 74.0749C15.745 74.2472 15.6774 74.4261 15.6714 74.7249C15.6726 74.8348 15.6807 74.9711 15.7516 75.1467C15.8421 75.365 16.0154 75.5357 16.2404 75.6293C16.4652 75.7229 16.7144 75.7262 16.9419 75.6392C17.1695 75.5522 17.3482 75.3864 17.4445 75.1713C17.5417 74.9563 17.545 74.7166 17.4546 74.5C17.1573 73.7859 16.7036 73.1425 16.1365 72.6107C15.3675 71.8769 14.348 71.3566 13.1618 71.3632C12.9658 71.3632 12.7669 71.3763 12.5655 71.4042L12.5662 71.4026C10.8772 71.639 9.56923 72.8273 9.01573 74.2521L9.8758 74.5525L10.7367 74.8545C11.0546 73.9928 11.9388 73.2393 12.8124 73.1425H12.8131L13.1618 73.1179C13.8086 73.1261 14.2925 73.3493 14.8541 73.8648H14.8547C15.243 74.2292 15.5542 74.6707 15.7523 75.1484C15.9398 75.5981 16.4714 75.8181 16.9419 75.6392C17.4118 75.4602 17.6414 74.9514 17.4546 74.5L16.8655 74.7249H17.5028L17.4546 74.5L16.8655 74.7249H17.5028H17.2437L17.5014 74.7577L17.5028 74.7249H17.2437L17.5014 74.7577L17.553 74.5853L17.6555 74.3178L17.6541 74.3211C17.7311 74.1192 17.8349 73.9238 17.9593 73.7433H17.96C18.2131 73.3789 18.557 73.0703 18.9453 72.8667L18.946 72.8651C19.511 72.5614 20.1543 72.3366 20.6101 72.3431C20.9475 72.3513 21.1629 72.4186 21.4227 72.6566V72.655C21.8484 73.0457 22.0653 73.8139 22.0593 74.61L22.0499 74.9218C21.9294 76.9441 21.0097 78.9335 19.7064 80.657V80.6554C18.4025 82.3822 16.7197 83.8775 14.9605 85.3384L15.5609 85.9999L16.4004 85.6503C15.7169 84.1533 14.6585 82.9468 13.6665 81.8208H13.6672C12.6719 80.6981 11.7179 79.6213 11.1262 78.4378C10.7487 77.6876 10.5184 76.8571 10.5198 76.084C10.5198 75.6539 10.5894 75.2403 10.7367 74.8545L9.8758 74.5525Z" fill="#9780C6" fill-opacity="0.8"/>
<path d="M66.2364 23.9109C59.7177 25.284 54.1338 28.7995 49.4776 33.3895C44.8189 37.9828 41.0711 43.6573 38.1877 49.4286C36.9261 51.9647 35.7836 54.4924 34.0836 56.5246C32.3969 58.5535 30.0028 60.0918 27.5405 60.1168H27.5411H27.4684C26.2855 60.1202 25.0404 59.6764 24.1022 58.9422C23.1593 58.2064 22.5419 57.2187 22.4532 56.1325L22.4427 55.8772C22.4406 55.078 22.756 54.2488 23.287 53.5948C23.8173 52.9391 24.5453 52.4719 25.3268 52.3301C25.5013 52.2967 25.6792 52.2817 25.8583 52.2817C26.6054 52.28 27.3917 52.5636 28.0085 53.0442C28.6275 53.523 29.0618 54.1787 29.1908 54.8828C29.2807 55.3684 29.7514 55.6887 30.2435 55.6003C30.7347 55.5119 31.0607 55.048 30.9707 54.5642C30.7479 53.3645 30.0444 52.3534 29.1267 51.641C28.2069 50.9302 27.0577 50.4997 25.8583 50.4981C25.5714 50.4981 25.2811 50.5231 24.9935 50.5765C23.7227 50.8134 22.6397 51.5342 21.8721 52.4835C21.105 53.4329 20.6356 54.6275 20.6335 55.8772L20.6501 56.276C20.7889 57.9495 21.7245 59.366 22.9801 60.3421C24.2411 61.3198 25.8399 61.8988 27.4684 61.9005H27.5676H27.5682C30.7823 61.8404 33.5633 59.9516 35.4821 57.6575C37.3877 55.3683 38.5672 52.7021 39.8116 50.2161C42.6264 44.5783 46.2815 39.0607 50.7571 34.6509C55.234 30.2394 60.5145 26.9409 66.6147 25.6561C67.1032 25.5527 67.4146 25.0788 67.3102 24.5966C67.2058 24.1161 66.725 23.8091 66.2364 23.9109Z" fill="#9780C6" fill-opacity="0.8"/>
<path d="M20.0536 64.6565C22.3415 65.7119 24.872 66.2444 27.4019 66.2444C29.1649 66.2444 30.9286 65.9853 32.6105 65.4592H32.6099C36.7058 64.1783 40.2188 61.3592 42.2478 57.7277C42.4799 57.3103 42.3153 56.7923 41.8792 56.5716C41.4432 56.3493 40.9019 56.506 40.6693 56.9234C38.8689 60.1551 35.6986 62.7008 32.0541 63.8345C30.5592 64.3015 28.9812 64.535 27.4019 64.535C25.1349 64.535 22.8652 64.0552 20.8309 63.1166C20.3864 62.9119 19.8516 63.091 19.6366 63.5163C19.4222 63.9401 19.6085 64.4518 20.0536 64.6565Z" fill="#9780C6" fill-opacity="0.8"/>
<path d="M188.62 210.969L188.158 211.684C189.123 212.256 189.783 213.396 190.056 214.622C190.215 215.333 190.265 216.086 190.265 216.867C190.265 217.44 190.238 218.027 190.213 218.625C190.192 219.124 190.172 219.635 190.171 220.156C190.172 221.109 190.238 222.092 190.497 223.076L191.344 222.868L191.391 222.026C189.174 221.912 186.992 221.729 184.957 221.158C182.924 220.59 181.014 219.6 179.687 218.134C179.157 217.561 178.747 216.813 178.76 216.239L178.772 216.061C178.832 215.679 178.991 215.488 179.347 215.261C179.698 215.048 180.238 214.896 180.765 214.819L181.171 214.787C181.463 214.787 181.762 214.835 182.043 214.926L182.041 214.925C182.247 214.991 182.445 215.082 182.626 215.193L182.939 215.384L183.007 215.436L183.38 215.075L182.885 215.213C182.952 215.406 183.009 215.428 183.007 215.436L183.38 215.075L182.885 215.213C182.95 215.43 183.099 215.61 183.303 215.718C183.507 215.826 183.742 215.853 183.968 215.789C184.192 215.726 184.376 215.583 184.489 215.385C184.602 215.188 184.628 214.961 184.563 214.743C184.468 214.426 184.419 214.09 184.419 213.754C184.419 213.588 184.43 213.424 184.453 213.262C184.589 212.435 184.85 211.968 185.548 211.559C185.875 211.374 186.27 211.28 186.689 211.28C187.202 211.278 187.738 211.428 188.156 211.682L188.158 211.684L188.62 210.969L189.084 210.254C188.37 209.823 187.535 209.594 186.689 209.593C186.001 209.593 185.3 209.747 184.671 210.099C183.478 210.751 182.865 211.878 182.723 213.036C182.689 213.273 182.672 213.512 182.672 213.754C182.672 214.245 182.742 214.737 182.886 215.215C183.02 215.662 183.504 215.919 183.968 215.789C184.43 215.66 184.697 215.193 184.563 214.745C184.47 214.462 184.341 214.346 184.241 214.241C184.087 214.095 183.948 214.005 183.823 213.924L183.556 213.765C183.256 213.582 182.934 213.435 182.597 213.326L182.595 213.325C182.138 213.178 181.656 213.101 181.171 213.101C180.943 213.101 180.718 213.118 180.492 213.153C179.837 213.255 179.1 213.429 178.429 213.826C177.76 214.21 177.149 214.914 177.04 215.853L177.014 216.239C177.028 217.479 177.702 218.494 178.373 219.245C179.994 221.028 182.207 222.144 184.47 222.778C186.731 223.411 189.046 223.592 191.296 223.709C191.574 223.723 191.844 223.61 192.019 223.401C192.195 223.195 192.259 222.917 192.19 222.658C191.981 221.872 191.917 221.033 191.919 220.156C191.917 219.678 191.937 219.188 191.958 218.694C191.983 218.1 192.012 217.49 192.012 216.867C192.011 216.018 191.96 215.144 191.762 214.265C191.417 212.734 190.595 211.174 189.082 210.252L189.084 210.254L188.62 210.969Z" fill="#9780C6" fill-opacity="0.8"/>
<path d="M222.982 162.727C222.99 163.006 222.995 163.285 222.995 163.563C222.995 169.518 220.962 175.18 217.724 180.359C214.486 185.534 210.047 190.211 205.301 194.15C203.162 195.93 200.832 197.692 199.041 200.056C197.604 201.963 196.566 204.319 196.561 206.775C196.561 207.386 196.627 208.003 196.77 208.615C197.11 210.058 197.934 211.363 199.043 212.331C200.148 213.295 201.561 213.933 203.089 213.937C203.369 213.937 203.652 213.915 203.933 213.868C205.215 213.662 206.341 212.977 207.156 212.046C207.97 211.114 208.49 209.915 208.494 208.632L208.485 208.367C208.408 207.066 207.779 205.892 206.871 205.034C205.963 204.178 204.747 203.612 203.426 203.611L203.148 203.619C202.651 203.651 202.275 204.073 202.308 204.563C202.34 205.052 202.767 205.425 203.264 205.393L203.426 205.388C204.208 205.385 205.011 205.737 205.626 206.319C206.243 206.899 206.646 207.686 206.688 208.467L206.693 208.632C206.694 209.426 206.357 210.241 205.793 210.884C205.229 211.531 204.454 211.988 203.645 212.115C203.46 212.144 203.274 212.159 203.089 212.159C202.087 212.161 201.071 211.729 200.234 210.999C199.4 210.272 198.768 209.262 198.525 208.216C198.414 207.742 198.362 207.26 198.362 206.775C198.357 204.831 199.219 202.788 200.485 201.119C202.072 199.012 204.277 197.32 206.46 195.509C211.319 191.476 215.886 186.677 219.255 181.292C222.623 175.909 224.796 169.925 224.796 163.563C224.796 163.267 224.791 162.968 224.783 162.67C224.766 162.18 224.352 161.794 223.853 161.81C223.356 161.825 222.967 162.236 222.982 162.727Z" fill="#9780C6" fill-opacity="0.8"/>
<path d="M197.851 215.726C195.471 213.045 194.136 209.543 194.138 206.056C194.138 205.699 194.15 205.341 194.179 204.986C194.479 201.155 196.439 197.43 199.5 194.867C199.895 194.535 199.927 193.968 199.574 193.601C199.22 193.232 198.613 193.202 198.217 193.532C194.779 196.419 192.607 200.546 192.264 204.853C192.232 205.254 192.217 205.655 192.217 206.056C192.219 209.967 193.698 213.851 196.372 216.87C196.71 217.251 197.316 217.305 197.725 216.988C198.133 216.672 198.19 216.107 197.851 215.726Z" fill="#9780C6" fill-opacity="0.8"/>
<path d="M31.6865 193.647C38.9284 202.619 47.5625 210.528 57.2091 217.036C57.623 217.315 58.1909 217.216 58.4789 216.816C58.7667 216.414 58.6647 215.863 58.2516 215.585C48.7542 209.179 40.252 201.388 33.1236 192.557C32.813 192.172 32.2397 192.104 31.8432 192.405C31.4466 192.706 31.3767 193.262 31.6865 193.647Z" fill="#9780C6" fill-opacity="0.8"/>
<path d="M38.2247 208.909C40.5769 211.674 43.3532 214.065 46.425 215.975C46.8443 216.236 47.3933 216.103 47.6506 215.68C47.9085 215.255 47.7776 214.701 47.3581 214.44C44.444 212.63 41.807 210.358 39.5761 207.734C39.2556 207.357 38.693 207.315 38.3192 207.638C37.9459 207.963 37.9036 208.531 38.2247 208.909Z" fill="#9780C6" fill-opacity="0.8"/>
</svg>
