<svg width="497" height="80" viewBox="0 0 497 80" fill="none" xmlns="http://www.w3.org/2000/svg">
<path fill-rule="evenodd" clip-rule="evenodd" d="M45.9095 63.1792C39.1406 63.1534 26.9851 57.3857 6.64373 40.2944C9.57264 38.3947 12.8694 35.6424 16.4221 32.6785C21.4061 28.5215 26.9162 23.9211 32.2135 20.9886C39.5401 16.9346 46.6769 16.1307 51.638 25.0025C55.478 31.8774 44.8719 39.0384 44.8431 39.0555C44.3861 39.3702 44.0355 39.8366 43.8774 40.4088C43.5181 41.6933 44.2769 43.0237 45.5675 43.3784C48.2003 44.0994 50.8447 49.0489 51.6351 53.9812C52.0404 56.5246 51.9053 58.9821 50.9453 60.7216C50.1261 62.2036 48.5338 63.1878 45.9095 63.1792ZM0.866364 41.7306C23.809 61.414 37.8385 67.9684 45.8951 67.9999L45.9009 67.9999C50.586 68.0171 53.5465 66.0373 55.1992 63.0447C56.714 60.2982 56.9842 56.7506 56.4208 53.2287C55.6563 48.4681 53.2591 43.6016 50.3302 40.8379C54.153 37.3876 60.1459 30.3125 55.869 22.6623C49.0569 10.4717 39.5487 11.4072 29.8566 16.7744C24.1223 19.95 18.4427 24.6907 13.3092 28.9764C8.64135 32.8673 4.44201 36.3748 1.45849 37.6708C0.228287 38.2058 -0.3322 39.6277 0.202419 40.8465C0.357631 41.2013 0.587557 41.4988 0.866364 41.7306Z" fill="#3D3F41"/>
<path fill-rule="evenodd" clip-rule="evenodd" d="M43.9621 37.9865C41.9071 37.9865 40.2429 39.1102 40.2429 40.4977C40.2429 41.8763 41.9071 43 43.9621 43C472.748 43 480.066 40.9395 480.101 40.9336C482.09 40.5985 483.302 39.2377 482.802 37.8976C482.308 36.5545 480.287 35.7422 478.298 36.0743C478.264 36.0802 471.863 37.9865 43.9621 37.9865Z" fill="#3D3F41"/>
<path fill-rule="evenodd" clip-rule="evenodd" d="M480.033 75.1879C469.456 75.1765 450.611 66.2462 419.218 39.8154C423.927 37.0081 429.409 32.453 435.371 27.4982C442.983 21.1782 451.395 14.1899 459.551 9.69479C471.286 3.22345 482.739 1.97547 490.746 16.2461C497.008 27.3982 479.048 36.7168 478.996 36.7397C478.425 37.0424 477.973 37.565 477.785 38.2333C477.431 39.5127 478.189 40.8406 479.483 41.1948C484.031 42.4342 488.648 50.8989 489.985 59.2437C490.674 63.5103 490.449 67.6627 488.841 70.6585C487.374 73.3887 484.59 75.1907 480.033 75.1879ZM413.359 41.1862C447.392 70.2587 468.148 79.9857 480.033 80C486.676 80.0086 490.832 77.187 493.123 72.9232C495.27 68.925 495.622 63.7074 494.783 58.4898C493.535 50.7133 489.518 42.7484 484.829 38.8159C490.777 34.752 501.449 25.4048 494.994 13.9043C485.126 -3.67338 471.295 -2.29118 457.191 5.48814C448.591 10.226 440.011 17.3542 432.25 23.7998C425.091 29.7485 418.65 35.0975 413.95 37.1338C412.719 37.665 412.157 39.0843 412.693 40.3037C412.846 40.655 413.079 40.9549 413.359 41.1862Z" fill="#3D3F41"/>
<path fill-rule="evenodd" clip-rule="evenodd" d="M465.355 66.8126C465.931 67.1709 466.691 67.0005 467.057 66.4284C467.419 65.8621 467.244 65.1079 466.668 64.7497C466.56 64.6861 428.889 41.1785 429.77 39.7512C432.048 36.0615 437.493 31.3635 443.812 26.7434C453.155 19.9131 464.337 13.3167 470.18 10.2973C470.782 9.98241 471.016 9.24854 470.703 8.65333C470.388 8.05813 469.645 7.82698 469.042 8.13903C463.118 11.2017 451.789 17.8818 442.341 24.7873C435.799 29.5721 430.126 34.4926 427.664 38.4828C425.529 41.9384 465.244 66.7433 465.355 66.8126Z" fill="#3D3F41"/>
<path fill-rule="evenodd" clip-rule="evenodd" d="M480.02 70.7854C480.565 71.1622 481.311 71.0309 481.69 70.4857C482.07 69.9433 481.938 69.1926 481.397 68.813C481.286 68.7359 442.923 41.8415 443.792 40.4086C446.046 36.7064 451.142 32.1536 457.019 27.7292C465.526 21.3182 475.623 15.224 481.263 12.2668C481.853 11.9585 482.078 11.2307 481.773 10.6427C481.465 10.0575 480.741 9.82915 480.154 10.1374C474.429 13.1346 464.195 19.3115 455.576 25.8054C449.483 30.3953 444.165 35.1679 441.743 39.1555C439.677 42.5466 479.904 70.7026 480.02 70.7854Z" fill="#3D3F41"/>
<path fill-rule="evenodd" clip-rule="evenodd" d="M486.028 64.8055C486.606 65.1716 487.376 65.006 487.748 64.4337C488.12 63.8672 487.951 63.106 487.373 62.74C481.363 58.94 469.612 51.404 461.706 45.6925C457.212 42.4474 453.958 40.0739 453.988 40.0217C456.245 36.3786 461.334 32.3549 467.32 28.433C473.392 24.4587 480.399 20.5861 486.349 17.2975C486.951 16.9663 487.167 16.2197 486.827 15.6299C486.494 15.0373 485.733 14.8252 485.131 15.1564C479.157 18.4595 472.117 22.3438 465.948 26.3906C459.694 30.4869 454.342 34.7517 451.866 38.7463C450.946 40.225 454.672 43.656 460.233 47.6709C468.202 53.426 479.997 60.9911 486.028 64.8055Z" fill="#3D3F41"/>
<path fill-rule="evenodd" clip-rule="evenodd" d="M481.708 53.7828C482.243 54.1705 482.976 54.0255 483.341 53.4572C483.706 52.8859 483.57 52.1104 483.032 51.7227C478.864 48.6977 474.881 45.6846 472.027 43.2723C470.613 42.0765 469.493 41.0406 468.782 40.2444C468.458 39.8773 467.876 40.274 467.993 40.0579C469.813 37.6427 472.776 34.6206 476.392 31.4714C479.929 28.3901 484.083 25.1876 488.403 22.3017C488.95 21.9377 489.117 21.1622 488.771 20.582C488.426 20.0019 487.698 19.8243 487.152 20.1913C482.756 23.1275 478.513 26.3952 474.898 29.5445C471.137 32.824 468.04 35.9851 466.128 38.5365L466.067 38.6283C465.495 39.5103 465.908 40.641 467.07 41.9552C467.865 42.8491 469.072 43.9679 470.563 45.2258C473.462 47.6766 477.496 50.7311 481.708 53.7828Z" fill="#3D3F41"/>
<path fill-rule="evenodd" clip-rule="evenodd" d="M44.2149 59.9413C44.8871 59.8456 45.3548 59.2253 45.2613 58.5587C45.1677 57.8891 44.5393 57.4224 43.8641 57.5181C40.8974 57.9413 34.3471 55.3499 28.0483 51.7672C22.03 48.3352 16.3508 44.0337 14.372 40.6105C14.03 40.0278 13.2788 39.8279 12.6884 40.1612C12.1008 40.4974 11.8992 41.2424 12.2353 41.825C14.445 45.6396 20.4779 50.2657 26.8235 53.8803C33.5345 57.7065 40.7103 60.4399 44.2149 59.9413Z" fill="#3D3F41"/>
<path fill-rule="evenodd" clip-rule="evenodd" d="M198.196 40.5014L215.3 57L232.403 40.5014L215.3 24L198.196 40.5014Z" fill="#3D3F41"/>
<path fill-rule="evenodd" clip-rule="evenodd" d="M159.966 40.5L171.535 52L183.105 40.5L171.535 29L159.966 40.5Z" fill="#3D3F41"/>
<path fill-rule="evenodd" clip-rule="evenodd" d="M254.536 40.5L266.611 52L278.682 40.5L266.611 29L254.536 40.5Z" fill="#3D3F41"/>
</svg>
