<svg width="240" height="240" viewBox="0 0 240 240" fill="none" xmlns="http://www.w3.org/2000/svg">
<path d="M181.014 28.2171C180.6 28.1867 180.188 28.1723 179.777 28.1723C175.006 28.1739 170.417 30.1898 166.915 33.3744C163.417 36.5622 160.989 40.9411 160.613 45.7308L160.549 46.5541L161.373 46.5925C162.175 46.6293 162.987 46.6516 163.804 46.6516C168.209 46.6484 172.757 46.0154 176.541 43.5294C179.882 41.3184 182.226 37.4 182.24 33.4544C182.24 32.0443 181.93 30.6327 181.241 29.3266C181.035 28.9365 180.552 28.7877 180.162 28.9924C179.772 29.1986 179.622 29.6831 179.828 30.0731C180.386 31.1331 180.642 32.2761 180.642 33.4544C180.656 36.7461 178.575 40.292 175.662 42.1945C172.287 44.4198 168.063 45.0545 163.804 45.0529C163.018 45.0529 162.23 45.0306 161.446 44.9954L161.409 45.7932L162.207 45.8555C162.541 41.5342 164.756 37.5039 167.991 34.5575C171.227 31.6095 175.465 29.7678 179.777 29.771C180.149 29.771 180.522 29.7838 180.896 29.8126C181.336 29.8445 181.719 29.5152 181.751 29.074C181.785 28.6343 181.454 28.2506 181.014 28.2171Z" fill="#69725D" fill-opacity="0.8"/>
<path d="M165.939 42.8724C172.469 40.4951 177.993 35.5392 181.062 29.3027C181.256 28.9062 181.093 28.4281 180.698 28.2331C180.301 28.038 179.822 28.2011 179.627 28.5976C176.751 34.4536 171.525 39.1427 165.392 41.3696C164.976 41.5199 164.764 41.9787 164.914 42.3928C165.064 42.8085 165.523 43.0227 165.939 42.8724Z" fill="#69725D" fill-opacity="0.8"/>
<path d="M180.378 28.6008C175.013 25.9661 171.732 19.8431 171.739 13.84C171.739 11.2069 172.366 8.60902 173.691 6.34046L173 5.93759L172.442 6.50993C176.06 10.0239 179.675 13.6194 181.48 18.0893C182.156 19.7552 182.524 21.6097 182.522 23.4258C182.522 26.4377 181.524 29.2978 179.369 31.1635C179.035 31.4528 179 31.9565 179.288 32.2906C179.577 32.6247 180.082 32.6615 180.417 32.3721C183.01 30.1211 184.122 26.7735 184.121 23.4258C184.121 21.3954 183.715 19.3491 182.962 17.4882C180.978 12.609 177.17 8.88721 173.558 5.36368L172.826 4.65067L172.31 5.53315C170.826 8.07508 170.14 10.9559 170.14 13.84C170.147 20.4011 173.662 27.0548 179.67 30.0348C180.066 30.2298 180.546 30.0668 180.741 29.6719C180.936 29.2754 180.775 28.7958 180.378 28.6008Z" fill="#69725D" fill-opacity="0.8"/>
<path d="M173.267 6.9496C175.635 14.9463 178.004 22.943 180.373 30.9381C180.498 31.3618 180.943 31.6031 181.366 31.4768C181.79 31.3521 182.031 30.9077 181.905 30.484C179.537 22.4889 177.168 14.4923 174.8 6.49559C174.674 6.07193 174.23 5.83055 173.806 5.95525C173.382 6.08155 173.141 6.52594 173.267 6.9496Z" fill="#69725D" fill-opacity="0.8"/>
<path d="M181.782 30.5863C208.252 52.2423 224.231 86.1939 224.227 120.376C224.227 121.501 224.21 122.627 224.175 123.754C224.162 124.195 224.509 124.563 224.95 124.577C225.391 124.59 225.759 124.243 225.773 123.802C225.808 122.66 225.826 121.517 225.826 120.376C225.821 85.6967 209.647 51.3294 182.794 29.3489C182.452 29.0691 181.948 29.1187 181.668 29.4608C181.389 29.803 181.44 30.3065 181.782 30.5863Z" fill="#69725D" fill-opacity="0.8"/>
<path d="M222.542 92.1618C222.775 85.2091 226.553 78.4193 232.34 74.5553L231.896 73.8918L231.097 73.9031C231.109 74.8143 231.122 75.7271 231.122 76.6368C231.122 80.2466 230.921 83.8054 229.819 87.1003C229.135 89.1498 228.021 91.1258 226.572 92.6957C225.122 94.2689 223.348 95.436 221.327 95.9283C220.899 96.0323 220.635 96.4655 220.74 96.8955C220.844 97.3224 221.277 97.5862 221.706 97.4822C224.086 96.9003 226.126 95.5382 227.747 93.7796C229.37 92.0195 230.583 89.8549 231.335 87.6055C232.526 84.0372 232.719 80.3026 232.721 76.6368C232.721 75.7127 232.708 74.7935 232.695 73.879L232.673 72.4098L231.452 73.2268C225.223 77.3978 221.207 84.6159 220.945 92.1058C220.929 92.5471 221.274 92.918 221.715 92.9323C222.157 92.9483 222.528 92.603 222.542 92.1618Z" fill="#69725D" fill-opacity="0.8"/>
<path d="M223.34 95.7125C227.031 89.0987 229.799 81.9717 231.538 74.5985C231.639 74.1684 231.373 73.7384 230.943 73.6377C230.513 73.537 230.083 73.8023 229.981 74.2324C228.278 81.4601 225.564 88.4496 221.943 94.934C221.728 95.3192 221.866 95.8052 222.251 96.021C222.636 96.2353 223.124 96.0978 223.34 95.7125Z" fill="#69725D" fill-opacity="0.8"/>
<path d="M222.032 104.849C222.587 105.306 222.884 106.051 222.884 106.859C222.887 107.936 222.345 108.985 221.487 109.39C221.18 109.538 220.849 109.61 220.501 109.61C219.812 109.613 219.059 109.316 218.501 108.828C217.938 108.338 217.589 107.696 217.57 107.025V106.963C217.567 106.282 217.909 105.607 218.473 105.092C219.033 104.577 219.794 104.261 220.489 104.264C220.784 104.264 221.066 104.317 221.337 104.429C221.744 104.598 222.211 104.405 222.381 103.997C222.55 103.589 222.357 103.121 221.949 102.953C221.474 102.755 220.977 102.665 220.489 102.665C219.33 102.67 218.232 103.151 217.396 103.911C216.565 104.67 215.973 105.744 215.971 106.963L215.973 107.075C216.011 108.274 216.619 109.311 217.452 110.035C218.29 110.758 219.373 111.206 220.501 111.209C221.068 111.209 221.647 111.091 222.187 110.827C223.73 110.061 224.481 108.427 224.483 106.859C224.485 105.674 224.046 104.446 223.054 103.62C222.713 103.337 222.21 103.383 221.928 103.724C221.645 104.063 221.693 104.568 222.032 104.849Z" fill="#69725D" fill-opacity="0.8"/>
<path d="M223.434 99.6662C223.302 100.05 223.238 100.44 223.239 100.822C223.244 102.037 223.845 103.119 224.684 103.904C225.529 104.689 226.64 105.212 227.823 105.217C228.44 105.217 229.074 105.065 229.65 104.724C230.958 103.949 231.517 102.528 231.512 101.183C231.511 100.224 231.246 99.2633 230.723 98.4543C230.202 97.6486 229.393 96.9867 228.355 96.7581C228.09 96.699 227.824 96.6702 227.564 96.6702C226.307 96.675 225.201 97.3064 224.413 98.1793C223.626 99.0586 223.119 100.206 223.115 101.41C223.113 102.085 223.284 102.777 223.668 103.397C223.899 103.773 224.392 103.89 224.768 103.658C225.143 103.426 225.26 102.934 225.028 102.558C224.812 102.206 224.715 101.824 224.713 101.41C224.708 100.678 225.052 99.8563 225.602 99.2488C226.152 98.6365 226.871 98.2657 227.564 98.2689C227.711 98.2689 227.858 98.2849 228.008 98.3184C228.582 98.4463 229.038 98.8012 229.381 99.324C229.72 99.8452 229.915 100.528 229.914 101.183C229.909 102.127 229.544 102.934 228.838 103.348C228.52 103.535 228.184 103.616 227.823 103.618C227.137 103.623 226.357 103.282 225.775 102.736C225.19 102.19 224.833 101.476 224.838 100.822C224.838 100.613 224.87 100.405 224.943 100.194C225.089 99.778 224.87 99.3208 224.453 99.1753C224.035 99.0298 223.58 99.2505 223.434 99.6662Z" fill="#69725D" fill-opacity="0.8"/>
<path d="M177.537 27.0389C173.942 24.1948 169.411 22.8215 164.882 22.8215C159.301 22.8231 153.689 24.9062 149.793 29.002L149.299 29.52L149.76 30.0668C152.596 33.4304 156.955 35.2177 161.288 35.2209C163.822 35.2209 166.357 34.6055 168.576 33.3041C168.957 33.0803 169.085 32.5912 168.861 32.2107C168.637 31.8302 168.148 31.7022 167.767 31.926C165.82 33.0675 163.565 33.6222 161.288 33.6222C157.39 33.6238 153.464 31.9916 150.983 29.0372L150.372 29.552L150.951 30.1035C154.495 26.369 159.692 24.4186 164.882 24.4202C169.091 24.4202 173.272 25.7007 176.544 28.2922C176.891 28.5672 177.393 28.508 177.668 28.1627C177.942 27.8158 177.882 27.3138 177.537 27.0389Z" fill="#69725D" fill-opacity="0.8"/>
<path d="M151.765 30.2971C161.462 30.3898 171.157 30.4825 180.854 30.5769C181.296 30.5817 181.657 30.2267 181.662 29.7855C181.665 29.3442 181.312 28.983 180.87 28.9782C171.173 28.8838 161.477 28.7911 151.781 28.6984C151.339 28.6936 150.978 29.0485 150.973 29.4898C150.968 29.931 151.323 30.2923 151.765 30.2971Z" fill="#69725D" fill-opacity="0.8"/>
<path d="M14.9341 149.277C24.0061 185.491 53.6096 215.737 89.6203 225.585C90.0455 225.701 90.4852 225.45 90.602 225.023C90.7181 224.598 90.4671 224.159 90.0412 224.042C54.615 214.37 25.3938 184.514 16.4847 148.889C16.3779 148.46 15.9439 148.199 15.5156 148.308C15.0871 148.415 14.8273 148.849 14.9341 149.277Z" fill="#69725D" fill-opacity="0.8"/>
<path d="M41.5607 193.463C39.6547 190.843 38.7286 187.609 38.7286 184.341C38.726 179.491 40.7762 174.608 44.5439 171.625L44.0467 170.999L43.4297 171.507C45.6155 174.159 46.6765 177.585 46.6765 181.056C46.6789 186.05 44.4708 191.081 40.4365 193.932C40.0763 194.188 39.9912 194.686 40.2467 195.046C40.5015 195.406 41.0005 195.492 41.3608 195.236C45.8927 192.017 48.2727 186.506 48.2752 181.056C48.2752 177.264 47.1186 173.473 44.6638 170.49L44.1648 169.884L43.5496 170.372C39.3412 173.718 37.1323 179.053 37.1299 184.341C37.1305 187.908 38.1383 191.473 40.268 194.404C40.5271 194.762 41.0274 194.84 41.3839 194.581C41.7412 194.32 41.8205 193.822 41.5607 193.463Z" fill="#69725D" fill-opacity="0.8"/>
<path d="M41.7598 194.622C42.0334 186.977 43.3529 179.369 45.6711 172.079C45.8047 171.659 45.5723 171.209 45.1515 171.075C44.7312 170.941 44.2815 171.174 44.1478 171.595C41.7854 179.024 40.4409 186.774 40.1624 194.565C40.1461 195.006 40.4914 195.377 40.9324 195.393C41.3739 195.407 41.7442 195.064 41.7598 194.622Z" fill="#69725D" fill-opacity="0.8"/>
<path d="M25.0507 175.862C25.6397 176.431 25.9369 177.258 25.9375 178.145C25.9418 179.539 25.1818 180.935 24.004 181.413C23.6594 181.558 23.2953 181.627 22.92 181.627C22.0507 181.63 21.1152 181.241 20.4245 180.612C19.7307 179.982 19.3016 179.149 19.3035 178.289V178.279C19.3048 177.419 19.735 176.591 20.4295 175.964C21.1195 175.339 22.0538 174.954 22.9225 174.957C23.3052 174.957 23.6763 175.029 24.0266 175.178C24.4325 175.352 24.902 175.165 25.0763 174.759C25.2499 174.353 25.0625 173.883 24.6566 173.708C24.0947 173.467 23.5038 173.358 22.9225 173.358C21.598 173.361 20.3277 173.908 19.3592 174.776C18.3942 175.646 17.7117 176.877 17.7048 178.273V178.289C17.7068 179.688 18.3868 180.923 19.351 181.796C20.319 182.671 21.5916 183.221 22.92 183.225C23.4907 183.225 24.0709 183.12 24.6242 182.887C26.5407 182.063 27.5325 180.068 27.5362 178.145C27.5368 176.909 27.1172 175.641 26.1648 174.714C25.8476 174.407 25.3417 174.415 25.0345 174.732C24.7266 175.048 24.7342 175.553 25.0507 175.862Z" fill="#69725D" fill-opacity="0.8"/>
<path d="M25.5958 172.754C25.1463 172.341 24.9065 171.707 24.9058 171.021C24.9026 170.063 25.3842 169.126 26.1348 168.749C26.4283 168.596 26.7538 168.522 27.0984 168.522C27.6898 168.52 28.333 168.751 28.8246 169.139C29.319 169.529 29.6489 170.049 29.7232 170.61L29.7406 170.869C29.7438 171.481 29.4402 172.129 28.9425 172.616C28.4466 173.106 27.7829 173.404 27.167 173.401L26.7594 173.358C26.3277 173.265 25.9031 173.542 25.8113 173.974C25.7189 174.405 25.9944 174.829 26.4259 174.922C26.6732 174.974 26.9216 175 27.167 175C28.2805 174.995 29.3035 174.5 30.0623 173.758C30.8178 173.014 31.3363 171.994 31.3393 170.869C31.3393 170.712 31.3288 170.554 31.3075 170.394C31.1651 169.352 30.5763 168.482 29.8118 167.883C29.0444 167.283 28.0876 166.927 27.0984 166.923C26.5252 166.923 25.9381 167.048 25.3973 167.329C23.996 168.071 23.3097 169.572 23.3071 171.021C23.3065 172.07 23.6744 173.152 24.5098 173.927C24.8334 174.228 25.3392 174.209 25.6396 173.884C25.9394 173.56 25.9194 173.054 25.5958 172.754Z" fill="#69725D" fill-opacity="0.8"/>
<path d="M16.1775 148.452C15.1733 147.827 14.625 146.598 14.6243 145.299C14.6243 143.917 15.2496 142.591 16.353 141.987C16.8201 141.728 17.3341 141.606 17.8737 141.606C18.8467 141.603 19.8951 142.021 20.6695 142.702C21.4482 143.383 21.9341 144.286 21.939 145.247V145.266C21.9403 146.23 21.4564 147.141 20.677 147.832C19.902 148.521 18.851 148.945 17.8754 148.94C17.3528 148.94 16.8532 148.826 16.396 148.58C16.0077 148.369 15.5225 148.514 15.3132 148.903C15.1035 149.291 15.2483 149.776 15.6366 149.987C16.3449 150.369 17.1167 150.54 17.8754 150.538C19.2975 150.535 20.6783 149.96 21.7349 149.031C22.7878 148.102 23.536 146.778 23.5377 145.266V145.236C23.5265 143.73 22.774 142.415 21.7218 141.498C20.6645 140.577 19.2881 140.011 17.8737 140.008C17.093 140.008 16.2993 140.187 15.5756 140.59C13.8419 141.563 13.0263 143.466 13.0256 145.299C13.0256 147.023 13.7495 148.805 15.3257 149.805C15.6991 150.041 16.1931 149.928 16.4286 149.555C16.6633 149.181 16.5509 148.687 16.1775 148.452Z" fill="#69725D" fill-opacity="0.8"/>
<path d="M15.9633 153.723C16.1064 154.006 16.1745 154.316 16.1751 154.644C16.1782 155.267 15.9115 155.953 15.4738 156.461C15.0348 156.975 14.4602 157.293 13.8601 157.317L13.7745 157.32C13.1593 157.322 12.5405 157.011 12.0665 156.497C11.5931 155.985 11.3021 155.29 11.306 154.66C11.3066 154.406 11.3503 154.159 11.4433 153.924C11.6163 153.49 11.9448 153.131 12.3813 152.872C12.8159 152.615 13.3536 152.471 13.8719 152.473C14.527 152.474 15.1235 152.692 15.5299 153.112C15.8372 153.43 16.343 153.438 16.6603 153.13C16.9775 152.823 16.985 152.318 16.6778 152C15.9147 151.215 14.8762 150.872 13.8719 150.874C13.0676 150.876 12.2663 151.087 11.5701 151.496C10.875 151.904 10.2793 152.524 9.95763 153.334C9.78593 153.768 9.70728 154.219 9.70728 154.66C9.71095 155.758 10.1706 156.792 10.8894 157.577C11.6081 158.361 12.623 158.916 13.7745 158.919L13.9312 158.914C15.056 158.863 16.0202 158.284 16.6896 157.499C17.3598 156.711 17.77 155.699 17.7738 154.644C17.7738 154.092 17.6557 153.526 17.3903 153.002C17.1918 152.609 16.7109 152.45 16.3168 152.649C15.9229 152.847 15.7641 153.328 15.9633 153.723Z" fill="#69725D" fill-opacity="0.8"/>
<path d="M224.51 104.552C227.039 108.558 229.567 112.564 232.094 116.572C232.329 116.945 232.823 117.057 233.198 116.822C233.57 116.587 233.682 116.093 233.447 115.719C230.919 111.712 228.392 107.706 225.863 103.698C225.628 103.324 225.134 103.214 224.76 103.449C224.387 103.684 224.275 104.178 224.51 104.552Z" fill="#69725D" fill-opacity="0.8"/>
<path d="M233.099 116.953C233.514 116.755 233.96 116.662 234.422 116.662C235.38 116.659 236.408 117.079 237.167 117.762C237.93 118.446 238.403 119.351 238.401 120.299V120.323L239.201 120.317L238.401 120.312C238.4 121.258 237.923 122.157 237.161 122.836C236.403 123.514 235.377 123.931 234.421 123.928C233.947 123.926 233.492 123.831 233.07 123.624C231.88 123.057 231.167 121.642 231.17 120.197C231.17 119.073 231.594 118.018 232.409 117.381C232.756 117.11 232.817 116.606 232.545 116.259C232.272 115.912 231.77 115.851 231.423 116.125C230.143 117.132 229.57 118.686 229.572 120.197C229.573 122.126 230.494 124.131 232.368 125.06C233.023 125.381 233.728 125.527 234.421 125.527C235.826 125.522 237.183 124.951 238.222 124.032C239.258 123.114 239.992 121.807 240 120.318V120.313V120.309V120.299C239.999 118.809 239.268 117.495 238.232 116.571C237.194 115.645 235.832 115.066 234.422 115.063C233.744 115.063 233.054 115.202 232.409 115.511C232.01 115.701 231.842 116.179 232.032 116.577C232.222 116.975 232.7 117.145 233.099 116.953Z" fill="#69725D" fill-opacity="0.8"/>
<path d="M225.959 123.199C225.533 123.055 225.097 122.99 224.668 122.99C223.378 122.994 222.173 123.567 221.271 124.433C220.374 125.3 219.752 126.489 219.749 127.803C219.749 128.043 219.77 128.286 219.815 128.529C220.029 129.693 220.734 130.636 221.623 131.272C222.515 131.91 223.604 132.268 224.704 132.27C225.664 132.272 226.649 131.985 227.45 131.328C228.539 130.435 229.015 129.1 229.014 127.806C229.014 126.881 228.777 125.955 228.31 125.149C227.847 124.347 227.138 123.661 226.21 123.29C225.8 123.127 225.335 123.327 225.172 123.736C225.007 124.147 225.207 124.611 225.616 124.775C226.17 124.996 226.612 125.41 226.927 125.952C227.242 126.492 227.417 127.157 227.415 127.806C227.415 128.724 227.081 129.567 226.438 130.093C225.96 130.483 225.358 130.67 224.704 130.671C223.96 130.673 223.167 130.416 222.555 129.974C221.938 129.53 221.514 128.93 221.386 128.24C221.361 128.094 221.348 127.949 221.348 127.803C221.343 127.017 221.74 126.2 222.381 125.584C223.019 124.967 223.874 124.585 224.668 124.588C224.934 124.588 225.194 124.628 225.45 124.715C225.869 124.855 226.322 124.628 226.462 124.211C226.603 123.792 226.377 123.338 225.959 123.199Z" fill="#69725D" fill-opacity="0.8"/>
<path d="M223.995 126.785C224.521 126.89 225.014 127.523 224.996 128.072L224.995 128.142C224.966 128.582 225.302 128.962 225.741 128.989C226.182 129.018 226.561 128.683 226.59 128.243L226.595 128.072C226.577 126.74 225.674 125.562 224.365 125.231C223.936 125.129 223.505 125.394 223.402 125.822C223.3 126.253 223.565 126.683 223.995 126.785Z" fill="#69725D" fill-opacity="0.8"/>
<path d="M234.854 118.755C235.511 119.134 235.986 119.901 236.034 120.659C236.066 121.098 236.448 121.429 236.887 121.399C237.329 121.367 237.66 120.985 237.629 120.545C237.53 119.237 236.791 118.045 235.663 117.377C235.282 117.153 234.793 117.281 234.569 117.661C234.345 118.042 234.473 118.531 234.854 118.755Z" fill="#69725D" fill-opacity="0.8"/>
<path d="M219.82 106.643L220.019 106.804L220.123 107.124L220.085 107.286C219.869 107.671 220.007 108.157 220.392 108.374C220.776 108.59 221.263 108.453 221.479 108.067C221.648 107.767 221.722 107.437 221.722 107.124C221.72 106.68 221.583 106.259 221.338 105.901C221.095 105.545 220.729 105.239 220.256 105.105C219.831 104.985 219.39 105.231 219.268 105.657C219.148 106.082 219.396 106.523 219.82 106.643Z" fill="#69725D" fill-opacity="0.8"/>
<path d="M227.294 100.133C227.593 100.277 227.829 100.665 227.823 100.998C227.824 101.439 228.182 101.796 228.625 101.794C229.067 101.792 229.423 101.433 229.421 100.992C229.409 100.032 228.878 99.161 228.029 98.7117C227.636 98.5103 227.154 98.6637 226.951 99.0554C226.748 99.4471 226.902 99.93 227.295 100.133" fill="#69725D" fill-opacity="0.8"/>
<path d="M220.296 96.4064C220.318 96.5503 220.328 96.6958 220.328 96.8413C220.33 97.6326 220.013 98.4527 219.481 99.0986C218.948 99.7444 218.219 100.202 217.442 100.33C217.282 100.357 217.119 100.37 216.956 100.37C216.173 100.371 215.359 100.063 214.717 99.5414C214.072 99.0234 213.612 98.3088 213.473 97.543C213.439 97.364 213.423 97.1849 213.423 97.0027C213.422 96.2273 213.722 95.4216 214.229 94.7821C214.736 94.1394 215.434 93.6758 216.191 93.524C216.386 93.4856 216.582 93.4664 216.782 93.4664C217.549 93.4648 218.349 93.7573 218.987 94.2513C219.626 94.7469 220.091 95.4295 220.254 96.1745C220.349 96.6046 220.776 96.878 221.206 96.7837C221.637 96.6893 221.911 96.2625 221.815 95.8308C221.559 94.6686 220.864 93.6838 219.965 92.9867C219.063 92.2913 217.946 91.8692 216.782 91.8677C216.48 91.8677 216.176 91.8964 215.874 91.9572C214.694 92.197 213.689 92.8877 212.976 93.7909C212.263 94.6942 211.826 95.8245 211.824 97.0027C211.824 97.2777 211.848 97.5558 211.9 97.8324C212.122 99.0298 212.808 100.056 213.714 100.787C214.621 101.517 215.762 101.965 216.956 101.968C217.204 101.968 217.455 101.947 217.704 101.906C218.919 101.703 219.967 101.022 220.715 100.114C221.461 99.2041 221.925 98.0515 221.927 96.8413C221.927 96.619 221.911 96.3952 221.877 96.1713C221.813 95.7349 221.405 95.4327 220.969 95.4983C220.533 95.5638 220.232 95.9699 220.296 96.4064Z" fill="#69725D" fill-opacity="0.8"/>
<path d="M216.934 95.3065C217.687 95.647 218.245 96.5343 218.235 97.3673L218.232 97.4712C218.21 97.9108 218.549 98.2881 218.99 98.3105C219.431 98.3329 219.807 97.9939 219.829 97.5527L219.834 97.3673C219.824 95.8837 218.959 94.5008 217.61 93.8581C217.21 93.671 216.736 93.8437 216.549 94.2434C216.362 94.6431 216.534 95.1195 216.934 95.3065Z" fill="#69725D" fill-opacity="0.8"/>
<path d="M17.7043 144.137H17.7262C18.29 144.128 18.9114 144.508 19.1587 145.013C19.3586 145.407 19.8395 145.563 20.2334 145.363C20.6268 145.164 20.7837 144.682 20.5838 144.289C20.0305 143.221 18.9258 142.547 17.7262 142.539H17.6787C17.2371 142.545 16.8856 142.909 16.8924 143.351C16.8993 143.792 17.2627 144.144 17.7043 144.137Z" fill="#69725D" fill-opacity="0.8"/>
<path d="M13.604 154.585L13.87 154.533C14.1298 154.529 14.4132 154.679 14.5232 154.858C14.7661 155.227 15.262 155.328 15.6303 155.085C15.9988 154.842 16.1007 154.346 15.8577 153.979C15.3963 153.293 14.6406 152.94 13.87 152.935C13.569 152.935 13.2598 152.992 12.9663 153.119C12.561 153.296 12.3762 153.766 12.5522 154.171C12.7277 154.577 13.1992 154.762 13.604 154.585Z" fill="#69725D" fill-opacity="0.8"/>
<path d="M21.9066 177.665L22.0428 177.657C22.5169 177.644 23.0644 178.018 23.2075 178.452C23.3599 178.866 23.8188 179.078 24.2335 178.927C24.6476 178.773 24.8606 178.314 24.7082 177.9C24.281 176.781 23.2112 176.071 22.0428 176.058L21.695 176.081C21.2572 176.14 20.95 176.541 21.0086 176.979C21.0673 177.417 21.4696 177.724 21.9066 177.665Z" fill="#69725D" fill-opacity="0.8"/>
<path d="M26.8843 170.728H26.9004C27.053 170.727 27.2371 170.792 27.3858 170.916C27.5356 171.037 27.6349 171.202 27.6624 171.35C27.7473 171.784 28.1669 172.067 28.6003 171.982C29.0337 171.897 29.3161 171.477 29.2312 171.043C29.1199 170.482 28.8064 170.014 28.3987 169.678C27.989 169.344 27.4694 169.131 26.9004 169.13H26.84C26.3991 169.143 26.0512 169.51 26.063 169.951C26.0755 170.393 26.4427 170.741 26.8843 170.728Z" fill="#69725D" fill-opacity="0.8"/>
<path d="M32.6116 194.162L32.5759 193.363C28.47 193.548 24.5863 194.851 20.83 196.106C20.3459 196.269 19.7945 196.472 19.2837 196.808C18.7791 197.137 18.2813 197.649 18.1109 198.381C18.0696 198.557 18.0503 198.733 18.0503 198.905C18.0522 199.539 18.3026 200.079 18.6036 200.52C18.9083 200.965 19.2781 201.332 19.6221 201.644C22.1388 203.911 25.0328 205.903 28.3526 206.939C29.8345 207.401 31.3994 207.654 32.9644 207.654C34.914 207.654 36.8668 207.259 38.6374 206.368C41.2796 205.035 43.3916 202.552 44.0535 199.594C44.1209 199.275 44.2591 198.8 44.2627 198.256C44.2615 197.953 44.2172 197.604 44.0266 197.262L44.0261 197.26C43.7543 196.797 43.3809 196.52 43.0212 196.26C42.6615 196.009 42.2981 195.801 42.0789 195.659C40.755 194.811 39.2905 194.226 37.793 193.855C36.3723 193.505 34.914 193.344 33.4621 193.344C33.1662 193.344 32.8707 193.35 32.5754 193.363H32.5759L32.6116 194.162L32.6472 194.96C32.9188 194.949 33.1905 194.942 33.4621 194.942C34.7954 194.942 36.1257 195.091 37.4096 195.408C38.7622 195.742 40.0631 196.266 41.2164 197.005C41.4887 197.179 41.8198 197.369 42.1045 197.569C42.3899 197.761 42.6116 197.986 42.6329 198.044L42.6322 198.042L42.664 198.256C42.6677 198.499 42.5766 198.886 42.493 199.248C41.962 201.668 40.1573 203.818 37.9185 204.941C36.4029 205.703 34.6999 206.055 32.9644 206.055C31.5731 206.056 30.1636 205.829 28.8284 205.412C25.8171 204.475 23.1019 202.63 20.6925 200.458H20.6931C20.3985 200.192 20.1136 199.898 19.9238 199.618C19.7308 199.337 19.6471 199.093 19.649 198.905L19.6671 198.746C19.7177 198.535 19.8576 198.349 20.1655 198.141C20.467 197.94 20.9017 197.766 21.3371 197.622C25.0914 196.364 28.839 195.128 32.6472 194.96L32.6116 194.162Z" fill="#69725D" fill-opacity="0.8"/>
<path d="M19.3386 199.54C23.1448 199.238 26.9629 199.088 30.7811 199.088C34.7347 199.088 38.6884 199.249 42.6283 199.572C43.0686 199.607 43.4545 199.281 43.4908 198.84C43.5264 198.4 43.1992 198.015 42.7595 197.978C38.7752 197.652 34.7785 197.489 30.7811 197.489C26.921 197.489 23.0605 197.641 19.2124 197.946C18.7722 197.98 18.4436 198.365 18.4786 198.806C18.5136 199.246 18.8983 199.574 19.3386 199.54Z" fill="#69725D" fill-opacity="0.8"/>
<path d="M16.4885 151.159C14.0279 148.879 11.5674 146.598 9.10696 144.318C8.78338 144.017 8.27756 144.036 7.97716 144.361C7.6774 144.684 7.69675 145.191 8.02032 145.491C10.4807 147.771 12.9413 150.051 15.4018 152.331C15.7259 152.631 16.2317 152.612 16.5315 152.287C16.8319 151.964 16.8125 151.459 16.4885 151.159Z" fill="#69725D" fill-opacity="0.8"/>
<path d="M8.11276 145.766C9.80514 144.742 10.6806 142.834 10.6844 140.961C10.6844 139.787 10.3346 138.598 9.5591 137.639C8.503 136.34 6.88943 135.72 5.3056 135.718C3.84311 135.718 2.35488 136.251 1.31333 137.391C0.410226 138.384 0 139.678 0 140.951C0.00239805 142.726 0.789917 144.537 2.36496 145.566H2.36432C3.20427 146.11 4.17101 146.353 5.12399 146.353C7.22532 146.347 9.35927 145.196 10.2386 143.149C10.4103 142.743 10.2192 142.273 9.81266 142.102C9.40611 141.931 8.93705 142.121 8.76535 142.529C8.22019 143.864 6.65027 144.762 5.12399 144.754C4.43943 144.754 3.7838 144.58 3.23353 144.224C2.20189 143.565 1.5955 142.262 1.5987 140.951C1.59806 140.016 1.90213 139.116 2.49541 138.467C3.17422 137.717 4.22344 137.316 5.3056 137.317C6.47905 137.316 7.62995 137.789 8.31628 138.644C8.8285 139.276 9.08573 140.101 9.08573 140.961C9.08941 142.342 8.40932 143.736 7.29023 144.396C6.91118 144.623 6.78888 145.114 7.01557 145.493C7.24291 145.872 7.73371 145.993 8.11276 145.766Z" fill="#69725D" fill-opacity="0.8"/>
<path d="M4.18971 140.038L4.422 140.024C5.28626 140.011 6.21686 140.639 6.50223 141.439C6.65698 141.853 7.11789 142.062 7.53131 141.907C7.94474 141.75 8.15401 141.29 7.99845 140.877C7.42772 139.4 5.97754 138.438 4.422 138.425L3.99483 138.452C3.55711 138.505 3.24552 138.905 3.29924 139.343C3.35295 139.781 3.75199 140.092 4.18971 140.038Z" fill="#69725D" fill-opacity="0.8"/>
<path d="M61.395 205.642L62.1913 205.569C62.1544 205.172 62.1363 204.773 62.1363 204.373C62.1344 201.166 63.3134 197.943 65.4068 195.516L64.801 194.993L64.2333 195.556C67.0848 198.431 68.7864 202.435 68.9501 206.485C68.9607 206.755 68.9675 207.035 68.9675 207.319C68.9763 209.131 68.6697 211.1 67.6999 212.299C67.2796 212.817 66.8131 213.009 66.3166 213.016C65.7789 213.016 65.1844 212.755 64.711 212.213C63.2485 210.552 62.3948 207.858 62.1913 205.569L61.395 205.642L60.5988 205.716C60.8404 208.261 61.7197 211.199 63.5057 213.263C64.2471 214.114 65.263 214.613 66.3166 214.614C67.2852 214.621 68.2668 214.167 68.952 213.294C70.3021 211.57 70.5576 209.278 70.5662 207.319C70.5662 207.011 70.5587 206.709 70.5469 206.419C70.364 201.97 68.5141 197.609 65.3687 194.431L64.7598 193.817L64.1953 194.472C61.8441 197.204 60.5395 200.778 60.5376 204.373C60.5376 204.821 60.5582 205.27 60.5995 205.716L61.395 205.642Z" fill="#69725D" fill-opacity="0.8"/>
<path d="M63.9724 198.263C64.9523 202.664 65.4469 207.174 65.4469 211.684C65.4469 212.619 65.425 213.554 65.3827 214.488C65.3627 214.929 65.7035 215.303 66.1444 215.324C66.586 215.343 66.9595 215.003 66.9801 214.561C67.0231 213.602 67.0456 212.643 67.0456 211.684C67.0456 207.057 66.5379 202.432 65.5331 197.916C65.4369 197.484 65.0097 197.212 64.5788 197.308C64.148 197.404 63.8764 197.831 63.9724 198.263Z" fill="#69725D" fill-opacity="0.8"/>
<path d="M82.9175 216.544L83.7075 216.422C83.5838 215.621 83.5301 214.813 83.5301 213.996C83.5288 211.462 84.0553 208.856 84.5967 206.251L83.8142 206.09L83.2447 206.651C85.6927 209.132 88.0608 211.693 89.326 214.744C89.8787 216.072 90.2165 217.597 90.2159 219.078C90.2159 220.392 89.953 221.666 89.3692 222.766C89.1936 223.099 89.0219 223.278 88.8864 223.37C88.749 223.463 88.644 223.492 88.4961 223.495C88.1339 223.517 87.4319 223.148 86.7975 222.534C86.158 221.935 85.5684 221.158 85.23 220.608C84.4487 219.346 83.936 217.901 83.7075 216.421L82.9175 216.544L82.1276 216.665C82.3873 218.344 82.9675 219.991 83.8711 221.45C84.2839 222.114 84.927 222.969 85.7027 223.7C86.4827 224.414 87.3782 225.07 88.4961 225.094C88.9369 225.095 89.4023 224.963 89.7968 224.684C90.1948 224.41 90.5182 224.013 90.7818 223.514C91.5118 222.138 91.8146 220.601 91.8146 219.078C91.8141 217.356 91.4299 215.642 90.8018 214.13C89.3804 210.721 86.845 208.032 84.3838 205.529L83.3352 204.464L83.0318 205.927C82.4916 208.534 81.9327 211.243 81.9314 213.996C81.9314 214.883 81.9894 215.773 82.1276 216.665L82.9175 216.544Z" fill="#69725D" fill-opacity="0.8"/>
<path d="M83.3502 206.015C86.1754 212.074 87.8704 218.659 88.3212 225.329C88.3504 225.768 88.7321 226.103 89.1723 226.072C89.6133 226.043 89.9461 225.661 89.9161 225.222C89.4515 218.354 87.7079 211.578 84.7997 205.34C84.613 204.939 84.1377 204.766 83.7374 204.953C83.3371 205.139 83.1641 205.615 83.3502 206.015Z" fill="#69725D" fill-opacity="0.8"/>
<path d="M78.1177 224.708L77.7336 224.007C74.1878 225.952 71.6398 229.543 70.9748 233.532L70.843 234.328L71.6404 234.453C73.2061 234.696 74.8228 234.862 76.4415 234.862C78.7897 234.862 81.1502 234.51 83.3385 233.509C86.0457 232.262 88.3612 229.874 89.1974 226.907C89.3293 226.43 89.4754 225.863 89.4778 225.249C89.4778 224.868 89.4185 224.459 89.2249 224.066C89.0345 223.671 88.6971 223.314 88.2601 223.083C87.1315 222.486 85.7846 222.381 84.5837 222.374C84.1335 222.374 83.7038 222.392 83.3185 222.416C81.3757 222.534 79.4535 223.067 77.7336 224.007L78.1177 224.708L78.5011 225.409C80.0018 224.587 81.6985 224.117 83.4158 224.011C83.7794 223.989 84.1771 223.973 84.5837 223.973C85.666 223.967 86.8187 224.112 87.5026 224.491C87.673 224.587 87.7342 224.665 87.7905 224.771C87.8436 224.878 87.8791 225.036 87.8791 225.249C87.8816 225.589 87.7811 226.043 87.658 226.477C86.9892 228.9 84.9939 230.996 82.6728 232.056C80.7556 232.934 78.6328 233.265 76.4415 233.263C74.9328 233.265 73.396 233.108 71.8859 232.873L71.7635 233.663L72.5515 233.794C73.1248 230.307 75.4006 227.1 78.5011 225.409L78.1177 224.708Z" fill="#69725D" fill-opacity="0.8"/>
<path d="M72.6421 233.778C77.3594 229.385 83.1491 226.141 89.3597 224.411C89.785 224.293 90.0336 223.852 89.9149 223.426C89.7968 223.001 89.356 222.753 88.9306 222.872C82.4703 224.672 76.4601 228.039 71.5523 232.608C71.2295 232.91 71.2113 233.415 71.5123 233.738C71.8133 234.061 72.3185 234.08 72.6421 233.778Z" fill="#69725D" fill-opacity="0.8"/>
<path d="M57.6356 208.506C56.4093 205.724 55.7716 202.678 55.7716 199.638C55.7716 199.236 55.7829 198.837 55.8046 198.437C55.8291 197.996 55.4918 197.618 55.051 197.594C54.6101 197.57 54.2328 197.908 54.2085 198.349C54.1848 198.777 54.1729 199.208 54.1729 199.638C54.1729 202.901 54.8555 206.162 56.1725 209.15C56.3511 209.554 56.8227 209.738 57.2267 209.559C57.6307 209.382 57.8137 208.91 57.6356 208.506Z" fill="#69725D" fill-opacity="0.8"/>
<path d="M54.2527 199.203L54.5763 199.214C55.9601 199.211 57.2234 198.574 58.1446 197.636C59.0645 196.693 59.6728 195.423 59.6758 194.055C59.6758 193.818 59.6571 193.58 59.6184 193.34C59.413 192.095 58.6942 191.048 57.7567 190.316C56.8162 189.585 55.644 189.147 54.4377 189.145C53.8418 189.145 53.2374 189.256 52.6634 189.497C50.7276 190.33 49.664 192.344 49.6577 194.317C49.6571 195.307 49.9332 196.314 50.5546 197.158V197.156C51.8347 198.875 53.9336 199.539 55.8527 199.681C56.2936 199.711 56.6758 199.38 56.707 198.941C56.7382 198.499 56.4073 198.117 55.9663 198.085C54.3152 197.972 52.6834 197.374 51.8415 196.21V196.208C51.4494 195.678 51.2564 195.016 51.2564 194.317C51.2495 192.909 52.067 191.465 53.2842 190.971C53.6476 190.818 54.0367 190.744 54.4377 190.744C55.2469 190.742 56.1043 191.053 56.7732 191.577C57.4445 192.101 57.9136 192.816 58.0403 193.599C58.0653 193.751 58.0771 193.903 58.0771 194.055C58.0803 194.931 57.6675 195.839 57.0025 196.517C56.3379 197.196 55.4506 197.618 54.5763 197.615L54.3708 197.607C53.9306 197.575 53.547 197.906 53.5146 198.346C53.4821 198.787 53.8124 199.169 54.2527 199.203Z" fill="#69725D" fill-opacity="0.8"/>
<path d="M54.2607 193.372L54.4268 193.348C54.6161 193.344 54.8733 193.451 55.0669 193.642C55.2637 193.834 55.368 194.079 55.3641 194.263L55.3505 194.389C55.2524 194.819 55.5222 195.248 55.9525 195.345C56.3833 195.443 56.8111 195.172 56.9093 194.742C56.9454 194.582 56.9628 194.421 56.9628 194.263C56.9592 193.558 56.6375 192.947 56.1867 192.503C55.7333 192.06 55.1219 191.753 54.4268 191.75C54.2195 191.75 54.0072 191.778 53.7985 191.842C53.3765 191.969 53.1373 192.415 53.2647 192.838C53.3921 193.26 53.8385 193.5 54.2607 193.372Z" fill="#69725D" fill-opacity="0.8"/>
<path d="M60.8244 211.538C59.5605 211.332 58.2802 211.23 57 211.23C55.2058 211.23 53.4123 211.431 51.663 211.833C51.2328 211.932 50.9642 212.36 51.0629 212.79C51.1615 213.22 51.5906 213.49 52.0208 213.391C53.6515 213.016 55.3257 212.829 57 212.829C58.1947 212.829 59.3892 212.924 60.567 213.116C61.003 213.187 61.4138 212.891 61.4845 212.456C61.5556 212.02 61.2602 211.609 60.8244 211.538Z" fill="#69725D" fill-opacity="0.8"/>
<path d="M50.6375 212.809C50.7518 213.163 50.8074 213.534 50.8074 213.911C50.8186 215.535 49.7401 217.228 48.2495 217.773C47.8447 217.925 47.4139 217.999 46.9729 217.999C45.403 218.008 43.7706 217.028 43.1786 215.621C42.9831 215.169 42.8887 214.675 42.8887 214.17C42.8807 212.654 43.768 211.086 45.0901 210.454C45.5885 210.211 46.1454 210.092 46.7176 210.092C48.1752 210.085 49.6757 210.886 50.3409 212.12C50.5532 212.509 51.0391 212.649 51.4263 212.437C51.8135 212.226 51.9551 211.74 51.7428 211.353C50.7299 209.527 48.7227 208.499 46.7176 208.493C45.925 208.493 45.1252 208.657 44.3882 209.019C42.4353 209.986 41.2976 212.074 41.29 214.17C41.29 214.875 41.4224 215.586 41.711 216.255C42.6234 218.333 44.7859 219.589 46.9729 219.597C47.5918 219.597 48.2164 219.493 48.8134 219.268C51.0135 218.422 52.3948 216.191 52.4061 213.911C52.4061 213.377 52.3273 212.838 52.1582 212.315C52.0219 211.896 51.5711 211.666 51.1515 211.802C50.7312 211.938 50.5013 212.389 50.6375 212.809Z" fill="#69725D" fill-opacity="0.8"/>
<path d="M45.8109 213.693C46.2011 213.143 46.9467 212.803 47.698 212.806C48.2251 212.805 48.7253 212.968 49.0932 213.273C49.4335 213.554 49.9374 213.506 50.2185 213.166C50.4995 212.825 50.4521 212.322 50.1117 212.04C49.4129 211.465 48.5467 211.207 47.698 211.207C46.4965 211.209 45.2731 211.719 44.515 212.758C44.2564 213.116 44.337 213.615 44.6948 213.874C45.0526 214.133 45.5528 214.052 45.8109 213.693Z" fill="#69725D" fill-opacity="0.8"/>
<path d="M60.4459 213.382C61.3937 213.697 62.3424 214.013 63.2922 214.33C63.7112 214.47 64.164 214.243 64.3034 213.824C64.4426 213.406 64.2166 212.953 63.7974 212.814C62.8489 212.498 61.9002 212.181 60.9517 211.864C60.5327 211.725 60.0799 211.951 59.9405 212.37C59.8006 212.788 60.0273 213.241 60.4459 213.382Z" fill="#69725D" fill-opacity="0.8"/>
<path d="M194.909 53.3566L194.768 52.57C191.125 53.2223 187.906 55.0736 184.928 56.9888L184.172 57.4749L184.743 58.1687C187.173 61.1119 190.922 62.8545 194.728 62.8577C195.005 62.8577 195.281 62.8481 195.558 62.8305C198.634 62.6179 201.569 61.2462 203.753 59.1039C204.087 58.773 204.45 58.4181 204.755 58.004C205.054 57.5948 205.327 57.096 205.331 56.4757C205.337 55.8346 204.992 55.2095 204.432 54.7315C203.192 53.6475 201.615 53.0177 200.117 52.6724C199.166 52.4549 198.192 52.3511 197.22 52.3511C196.397 52.3511 195.575 52.4261 194.768 52.57L194.909 53.3566L195.048 54.1432C195.764 54.0169 196.493 53.9498 197.22 53.9498C198.079 53.9498 198.933 54.0424 199.762 54.2311C201.08 54.53 202.426 55.0928 203.379 55.9337C203.716 56.2422 203.726 56.3781 203.732 56.4757C203.737 56.5796 203.671 56.7826 203.467 57.0576C203.27 57.3278 202.961 57.6411 202.632 57.9624C200.718 59.8441 198.117 61.0559 195.449 61.235C195.209 61.251 194.968 61.259 194.728 61.259C191.412 61.2638 188.079 59.7115 185.977 57.1536L185.36 57.6603L185.793 58.3334C188.723 56.4437 191.77 54.7235 195.048 54.1432L194.909 53.3566Z" fill="#69725D" fill-opacity="0.8"/>
<path d="M189.487 58.4837C194.965 57.9097 200.44 57.3342 205.917 56.7587C206.355 56.7139 206.673 56.3191 206.629 55.881C206.582 55.4414 206.189 55.1232 205.749 55.1696C200.274 55.7451 194.798 56.319 189.321 56.8946C188.882 56.9409 188.563 57.3342 188.61 57.7722C188.656 58.2119 189.049 58.53 189.487 58.4837Z" fill="#69725D" fill-opacity="0.8"/>
<path d="M206.534 56.1161C205.593 53.8907 205.116 51.4687 205.116 49.0467C205.116 47.2241 205.386 45.4016 205.93 43.6654C206.061 43.2449 205.826 42.7957 205.406 42.6646C204.984 42.5319 204.536 42.7669 204.403 43.1874C203.81 45.0834 203.518 47.0659 203.518 49.0467C203.518 51.6781 204.034 54.3095 205.062 56.7395C205.235 57.1456 205.703 57.3358 206.111 57.1632C206.517 56.9905 206.707 56.5221 206.534 56.1161Z" fill="#69725D" fill-opacity="0.8"/>
<path d="M204.018 44.6149C204.646 44.9234 205.327 45.0625 205.997 45.0625C207.906 45.0545 209.808 43.969 210.582 42.1129C210.803 41.571 210.904 41.0003 210.904 40.4375C210.892 38.4136 209.645 36.4184 207.634 35.7357C207.183 35.587 206.72 35.5183 206.261 35.5183C205.185 35.5215 204.139 35.8892 203.284 36.5143C202.429 37.1378 201.751 38.0347 201.476 39.1154C201.393 39.4399 201.354 39.7692 201.354 40.0954C201.358 41.2496 201.823 42.3447 202.558 43.1825C203.294 44.0154 204.339 44.6117 205.532 44.6149C205.701 44.6149 205.872 44.6021 206.043 44.5781C206.482 44.5126 206.782 44.1065 206.718 43.67C206.654 43.232 206.248 42.9315 205.81 42.9954L205.532 43.0162C204.897 43.0194 204.255 42.6869 203.756 42.1241C203.26 41.5662 202.948 40.802 202.953 40.0954C202.953 39.8955 202.976 39.6989 203.025 39.5087C203.193 38.842 203.633 38.2393 204.227 37.8044C204.82 37.3696 205.559 37.117 206.261 37.117C206.561 37.117 206.854 37.1634 207.135 37.2545C208.381 37.6446 209.318 39.077 209.305 40.4375C209.305 40.81 209.239 41.1729 209.102 41.5102C208.651 42.6597 207.295 43.4734 205.997 43.4638C205.546 43.4638 205.111 43.3711 204.721 43.1793C204.325 42.9842 203.845 43.1489 203.652 43.5454C203.457 43.9419 203.621 44.4199 204.018 44.6149Z" fill="#69725D" fill-opacity="0.8"/>
<path d="M206.14 56.9329C206.885 54.773 207.98 52.7315 209.369 50.9154C209.636 50.5637 209.569 50.0617 209.219 49.7947C208.867 49.5261 208.367 49.5932 208.098 49.945C206.605 51.897 205.43 54.0888 204.629 56.4117C204.485 56.8306 204.707 57.2846 205.124 57.4285C205.542 57.5724 205.996 57.3501 206.14 56.9329Z" fill="#69725D" fill-opacity="0.8"/>
<path d="M209.174 49.6157C209.083 49.3231 209.038 49.0162 209.038 48.7045C209.027 47.3168 209.954 45.8636 211.22 45.3968C211.57 45.2641 211.944 45.1985 212.33 45.1985C213.657 45.1905 215.039 46.0043 215.559 47.1761C215.743 47.5806 215.834 48.0266 215.834 48.4871C215.84 49.75 215.127 51.0577 214.055 51.6172C213.601 51.8603 213.079 51.9802 212.541 51.9802C211.345 51.985 210.119 51.3695 209.529 50.3943C209.295 50.0186 208.803 49.9019 208.427 50.1337C208.051 50.3655 207.936 50.8579 208.168 51.2336C209.115 52.7507 210.83 53.5741 212.541 53.5789C213.316 53.5789 214.098 53.4062 214.808 53.0274C216.478 52.1225 217.426 50.308 217.433 48.4871C217.433 47.8188 217.3 47.1425 217.014 46.5127C216.168 44.6901 214.261 43.6078 212.33 43.5998C211.765 43.5998 211.195 43.6957 210.649 43.9035C208.68 44.6741 207.45 46.6645 207.439 48.7045C207.439 49.1681 207.505 49.6365 207.647 50.0921C207.78 50.5141 208.227 50.7492 208.649 50.6181C209.07 50.4854 209.305 50.0377 209.174 49.6157Z" fill="#69725D" fill-opacity="0.8"/>
<path d="M205.479 39.408L205.69 39.3713C205.952 39.3649 206.255 39.5439 206.344 39.7357C206.55 40.1258 207.033 40.2761 207.423 40.0698C207.815 39.8636 207.964 39.3808 207.757 38.9891C207.331 38.2026 206.525 37.7805 205.69 37.7726C205.435 37.7726 205.172 37.8157 204.918 37.9116C204.506 38.0651 204.296 38.5271 204.451 38.9396C204.605 39.3536 205.067 39.5631 205.479 39.408Z" fill="#69725D" fill-opacity="0.8"/>
<path d="M212.138 48.0154C212.47 48.0138 212.88 48.356 212.934 48.6837C213.031 49.1153 213.458 49.3855 213.888 49.2912C214.32 49.1936 214.592 48.7668 214.496 48.3367C214.237 47.256 213.314 46.4838 212.206 46.4183C211.765 46.3991 211.393 46.7412 211.374 47.1825C211.354 47.6237 211.697 47.9962 212.138 48.0154Z" fill="#69725D" fill-opacity="0.8"/>
<path d="M221.055 86.592C219.078 83.9077 216.232 81.8934 213.041 80.923C212.619 80.7935 212.173 81.0333 212.044 81.4554C211.916 81.8774 212.154 82.3235 212.576 82.453C215.43 83.3195 218 85.1388 219.769 87.54C220.031 87.8965 220.531 87.9716 220.886 87.711C221.241 87.4489 221.318 86.9485 221.055 86.592Z" fill="#69725D" fill-opacity="0.8"/>
<path d="M212.872 82.8063C213.476 81.9302 213.748 80.9039 213.746 79.8919C213.741 77.9047 212.723 75.8855 210.849 74.9343C210.141 74.581 209.374 74.4195 208.614 74.4211C206.363 74.4307 204.112 75.7896 203.332 78.0278C203.158 78.541 203.078 79.0717 203.078 79.5977C203.08 80.8575 203.534 82.0805 204.292 83.0669C205.049 84.0501 206.128 84.8095 207.409 85.0621C207.718 85.1228 208.028 85.1516 208.335 85.1516C209.721 85.1484 211.036 84.576 212.042 83.6744C213.044 82.7727 213.759 81.5178 213.853 80.0997C213.882 79.6585 213.548 79.278 213.107 79.2492C212.667 79.2204 212.287 79.5546 212.258 79.9958C212.199 80.9262 211.713 81.8215 210.973 82.485C210.237 83.15 209.267 83.5561 208.335 83.5529C208.127 83.5529 207.922 83.5337 207.718 83.4937C206.877 83.3291 206.112 82.8127 205.558 82.0901C205.003 81.3723 204.675 80.4642 204.677 79.5977C204.677 79.2348 204.731 78.8799 204.846 78.541C205.324 77.0718 207.006 76.0086 208.614 76.0198C209.15 76.0198 209.668 76.1318 210.135 76.3652C211.363 76.9647 212.154 78.4435 212.148 79.8919C212.148 80.6225 211.953 81.3227 211.556 81.8967C211.305 82.2596 211.396 82.7584 211.759 83.0094C212.122 83.2604 212.621 83.1692 212.872 82.8063Z" fill="#69725D" fill-opacity="0.8"/>
<path d="M207.228 78.3858L207.561 78.3619C208.331 78.3571 209.137 78.7551 209.58 79.3674C209.84 79.7239 210.341 79.8007 210.697 79.5401C211.052 79.2795 211.129 78.7792 210.868 78.4227C210.091 77.3723 208.848 76.7679 207.561 76.7632C207.374 76.7632 207.183 76.776 206.995 76.8048C206.558 76.8687 206.256 77.2748 206.32 77.7112C206.386 78.1477 206.792 78.4498 207.228 78.3858Z" fill="#69725D" fill-opacity="0.8"/>
<path d="M211.783 181.014C211.813 180.6 211.828 180.188 211.828 179.777C211.826 175.006 209.812 170.417 206.625 166.915C203.438 163.418 199.059 160.989 194.269 160.613L193.447 160.549L193.409 161.373C193.372 162.179 193.35 162.992 193.35 163.809C193.351 168.212 193.986 172.759 196.471 176.541C198.682 179.883 202.6 182.226 206.547 182.241C207.956 182.241 209.367 181.932 210.673 181.243C211.063 181.037 211.212 180.552 211.007 180.162C210.801 179.772 210.317 179.622 209.927 179.828C208.867 180.386 207.724 180.642 206.547 180.642C203.255 180.656 199.708 178.575 197.805 175.664C195.58 172.287 194.945 168.067 194.949 163.809C194.949 163.021 194.969 162.231 195.006 161.448L194.207 161.411L194.144 162.207C198.466 162.541 202.496 164.756 205.442 167.991C208.39 171.227 210.232 175.465 210.229 179.777C210.229 180.15 210.216 180.522 210.187 180.896C210.155 181.336 210.486 181.719 210.926 181.751C211.366 181.785 211.749 181.454 211.783 181.014Z" fill="#69725D" fill-opacity="0.8"/>
<path d="M197.128 165.939C199.505 172.469 204.461 177.993 210.697 181.061C211.094 181.256 211.572 181.093 211.767 180.696C211.962 180.301 211.799 179.822 211.402 179.627C205.546 176.751 200.857 171.523 198.63 165.392C198.48 164.978 198.021 164.764 197.606 164.914C197.192 165.066 196.977 165.523 197.128 165.939Z" fill="#69725D" fill-opacity="0.8"/>
<path d="M211.399 180.378C214.034 175.013 220.157 171.732 226.16 171.739C228.793 171.739 231.391 172.364 233.659 173.691L234.064 173L233.49 172.442C229.978 176.06 226.381 179.675 221.911 181.48C220.246 182.156 218.39 182.524 216.573 182.522C213.564 182.52 210.701 181.524 208.836 179.369C208.547 179.035 208.044 178.998 207.709 179.288C207.375 179.577 207.34 180.082 207.628 180.415C209.879 183.01 213.226 184.122 216.573 184.121C218.605 184.121 220.651 183.715 222.512 182.962C227.391 180.979 231.114 177.169 234.636 173.558L235.349 172.826L234.467 172.309C231.925 170.826 229.044 170.14 226.16 170.14C219.601 170.146 212.945 173.662 209.965 179.67C209.77 180.066 209.933 180.546 210.328 180.741C210.725 180.936 211.204 180.775 211.399 180.378Z" fill="#69725D" fill-opacity="0.8"/>
<path d="M233.051 173.267C225.054 175.636 217.059 178.004 209.062 180.372C208.638 180.498 208.397 180.942 208.523 181.366C208.648 181.79 209.092 182.031 209.516 181.905C217.513 179.537 225.508 177.168 233.505 174.799C233.928 174.674 234.17 174.229 234.045 173.806C233.919 173.382 233.474 173.141 233.051 173.267Z" fill="#69725D" fill-opacity="0.8"/>
<path d="M209.414 181.78C187.758 208.25 153.808 224.23 119.626 224.227C118.5 224.227 117.373 224.21 116.247 224.174C115.806 224.162 115.437 224.507 115.423 224.948C115.41 225.389 115.756 225.759 116.198 225.773C117.341 225.808 118.484 225.826 119.626 225.826C154.303 225.821 188.67 209.647 210.651 182.794C210.931 182.452 210.881 181.948 210.539 181.668C210.197 181.388 209.693 181.44 209.414 181.78Z" fill="#69725D" fill-opacity="0.8"/>
<path d="M147.838 222.542C154.791 222.776 161.582 226.553 165.445 232.339L166.11 231.895L166.097 231.095C165.186 231.11 164.273 231.122 163.363 231.122C159.753 231.122 156.196 230.921 152.9 229.819C150.85 229.137 148.874 228.021 147.304 226.572C145.731 225.122 144.566 223.348 144.072 221.327C143.966 220.897 143.534 220.635 143.106 220.739C142.676 220.844 142.414 221.278 142.518 221.706C143.1 224.087 144.46 226.126 146.22 227.748C147.982 229.37 150.145 230.585 152.394 231.335C155.964 232.524 159.697 232.719 163.363 232.721C164.287 232.721 165.208 232.708 166.121 232.694L167.592 232.673L166.773 231.45C162.602 225.223 155.384 221.206 147.894 220.945C147.453 220.929 147.082 221.274 147.067 221.716C147.052 222.157 147.397 222.528 147.838 222.542Z" fill="#69725D" fill-opacity="0.8"/>
<path d="M144.289 223.338C150.901 227.031 158.03 229.799 165.401 231.538C165.83 231.639 166.261 231.373 166.362 230.943C166.464 230.513 166.198 230.083 165.767 229.983C158.541 228.277 151.55 225.564 145.068 221.943C144.682 221.728 144.195 221.866 143.98 222.251C143.765 222.637 143.904 223.124 144.289 223.338Z" fill="#69725D" fill-opacity="0.8"/>
<path d="M135.151 222.032C134.694 222.587 133.949 222.884 133.141 222.884C132.064 222.886 131.015 222.346 130.611 221.487C130.46 221.18 130.39 220.849 130.39 220.501C130.387 219.812 130.684 219.059 131.173 218.501C131.663 217.938 132.304 217.589 132.975 217.572L133.037 217.57C133.718 217.569 134.393 217.911 134.908 218.474C135.423 219.035 135.739 219.794 135.736 220.489C135.734 220.784 135.683 221.067 135.571 221.337C135.402 221.744 135.595 222.211 136.003 222.381C136.411 222.55 136.877 222.357 137.047 221.949C137.245 221.474 137.335 220.977 137.335 220.489C137.33 219.332 136.849 218.232 136.089 217.396C135.33 216.565 134.257 215.973 133.037 215.972L132.926 215.973C131.726 216.011 130.689 216.619 129.966 217.452C129.24 218.29 128.794 219.372 128.791 220.501C128.791 221.068 128.91 221.647 129.173 222.187C129.939 223.728 131.573 224.481 133.141 224.483C134.328 224.483 135.554 224.047 136.38 223.054C136.663 222.713 136.617 222.21 136.276 221.928C135.937 221.645 135.432 221.692 135.151 222.032Z" fill="#69725D" fill-opacity="0.8"/>
<path d="M140.332 223.434C139.95 223.302 139.56 223.238 139.178 223.238C137.963 223.242 136.881 223.845 136.096 224.685C135.311 225.529 134.788 226.64 134.783 227.823C134.782 228.438 134.935 229.075 135.276 229.65C136.051 230.958 137.472 231.517 138.817 231.513C139.776 231.511 140.737 231.246 141.546 230.723C142.353 230.202 143.013 229.393 143.242 228.355C143.301 228.09 143.33 227.826 143.33 227.565C143.325 226.307 142.694 225.201 141.821 224.413C140.941 223.626 139.794 223.119 138.59 223.115C137.917 223.113 137.223 223.284 136.603 223.666C136.227 223.898 136.11 224.39 136.342 224.766C136.572 225.143 137.065 225.26 137.442 225.028C137.794 224.812 138.176 224.715 138.59 224.713C139.322 224.708 140.144 225.052 140.751 225.602C141.363 226.152 141.734 226.871 141.731 227.565C141.731 227.711 141.715 227.859 141.682 228.008C141.554 228.582 141.199 229.038 140.676 229.381C140.156 229.72 139.474 229.915 138.817 229.914C137.873 229.909 137.066 229.545 136.652 228.838C136.465 228.52 136.384 228.184 136.382 227.823C136.377 227.137 136.718 226.355 137.264 225.775C137.81 225.188 138.524 224.832 139.178 224.836C139.387 224.838 139.595 224.87 139.806 224.943C140.224 225.089 140.679 224.87 140.825 224.453C140.97 224.035 140.75 223.58 140.332 223.434Z" fill="#69725D" fill-opacity="0.8"/>
<path d="M212.961 177.537C215.805 173.942 217.179 169.411 217.179 164.884C217.177 159.301 215.094 153.689 211 149.792L210.48 149.299L209.933 149.76C206.57 152.596 204.782 156.957 204.779 161.288C204.779 163.822 205.395 166.358 206.696 168.577C206.918 168.957 207.409 169.085 207.789 168.861C208.17 168.637 208.298 168.148 208.074 167.768C206.932 165.82 206.378 163.565 206.378 161.288C206.376 157.392 208.008 153.464 210.963 150.983L210.448 150.372L209.898 150.951C213.629 154.495 215.581 159.693 215.58 164.884C215.58 169.091 214.299 173.272 211.708 176.544C211.433 176.891 211.492 177.393 211.837 177.667C212.184 177.942 212.686 177.883 212.961 177.537Z" fill="#69725D" fill-opacity="0.8"/>
<path d="M209.703 151.765C209.61 161.461 209.518 171.158 209.423 180.854C209.42 181.296 209.773 181.657 210.216 181.662C210.658 181.667 211.019 181.312 211.022 180.87C211.115 171.173 211.209 161.477 211.302 151.779C211.307 151.338 210.952 150.976 210.51 150.973C210.069 150.968 209.708 151.323 209.703 151.765Z" fill="#69725D" fill-opacity="0.8"/>
<path d="M90.7231 14.9335C54.5101 24.0061 24.264 53.6092 14.4159 89.6199C14.299 90.0452 14.5502 90.4848 14.9761 90.6015C15.4019 90.7182 15.8416 90.4673 15.9577 90.0404C25.6304 54.6148 55.4861 25.3938 91.1116 16.4842C91.5394 16.3771 91.7998 15.9439 91.693 15.5154C91.5856 15.087 91.1515 14.8264 90.7231 14.9335Z" fill="#69725D" fill-opacity="0.8"/>
<path d="M46.5371 41.5614C49.1567 39.6558 52.391 38.7286 55.6589 38.7286C60.5107 38.7254 65.3929 40.7765 68.3748 44.543L69.0012 44.0458L68.493 43.4303C65.8407 45.6157 62.4154 46.6757 58.9444 46.6757C53.9491 46.6789 48.9195 44.4711 46.068 40.4359C45.8125 40.0762 45.3136 39.9915 44.9532 40.2457C44.5935 40.5015 44.508 41.0003 44.7635 41.36C47.9833 45.8924 53.4945 48.2712 58.9444 48.2744C62.7357 48.2744 66.5271 47.1185 69.5096 44.6629L70.1153 44.1642L69.6276 43.5502C66.2821 39.3408 60.9478 37.1315 55.6589 37.1299C52.0926 37.1299 48.5267 38.1386 45.5966 40.2681C45.2399 40.5271 45.1606 41.0275 45.4204 41.3856C45.6802 41.7421 46.1798 41.8204 46.5371 41.5614Z" fill="#69725D" fill-opacity="0.8"/>
<path d="M45.3782 41.7596C53.0231 42.033 60.6314 43.3535 67.9216 45.67C68.3425 45.8043 68.7922 45.5709 68.9259 45.1505C69.0595 44.73 68.8265 44.2807 68.4063 44.1464C60.9767 41.7852 53.226 40.4407 45.4349 40.1625C44.994 40.1465 44.6237 40.4919 44.6074 40.9331C44.5919 41.3744 44.9372 41.7452 45.3782 41.7596Z" fill="#69725D" fill-opacity="0.8"/>
<path d="M64.1384 25.0516C63.569 25.6399 62.7421 25.9373 61.8553 25.9373C60.4608 25.9421 59.0658 25.1811 58.5874 24.0045C58.4424 23.6592 58.3738 23.2946 58.3738 22.9205C58.37 22.0508 58.7585 21.1156 59.3879 20.425C60.0181 19.7312 60.8505 19.3011 61.7118 19.3027H61.7198L61.721 19.3043C62.581 19.3043 63.4091 19.7344 64.0355 20.4282C64.6612 21.1188 65.0465 22.0525 65.0433 22.9222C65.0428 23.3043 64.9722 23.6752 64.8224 24.0253C64.6481 24.4313 64.8355 24.9013 65.2414 25.0756C65.6473 25.2498 66.1168 25.0613 66.2911 24.6568C66.5328 24.094 66.642 23.5025 66.642 22.9222C66.6383 21.5969 66.0925 20.3275 65.2231 19.3587C64.3546 18.3931 63.1237 17.712 61.7266 17.7056H61.7279L61.7118 17.704C60.3129 17.7056 59.077 18.3867 58.2033 19.3507C57.3291 20.3195 56.7788 21.592 56.7751 22.9205C56.7751 23.4913 56.8807 24.0716 57.1136 24.6248L57.1166 24.6312L57.1136 24.6232C57.9366 26.5401 59.9319 27.5328 61.8553 27.536C63.0918 27.5376 64.3583 27.1172 65.285 26.1659C65.5929 25.8494 65.5854 25.3426 65.2689 25.0356C64.9522 24.7271 64.4463 24.7351 64.1384 25.0516Z" fill="#69725D" fill-opacity="0.8"/>
<path d="M67.2451 25.5952C67.6586 25.146 68.2931 24.9062 68.9788 24.9062C69.9361 24.903 70.874 25.3842 71.2512 26.1356C71.4037 26.4298 71.4774 26.7543 71.4774 27.0996C71.4798 27.6895 71.2481 28.3338 70.8596 28.8246C70.4707 29.3202 69.9511 29.6496 69.3903 29.7231L69.1311 29.7407C68.5179 29.7439 67.8709 29.4417 67.3837 28.9429C66.8947 28.4473 66.5956 27.7838 66.5994 27.1667L66.6418 26.7591C66.7337 26.3274 66.4589 25.9038 66.0268 25.811C65.5953 25.7183 65.1705 25.9933 65.0781 26.4266C65.0257 26.6728 65.0007 26.9221 65.0007 27.1667C65.0038 28.281 65.501 29.3043 66.2428 30.062C66.986 30.8182 68.0045 31.3362 69.1311 31.3394C69.2878 31.3394 69.4464 31.3298 69.6051 31.309C70.648 31.1651 71.5178 30.5768 72.1173 29.8126C72.7175 29.0437 73.0735 28.0876 73.0761 27.0996C73.0766 26.5257 72.9511 25.9389 72.6695 25.3986H72.67C71.9289 23.9965 70.4269 23.3091 68.9788 23.3075C67.9302 23.3059 66.8479 23.6752 66.0723 24.5097C65.7719 24.8342 65.7919 25.3394 66.1153 25.6384C66.4396 25.9389 66.9454 25.9197 67.2451 25.5952Z" fill="#69725D" fill-opacity="0.8"/>
<path d="M91.5474 16.1774C92.1731 15.1734 93.402 14.6251 94.701 14.6251C96.0842 14.6251 97.4095 15.2502 98.014 16.3517C98.2731 16.8201 98.3937 17.3333 98.3943 17.8736C98.3973 18.8472 97.9796 19.8944 97.2989 20.6698C96.617 21.4484 95.7139 21.9343 94.7528 21.9391H94.7347C93.7705 21.9407 92.8588 21.4563 92.168 20.6777C91.4799 19.9024 91.0558 18.8504 91.0596 17.8752C91.0603 17.3524 91.1746 16.852 91.4206 16.3964C91.6304 16.0063 91.4855 15.5219 91.097 15.3125C90.7086 15.1031 90.2234 15.2485 90.0136 15.637C89.6314 16.3452 89.4603 17.1174 89.4609 17.8752C89.4646 19.298 90.0398 20.6778 90.9703 21.7361C91.8983 22.788 93.2235 23.5362 94.7347 23.5378H94.7635C96.2698 23.5267 97.5849 22.7736 98.5029 21.7217C99.4234 20.6633 99.9892 19.2869 99.993 17.8736C99.9936 17.0935 99.8138 16.2989 99.4109 15.5747C98.436 13.8417 96.5345 13.0264 94.701 13.0264C92.9774 13.0248 91.1946 13.749 90.1947 15.3253C89.9592 15.6994 90.0716 16.1934 90.4451 16.4284C90.8185 16.6634 91.3125 16.5515 91.5474 16.1774Z" fill="#69725D" fill-opacity="0.8"/>
<path d="M86.278 15.963C85.9938 16.1069 85.6848 16.1741 85.3569 16.1741C84.7336 16.1773 84.0479 15.912 83.539 15.4739C83.0263 15.0343 82.7078 14.4603 82.6827 13.8592L82.681 13.7744C82.6784 13.1589 82.9882 12.5403 83.5033 12.0671C84.0148 11.5939 84.7092 11.3029 85.3395 11.3061C85.5948 11.3061 85.8408 11.3508 86.0757 11.4435H86.0763C86.5116 11.6162 86.8688 11.944 87.1266 12.3804C87.3847 12.8153 87.5282 13.354 87.527 13.8704C87.5263 14.5258 87.3084 15.1237 86.8868 15.5298C86.5703 15.8368 86.5621 16.3436 86.8694 16.6601C87.1773 16.9767 87.6831 16.9847 87.9997 16.6777C88.7853 15.9135 89.1269 14.876 89.1257 13.8704C89.125 13.0678 88.9133 12.2669 88.5042 11.5698C88.0959 10.876 87.4752 10.2797 86.6657 9.9584C86.233 9.78574 85.7815 9.70736 85.3395 9.70736C84.2421 9.71215 83.2081 10.171 82.4218 10.8904C81.6399 11.6082 81.084 12.6234 81.0823 13.7744L81.0853 13.9311C81.1365 15.055 81.716 16.0206 82.5005 16.6889C83.2891 17.3603 84.3014 17.7712 85.3569 17.7728C85.9083 17.7728 86.4734 17.6561 86.9981 17.3907C87.392 17.1925 87.5508 16.7113 87.3514 16.318C87.1529 15.9231 86.672 15.7648 86.278 15.963Z" fill="#69725D" fill-opacity="0.8"/>
<path d="M135.448 224.512C131.442 227.039 127.435 229.567 123.428 232.094C123.054 232.331 122.943 232.825 123.178 233.198C123.414 233.572 123.908 233.682 124.281 233.447C128.288 230.919 132.294 228.392 136.302 225.863C136.674 225.628 136.786 225.134 136.551 224.761C136.316 224.387 135.822 224.275 135.448 224.512Z" fill="#69725D" fill-opacity="0.8"/>
<path d="M123.047 233.098C123.245 233.514 123.338 233.96 123.338 234.422C123.342 235.38 122.921 236.408 122.238 237.166C121.554 237.93 120.649 238.403 119.701 238.401H119.677L119.685 239.201L119.688 238.401C118.742 238.4 117.843 237.923 117.164 237.161C116.486 236.403 116.069 235.377 116.073 234.421C116.073 233.947 116.169 233.492 116.376 233.07C116.944 231.88 118.359 231.167 119.803 231.169C120.927 231.17 121.983 231.594 122.618 232.409C122.891 232.756 123.393 232.817 123.741 232.544C124.088 232.272 124.148 231.77 123.876 231.421C122.868 230.142 121.315 229.57 119.803 229.57C117.873 229.573 115.869 230.494 114.94 232.366C114.618 233.023 114.474 233.728 114.474 234.421C114.477 235.826 115.049 237.183 115.969 238.222C116.887 239.258 118.193 239.992 119.681 240H119.686H119.691H119.701C121.191 239.998 122.505 239.266 123.429 238.232C124.356 237.193 124.933 235.832 124.936 234.422C124.937 233.744 124.798 233.055 124.489 232.409C124.298 232.011 123.821 231.842 123.423 232.032C123.025 232.224 122.856 232.7 123.047 233.098Z" fill="#69725D" fill-opacity="0.8"/>
<path d="M116.802 225.959C116.944 225.532 117.01 225.097 117.01 224.669C117.006 223.378 116.432 222.173 115.568 221.273C114.702 220.374 113.511 219.753 112.197 219.749C111.957 219.749 111.714 219.77 111.471 219.815H111.472C110.307 220.029 109.363 220.734 108.727 221.623C108.089 222.515 107.732 223.604 107.73 224.704C107.729 225.665 108.014 226.648 108.672 227.45C109.565 228.539 110.901 229.015 112.194 229.014C113.12 229.014 114.046 228.776 114.85 228.31C115.653 227.847 116.339 227.137 116.709 226.21C116.873 225.8 116.674 225.335 116.263 225.171C115.854 225.007 115.388 225.207 115.225 225.617C115.004 226.17 114.591 226.611 114.048 226.927C113.508 227.242 112.843 227.417 112.194 227.415C111.276 227.413 110.432 227.081 109.908 226.437C109.517 225.96 109.33 225.358 109.328 224.704C109.327 223.959 109.585 223.167 110.027 222.555C110.47 221.938 111.069 221.514 111.76 221.388C111.906 221.361 112.051 221.348 112.197 221.348C112.984 221.345 113.8 221.74 114.416 222.381C115.033 223.019 115.415 223.874 115.411 224.669C115.411 224.934 115.371 225.194 115.286 225.45C115.146 225.869 115.371 226.322 115.789 226.462C116.208 226.603 116.661 226.376 116.802 225.959Z" fill="#69725D" fill-opacity="0.8"/>
<path d="M113.216 223.994C113.11 224.521 112.477 225.014 111.93 224.996L111.859 224.995C111.419 224.966 111.039 225.3 111.01 225.741C110.982 226.181 111.316 226.561 111.757 226.589L111.93 226.595C113.261 226.577 114.438 225.672 114.77 224.366C114.874 223.936 114.608 223.506 114.179 223.402C113.749 223.3 113.318 223.565 113.216 223.994Z" fill="#69725D" fill-opacity="0.8"/>
<path d="M121.245 234.854C120.866 235.509 120.099 235.986 119.342 236.034C118.901 236.066 118.57 236.448 118.601 236.887C118.633 237.329 119.015 237.66 119.455 237.629C120.762 237.53 121.955 236.791 122.623 235.664C122.847 235.284 122.719 234.793 122.339 234.569C121.958 234.345 121.469 234.473 121.245 234.854Z" fill="#69725D" fill-opacity="0.8"/>
<path d="M133.357 219.821L133.197 220.019L132.876 220.122L132.715 220.085C132.329 219.869 131.843 220.007 131.626 220.39C131.41 220.776 131.547 221.263 131.933 221.479C132.233 221.648 132.563 221.722 132.876 221.72C133.32 221.72 133.741 221.583 134.099 221.338C134.455 221.095 134.761 220.729 134.895 220.256C135.015 219.832 134.769 219.39 134.344 219.27C133.918 219.15 133.477 219.396 133.357 219.821Z" fill="#69725D" fill-opacity="0.8"/>
<path d="M139.867 227.294C139.723 227.592 139.333 227.831 139.002 227.823C138.561 227.824 138.204 228.184 138.206 228.625C138.208 229.066 138.567 229.423 139.009 229.421C139.969 229.409 140.839 228.878 141.288 228.029C141.49 227.636 141.336 227.154 140.945 226.951C140.553 226.748 140.07 226.902 139.867 227.294Z" fill="#69725D" fill-opacity="0.8"/>
<path d="M143.594 220.298C143.45 220.318 143.304 220.33 143.157 220.33C142.367 220.331 141.547 220.013 140.901 219.481C140.256 218.948 139.798 218.219 139.67 217.442C139.643 217.281 139.63 217.119 139.63 216.956C139.629 216.173 139.937 215.359 140.459 214.717C140.977 214.071 141.691 213.612 142.457 213.473C142.634 213.439 142.815 213.423 142.996 213.423C143.771 213.422 144.578 213.722 145.218 214.229C145.861 214.736 146.324 215.434 146.476 216.191C146.514 216.384 146.534 216.582 146.534 216.782C146.535 217.549 146.244 218.347 145.749 218.987C145.253 219.626 144.57 220.091 143.825 220.254C143.395 220.349 143.122 220.774 143.216 221.206C143.311 221.637 143.737 221.911 144.169 221.815C145.331 221.559 146.316 220.864 147.013 219.965C147.709 219.063 148.131 217.946 148.132 216.782C148.132 216.48 148.104 216.176 148.043 215.874C147.803 214.694 147.112 213.689 146.209 212.974C145.304 212.263 144.176 211.826 142.996 211.824C142.721 211.824 142.444 211.848 142.168 211.9C140.97 212.122 139.944 212.808 139.213 213.713C138.484 214.621 138.033 215.76 138.032 216.956C138.032 217.204 138.053 217.455 138.094 217.704C138.297 218.919 138.978 219.968 139.886 220.715C140.796 221.461 141.949 221.925 143.157 221.928C143.381 221.928 143.605 221.912 143.829 221.879C144.265 221.813 144.567 221.407 144.502 220.971C144.436 220.533 144.03 220.232 143.594 220.298Z" fill="#69725D" fill-opacity="0.8"/>
<path d="M144.693 216.934C144.353 217.685 143.466 218.245 142.633 218.235L142.529 218.232C142.088 218.21 141.712 218.549 141.69 218.99C141.667 219.431 142.006 219.807 142.447 219.829L142.633 219.834C144.116 219.824 145.499 218.96 146.142 217.61C146.329 217.211 146.156 216.736 145.757 216.549C145.357 216.362 144.881 216.533 144.693 216.934Z" fill="#69725D" fill-opacity="0.8"/>
<path d="M95.8633 17.704V17.7264C95.8726 18.2907 95.4916 18.9126 94.9864 19.1588C94.593 19.3586 94.4363 19.8398 94.6362 20.2347C94.836 20.628 95.3175 20.7847 95.711 20.5833C96.7788 20.0317 97.4532 18.9254 97.462 17.7264V17.68C97.4552 17.2371 97.0916 16.8854 96.6502 16.8918C96.2087 16.8982 95.8565 17.2627 95.8633 17.704Z" fill="#69725D" fill-opacity="0.8"/>
<path d="M85.4149 13.6049L85.4667 13.8703C85.4718 14.1293 85.3212 14.4139 85.142 14.5226C84.7735 14.7656 84.6712 15.2612 84.914 15.6289C85.157 15.9982 85.6528 16.1005 86.0213 15.8575C86.7076 15.3971 87.0604 14.6409 87.0654 13.8703C87.0654 13.5681 87.0086 13.2596 86.8806 12.9654C86.7046 12.5609 86.233 12.3755 85.8283 12.553C85.4237 12.7289 85.2389 13.2004 85.4149 13.6049Z" fill="#69725D" fill-opacity="0.8"/>
<path d="M62.3342 21.907L62.343 22.0413C62.3561 22.5161 61.9807 23.0644 61.5492 23.2067C61.1345 23.3586 60.9216 23.8174 61.0739 24.2331C61.2258 24.6471 61.6854 24.8598 62.0993 24.7079C63.2184 24.2811 63.9292 23.2115 63.9417 22.0413L63.9185 21.6943C63.8605 21.2563 63.4582 20.9493 63.0205 21.0085C62.5828 21.0661 62.2755 21.4689 62.3342 21.907Z" fill="#69725D" fill-opacity="0.8"/>
<path d="M69.2719 26.8838V26.8998C69.2736 27.0532 69.2074 27.2371 69.0851 27.3858C68.9633 27.536 68.7978 27.6352 68.6504 27.6623C68.217 27.7471 67.9347 28.1675 68.0198 28.6008C68.1047 29.034 68.5243 29.3154 68.9577 29.2307C69.5185 29.1188 69.9874 28.807 70.3222 28.3978C70.6557 27.9885 70.8693 27.4689 70.8706 26.8998L70.8699 26.8406C70.8581 26.3993 70.4909 26.0508 70.0493 26.0636C69.6077 26.0748 69.2599 26.4425 69.2719 26.8838Z" fill="#69725D" fill-opacity="0.8"/>
<path d="M45.8383 32.6119L46.637 32.5751C46.4514 28.4713 45.1494 24.5865 43.8941 20.8295C43.7312 20.3451 43.5276 19.7935 43.1917 19.2835C42.8619 18.7783 42.3504 18.2811 41.6186 18.1101C41.443 18.0701 41.267 18.0509 41.0953 18.0509C40.4621 18.0525 39.9219 18.3019 39.4797 18.6041C39.0357 18.9078 38.6672 19.2787 38.3556 19.6224C36.088 22.1388 34.0972 25.034 33.0612 28.3529C32.5997 29.8349 32.3461 31.4001 32.3455 32.9636C32.3455 34.914 32.7408 36.866 33.6319 38.6374C34.9659 41.2784 37.4488 43.3919 40.4064 44.0537C40.7255 44.1209 41.2002 44.2584 41.7441 44.2632C42.0481 44.2616 42.396 44.2168 42.7396 44.0266H42.7389C43.2029 43.7548 43.4802 43.3807 43.7405 43.021C43.9917 42.6613 44.2001 42.2984 44.3413 42.0794H44.3407C45.1894 40.7557 45.7739 39.2912 46.1443 37.7917V37.7933C46.4952 36.372 46.6564 34.914 46.657 33.4624C46.657 33.1666 46.6501 32.8709 46.637 32.5751L45.8383 32.6119L45.0395 32.6471C45.0521 32.9189 45.0583 33.1906 45.0583 33.4624C45.0583 34.7957 44.9096 36.1259 44.5925 37.4096C44.2583 38.7621 43.7343 40.0634 42.9949 41.2161C42.8213 41.4878 42.6302 41.8204 42.4304 42.1049C42.2393 42.3895 42.0139 42.6118 41.957 42.6326H41.9564L41.7441 42.6645C41.5006 42.6677 41.1153 42.5766 40.7524 42.4919C38.3311 41.9611 36.1817 40.1561 35.0602 37.918C34.2964 36.4024 33.9442 34.6998 33.9442 32.9636C33.9442 31.5728 34.1715 30.1627 34.5875 28.8278C35.5248 25.8174 37.3702 23.1012 39.5428 20.6936C39.8082 20.3978 40.1023 20.1132 40.3815 19.923C40.6637 19.7311 40.9086 19.6464 41.0953 19.6496L41.2539 19.6673C41.4656 19.7184 41.6504 19.8574 41.8584 20.166C42.0595 20.4665 42.2344 20.9014 42.3786 21.3363C43.6376 25.0916 44.8722 28.839 45.0395 32.6471L45.8383 32.6119Z" fill="#69725D" fill-opacity="0.8"/>
<path d="M40.461 19.3379C40.762 23.1444 40.9131 26.9637 40.9131 30.7814C40.9131 34.735 40.7513 38.6885 40.4285 42.6293C40.3922 43.069 40.7195 43.4559 41.1598 43.4911C41.5994 43.5262 41.9853 43.2001 42.0216 42.7588C42.3481 38.7765 42.5118 34.7781 42.5118 30.7814C42.5118 26.9205 42.3594 23.0613 42.0547 19.2116C42.0197 18.7719 41.6351 18.4442 41.1948 18.4777C40.7545 18.5129 40.426 18.8982 40.461 19.3379Z" fill="#69725D" fill-opacity="0.8"/>
<path d="M88.8413 16.489C91.1214 14.0286 93.4019 11.5682 95.682 9.10782C95.9824 8.78329 95.963 8.27812 95.6388 7.97757C95.3154 7.67861 94.8096 7.6978 94.5092 8.02074C92.2291 10.4811 89.949 12.9415 87.6691 15.4019C87.3687 15.7265 87.3881 16.2316 87.7115 16.5322C88.0357 16.8311 88.5415 16.8119 88.8413 16.489Z" fill="#69725D" fill-opacity="0.8"/>
<path d="M94.2334 8.11343C95.2588 9.80486 97.1667 10.6809 99.0395 10.6841C100.212 10.6857 101.402 10.334 102.362 9.55866C103.66 8.50352 104.281 6.88882 104.282 5.30611C104.282 3.8433 103.75 2.35491 102.61 1.31256C101.617 0.410893 100.323 3.36989e-05 99.0495 3.36989e-05C97.2747 0.0016324 95.4631 0.789797 94.4345 2.36452C93.8906 3.20383 93.647 4.17101 93.647 5.12383C93.6538 7.22453 94.8043 9.35883 96.8506 10.2381C97.2578 10.4108 97.7268 10.2189 97.8979 9.81283C98.0696 9.40516 97.8786 8.9367 97.472 8.76564C96.1369 8.22048 95.2388 6.64899 95.2457 5.12383C95.2463 4.43959 95.4199 3.78251 95.7766 3.23256C96.4348 2.203 97.7387 1.59554 99.0495 1.59873C99.985 1.59873 100.885 1.90246 101.534 2.49558H101.534C102.284 3.17343 102.684 4.22379 102.683 5.30611C102.685 6.47955 102.212 7.63059 101.356 8.31483L101.335 8.3324L101.356 8.31647C100.724 8.82965 99.8988 9.08538 99.0395 9.08538C97.6581 9.09017 96.2648 8.40913 95.6043 7.29004C95.3769 6.91115 94.886 6.78965 94.5076 7.01667C94.1285 7.24368 94.006 7.73454 94.2334 8.11343Z" fill="#69725D" fill-opacity="0.8"/>
<path d="M99.9617 4.19021L99.976 4.42197C99.9885 5.28527 99.3604 6.21575 98.561 6.50192C98.1476 6.65699 97.9383 7.11741 98.0939 7.53147C98.2488 7.94394 98.7096 8.15335 99.123 7.99828C100.6 7.42754 101.562 5.97751 101.575 4.42197L101.549 3.99513C101.495 3.55709 101.096 3.24536 100.658 3.29812C100.22 3.35248 99.9079 3.75056 99.9617 4.19021Z" fill="#69725D" fill-opacity="0.8"/>
<path d="M34.3577 61.3949L34.4314 62.191C34.8279 62.1543 35.2264 62.1367 35.6248 62.1367C38.8334 62.1351 42.0571 63.3133 44.4852 65.406L45.0071 64.8017L44.4446 64.2326C41.5693 67.0847 37.5652 68.7873 33.5158 68.9504C33.2461 68.9616 32.9683 68.968 32.6866 68.968C30.8724 68.9759 28.9002 68.6706 27.7012 67.7002C27.1823 67.2797 26.9912 66.8129 26.985 66.3173C26.9837 65.7785 27.2454 65.1838 27.7874 64.7106C29.4486 63.2478 32.1427 62.3941 34.4314 62.191L34.3577 61.3949L34.2847 60.5987C31.7392 60.8401 28.8003 61.7195 26.7364 63.5052C25.8865 64.247 25.3869 65.2638 25.3863 66.3173C25.3801 67.2845 25.8341 68.2661 26.7071 68.9519C28.432 70.3028 30.7256 70.5587 32.6866 70.5667C32.9932 70.5667 33.2923 70.5586 33.5809 70.5474C38.0304 70.3652 42.3918 68.5155 45.5699 65.3692L46.1844 64.7601L45.5286 64.1958C42.7952 61.8441 39.2213 60.538 35.6248 60.538C35.1777 60.538 34.7305 60.5572 34.2847 60.5987L34.3577 61.3949Z" fill="#69725D" fill-opacity="0.8"/>
<path d="M41.7372 63.9736C37.3364 64.952 32.8276 65.446 28.3188 65.446C27.3826 65.446 26.4466 65.4252 25.5117 65.382C25.0701 65.3629 24.6967 65.7034 24.6767 66.1446C24.656 66.5859 24.9977 66.96 25.4386 66.9792C26.3985 67.0223 27.3583 67.0447 28.3188 67.0447C32.9443 67.0447 37.5687 66.5379 42.0844 65.534C42.5153 65.438 42.7871 65.0095 42.6915 64.5795C42.5952 64.1478 42.168 63.8761 41.7372 63.9736Z" fill="#69725D" fill-opacity="0.8"/>
<path d="M23.4571 82.9182L23.5789 83.7079C24.3809 83.5832 25.1901 83.5305 26.0064 83.5305C28.5405 83.5289 31.1453 84.0549 33.7483 84.5968L33.9105 83.8135L33.3497 83.2443C30.8674 85.6919 28.3069 88.0612 25.2557 89.3258C23.9281 89.8789 22.4025 90.2178 20.9211 90.2162C19.6078 90.2162 18.3344 89.9525 17.2342 89.369C16.902 89.1931 16.7226 89.022 16.6289 88.8862C16.5365 88.7487 16.5085 88.6448 16.506 88.4961C16.4828 88.1332 16.8526 87.4314 17.4665 86.7967C18.0647 86.1572 18.8428 85.5688 19.3918 85.2299C20.6532 84.4481 22.0989 83.9366 23.5789 83.7079L23.4571 82.9182L23.3355 82.1284C21.6556 82.3874 20.01 82.9677 18.5506 83.871H18.5499C17.8861 84.2835 17.0318 84.9277 16.3012 85.7031C15.5861 86.4833 14.9303 87.377 14.9073 88.4961C14.9041 88.9357 15.0377 89.4026 15.3151 89.7974C15.591 90.1939 15.9877 90.5184 16.4847 90.7822C17.8623 91.5112 19.398 91.8149 20.9211 91.8149C22.6436 91.8133 24.357 91.4297 25.8696 90.8014C29.2782 89.3801 31.9672 86.8446 34.4714 84.3842L35.5361 83.3355L34.073 83.0317C31.4663 82.4913 28.7597 81.9334 26.0064 81.9318C25.1196 81.9318 24.2279 81.9894 23.3355 82.1284L23.4571 82.9182Z" fill="#69725D" fill-opacity="0.8"/>
<path d="M33.9847 83.3499C27.9264 86.1748 21.3406 87.871 14.671 88.3218C14.2307 88.3522 13.8979 88.7327 13.9279 89.1723C13.9573 89.6136 14.3388 89.9461 14.7791 89.9173C21.6466 89.4521 28.4217 87.7079 34.6605 84.7983C35.0602 84.6128 35.2336 84.1364 35.0471 83.7367C34.8603 83.3371 34.385 83.1628 33.9847 83.3499Z" fill="#69725D" fill-opacity="0.8"/>
<path d="M15.2918 78.1173L15.9932 77.7336C14.0485 74.1877 10.4577 71.6393 6.46845 70.9743L5.6715 70.8416L5.54792 71.6409C5.30444 73.206 5.1377 74.8224 5.1377 76.4419C5.1377 78.7903 5.48925 81.1501 6.49147 83.3387C7.7367 86.0469 10.1261 88.3618 13.093 89.1979C13.5702 89.329 14.1366 89.4761 14.7504 89.4777C15.13 89.4777 15.5398 89.4185 15.9345 89.2251C16.3291 89.0348 16.6857 88.6975 16.9168 88.2594C17.5139 87.1308 17.6194 85.7846 17.6263 84.584C17.6256 84.1332 17.6076 83.7032 17.5837 83.3195C17.4651 81.3754 16.9343 79.4538 15.9932 77.7336L15.2918 78.1173L14.5905 78.501C15.4124 80.0021 15.8838 81.6984 15.9882 83.417C16.01 83.7799 16.0276 84.1763 16.0276 84.584C16.0338 85.6663 15.8883 86.819 15.5093 87.5016C15.4137 87.6727 15.335 87.7334 15.2282 87.791C15.1214 87.8437 14.9628 87.879 14.7504 87.879C14.4095 87.8822 13.9568 87.7814 13.5234 87.6583C11.1002 86.9884 9.00319 84.9949 7.94469 82.6719C7.06605 80.7551 6.73639 78.6321 6.73639 76.4419C6.73639 74.9327 6.89243 73.3947 7.12728 71.8856L6.3372 71.7625L6.20675 72.5522C9.69271 73.1245 12.8994 75.4011 14.5905 78.501L15.2918 78.1173Z" fill="#69725D" fill-opacity="0.8"/>
<path d="M6.22184 72.6432C10.6151 77.3594 13.8593 83.1499 15.5893 89.3592C15.7079 89.7845 16.1482 90.0339 16.5734 89.914C16.9987 89.7957 17.2479 89.3544 17.1291 88.9292C15.3288 82.4704 11.9615 76.4609 7.39145 71.5529C7.09105 71.23 6.58522 71.2124 6.2618 71.513C5.93887 71.8135 5.9208 72.3187 6.22184 72.6432Z" fill="#69725D" fill-opacity="0.8"/>
<path d="M31.4944 57.6348C34.2771 56.4086 37.3228 55.7707 40.364 55.7707C40.7637 55.7707 41.164 55.7818 41.563 55.8042C42.004 55.8282 42.3813 55.4909 42.4056 55.0512C42.4299 54.61 42.0927 54.2327 41.6518 54.2087C41.2227 54.1847 40.7937 54.172 40.364 54.172C37.0992 54.172 33.8388 54.8562 30.85 56.172C30.4458 56.351 30.263 56.8227 30.4402 57.2271C30.6182 57.63 31.0904 57.8138 31.4944 57.6348Z" fill="#69725D" fill-opacity="0.8"/>
<path d="M40.7986 54.2535L40.7862 54.578C40.7892 55.9609 41.4263 57.2239 42.3655 58.1447C43.3071 59.064 44.5775 59.6731 45.9445 59.6763C46.1811 59.6763 46.4203 59.6571 46.6588 59.6171C47.9047 59.4125 48.9526 58.6931 49.6839 57.7563C50.4151 56.8162 50.8524 55.6443 50.8548 54.4373C50.8548 53.8426 50.7449 53.2383 50.5026 52.6644H50.5032C49.6701 50.7268 47.6556 49.6636 45.6828 49.6572C44.6929 49.6572 43.6864 49.9338 42.8426 50.5541C41.1246 51.8346 40.4608 53.9338 40.3197 55.8522C40.2885 56.2934 40.6201 56.6755 41.0603 56.7075C41.5006 56.7379 41.8827 56.4069 41.9147 55.9657C42.0277 54.3158 42.6266 52.6836 43.7912 51.8411C44.322 51.4494 44.9847 51.2575 45.6828 51.2559C47.0909 51.2495 48.5343 52.0665 49.0294 53.2847C49.1824 53.6476 49.2556 54.0377 49.2561 54.4373C49.258 55.2463 48.9477 56.1047 48.4236 56.773C47.8991 57.4445 47.184 57.9129 46.4003 58.0408C46.2492 58.0648 46.0969 58.0776 45.9445 58.0776C45.0702 58.0808 44.1609 57.6667 43.484 57.0016C42.8045 56.3382 42.3823 55.4509 42.3849 54.578L42.393 54.3718C42.4255 53.9305 42.095 53.5468 41.6549 53.5149C41.2146 53.4829 40.8311 53.8123 40.7986 54.2535Z" fill="#69725D" fill-opacity="0.8"/>
<path d="M46.6283 54.2616L46.652 54.4263C46.6558 54.6165 46.5497 54.8739 46.3567 55.0673C46.1661 55.2624 45.9201 55.3679 45.7366 55.3631L45.6117 55.3503C45.1813 55.2528 44.7529 55.523 44.6549 55.953C44.5575 56.3831 44.8272 56.8115 45.2576 56.909C45.4181 56.9458 45.5791 56.9618 45.7366 56.9618C46.4416 56.9586 47.0529 56.6372 47.4975 56.1864C47.9404 55.7324 48.247 55.1217 48.2507 54.4263C48.2507 54.22 48.2214 54.0074 48.1583 53.798C48.0309 53.3759 47.5843 53.1361 47.1623 53.264C46.7394 53.3919 46.5003 53.8379 46.6283 54.2616Z" fill="#69725D" fill-opacity="0.8"/>
<path d="M28.4625 60.8243C28.6679 59.5597 28.771 58.2791 28.771 56.9986C28.771 55.2064 28.5693 53.4127 28.1683 51.6637C28.0697 51.232 27.6406 50.9635 27.2104 51.0626C26.7802 51.1617 26.5116 51.5901 26.6102 52.0202C26.9843 53.6509 27.1723 55.3247 27.1723 56.9986C27.1723 58.1944 27.0761 59.3886 26.8844 60.5668C26.8133 61.0033 27.1092 61.4142 27.5452 61.4845C27.9803 61.5549 28.3914 61.2591 28.4625 60.8243Z" fill="#69725D" fill-opacity="0.8"/>
<path d="M27.1911 50.6389C26.8376 50.7524 26.4667 50.8083 26.0894 50.8083C24.4651 50.8195 22.7708 49.7388 22.2269 48.2488C22.0752 47.8459 22.0015 47.4143 22.0015 46.973C21.9921 45.4031 22.9719 43.7693 24.379 43.1793C24.8317 42.9827 25.3251 42.8884 25.8303 42.8884C27.3453 42.8804 28.9133 43.7677 29.546 45.0898C29.7896 45.5886 29.9082 46.1449 29.9082 46.7157C29.9145 48.1753 29.1145 49.6764 27.8793 50.3415C27.4921 50.5525 27.3503 51.0386 27.5626 51.4254C27.7749 51.8123 28.2608 51.9546 28.648 51.742C30.4727 50.73 31.5007 48.722 31.5069 46.7157C31.5069 45.9243 31.3427 45.125 30.9824 44.388C30.0137 42.4359 27.9266 41.2977 25.8303 41.2897C25.1259 41.2897 24.4146 41.4223 23.7457 41.7117C21.6674 42.623 20.4116 44.786 20.4028 46.973C20.4028 47.5917 20.5064 48.2168 20.7314 48.8131C21.5782 51.0129 23.8106 52.3958 26.0894 52.407C26.6234 52.407 27.1617 52.3287 27.6844 52.1592C28.1041 52.0233 28.3338 51.5725 28.1984 51.1521C28.0616 50.7316 27.6114 50.5014 27.1911 50.6389Z" fill="#69725D" fill-opacity="0.8"/>
<path d="M26.3062 45.8107C26.8576 46.2008 27.1973 46.9474 27.1947 47.6972C27.1947 48.2248 27.0318 48.7251 26.7271 49.0928C26.4461 49.4334 26.4935 49.937 26.8339 50.2183C27.1741 50.4997 27.6782 50.4518 27.9592 50.1112C28.5343 49.4142 28.7928 48.5461 28.7934 47.6972C28.791 46.4966 28.282 45.2736 27.2422 44.5142C26.8844 44.2568 26.3842 44.3368 26.1263 44.6949C25.8678 45.053 25.9482 45.5518 26.3062 45.8107Z" fill="#69725D" fill-opacity="0.8"/>
<path d="M26.6189 60.4453C26.3028 61.3949 25.9869 62.3429 25.6702 63.2926C25.531 63.7098 25.7571 64.1638 26.1761 64.3029C26.5951 64.442 27.0478 64.2166 27.1871 63.7977C27.5038 62.8481 27.8197 61.9001 28.1358 60.9505C28.275 60.5332 28.0489 60.0791 27.6299 59.9401C27.2115 59.801 26.7588 60.0264 26.6189 60.4453Z" fill="#69725D" fill-opacity="0.8"/>
<path d="M186.643 194.909L187.43 194.768C186.779 191.125 184.926 187.906 183.011 184.926L182.525 184.172L181.831 184.743C178.888 187.171 177.146 190.92 177.142 194.725C177.142 195.003 177.152 195.281 177.171 195.558C177.382 198.634 178.754 201.567 180.896 203.753C181.227 204.087 181.582 204.448 181.994 204.755C182.405 205.054 182.904 205.326 183.523 205.331C184.165 205.337 184.791 204.992 185.269 204.432C186.354 203.19 186.982 201.615 187.328 200.117C187.545 199.166 187.647 198.191 187.647 197.22C187.647 196.397 187.574 195.574 187.43 194.768L186.643 194.909L185.857 195.048C185.983 195.764 186.049 196.493 186.049 197.22C186.049 198.077 185.958 198.933 185.769 199.761C185.47 201.08 184.907 202.426 184.066 203.379C183.758 203.716 183.622 203.726 183.523 203.732C183.422 203.737 183.217 203.671 182.942 203.466C182.672 203.268 182.359 202.961 182.038 202.632C180.156 200.718 178.946 198.117 178.765 195.449C178.749 195.208 178.741 194.966 178.741 194.725C178.738 191.411 180.289 188.079 182.847 185.977L182.34 185.36L181.667 185.793C183.556 188.723 185.277 191.77 185.857 195.048L186.643 194.909Z" fill="#69725D" fill-opacity="0.8"/>
<path d="M181.516 189.487C182.092 194.965 182.666 200.44 183.241 205.916C183.288 206.355 183.681 206.673 184.119 206.627C184.559 206.582 184.877 206.189 184.831 205.749C184.257 200.274 183.681 194.797 183.106 189.321C183.059 188.882 182.666 188.563 182.228 188.61C181.788 188.656 181.47 189.049 181.516 189.489" fill="#69725D" fill-opacity="0.8"/>
<path d="M183.884 206.534C186.109 205.593 188.531 205.115 190.954 205.115C192.776 205.115 194.599 205.387 196.335 205.928C196.757 206.061 197.204 205.826 197.337 205.404C197.468 204.984 197.233 204.534 196.813 204.403C194.917 203.81 192.934 203.516 190.954 203.516C188.322 203.518 185.691 204.034 183.262 205.062C182.855 205.235 182.664 205.703 182.837 206.111C183.01 206.517 183.478 206.707 183.884 206.534Z" fill="#69725D" fill-opacity="0.8"/>
<path d="M195.385 204.018C195.077 204.646 194.938 205.327 194.938 205.997C194.945 207.906 196.031 209.809 197.887 210.582C198.429 210.803 199 210.904 199.563 210.904C201.587 210.892 203.582 209.646 204.264 207.634C204.413 207.184 204.48 206.72 204.48 206.261C204.479 205.185 204.111 204.14 203.486 203.284C202.861 202.429 201.965 201.751 200.885 201.475C200.56 201.393 200.231 201.355 199.905 201.355C198.752 201.358 197.655 201.821 196.818 202.558C195.985 203.292 195.388 204.339 195.385 205.532C195.385 205.702 195.398 205.873 195.424 206.044C195.487 206.48 195.894 206.782 196.33 206.718C196.766 206.653 197.069 206.247 197.005 205.81L196.984 205.532C196.981 204.897 197.313 204.255 197.876 203.756C198.434 203.26 199.198 202.949 199.905 202.953C200.105 202.953 200.301 202.976 200.491 203.025C201.16 203.193 201.761 203.631 202.196 204.228C202.63 204.821 202.883 205.559 202.881 206.261C202.881 206.562 202.838 206.854 202.746 207.136C202.355 208.381 200.923 209.318 199.563 209.305C199.19 209.305 198.827 209.239 198.49 209.102C197.34 208.651 196.527 207.297 196.536 205.997C196.536 205.546 196.629 205.112 196.821 204.722C197.014 204.325 196.851 203.845 196.455 203.652C196.058 203.457 195.579 203.622 195.385 204.018Z" fill="#69725D" fill-opacity="0.8"/>
<path d="M183.067 206.14C185.227 206.885 187.268 207.98 189.084 209.367C189.436 209.636 189.938 209.569 190.205 209.219C190.474 208.867 190.407 208.367 190.057 208.098C188.103 206.605 185.911 205.43 183.588 204.629C183.171 204.485 182.715 204.705 182.571 205.123C182.428 205.542 182.65 205.996 183.067 206.14Z" fill="#69725D" fill-opacity="0.8"/>
<path d="M190.384 209.174C190.677 209.083 190.984 209.038 191.296 209.038C192.682 209.027 194.136 209.954 194.603 211.22C194.736 211.569 194.802 211.944 194.802 212.33C194.81 213.657 193.994 215.039 192.824 215.559C192.419 215.743 191.973 215.832 191.513 215.832C190.25 215.84 188.942 215.127 188.383 214.055C188.14 213.601 188.02 213.078 188.02 212.541C188.015 211.345 188.632 210.119 189.606 209.527C189.981 209.295 190.098 208.803 189.866 208.427C189.635 208.052 189.142 207.935 188.766 208.167C187.249 209.113 186.426 210.83 186.421 212.541C186.421 213.314 186.594 214.098 186.973 214.808C187.876 216.478 189.692 217.425 191.513 217.431C192.181 217.433 192.857 217.3 193.487 217.014C195.31 216.168 196.392 214.261 196.4 212.33C196.4 211.765 196.304 211.195 196.096 210.649C195.326 208.68 193.336 207.45 191.296 207.439C190.832 207.439 190.364 207.505 189.908 207.647C189.486 207.778 189.251 208.227 189.382 208.648C189.515 209.07 189.962 209.305 190.384 209.174Z" fill="#69725D" fill-opacity="0.8"/>
<path d="M200.592 205.481L200.629 205.69C200.635 205.952 200.456 206.255 200.264 206.344C199.874 206.55 199.724 207.033 199.93 207.423C200.136 207.813 200.619 207.964 201.011 207.757C201.796 207.33 202.22 206.525 202.227 205.69C202.227 205.434 202.184 205.172 202.088 204.92C201.935 204.506 201.473 204.296 201.06 204.451C200.646 204.606 200.437 205.067 200.592 205.481Z" fill="#69725D" fill-opacity="0.8"/>
<path d="M191.985 212.136C191.986 212.47 191.644 212.88 191.316 212.936C190.885 213.032 190.615 213.46 190.71 213.89C190.808 214.322 191.235 214.592 191.667 214.496C192.744 214.237 193.516 213.315 193.582 212.207C193.601 211.765 193.259 211.391 192.818 211.372C192.376 211.355 192.004 211.695 191.985 212.136Z" fill="#69725D" fill-opacity="0.8"/>
<path d="M153.406 221.055C156.092 219.078 158.106 216.23 159.077 213.041C159.205 212.619 158.967 212.171 158.545 212.043C158.122 211.916 157.676 212.154 157.547 212.576C156.68 215.43 154.861 218.002 152.46 219.768C152.103 220.029 152.028 220.529 152.289 220.886C152.551 221.241 153.051 221.318 153.406 221.055Z" fill="#69725D" fill-opacity="0.8"/>
<path d="M157.194 212.872C158.07 213.476 159.096 213.746 160.108 213.746C162.095 213.741 164.114 212.723 165.066 210.849C165.419 210.141 165.579 209.372 165.579 208.614C165.569 206.363 164.21 204.112 161.972 203.332C161.459 203.158 160.928 203.078 160.404 203.078C159.142 203.08 157.919 203.534 156.933 204.291C155.95 205.049 155.192 206.128 154.938 207.41C154.877 207.719 154.848 208.029 154.848 208.336C154.852 209.722 155.424 211.036 156.326 212.042C157.227 213.044 158.484 213.759 159.9 213.853C160.342 213.882 160.722 213.548 160.751 213.107C160.778 212.667 160.445 212.286 160.004 212.258C159.074 212.199 158.178 211.713 157.515 210.974C156.85 210.237 156.445 209.268 156.447 208.336C156.447 208.128 156.468 207.922 156.508 207.719C156.671 206.877 157.189 206.112 157.91 205.558C158.628 205.003 159.536 204.675 160.404 204.677C160.765 204.677 161.12 204.731 161.459 204.846C162.928 205.324 163.991 207.004 163.98 208.614C163.98 209.15 163.868 209.668 163.635 210.135C163.035 211.362 161.557 212.154 160.108 212.147C159.377 212.147 158.677 211.952 158.103 211.556C157.74 211.305 157.242 211.396 156.991 211.759C156.74 212.122 156.831 212.621 157.194 212.872Z" fill="#69725D" fill-opacity="0.8"/>
<path d="M161.614 207.228L161.638 207.561C161.643 208.33 161.245 209.137 160.633 209.578C160.276 209.84 160.199 210.341 160.46 210.696C160.72 211.052 161.221 211.129 161.577 210.868C162.628 210.091 163.232 208.848 163.237 207.561C163.237 207.372 163.224 207.183 163.195 206.995C163.131 206.558 162.725 206.256 162.289 206.32C161.852 206.386 161.55 206.792 161.614 207.228Z" fill="#69725D" fill-opacity="0.8"/>
</svg>
