<svg width="460" height="64" viewBox="0 0 460 64" fill="none" xmlns="http://www.w3.org/2000/svg">
<path d="M328.741 29.961L329.399 31.8213L386.158 11.7703C393.918 9.03022 401.961 7.68996 409.949 7.68996C426.205 7.68996 442.236 13.2336 455.195 23.8291C455.833 24.3649 456.049 24.9532 456.061 25.6082C456.065 26.2103 455.821 26.8372 455.415 27.2745C454.998 27.7091 454.485 27.9815 453.713 27.9894H328.741V29.961V31.9325H453.713C455.573 31.9432 457.219 31.1439 458.306 29.9531C459.401 28.7611 460 27.2114 460 25.6082C460.016 23.8768 459.248 22.0424 457.688 20.7779C444.012 9.59842 427.099 3.74687 409.949 3.74687C401.52 3.74687 393.031 5.16244 384.846 8.05194L317.244 31.9325H328.741V29.961Z" fill="#100F0D"/>
<path d="M328.741 32.0147L328.088 33.8707L384.846 53.9217C393.031 56.816 401.52 58.2268 409.949 58.2268C427.099 58.2268 444.012 52.3753 457.684 41.2005C459.248 39.9316 460.016 38.0985 460 36.3675C460 34.7622 459.401 33.213 458.306 32.0253C457.219 30.8345 455.573 30.0337 453.713 30.0431H317.244L328.088 33.8707L328.741 32.0147V33.9862H453.713C454.485 33.9937 454.998 34.265 455.415 34.7023C455.821 35.1368 456.065 35.7681 456.061 36.3675C456.049 37.0252 455.833 37.6088 455.195 38.1446C442.236 48.7405 426.205 54.2837 409.949 54.2837C401.961 54.2837 393.918 52.9438 386.158 50.2034L329.399 30.1524L328.741 32.0147Z" fill="#100F0D"/>
<path d="M63.3681 33.9871H424.451C425.538 33.9871 426.421 33.1026 426.421 32.0155C426.421 30.9264 425.538 30.044 424.451 30.044H63.3681C62.281 30.044 61.3987 30.9264 61.3987 32.0155C61.3987 33.1026 62.281 33.9871 63.3681 33.9871Z" fill="#100F0D"/>
<path d="M70.8601 45.7833H68.8907C68.8789 50.002 66.8661 53.4443 63.5496 56.0073C60.2409 58.5503 55.6246 60.0612 50.8113 60.0569H50.1417C47.4869 60.0612 35.0559 59.4698 21.967 50.2421C17.0828 46.8042 12.049 42.1864 7.41296 35.8976L7.39719 35.8774L7.38536 35.8621C6.22734 34.368 5.15211 32.723 4.02166 30.9565L2.36332 32.0223L3.98617 33.1342L7.49172 28.0082L5.86896 26.8963L7.44844 28.0717C11.7773 22.2387 16.4329 17.8504 20.9744 14.5311C34.6423 4.48369 47.7469 3.93837 50.252 3.9431L50.5632 3.94625H50.5829H50.8113C55.6206 3.93836 60.237 5.4604 63.5496 8.00803C66.8661 10.5754 68.8789 14.0256 68.8907 18.2214C68.8749 21.5206 67.5633 24.0131 65.4835 26.0169C63.3999 28.0082 60.5285 29.3962 57.7555 30.1138L50.3071 32.053L57.7713 33.9339C60.5482 34.6283 63.4156 36.0194 65.4835 38.0079C67.5593 40.0102 68.8749 42.49 68.8907 45.7833H70.8601H72.8256C72.8414 41.3516 70.9074 37.7153 68.2053 35.1523C65.4993 32.5739 62.0607 30.9486 58.7324 30.1095L58.2518 32.0223L58.7481 33.9307C62.041 33.0668 65.4757 31.4584 68.1975 28.8757C70.9232 26.3048 72.8414 22.6527 72.8256 18.2214C72.8374 12.6767 70.0448 8.00015 65.9444 4.88116C61.8402 1.73891 56.436 0.00788487 50.8113 0.00315315H50.6143V1.9747L50.6656 0.00315315L50.252 4.06897e-07C47.2309 4.06897e-07 33.2558 0.626955 18.6466 11.3486C13.8097 14.8852 8.85854 19.5617 4.28553 25.7212L4.26582 25.7488L0 31.9868L0.705071 33.0865C1.84734 34.8688 2.98175 36.6124 4.2737 38.2788L5.82953 37.0683L4.24216 38.2405C9.1421 44.8835 14.4989 49.8092 19.7022 53.4692C33.7166 63.3269 46.963 63.9968 50.1417 64H50.8113C56.432 63.9968 61.8402 62.2733 65.9444 59.1389C70.0448 56.0196 72.8374 51.3434 72.8256 45.7833H70.8601Z" fill="#100F0D"/>
<path d="M378.304 40.5078L396.348 50.8584C397.289 51.4022 398.495 51.0753 399.034 50.1282C399.574 49.1854 399.247 47.9796 398.305 47.439L380.262 37.0884C379.316 36.5446 378.115 36.8711 377.571 37.8182C377.032 38.7642 377.359 39.9672 378.304 40.5078Z" fill="#100F0D"/>
<path d="M396.348 40.5078L414.392 50.8584C415.333 51.4022 416.538 51.0753 417.078 50.1282C417.618 49.1854 417.295 47.9796 416.349 47.439L398.305 37.0884C397.36 36.5446 396.159 36.8711 395.615 37.8182C395.075 38.7642 395.402 39.9672 396.348 40.5078Z" fill="#100F0D"/>
<path d="M414.391 40.5078L432.431 50.8584C433.373 51.4022 434.578 51.0753 435.118 50.1282C435.661 49.1854 435.334 47.9796 434.389 47.439L416.349 37.0884C415.404 36.5446 414.202 36.8711 413.663 37.8182C413.119 38.7642 413.446 39.9672 414.391 40.5078Z" fill="#100F0D"/>
<path d="M380.262 26.6199L398.305 16.2693C399.247 15.7303 399.574 14.5225 399.034 13.5817C398.495 12.6341 397.289 12.3077 396.348 12.8467L378.304 23.1973C377.359 23.7426 377.032 24.9441 377.571 25.8912C378.115 26.834 379.316 27.1605 380.262 26.6199Z" fill="#100F0D"/>
<path d="M398.305 26.6199L416.349 16.2693C417.295 15.7303 417.618 14.5225 417.078 13.5817C416.538 12.6341 415.333 12.3077 414.392 12.8467L396.348 23.1973C395.402 23.7426 395.075 24.9441 395.615 25.8912C396.159 26.834 397.36 27.1605 398.305 26.6199Z" fill="#100F0D"/>
<path d="M416.349 26.6199L434.389 16.2693C435.334 15.7303 435.661 14.5225 435.118 13.5769C434.578 12.6341 433.373 12.3077 432.431 12.8467L414.391 23.1973C413.446 23.7426 413.119 24.9441 413.663 25.8912C414.202 26.834 415.404 27.1605 416.349 26.6199Z" fill="#100F0D"/>
</svg>
