<svg width="400" height="41" viewBox="0 0 400 41" fill="none" xmlns="http://www.w3.org/2000/svg">
<path d="M183.831 24.6373C186.209 24.3147 188.579 24.0087 190.849 24.0115C192.599 24.0115 194.289 24.1896 195.895 24.6652C197.69 25.1881 199.44 26.2367 200.707 27.5829C201.976 28.9347 202.753 30.5313 202.806 32.2391L202.808 32.3642C202.814 33.6076 202.203 34.9399 201.232 35.9329C200.264 36.9314 198.992 37.5294 197.897 37.5183C197.394 37.5183 196.921 37.4098 196.451 37.1595C195.807 36.809 195.367 36.3306 195.049 35.7076C194.734 35.0873 194.563 34.3141 194.565 33.4768C194.549 31.5715 195.478 29.4131 196.91 28.2616C197.491 27.7721 198.804 27.149 200.441 26.6345C205.369 25.0435 213.247 24.0922 216.408 24.0087C217.224 23.9865 217.868 23.3022 217.846 22.4817C217.821 21.6612 217.141 21.0159 216.325 21.0381C213.977 21.1077 209.722 21.5499 205.524 22.3426C203.428 22.7376 201.354 23.2216 199.543 23.8001C197.729 24.3898 196.188 25.0323 195.041 25.9585C192.809 27.8166 191.623 30.6898 191.609 33.4768C191.609 34.709 191.853 35.9412 192.411 37.0538C192.967 38.1636 193.863 39.1454 195.063 39.7852C195.97 40.2691 196.949 40.4945 197.897 40.4917C199.993 40.4833 201.913 39.4737 203.345 38.0134C204.769 36.542 205.756 34.5533 205.765 32.3642L205.759 32.1445C205.679 29.5689 204.509 27.2908 202.85 25.5357C201.185 23.7751 199.017 22.4873 196.725 21.8114C194.775 21.2356 192.798 21.0381 190.849 21.0381C188.316 21.0381 185.824 21.3692 183.435 21.6918C182.628 21.8003 182.058 22.5485 182.169 23.3635C182.277 24.1757 183.02 24.7486 183.831 24.6373Z" fill="#100F0D"/>
<path d="M227.219 23.5024C252.892 21.5387 278.642 20.554 304.389 20.554C319.064 20.554 333.737 20.8739 348.398 21.5136C349.214 21.5497 349.902 20.9128 349.938 20.0923C349.974 19.2718 349.341 18.5792 348.525 18.543C333.822 17.9005 319.106 17.5806 304.389 17.5806C278.567 17.5806 252.743 18.568 226.993 20.5373C226.18 20.5985 225.571 21.3133 225.632 22.1338C225.693 22.9516 226.404 23.5636 227.219 23.5024Z" fill="#100F0D"/>
<path d="M362.025 17.6394C364.196 13.9512 366.352 10.3436 369.267 7.62055C371.88 5.1673 375.287 3.45115 378.597 3.46506C378.951 3.46506 379.302 3.48173 379.653 3.52067C381.426 3.7126 383.215 4.5665 384.526 5.81538C385.842 7.06704 386.66 8.65525 386.71 10.3325V10.4632C386.718 11.7538 386.091 13.1111 385.087 14.1236C384.086 15.1416 382.761 15.7563 381.578 15.748C381.113 15.748 380.663 15.6617 380.22 15.4726L379.642 16.8411L380.292 18.179C380.809 17.9259 381.304 17.8201 381.805 17.8174C383.038 17.8062 384.421 18.5406 385.491 19.7811C386.561 21.0077 387.247 22.6794 387.238 24.1869C387.238 24.8907 387.1 25.561 386.804 26.1868C386.138 27.5887 385.043 28.6456 383.649 29.3799C382.258 30.1142 380.574 30.5009 378.868 30.4981C377.154 30.5009 375.425 30.1114 373.951 29.366C369.378 27.0741 366.319 22.1537 364.209 16.9857C363.897 16.2264 363.034 15.8648 362.279 16.1791C361.524 16.4934 361.165 17.3612 361.477 18.1206C363.714 23.55 367.013 29.1657 372.624 32.0223C374.554 32.9958 376.717 33.4714 378.868 33.4714C381.008 33.4714 383.143 33.0014 385.018 32.0167C386.89 31.0349 388.505 29.5107 389.473 27.4663C389.973 26.4121 390.194 25.2884 390.194 24.1869C390.186 21.8171 389.21 19.5586 387.722 17.8285C386.232 16.1123 384.158 14.8551 381.805 14.844C380.87 14.844 379.905 15.0554 378.995 15.506L376.081 16.9357L379.064 18.2096C379.886 18.5601 380.743 18.7213 381.578 18.7213C383.732 18.713 385.712 17.7033 387.183 16.218C388.651 14.7272 389.661 12.6967 389.666 10.4632L389.664 10.2407C389.581 7.63443 388.331 5.33418 386.553 3.65139C384.769 1.96583 382.441 0.839312 379.977 0.566729C379.515 0.513881 379.053 0.491624 378.597 0.491624C374.28 0.50275 370.279 2.61946 367.254 5.44542C363.93 8.56344 361.66 12.4381 359.481 16.1207C359.066 16.8272 359.296 17.7395 359.998 18.1595C360.7 18.5767 361.607 18.3459 362.025 17.6394Z" fill="#100F0D"/>
<path d="M387.164 7.30589C388.148 6.21556 389.661 5.6398 391.267 5.6398C393.408 5.63702 395.515 6.67732 396.441 8.3907C396.85 9.12779 397.044 9.95667 397.044 10.8301C397.05 12.1791 396.557 13.6171 395.722 14.7408C394.884 15.8701 393.745 16.6572 392.473 16.8964L386.937 17.9367L392.268 19.7641C394.022 20.3287 395.382 22.3926 395.36 24.3285C395.36 24.768 395.294 25.1991 395.161 25.6079C394.613 27.3908 392.545 28.7872 390.606 28.7649C390.183 28.7649 389.771 28.7037 389.382 28.5758C388.602 28.3282 387.772 28.7594 387.523 29.5437C387.277 30.3253 387.706 31.1625 388.483 31.4101C389.182 31.6326 389.899 31.7383 390.606 31.7383C393.803 31.7132 396.889 29.7162 397.968 26.537C398.205 25.8138 398.316 25.0656 398.316 24.3285C398.294 21.1437 396.347 18.0563 393.222 16.9493L392.744 18.3567L393.018 19.8198C395.139 19.4192 396.889 18.1425 398.092 16.5181C399.295 14.8854 399.997 12.88 400 10.8301C400 9.50886 399.701 8.16542 399.024 6.94436C397.417 4.07945 394.293 2.672 391.267 2.66643C388.98 2.66643 386.638 3.4814 384.979 5.30325C384.429 5.90961 384.473 6.84976 385.076 7.40327C385.679 7.95678 386.613 7.91225 387.164 7.30589Z" fill="#100F0D"/>
<path d="M173.007 20.5373C147.26 18.568 121.435 17.5806 95.6107 17.5806C80.8941 17.5806 66.1775 17.9005 51.4774 18.543C50.6617 18.5792 50.0285 19.2718 50.0644 20.0923C50.1004 20.9128 50.7889 21.5497 51.6046 21.5136C66.2632 20.8739 80.9383 20.554 95.6107 20.554C121.361 20.554 147.111 21.5387 172.783 23.5024C173.596 23.5636 174.307 22.9516 174.37 22.1338C174.431 21.3133 173.82 20.5985 173.007 20.5373Z" fill="#100F0D"/>
<path d="M40.5187 16.1207C38.3425 12.4381 36.0722 8.56344 32.7484 5.44542C29.7204 2.61946 25.7219 0.50275 21.4053 0.491624C20.9463 0.491624 20.4873 0.513881 20.0255 0.566729C17.5617 0.839312 15.2306 1.96583 13.447 3.65139C11.6717 5.33418 10.419 7.63443 10.3361 10.2407L10.3333 10.4632C10.3388 12.6967 11.3482 14.7272 12.8165 16.218C14.2876 17.7033 16.2675 18.713 18.4216 18.7213C19.2595 18.7213 20.1168 18.5601 20.9353 18.2096L23.9217 16.9357L21.0072 15.506C20.0946 15.0554 19.1324 14.844 18.1977 14.844C15.8417 14.8551 13.7705 16.1123 12.2801 17.8285C10.7896 19.5586 9.81347 21.8171 9.80518 24.1869C9.80518 25.2884 10.0291 26.4121 10.5296 27.4663C11.4975 29.5107 13.1124 31.0349 14.9817 32.0167C16.8565 33.0014 18.9913 33.4714 21.1344 33.4714C23.2829 33.4714 25.4481 32.9958 27.3755 32.0223C32.9862 29.1657 36.2879 23.55 38.525 18.1206C38.8347 17.3612 38.4752 16.4934 37.723 16.1791C36.9681 15.8648 36.1026 16.2264 35.7929 16.9857C33.6803 22.1537 30.6247 27.0741 26.0482 29.366C24.5771 30.1114 22.846 30.5009 21.1344 30.4981C19.4254 30.5009 17.7442 30.1142 16.3532 29.3799C14.9596 28.6456 13.8646 27.5887 13.1981 26.1868C12.9023 25.561 12.764 24.8907 12.7612 24.1869C12.7529 22.6794 13.4387 21.0077 14.5089 19.7811C15.579 18.5406 16.9616 17.8062 18.1977 17.8174C18.6982 17.8201 19.1932 17.9259 19.7103 18.179L20.3573 16.8411L19.7822 15.4726C19.337 15.6617 18.8862 15.748 18.4216 15.748C17.2381 15.7563 15.9136 15.1416 14.9153 14.1236C13.9116 13.1111 13.2839 11.7538 13.2894 10.4632L13.2922 10.3353C13.3419 8.65525 14.1577 7.06704 15.4767 5.81538C16.7874 4.5665 18.5765 3.7126 20.3462 3.52067C20.6974 3.48173 21.0514 3.46506 21.4053 3.46506C24.7126 3.45115 28.1221 5.1673 30.7325 7.62055C33.6471 10.3436 35.8067 13.9512 37.9774 17.6394C38.3922 18.3431 39.2992 18.5767 40.0016 18.1595C40.704 17.7395 40.9363 16.8272 40.5187 16.1207Z" fill="#100F0D"/>
<path d="M15.0208 5.30325C13.3644 3.4814 11.0194 2.66643 8.73535 2.66643C5.70741 2.672 2.58274 4.07945 0.976138 6.94714C0.301419 8.16542 0 9.50886 0 10.8301C0.00553048 12.88 0.705112 14.8854 1.91076 16.5181C3.11364 18.1425 4.8613 19.4192 6.985 19.8198L7.25599 18.3567L6.78037 16.9493C3.65565 18.0563 1.70888 21.1437 1.68676 24.3285C1.68676 25.0656 1.7946 25.8138 2.03518 26.5397C3.11086 29.7162 6.19966 31.7132 9.39351 31.7383C10.1014 31.7383 10.8204 31.6326 11.5172 31.4101C12.2942 31.1625 12.7256 30.3253 12.4767 29.5437C12.2306 28.7594 11.3983 28.3282 10.6213 28.5758C10.2286 28.7037 9.8166 28.7649 9.39351 28.7649C7.45785 28.7872 5.38946 27.3908 4.84194 25.6079C4.70644 25.1991 4.64285 24.7707 4.64285 24.3285C4.62073 22.3926 5.98121 20.3287 7.73437 19.7641L13.0658 17.9367L7.52698 16.8964C6.25497 16.6572 5.11845 15.8701 4.28059 14.7408C3.44548 13.6171 2.95326 12.1791 2.95603 10.8301C2.95603 9.95667 3.15234 9.1278 3.55883 8.39349C4.48518 6.67733 6.59229 5.63702 8.73535 5.6398C10.342 5.6398 11.8518 6.21556 12.8362 7.30589C13.3865 7.91225 14.3212 7.95678 14.924 7.40327C15.5296 6.84976 15.5711 5.90961 15.0208 5.30325Z" fill="#100F0D"/>
</svg>
