<svg width="478" height="98" viewBox="0 0 478 98" fill="none" xmlns="http://www.w3.org/2000/svg">
<path d="M268.142 69.3298C278.909 61.7083 292.152 57.8105 305.383 57.8105C316.172 57.8105 326.943 60.4007 336.347 65.6308C338.748 66.9663 341.102 68.5502 342.978 70.395C344.86 72.2461 346.254 74.3269 346.879 76.7152C347.04 77.3332 347.121 77.9886 347.121 78.6594C347.127 80.6533 346.391 82.7653 345.202 84.2871C344 85.8182 342.465 86.7127 340.77 86.7127L340.397 86.6971C338.819 86.576 337.478 85.7157 336.447 84.3243C335.425 82.9453 334.81 81.0633 334.816 79.2589C334.816 78.4638 334.931 77.6873 335.161 76.9699C335.847 74.8425 337.229 73.0225 339.059 71.4976C340.885 69.9727 343.149 68.7708 345.462 67.9291C349.795 66.3514 354.36 65.724 359.041 65.724C365.529 65.7209 372.231 66.9383 378.728 68.4446C388.667 70.7429 398.857 73.74 409.376 73.7462C410.717 73.7462 412.062 73.6965 413.41 73.5909C419.438 73.1126 425.569 71.2026 430.709 67.9322C435.843 64.6649 440.008 59.9877 441.865 54.0153C442.138 53.1395 441.648 52.2109 440.775 51.9376C439.899 51.6674 438.967 52.1549 438.694 53.0307C437.116 58.1086 433.551 62.1834 428.927 65.1308C424.308 68.0782 418.659 69.8484 413.149 70.2801C411.891 70.3795 410.634 70.4261 409.376 70.4261C399.499 70.4354 389.536 67.5533 379.477 65.2116C372.877 63.6804 365.942 62.4039 359.041 62.4039C354.065 62.4039 349.099 63.0717 344.326 64.8109C341.72 65.7613 339.133 67.1154 336.934 68.9447C334.738 70.7709 332.921 73.1001 332.002 75.9512C331.654 77.0289 331.496 78.147 331.496 79.2589C331.499 81.787 332.307 84.2902 333.772 86.2934C335.229 88.2842 337.447 89.806 340.146 90.0078L340.77 90.0327C343.702 90.0327 346.174 88.455 347.82 86.3245C349.481 84.1815 350.435 81.436 350.441 78.6594C350.441 77.7277 350.329 76.7898 350.09 75.8736C349.276 72.7616 347.487 70.1683 345.304 68.0253C343.121 65.8823 340.527 64.1587 337.962 62.7301C328.021 57.2049 316.703 54.4905 305.383 54.4905C291.506 54.4936 277.608 58.5683 266.225 66.6215C265.477 67.1495 265.3 68.1869 265.828 68.9354C266.359 69.6838 267.393 69.8609 268.142 69.3298Z" fill="#100F0D"/>
<path d="M442.921 53.0228C439.729 52.3737 436.968 50.3891 434.989 47.6777C433.011 44.9757 431.859 41.5749 431.865 38.2953C431.865 36.056 432.39 33.882 433.514 31.9596L432.079 31.121L431.486 32.6708C444.943 37.8419 457.696 44.8515 469.277 53.442L470.265 52.1096L468.92 51.1376C465.988 55.2154 460.873 57.3491 455.671 57.346C450.462 57.3491 445.341 55.2092 442.409 51.122C441.875 50.3798 440.837 50.209 440.092 50.7463C439.35 51.2836 439.182 52.3209 439.716 53.0631C443.425 58.1938 449.593 60.666 455.671 60.666C461.739 60.666 467.901 58.2001 471.612 53.0787L472.569 51.7525L471.255 50.7742C459.432 42.0036 446.415 34.851 432.676 29.5712L431.359 29.065L430.648 30.2824C429.194 32.7639 428.542 35.5405 428.545 38.2953C428.548 42.3421 429.924 46.3671 432.309 49.6375C434.688 52.8985 438.123 55.4298 442.257 56.2776C443.154 56.4609 444.033 55.88 444.217 54.9825C444.4 54.0849 443.819 53.206 442.921 53.0228Z" fill="#100F0D"/>
<path d="M431.678 28.0735L431.576 28.0766C430.942 28.0673 430.451 27.7909 429.967 27.1666C429.501 26.5486 429.193 25.6013 429.2 24.7068C429.2 23.7627 429.507 22.9583 430.06 22.4489C430.852 21.7067 431.892 21.3496 433.097 21.3465C434.868 21.3309 436.877 22.2098 438.082 23.5546C440.256 25.9243 440.992 29.6232 441.002 33.3253L444.306 33.5397C444.455 32.4216 445.114 31.378 446.104 30.5953C447.089 29.8158 448.375 29.3499 449.555 29.3561C450.201 29.3561 450.816 29.4866 451.378 29.7599C452.949 30.4929 453.99 32.4464 453.984 34.4154C453.984 35.6795 453.571 36.8441 452.782 37.6578L455.089 40.0431C457.201 38.1175 460.121 36.6454 462.524 36.6733C463.484 36.6733 464.36 36.8783 465.189 37.3411C465.667 37.6113 466.04 38.0274 466.317 38.5958C466.587 39.161 466.739 39.866 466.736 40.5679C466.742 41.4717 466.478 42.3475 466.108 42.8724C465.714 43.4004 465.394 43.593 464.823 43.6085L464.636 43.5992L464.478 45.2545L464.823 46.8757C466.227 46.5776 467.618 46.3447 468.894 46.3447C469.857 46.3447 470.745 46.472 471.559 46.7763C472.286 47.0465 473.016 47.5838 473.516 48.2205C474.025 48.8603 474.286 49.5684 474.283 50.1771L474.196 50.7921C474.118 51.0592 473.91 51.3356 473.547 51.5685C473.19 51.7983 472.702 51.935 472.304 51.9319C472.022 51.9319 471.795 51.8697 471.662 51.7921L471.388 51.5002C471.012 50.6616 470.031 50.2889 469.196 50.6616C468.357 51.0374 467.984 52.0189 468.357 52.8543C468.72 53.6805 469.36 54.3264 470.071 54.7084C470.786 55.0967 471.556 55.252 472.304 55.252C473.364 55.2488 474.404 54.9476 475.317 54.3761C476.224 53.8047 477.028 52.9164 477.379 51.7331C477.531 51.2144 477.603 50.6896 477.603 50.1771C477.6 48.6553 476.997 47.2733 476.121 46.1614C475.236 45.0495 474.062 44.1737 472.721 43.6675C471.447 43.1923 470.149 43.0246 468.894 43.0246C467.227 43.0277 465.618 43.3166 464.133 43.6302L453.527 45.8788L464.32 46.9068L464.823 46.9285C466.556 46.9472 468.025 45.9844 468.842 44.7607C469.68 43.5308 470.053 42.0556 470.056 40.5679C470.056 39.4126 469.826 38.2386 469.307 37.1578C468.795 36.0832 467.966 35.0894 466.813 34.4434C465.45 33.6794 463.969 33.3502 462.524 33.3533C458.872 33.3781 455.44 35.282 452.866 37.5771L453.977 38.8101L455.173 39.9623C456.655 38.4219 457.304 36.3876 457.304 34.4154C457.294 31.3811 455.8 28.2443 452.828 26.7722C451.779 26.2629 450.654 26.033 449.555 26.033C447.542 26.0392 445.604 26.7691 444.048 27.9896C442.502 29.2102 441.309 30.9742 441.017 33.0893L442.66 33.316L444.322 33.3067C444.291 29.2475 443.579 24.7069 440.539 21.3247C438.632 19.2438 435.874 18.0388 433.097 18.0263C431.225 18.0201 429.287 18.6196 427.79 20.0234C426.426 21.303 425.877 23.0577 425.88 24.7068C425.883 26.3001 426.361 27.8654 427.299 29.1419C428.221 30.409 429.746 31.406 431.576 31.3966L431.846 31.3904C432.762 31.3438 433.464 30.5643 433.417 29.6481C433.374 28.7319 432.591 28.0269 431.678 28.0735Z" fill="#100F0D"/>
<path d="M439.532 21.6912C440.691 20.5327 442.265 19.983 444.004 19.9768C445.793 19.9737 447.7 20.598 449.148 21.6602C450.604 22.7317 451.579 24.1665 451.8 25.8467L452.281 29.5022L454.701 26.7163C455.825 25.4088 457.657 24.6665 459.515 24.6696C461.083 24.6696 462.602 25.1913 463.679 26.1697C464.928 27.2908 465.63 29.0705 465.627 30.8811C465.63 32.4992 465.074 34.0676 464.043 35.1578L466.239 37.6299C467.077 37.0088 468.161 36.6827 469.291 36.6858C471.093 36.6765 472.897 37.5212 473.826 38.8847C474.388 39.6953 474.68 40.7139 474.68 41.7792C474.686 43.6364 473.776 45.5155 472.335 46.4286C471.568 46.9286 471.347 47.9566 471.847 48.7268C472.344 49.4939 473.372 49.7144 474.143 49.2144C476.686 47.5435 477.991 44.6427 478 41.7792C477.997 40.1207 477.55 38.4343 476.553 36.9932C474.866 34.5832 472.059 33.372 469.291 33.3657C467.54 33.3657 465.754 33.8626 464.263 34.9621L465.251 36.2976L466.459 37.4342C468.158 35.6236 468.947 33.2322 468.947 30.8811C468.944 28.2506 467.962 25.5765 465.906 23.7068C464.117 22.0949 461.797 21.3527 459.515 21.3496C456.813 21.3527 454.07 22.39 452.191 24.5391L453.446 25.6293L455.092 25.4119C454.732 22.685 453.148 20.4644 451.107 18.9799C449.061 17.4922 446.539 16.663 444.004 16.6568C441.563 16.6537 439.057 17.4642 437.181 19.3463C436.535 19.9954 436.535 21.0483 437.184 21.6943C437.833 22.3434 438.886 22.3403 439.532 21.6912Z" fill="#100F0D"/>
<path d="M450.117 12.5083C450.629 12.5083 451.138 12.5083 451.648 12.5083C452.564 12.5083 453.309 11.7661 453.309 10.8468C453.309 9.93057 452.564 9.18827 451.648 9.18827C451.138 9.18827 450.629 9.18827 450.117 9.18827C449.2 9.18827 448.455 9.93057 448.455 10.8468C448.455 11.7661 449.2 12.5083 450.117 12.5083Z" fill="#100F0D"/>
<path d="M462.496 3.19306C462.496 2.68061 462.496 2.17129 462.496 1.65884C462.496 0.74264 461.751 0.000338078 460.835 0.000338078C459.918 0.000338078 459.176 0.74264 459.176 1.65884C459.176 2.17129 459.176 2.68061 459.176 3.19306C459.176 4.10926 459.918 4.85156 460.835 4.85156C461.751 4.85156 462.496 4.10926 462.496 3.19306Z" fill="#100F0D"/>
<path d="M461.627 13.8651C462.646 14.3744 463.664 14.8838 464.689 15.3962C465.509 15.8031 466.506 15.4708 466.916 14.6509C467.326 13.8309 466.99 12.8339 466.171 12.424C465.152 11.9146 464.133 11.4053 463.108 10.8929C462.285 10.4829 461.291 10.8184 460.882 11.6383C460.472 12.4582 460.807 13.4551 461.627 13.8651Z" fill="#100F0D"/>
<path d="M471.553 6.38379C472.062 6.38379 472.575 6.38379 473.084 6.38379C474.003 6.38379 474.746 5.63845 474.746 4.72226C474.746 3.80606 474.003 3.06376 473.084 3.06376C472.575 3.06376 472.062 3.06376 471.553 3.06376C470.637 3.06376 469.894 3.80606 469.894 4.72226C469.894 5.63845 470.637 6.38379 471.553 6.38379Z" fill="#100F0D"/>
<path d="M378.759 68.5869C384.831 73.7549 390.899 78.9229 396.968 84.0908C397.664 84.684 398.713 84.6002 399.307 83.9045C399.903 83.2058 399.819 82.1591 399.12 81.5628C393.052 76.3948 386.983 71.2269 380.908 66.0589C380.213 65.4657 379.163 65.5495 378.57 66.2483C377.976 66.944 378.06 67.9938 378.759 68.5869Z" fill="#100F0D"/>
<path d="M382.259 72.2404C382.247 73.0821 382.237 73.9393 382.237 74.7996C382.247 80.3433 382.613 86.2877 385.834 91.3253C388.405 95.2665 393.024 97.838 397.605 97.8691C400.015 97.8753 402.468 97.0895 404.375 95.282C406.555 93.2229 407.475 90.3904 407.468 87.6077C407.459 84.356 406.279 81.0732 404.232 78.5389C400.515 73.9828 395.095 71.7497 390.185 69.7124C389.337 69.3614 388.365 69.7651 388.017 70.613C387.666 71.4609 388.07 72.4299 388.918 72.7808C393.834 74.7933 398.673 76.9239 401.651 80.6291C403.207 82.5329 404.155 85.1852 404.148 87.6077C404.142 89.701 403.487 91.552 402.095 92.8688C400.866 94.0242 399.338 94.5429 397.605 94.5491C394.325 94.5801 390.483 92.4744 388.626 89.5301C385.998 85.4709 385.548 80.2067 385.557 74.7996C385.557 73.9641 385.567 73.1255 385.579 72.287C385.591 71.3708 384.858 70.6192 383.942 70.6037C383.026 70.5913 382.271 71.3242 382.259 72.2404Z" fill="#100F0D"/>
<path d="M365.5 63.1725C365.304 62.2812 365.208 61.3619 365.208 60.4364C365.205 57.7375 366.031 54.9858 367.488 52.7465C368.947 50.501 371.01 48.7898 373.473 48.0164C374.314 47.7525 375.19 47.6282 376.078 47.6282C378.585 47.6189 381.209 48.6562 383.138 50.3302C385.079 52.0104 386.284 54.2404 386.281 56.638V56.7933C386.244 58.7655 385.203 60.601 383.569 61.9892C381.948 63.3744 379.765 64.2161 377.808 64.2068C376.268 64.2006 374.901 63.7347 373.793 62.6911C373.128 62.0607 372.078 62.0855 371.448 62.7501C370.817 63.4179 370.842 64.4676 371.507 65.0981C373.289 66.7938 375.575 67.533 377.808 67.5268C380.675 67.5175 383.507 66.387 385.716 64.5235C387.914 62.6663 389.532 59.9829 389.601 56.8585V56.638C389.601 53.0944 387.827 49.9886 385.309 47.8177C382.784 45.6437 379.476 44.3144 376.078 44.3082C374.876 44.3082 373.659 44.479 372.479 44.8517C369.171 45.889 366.516 48.1469 364.705 50.9358C362.891 53.731 361.891 57.0728 361.888 60.4364C361.888 61.5917 362.009 62.7502 362.258 63.8869C362.457 64.7844 363.342 65.3496 364.236 65.1509C365.134 64.9552 365.699 64.067 365.5 63.1725Z" fill="#100F0D"/>
<path d="M366.95 66.1778C372.047 63.1062 377.15 60.0377 382.249 56.9723C383.035 56.5003 383.29 55.4815 382.818 54.6958C382.346 53.91 381.327 53.6553 380.541 54.1274C375.439 57.1928 370.336 60.2644 365.236 63.3329C364.453 63.805 364.199 64.8267 364.671 65.6125C365.143 66.3951 366.165 66.6498 366.95 66.1778Z" fill="#100F0D"/>
<path d="M211.775 66.6215C200.392 58.5683 186.494 54.4936 172.617 54.4905C161.297 54.4905 149.976 57.2049 140.038 62.7301C137.473 64.1587 134.879 65.8823 132.693 68.0253C130.513 70.1683 128.724 72.7616 127.907 75.8736C127.668 76.7898 127.556 77.7277 127.556 78.6594C127.562 81.436 128.519 84.1815 130.177 86.3245C131.823 88.455 134.298 90.0327 137.227 90.0327L137.851 90.0078C140.553 89.806 142.768 88.2873 144.224 86.2934C145.69 84.2902 146.498 81.7901 146.501 79.262C146.501 78.147 146.343 77.0289 145.995 75.9512C145.076 73.1001 143.259 70.7709 141.063 68.9447C138.864 67.1154 136.277 65.7613 133.674 64.8109C128.898 63.0717 123.935 62.4039 118.959 62.4039C112.058 62.4039 105.123 63.6804 98.5202 65.2116C88.4607 67.5533 78.5005 70.4354 68.6242 70.4261C67.3633 70.4261 66.1055 70.3795 64.8477 70.2801C59.3412 69.8484 53.6887 68.0782 49.0735 65.1308C44.4491 62.1834 40.8806 58.1086 39.3028 53.0307C39.0295 52.1549 38.1009 51.6674 37.225 51.9376C36.3492 52.2109 35.8617 53.1395 36.1319 54.0153C37.9891 59.9877 42.157 64.6649 47.2877 67.9322C52.4309 71.2026 58.5585 73.1126 64.5868 73.5909C65.9378 73.6965 67.2826 73.7462 68.6242 73.7462C79.1434 73.74 89.3303 70.7429 99.2718 68.4446C105.766 66.9383 112.468 65.7209 118.959 65.724C123.64 65.724 128.202 66.3514 132.538 67.9322C134.848 68.7708 137.112 69.9727 138.938 71.4976C140.771 73.0225 142.15 74.8425 142.833 76.9699C143.066 77.6904 143.181 78.4669 143.181 79.262C143.187 81.0664 142.572 82.9453 141.55 84.3274C140.519 85.7157 139.178 86.576 137.6 86.6971L137.227 86.7127C135.531 86.7127 134 85.8182 132.798 84.2871C131.609 82.7653 130.87 80.6533 130.876 78.6594C130.876 77.9917 130.957 77.3364 131.118 76.7152C131.746 74.3269 133.137 72.2461 135.019 70.395C136.898 68.5502 139.249 66.9663 141.653 65.6308C151.054 60.4007 161.825 57.8105 172.617 57.8105C185.848 57.8105 199.091 61.7083 209.855 69.3298C210.604 69.8609 211.641 69.6838 212.169 68.9354C212.7 68.1869 212.523 67.1495 211.775 66.6215Z" fill="#100F0D"/>
<path d="M35.7445 56.2776C39.8783 55.4298 43.31 52.8985 45.6922 49.6375C48.0743 46.3671 49.4502 42.3421 49.4564 38.2953C49.4564 35.5405 48.8042 32.7639 47.3538 30.2824L46.6425 29.065L45.3257 29.5712C31.5827 34.851 18.5696 42.0036 6.74604 50.7742L5.4292 51.7525L6.3889 53.0787C10.1003 58.2001 16.2589 60.666 22.3307 60.666C28.4086 60.666 34.5736 58.1938 38.2819 53.0631C38.8192 52.3209 38.6515 51.2836 37.9061 50.7463C37.1638 50.209 36.1265 50.3798 35.5892 51.122C32.6574 55.2092 27.539 57.3491 22.3307 57.346C17.1254 57.3491 12.0134 55.2154 9.08157 51.1376L7.73364 52.1096L8.72444 53.442C20.3027 44.8515 33.058 37.8419 46.5152 32.6708L45.9189 31.121L44.4872 31.9596C45.6114 33.882 46.1363 36.056 46.1363 38.2953C46.1394 41.5749 44.9872 44.9757 43.0088 47.6777C41.0305 50.3891 38.2725 52.3737 35.0798 53.0228C34.1792 53.206 33.6015 54.0849 33.7847 54.9825C33.968 55.88 34.8438 56.4609 35.7445 56.2776Z" fill="#100F0D"/>
<path d="M46.1544 31.3904L46.4247 31.3966C48.2539 31.406 49.7789 30.409 50.6982 29.1419C51.6361 27.8654 52.1144 26.3001 52.1206 24.7068C52.1206 23.0577 51.5709 21.303 50.2074 20.0234C48.7105 18.6196 46.7756 18.0201 44.8998 18.0263C42.1232 18.0388 39.3652 19.2438 37.4583 21.3247C34.4178 24.7069 33.7097 29.2475 33.6786 33.3067L35.3371 33.316L36.9832 33.0893C36.6913 30.9742 35.4986 29.2102 33.9489 27.9896C32.396 26.7691 30.4549 26.0392 28.4455 26.033C27.3429 26.033 26.2186 26.2629 25.1689 26.7722C22.1967 28.2443 20.7028 31.3811 20.6966 34.4154C20.6935 36.3876 21.3426 38.4219 22.8271 39.9623L24.0228 38.8101L25.1316 37.5771C22.56 35.282 19.1251 33.3781 15.4758 33.3533C14.0286 33.3502 12.5471 33.6794 11.1868 34.4434C10.0314 35.0894 9.2053 36.0832 8.68974 37.1578C8.17419 38.2386 7.94128 39.4126 7.94128 40.5679C7.9475 42.0556 8.31706 43.5308 9.15872 44.7607C9.97553 45.9844 11.4414 46.9472 13.1744 46.9285L13.6776 46.9068L24.4887 45.8819L13.867 43.6302C12.3794 43.3166 10.7737 43.0277 9.10283 43.0246C7.84811 43.0246 6.54989 43.1923 5.27963 43.6675C3.93484 44.1737 2.76088 45.0495 1.87885 46.1614C1.00302 47.2733 0.397393 48.6522 0.394287 50.1771C0.394287 50.6896 0.465713 51.2144 0.621001 51.7331C0.971951 52.9164 1.77631 53.8047 2.68008 54.3761C3.59628 54.9476 4.63366 55.2488 5.69583 55.252C6.44121 55.252 7.21452 55.0967 7.92574 54.7084C8.64006 54.3264 9.27675 53.6805 9.64012 52.8574C10.0159 52.0189 9.64007 51.0374 8.80462 50.6616C7.96917 50.2889 6.9847 50.6616 6.61201 51.4971L6.33867 51.7921C6.20201 51.8697 5.97845 51.9319 5.69583 51.9319C5.29519 51.935 4.81069 51.7983 4.45353 51.5685C4.09016 51.3356 3.88204 51.0591 3.8044 50.7889L3.71432 50.1771C3.71121 49.5684 3.97519 48.8603 4.48143 48.2205C4.98456 47.5838 5.71133 47.0465 6.44118 46.7763C7.25489 46.4751 8.14005 46.3447 9.10283 46.3447C10.3793 46.3447 11.7737 46.5776 13.1775 46.8757L13.5223 45.2545L13.3639 43.5992L13.1744 43.6085C12.603 43.593 12.2831 43.4004 11.8887 42.8724C11.5191 42.3475 11.2551 41.4717 11.2613 40.5679C11.2613 39.866 11.4104 39.161 11.6837 38.5958C11.9601 38.0274 12.3297 37.6113 12.8111 37.3411C13.6372 36.8783 14.5162 36.6733 15.4758 36.6733C17.8766 36.6454 20.796 38.1175 22.911 40.0431L25.2154 37.6578C24.4297 36.8441 24.0167 35.6795 24.0167 34.4154C24.0074 32.4464 25.0508 30.4929 26.6193 29.7599C27.1814 29.4866 27.7964 29.3561 28.4455 29.3561C29.6257 29.3499 30.9114 29.8158 31.8928 30.5953C32.8836 31.378 33.542 32.4216 33.6942 33.5397L36.9987 33.3253C37.008 29.6232 37.741 25.9243 39.9181 23.5546C41.12 22.2098 43.1295 21.3309 44.8998 21.3465C46.1048 21.3496 47.1483 21.7067 47.9402 22.4458C48.4899 22.9583 48.7974 23.7627 48.8005 24.7068C48.8067 25.6013 48.4962 26.5486 48.0303 27.1666C47.5489 27.7909 47.0551 28.0673 46.4247 28.0766L46.3221 28.0735C45.4059 28.0269 44.6264 28.7319 44.5799 29.6481C44.5333 30.5643 45.2382 31.3438 46.1544 31.3904Z" fill="#100F0D"/>
<path d="M40.8158 19.3463C38.9399 17.4642 36.4336 16.6537 33.9925 16.6568C31.4613 16.663 28.9363 17.4922 26.8896 18.9799C24.8523 20.4644 23.2652 22.685 22.908 25.4119L24.551 25.6293L25.8057 24.5391C23.9299 22.39 21.1844 21.3527 18.4823 21.3496C16.1996 21.3527 13.8827 22.0949 12.0938 23.7068C10.0347 25.5765 9.05324 28.2506 9.05013 30.8842C9.05324 33.2353 9.83899 35.6236 11.5347 37.4342L12.746 36.2976L13.7336 34.9621C12.2429 33.8626 10.4602 33.3657 8.70544 33.3657C5.93821 33.372 3.13057 34.5832 1.44415 36.9932C0.447198 38.4312 0 40.1207 0 41.7792C0.00621151 44.6427 1.3106 47.5435 3.85732 49.2144C4.62444 49.7144 5.65249 49.4939 6.15252 48.7268C6.64944 47.9566 6.43201 46.9286 5.66178 46.4286C4.22071 45.5155 3.31072 43.6364 3.32003 41.7792C3.32003 40.7139 3.60887 39.6984 4.17412 38.8847C5.09963 37.5212 6.90721 36.6765 8.70544 36.6858C9.83593 36.6827 10.9167 37.0088 11.7583 37.6299L13.9541 35.1609C12.923 34.0708 12.3702 32.4992 12.3702 30.8842C12.3671 29.0705 13.069 27.2908 14.3206 26.1697C15.3983 25.1913 16.917 24.6696 18.4823 24.6696C20.3427 24.6665 22.1751 25.4088 23.2994 26.7163L25.7157 29.5022L26.197 25.8467C26.4206 24.1665 27.3927 22.7317 28.8493 21.6602C30.2966 20.598 32.2035 19.9737 33.9925 19.9768C35.7348 19.983 37.3094 20.5327 38.4647 21.6912C39.1138 22.3403 40.1636 22.3434 40.8127 21.6943C41.4618 21.0483 41.4649 19.9954 40.8158 19.3463Z" fill="#100F0D"/>
<path d="M27.8839 9.18827C27.3714 9.18827 26.862 9.18827 26.3527 9.18827C25.4334 9.18827 24.6912 9.93057 24.6912 10.8468C24.6912 11.7661 25.4334 12.5083 26.3527 12.5083C26.862 12.5083 27.3714 12.5083 27.8839 12.5083C28.8001 12.5083 29.5423 11.7661 29.5423 10.8468C29.5423 9.93057 28.8001 9.18827 27.8839 9.18827Z" fill="#100F0D"/>
<path d="M18.8239 3.19306C18.8239 2.68061 18.8239 2.17129 18.8239 1.65884C18.8239 0.74264 18.0817 0.000338078 17.1655 0.000338078C16.2462 0.000338078 15.5039 0.74264 15.5039 1.65884C15.5039 2.17129 15.5039 2.68061 15.5039 3.19306C15.5039 4.10926 16.2462 4.85156 17.1655 4.85156C18.0817 4.85156 18.8239 4.10926 18.8239 3.19306Z" fill="#100F0D"/>
<path d="M14.8921 10.8929C13.8672 11.4053 12.8486 11.9146 11.8299 12.424C11.0069 12.8339 10.6745 13.8309 11.0845 14.6509C11.4913 15.4708 12.4882 15.8031 13.3113 15.3962C14.333 14.8838 15.3518 14.3744 16.3736 13.8651C17.1935 13.4551 17.5258 12.4582 17.1189 11.6383C16.709 10.8184 15.712 10.486 14.8921 10.8929Z" fill="#100F0D"/>
<path d="M6.44425 3.06376C5.93491 3.06376 5.42248 3.06376 4.91314 3.06376C3.99694 3.06376 3.25464 3.80606 3.25464 4.72226C3.25464 5.63845 3.99694 6.38379 4.91314 6.38379C5.42248 6.38379 5.93491 6.38379 6.44425 6.38379C7.36356 6.38379 8.10579 5.63845 8.10579 4.72226C8.10579 3.80606 7.36356 3.06376 6.44425 3.06376Z" fill="#100F0D"/>
<path d="M97.0891 66.0589C91.0173 71.2269 84.9487 76.3948 78.8801 81.5628C78.1813 82.1591 78.0974 83.2058 78.6906 83.9045C79.2869 84.6002 80.3335 84.684 81.0323 84.0908C87.101 78.9229 93.1697 73.7549 99.2414 68.5869C99.9402 67.9938 100.024 66.944 99.4308 66.2483C98.8345 65.5495 97.7879 65.4657 97.0891 66.0589Z" fill="#100F0D"/>
<path d="M92.4211 72.287C92.4304 73.1255 92.4427 73.9641 92.4427 74.7996C92.4521 80.2067 91.9986 85.4709 89.3712 89.5301C87.5139 92.4744 83.6752 94.5801 80.3955 94.5491C78.6594 94.5429 77.1345 94.0242 75.9046 92.8688C74.5101 91.552 73.8548 89.701 73.8486 87.6077C73.8424 85.1852 74.7928 82.5329 76.3457 80.6291C79.3272 76.9239 84.166 74.7933 89.0793 72.7808C89.9271 72.4299 90.3308 71.4609 89.983 70.613C89.6321 69.7651 88.6631 69.3614 87.8152 69.7124C82.905 71.7497 77.4855 73.9828 73.7679 78.5389C71.7212 81.0732 70.5379 84.356 70.5286 87.6077C70.5224 90.3904 71.4448 93.2229 73.6219 95.282C75.5288 97.0895 77.9823 97.8753 80.3955 97.8691C84.9765 97.838 89.5948 95.2665 92.1632 91.3284C95.387 86.2877 95.7504 80.3433 95.7628 74.7996C95.7628 73.9393 95.7504 73.0821 95.7411 72.2404C95.7256 71.3242 94.9739 70.5913 94.0577 70.6037C93.1384 70.6161 92.4086 71.3708 92.4211 72.287Z" fill="#100F0D"/>
<path d="M115.74 63.8869C115.991 62.7502 116.112 61.5917 116.112 60.4364C116.109 57.0728 115.106 53.731 113.292 50.9358C111.482 48.1469 108.829 45.889 105.522 44.8486C104.338 44.479 103.124 44.3082 101.919 44.3082C98.5213 44.3144 95.2136 45.6437 92.6887 47.8177C90.173 49.9886 88.3996 53.0944 88.3965 56.638L88.3996 56.871V56.8585C88.4679 59.9829 90.0829 62.6663 92.2818 64.5235C94.4931 66.387 97.3255 67.5175 100.192 67.5268C102.422 67.533 104.711 66.7938 106.491 65.0981C107.155 64.4676 107.183 63.4179 106.553 62.7532C105.922 62.0855 104.869 62.0607 104.205 62.6911C103.096 63.7347 101.729 64.2006 100.192 64.2068C98.2324 64.2161 96.0522 63.3744 94.4279 61.9892C92.7943 60.601 91.757 58.7655 91.7197 56.7902V56.7778L91.7166 56.638C91.7135 54.2404 92.9216 52.0104 94.8596 50.3302C96.7882 48.6562 99.4126 47.6189 101.919 47.6282C102.81 47.6282 103.686 47.7525 104.525 48.0164C106.991 48.7898 109.05 50.501 110.51 52.7465C111.969 54.9858 112.792 57.7375 112.792 60.4364C112.792 61.3619 112.696 62.2812 112.497 63.1725C112.302 64.0701 112.867 64.9552 113.761 65.1509C114.659 65.3496 115.544 64.7844 115.74 63.8869Z" fill="#100F0D"/>
<path d="M112.761 63.3329C107.661 60.2644 102.562 57.1928 97.459 54.1274C96.6733 53.6553 95.6546 53.91 95.1825 54.6958C94.7073 55.4815 94.962 56.5003 95.7478 56.9723C100.851 60.0377 105.95 63.1062 111.05 66.1778C111.836 66.6498 112.854 66.3951 113.326 65.6125C113.801 64.8267 113.547 63.805 112.761 63.3329Z" fill="#100F0D"/>
<path d="M241.218 74.9862C240.612 74.8092 239.994 74.7284 239.385 74.7284C237.286 74.7377 235.363 75.6726 233.932 77.0608C232.506 78.4522 231.515 80.3654 231.506 82.499C231.506 82.8903 231.54 83.2879 231.615 83.6854C231.966 85.5831 233.109 87.1141 234.531 88.1422C235.963 89.1733 237.699 89.7571 239.472 89.7602C240.923 89.7633 242.42 89.3534 243.681 88.4062C245.637 86.934 246.491 84.6265 246.491 82.4214C246.488 79.7194 245.224 76.8776 242.538 75.5017C241.718 75.0887 240.721 75.4179 240.308 76.2378C239.898 77.0578 240.227 78.0547 241.047 78.4678C242.336 79.0889 243.174 80.7101 243.171 82.4214C243.168 83.8034 242.634 85.0519 241.69 85.7476C241.075 86.2104 240.317 86.4371 239.472 86.4402C238.448 86.4433 237.329 86.0769 236.478 85.4557C235.618 84.8283 235.05 84.0053 234.879 83.0829L234.826 82.499C234.82 81.4462 235.354 80.3032 236.249 79.4367C237.134 78.5671 238.323 78.0422 239.385 78.0484C239.696 78.0484 240 78.0889 240.302 78.1758C241.184 78.4305 242.103 77.9211 242.355 77.0391C242.609 76.157 242.1 75.2378 241.218 74.9862Z" fill="#100F0D"/>
</svg>
