<svg width="1005" height="131" viewBox="0 0 1005 131" fill="none" xmlns="http://www.w3.org/2000/svg">
<path d="M347.009 72.0381C349.318 67.2869 353.254 63.5911 358.023 61.0482C362.784 58.5053 368.359 57.1427 373.789 57.0605L374.455 57.0545C385.153 57.0484 395.656 61.1152 405.599 65.9394C425.13 75.4023 443.439 87.7701 463.837 96.217C476.715 101.54 490.823 105.181 504.785 105.184C512.967 105.184 521.101 103.928 528.869 101.011C529.709 100.694 530.135 99.7576 529.818 98.915C529.502 98.0755 528.565 97.6497 527.726 97.966C520.371 100.728 512.635 101.932 504.785 101.932C491.395 101.936 477.664 98.4192 465.078 93.2117C445.081 84.9473 426.822 72.6221 407.017 63.0132C396.921 58.1251 385.986 53.8119 374.455 53.8028L373.737 53.8089C367.805 53.9031 361.755 55.3754 356.493 58.1799C351.234 60.9813 346.744 65.1455 344.083 70.6145C343.69 71.4236 344.028 72.397 344.834 72.7894C345.643 73.1818 346.617 72.8442 347.009 72.0381Z" fill="#100F0D"/>
<path d="M338.219 75.907C333.47 77.215 329.042 79.6301 325.364 82.9091C324.582 83.6118 323.779 84.4422 323.138 85.4308C322.502 86.4132 322.003 87.5934 322 88.9348C322 89.2603 322.03 89.5949 322.094 89.9264C322.392 91.4747 323.381 92.6671 324.543 93.4154C325.714 94.1697 327.086 94.5529 328.464 94.559L329.179 94.5225L329.215 94.5164L329.182 94.5195C332.001 94.2092 334.194 92.667 336.095 91.3773L335.174 90.0359L333.55 90.0573C333.592 92.2169 333.586 94.7537 334.885 97.1232C335.998 99.0608 338.003 100.521 340.39 100.563C341.047 100.563 341.729 100.433 342.374 100.144C343.752 99.5292 344.634 98.3886 345.16 97.251C345.695 96.1012 345.945 94.8906 346.091 93.7925C346.285 92.3295 346.38 90.8542 346.38 89.379C346.38 84.9654 345.525 80.5517 343.852 76.4606L343.59 75.8188L342.945 75.5633C342.191 75.2652 341.403 75.1283 340.622 75.1283C338.857 75.1314 337.111 75.8157 335.846 77.148C335.232 77.802 335.262 78.8301 335.919 79.4476C336.573 80.062 337.601 80.0316 338.216 79.3776C338.784 78.7602 339.718 78.3738 340.622 78.3799C341.02 78.3799 341.403 78.4499 341.75 78.5868L342.346 77.075L340.841 77.6894C342.352 81.3821 343.128 85.3851 343.128 89.379C343.128 90.7143 343.043 92.0465 342.869 93.3697C342.751 94.2731 342.538 95.1887 342.215 95.873C341.884 96.5666 341.513 96.965 341.047 97.1749L340.39 97.3118C339.539 97.3544 338.258 96.5514 337.726 95.5415C336.929 94.1423 336.816 92.1682 336.801 90.0146L336.762 86.9759L334.255 88.6976C332.378 90.0025 330.581 91.1249 328.844 91.2861L328.807 91.2891L328.847 91.2861L328.464 91.3074C327.712 91.3104 326.897 91.0731 326.313 90.6868C325.72 90.2975 325.388 89.8351 325.288 89.312L325.252 88.9348C325.249 88.4329 325.449 87.8428 325.866 87.201C326.277 86.5622 326.888 85.9083 327.53 85.3365C330.827 82.392 334.821 80.2142 339.082 79.04C339.949 78.8028 340.457 77.9085 340.22 77.0416C339.98 76.1777 339.085 75.6667 338.219 75.907Z" fill="#100F0D"/>
<path d="M401.307 87.8462C398.74 87.1983 396.097 86.8759 393.45 86.8729C391.175 86.8759 388.9 87.1131 386.67 87.5968C385.52 87.8492 384.264 88.2264 383.108 88.8987C381.965 89.5618 380.867 90.5929 380.365 92.0834C380.185 92.6157 380.1 93.1602 380.1 93.6894C380.106 95.0369 380.614 96.2627 381.359 97.2604C382.111 98.2642 383.108 99.0702 384.261 99.5782C385.794 100.247 387.376 100.418 388.863 100.418C389.891 100.418 390.889 100.336 391.826 100.254L391.686 98.6353L390.263 97.8505C389.234 99.7486 387.981 101.954 387.942 104.655V104.649V104.707C387.945 106.136 388.392 107.538 389.219 108.707C390.041 109.862 391.333 110.821 392.964 110.979L393.441 111C394.837 111 396.033 110.425 396.979 109.716C397.934 108.999 398.697 108.126 399.33 107.292C402.883 102.58 405.179 96.9563 405.934 91.107L406.025 90.4195L405.587 89.8781C404.322 88.3207 402.42 87.4873 400.483 87.4812C399.865 87.4812 399.239 87.5694 398.63 87.758C397.773 88.0226 397.292 88.9351 397.56 89.7929C397.824 90.6507 398.737 91.1283 399.595 90.8636C399.875 90.7754 400.173 90.7328 400.483 90.7328C401.459 90.7237 402.487 91.1982 403.056 91.9191L404.322 90.9002L402.709 90.6902C402.031 95.9707 399.945 101.081 396.735 105.33C396.218 106.018 395.619 106.675 395.032 107.11C394.439 107.554 393.913 107.751 393.441 107.748L393.274 107.739C392.772 107.694 392.291 107.399 391.866 106.815C391.449 106.243 391.187 105.421 391.193 104.707V104.685V104.679C391.187 103.07 392.063 101.297 393.113 99.4171L394.576 96.7525L391.546 97.014C390.622 97.0962 389.715 97.1661 388.863 97.1661C387.622 97.1661 386.515 97.0141 385.566 96.5974C384.967 96.3388 384.371 95.8643 383.966 95.3168C383.556 94.7693 383.349 94.1791 383.352 93.6894L383.446 93.1236C383.629 92.5822 384.036 92.129 384.751 91.7062C385.454 91.2895 386.412 90.9762 387.358 90.7754C389.356 90.3435 391.403 90.1245 393.45 90.1275C395.832 90.1245 398.211 90.4165 400.513 91.0005C401.383 91.2195 402.268 90.6903 402.487 89.8203C402.706 88.9504 402.18 88.0652 401.31 87.8462" fill="#100F0D"/>
<path d="M388.845 22.2413C391.489 18.0832 393.156 13.3229 393.679 8.42264C393.736 7.9025 393.773 7.35199 393.773 6.78926C393.77 5.80374 393.666 4.77252 393.323 3.76266C392.985 2.75888 392.374 1.7551 391.4 1.02509C390.442 0.30419 389.308 -0.00298882 388.231 5.34058e-05C386.242 0.0183029 384.377 0.933889 383.063 2.37568C381.18 4.49578 380.587 7.11165 380.043 9.34126L381.624 9.71843L382.817 8.61127C381.335 7.03868 379.638 5.15583 377.086 4.27068C376.368 4.02734 375.62 3.91178 374.868 3.91178C373.819 3.91178 372.764 4.13684 371.805 4.63872C370.853 5.13757 369.99 5.9497 369.506 7.05386C369.202 7.73825 369.074 8.45918 369.074 9.14053C369.098 11.1876 370.084 12.8879 371.009 14.2567C374.361 19.1083 378.981 23.0565 384.298 25.6085L384.925 25.9097L385.572 25.6663C388.033 24.7173 389.697 22.3661 389.77 19.7289C389.788 18.8316 389.073 18.0893 388.176 18.0711C387.279 18.0528 386.537 18.7676 386.521 19.6649C386.521 20.8847 385.579 22.217 384.429 22.6215L385.001 24.1424L385.706 22.6794C380.903 20.3737 376.709 16.7905 373.682 12.4074C372.891 11.291 372.301 9.99526 372.326 9.14053C372.329 8.85156 372.374 8.60821 372.481 8.36487C372.639 8.01507 372.9 7.7413 373.32 7.51621C373.737 7.29416 374.297 7.16035 374.868 7.16339C375.276 7.16035 375.684 7.22723 376.04 7.3489C377.57 7.85079 378.978 9.24092 380.435 10.8257L382.503 13.0522L383.206 10.0956C383.723 7.86905 384.304 5.83108 385.481 4.54746C386.153 3.77789 387.331 3.23342 388.231 3.25167C388.727 3.25471 389.113 3.37942 389.445 3.6258C389.807 3.89955 390.056 4.26765 390.245 4.81212C390.433 5.35051 390.521 6.04708 390.521 6.78926C390.521 7.21206 390.494 7.65007 390.448 8.07592C389.977 12.4712 388.474 16.7661 386.102 20.4953C385.618 21.2527 385.843 22.2596 386.601 22.7402C387.358 23.2238 388.362 22.9987 388.845 22.2413Z" fill="#100F0D"/>
<path d="M503.927 65.9973C507.75 62.8856 510.832 58.8948 512.876 54.4082C513.463 53.1094 513.998 51.5825 514.007 49.9277C514.01 48.851 513.752 47.689 513.046 46.67C511.899 45.0244 510.023 44.3705 508.301 44.3765C507.048 44.3796 505.804 44.696 504.709 45.3195C502.251 46.74 500.867 49.0335 499.644 50.9802L501.028 51.8349L502.506 51.1627C501.6 49.2038 500.581 46.8799 498.44 45.2343C497.247 44.3401 495.79 43.8473 494.3 43.8381C492.922 43.8321 491.434 44.3066 490.367 45.4838C489.302 46.6609 488.977 48.1362 488.98 49.4441C488.983 50.6426 489.229 51.7833 489.521 52.7931C491.17 58.4538 494.312 63.6582 498.552 67.7585L499.051 68.2422L499.745 68.2148C502.379 68.0901 504.697 66.3837 505.603 63.9046C505.901 63.059 505.46 62.1282 504.611 61.8302C503.766 61.529 502.838 61.9731 502.537 62.8187C502.154 63.9776 500.837 64.9449 499.62 64.9662L499.681 66.5905L500.812 65.4225C496.983 61.7207 494.129 56.9938 492.642 51.8836C492.399 51.0532 492.228 50.1772 492.231 49.4441C492.238 48.6198 492.42 48.0632 492.779 47.6677C493.107 47.3027 493.606 47.0959 494.3 47.0898C495.027 47.0838 495.888 47.3727 496.475 47.8259C497.767 48.7841 498.668 50.5483 499.547 52.5102L500.809 55.2752L502.409 52.6927C503.602 50.743 504.797 48.9909 506.318 48.1423C506.884 47.8168 507.623 47.6252 508.301 47.6282C509.274 47.6343 510.001 47.975 510.369 48.5194C510.631 48.8997 510.753 49.3376 510.756 49.9277C510.765 50.822 510.409 51.9992 509.916 53.0608C508.085 57.085 505.305 60.6864 501.877 63.4757C501.18 64.0415 501.074 65.0666 501.64 65.7631C502.208 66.4597 503.23 66.5661 503.927 65.9973Z" fill="#100F0D"/>
<path d="M461.017 91.4721C450.678 87.7947 435.265 84.8168 422.125 84.8077C417.894 84.8107 413.897 85.121 410.36 85.8388C409.481 86.0183 408.912 86.8791 409.091 87.7582C409.271 88.6372 410.128 89.206 411.008 89.0266C414.253 88.3635 418.055 88.0593 422.125 88.0593C434.773 88.0532 450.021 90.9946 459.925 94.5352C460.771 94.8363 461.701 94.3953 462.002 93.5497C462.304 92.7041 461.863 91.7733 461.017 91.4721Z" fill="#100F0D"/>
<path d="M421.9 70.5419C405.298 64.209 392.231 49.0763 388.395 31.7262C388.201 30.8471 387.331 30.2965 386.455 30.4912C385.579 30.6828 385.025 31.5528 385.22 32.4288C389.329 50.8953 403.075 66.8157 420.738 73.5776C421.578 73.8969 422.518 73.4772 422.837 72.6407C423.159 71.8012 422.74 70.8613 421.9 70.5419Z" fill="#100F0D"/>
<path d="M487.571 100.461C478.951 98.1308 470.912 92.4549 467.791 84.4278C466.96 82.3107 466.553 79.9989 466.553 77.6781C466.547 71.2904 469.652 65.0122 475.085 62.3993C475.894 62.007 476.229 61.0336 475.836 60.2276C475.444 59.4185 474.474 59.0808 473.665 59.4732C466.827 62.8222 463.304 70.3079 463.301 77.6781C463.301 80.3791 463.776 83.0893 464.761 85.611C468.433 94.9218 477.369 101.057 486.72 103.6C487.587 103.834 488.481 103.323 488.715 102.456C488.949 101.589 488.438 100.695 487.571 100.461Z" fill="#100F0D"/>
<path d="M490.163 82.0492H489.698V85.3008H490.163C491.06 85.3008 491.787 84.5708 491.787 83.6735C491.787 82.7762 491.06 82.0492 490.163 82.0492H489.698V85.3008H490.163C491.06 85.3008 491.787 84.5708 491.787 83.6735C491.787 82.7762 491.06 82.0492 490.163 82.0492Z" fill="#100F0D"/>
<path d="M497.308 95.271L496.56 94.5227C495.924 93.887 494.893 93.887 494.26 94.5227C493.625 95.1554 493.625 96.1866 494.26 96.8193L495.009 97.5706C495.644 98.2063 496.673 98.2063 497.308 97.5706C497.944 96.9348 497.944 95.9067 497.308 95.271Z" fill="#100F0D"/>
<path d="M482.662 92.7988C483.164 92.7988 483.663 92.7988 484.162 92.7988C485.062 92.7988 485.789 92.0718 485.789 91.1745C485.789 90.2741 485.062 89.5471 484.162 89.5471C483.663 89.5471 483.164 89.5471 482.662 89.5471C481.765 89.5471 481.038 90.2741 481.038 91.1745C481.038 92.0718 481.765 92.7988 482.662 92.7988Z" fill="#100F0D"/>
<path d="M498.534 88.9231V88.1717C498.534 87.2744 497.807 86.5475 496.91 86.5475C496.012 86.5475 495.282 87.2744 495.282 88.1717V88.9231C495.282 89.8204 496.012 90.5474 496.91 90.5474C497.807 90.5474 498.534 89.8204 498.534 88.9231Z" fill="#100F0D"/>
<path d="M360.445 44.812H361.196C362.093 44.812 362.82 44.082 362.82 43.1846C362.82 42.2873 362.093 41.5603 361.196 41.5603H360.445C359.547 41.5603 358.817 42.2873 358.817 43.1846C358.817 44.082 359.547 44.812 360.445 44.812Z" fill="#100F0D"/>
<path d="M351.681 48.3916C350.933 48.641 350.185 48.8904 349.434 49.1398C348.582 49.4227 348.12 50.3444 348.405 51.1961C348.688 52.0478 349.607 52.507 350.462 52.2241C351.21 51.9747 351.961 51.7253 352.713 51.4728C353.564 51.19 354.024 50.2683 353.738 49.4166C353.455 48.5649 352.533 48.1057 351.681 48.3916Z" fill="#100F0D"/>
<path d="M348.098 37.5847L348.849 36.8365C349.482 36.2007 349.482 35.1726 348.849 34.5369C348.213 33.9012 347.182 33.9012 346.55 34.5369L345.798 35.2851C345.163 35.9209 345.163 36.952 345.798 37.5847C346.434 38.2205 347.462 38.2205 348.098 37.5847Z" fill="#100F0D"/>
<path d="M352.597 43.5855L353.348 42.8342C353.981 42.1985 353.981 41.1704 353.348 40.5347C352.712 39.8989 351.681 39.8989 351.048 40.5347L350.297 41.286C349.661 41.9186 349.661 42.9498 350.297 43.5855C350.933 44.2182 351.961 44.2182 352.597 43.5855Z" fill="#100F0D"/>
<path d="M358.817 31.9358V32.6871C358.817 33.5844 359.547 34.3145 360.445 34.3145C361.342 34.3145 362.069 33.5844 362.069 32.6871V31.9358C362.069 31.0385 361.342 30.3115 360.445 30.3115C359.547 30.3115 358.817 31.0385 358.817 31.9358Z" fill="#100F0D"/>
<path d="M366.443 42.5605H367.194C368.092 42.5605 368.819 41.8336 368.819 40.9333C368.819 40.0359 368.092 39.3089 367.194 39.3089H366.443C365.546 39.3089 364.819 40.0359 364.819 40.9333C364.819 41.8336 365.546 42.5605 366.443 42.5605Z" fill="#100F0D"/>
<path d="M661.38 70.6176C658.722 65.1455 654.232 60.9813 648.973 58.1799C643.711 55.3754 637.661 53.9031 631.729 53.8089L631.014 53.8028C619.477 53.8119 608.545 58.1251 598.449 63.0132C578.644 72.6221 560.385 84.9473 540.388 93.2117C527.802 98.4192 514.071 101.936 500.681 101.932C492.831 101.932 485.095 100.728 477.74 97.966C476.901 97.6497 475.964 98.0755 475.648 98.915C475.331 99.7576 475.757 100.694 476.6 101.011C484.365 103.928 492.499 105.184 500.681 105.184C514.643 105.181 528.754 101.54 541.632 96.217C562.03 87.7701 580.336 75.4023 599.867 65.9394C609.81 61.1152 620.31 57.0484 631.014 57.0545L631.677 57.0605C637.107 57.1427 642.682 58.5053 647.443 61.0482C652.212 63.5911 656.148 67.2869 658.457 72.0381C658.849 72.8442 659.823 73.1818 660.629 72.7894C661.438 72.397 661.772 71.4236 661.38 70.6176Z" fill="#100F0D"/>
<path d="M666.381 79.04C670.642 80.2142 674.639 82.392 677.936 85.3365C678.578 85.9083 679.189 86.5622 679.6 87.198C680.017 87.8428 680.217 88.4329 680.214 88.9348L680.178 89.312C680.078 89.8321 679.746 90.2975 679.153 90.6868C678.569 91.0731 677.751 91.3104 676.999 91.3074L676.619 91.2861C674.885 91.1249 673.085 90.0025 671.214 88.6976L668.707 86.9759L668.665 90.0146C668.65 92.1682 668.537 94.1423 667.74 95.5415C667.208 96.5514 665.93 97.3544 665.076 97.3118L664.416 97.1749C663.953 96.965 663.579 96.5666 663.251 95.873C662.928 95.1917 662.715 94.2731 662.597 93.3666C662.423 92.0496 662.338 90.7173 662.338 89.385C662.338 85.3882 663.114 81.3852 664.622 77.6894L663.117 77.075L663.716 78.5868C664.06 78.4499 664.446 78.3799 664.844 78.3799C665.748 78.3738 666.679 78.7602 667.25 79.3776C667.868 80.0316 668.896 80.062 669.55 79.4445C670.204 78.8301 670.234 77.802 669.617 77.148C668.355 75.8157 666.609 75.1314 664.844 75.1283C664.063 75.1283 663.272 75.2652 662.521 75.5633L661.876 75.8158L661.614 76.4606C659.941 80.5548 659.086 84.9684 659.086 89.385C659.086 90.8572 659.181 92.3325 659.372 93.7925C659.521 94.8906 659.771 96.0981 660.306 97.251C660.832 98.3886 661.711 99.5292 663.089 100.144C663.737 100.433 664.419 100.563 665.076 100.563C667.463 100.521 669.468 99.0608 670.581 97.1232C671.88 94.7537 671.874 92.2169 671.917 90.0603L670.292 90.0359L669.371 91.3773C671.269 92.667 673.462 94.2092 676.284 94.5195L676.999 94.559C678.38 94.5529 679.752 94.1697 680.923 93.4154C682.082 92.6701 683.074 91.4747 683.372 89.9264C683.436 89.5918 683.466 89.2603 683.466 88.9348C683.463 87.5934 682.967 86.4132 682.328 85.4308C681.687 84.4422 680.884 83.6118 680.102 82.9122C676.424 79.6301 671.996 77.215 667.244 75.907C666.38 75.6667 665.483 76.1777 665.246 77.0416C665.006 77.9085 665.517 78.8028 666.381 79.04Z" fill="#100F0D"/>
<path d="M604.953 91.0005C607.258 90.4165 609.637 90.1245 612.016 90.1275C614.063 90.1245 616.11 90.3435 618.108 90.7754C619.054 90.9762 620.012 91.2895 620.715 91.7062C621.43 92.129 621.834 92.5791 622.02 93.1236L622.111 93.6925C622.117 94.1791 621.91 94.7693 621.5 95.3168C621.095 95.8643 620.499 96.3388 619.9 96.5974C618.951 97.0141 617.844 97.1661 616.603 97.1661C615.748 97.1661 614.844 97.0962 613.92 97.014L610.893 96.7525L612.353 99.4171C613.4 101.297 614.279 103.07 614.273 104.679V104.707C614.279 105.421 614.017 106.243 613.6 106.815C613.175 107.399 612.694 107.694 612.192 107.739L612.025 107.748C611.553 107.751 611.027 107.554 610.434 107.11C609.847 106.675 609.248 106.018 608.731 105.33C605.522 101.081 603.435 95.9707 602.757 90.6902L601.144 90.9002L602.413 91.9191C602.979 91.1982 604.007 90.7237 604.986 90.7328C605.293 90.7328 605.594 90.7754 605.874 90.8636C606.732 91.1283 607.642 90.6476 607.909 89.7899C608.174 88.9351 607.693 88.0226 606.836 87.758C606.227 87.5694 605.604 87.4812 604.986 87.4812C603.046 87.4873 601.147 88.3207 599.879 89.8781L599.444 90.4195L599.532 91.107C600.287 96.9563 602.58 102.58 606.136 107.289C606.769 108.123 607.532 108.999 608.487 109.716C609.433 110.425 610.629 111 612.025 111L612.499 110.979C614.133 110.821 615.425 109.862 616.244 108.707C617.074 107.538 617.521 106.136 617.524 104.707V104.655C617.485 101.954 616.232 99.7486 615.203 97.8536L613.78 98.6353L613.64 100.254C614.577 100.336 615.571 100.418 616.603 100.418C618.09 100.418 619.669 100.247 621.205 99.5782C622.355 99.0702 623.355 98.2642 624.104 97.2635C624.849 96.2627 625.36 95.04 625.363 93.6925C625.363 93.1602 625.281 92.6157 625.101 92.0834C624.599 90.5929 623.501 89.5618 622.358 88.8987C621.202 88.2264 619.948 87.8492 618.796 87.5968C616.566 87.1131 614.291 86.8759 612.016 86.8729C609.369 86.8759 606.726 87.1983 604.159 87.8462C603.286 88.0652 602.76 88.9504 602.979 89.8203C603.198 90.6903 604.083 91.2195 604.953 91.0005Z" fill="#100F0D"/>
<path d="M619.365 20.4953C616.992 16.7661 615.489 12.4712 615.018 8.07592C614.972 7.65007 614.945 7.21206 614.945 6.78926C614.942 6.05012 615.033 5.35051 615.219 4.81212C615.41 4.26765 615.66 3.89955 616.022 3.6258C616.353 3.37942 616.743 3.25471 617.235 3.25167C618.136 3.23342 619.313 3.77789 619.982 4.54746C621.162 5.83108 621.743 7.86905 622.26 10.0956L622.966 13.0522L625.034 10.8257C626.485 9.24092 627.897 7.85079 629.427 7.3489C629.783 7.22723 630.19 7.16035 630.598 7.16339C631.17 7.16035 631.729 7.29416 632.146 7.51621C632.566 7.7413 632.83 8.01507 632.986 8.36487V8.36182C633.092 8.60516 633.138 8.84852 633.141 9.13749C633.165 9.99222 632.575 11.288 631.781 12.4104C628.758 16.7905 624.563 20.3737 619.763 22.6794L620.466 24.1424L621.038 22.6215C619.888 22.217 618.945 20.8847 618.945 19.6649C618.927 18.7676 618.184 18.0528 617.287 18.0711C616.39 18.0893 615.675 18.8316 615.693 19.7289C615.772 22.3661 617.433 24.7173 619.894 25.6663L620.545 25.9097L621.168 25.6085C626.485 23.0565 631.106 19.1083 634.458 14.2567C635.382 12.8879 636.365 11.1846 636.392 9.13749C636.392 8.45613 636.265 7.74129 635.964 7.0569L635.954 7.03254L635.96 7.05386C635.477 5.9497 634.613 5.13757 633.661 4.63872C632.703 4.13684 631.647 3.91178 630.598 3.91178C629.85 3.91178 629.098 4.02734 628.38 4.27068C625.831 5.15583 624.128 7.03869 622.65 8.61431L623.842 9.71843L625.424 9.34126C624.879 7.11165 624.289 4.49578 622.4 2.37263C621.089 0.933886 619.225 0.0183029 617.235 5.34058e-05C616.159 -0.00298882 615.024 0.30419 614.066 1.02509C613.093 1.7551 612.481 2.75584 612.144 3.76266C611.8 4.77252 611.693 5.80374 611.693 6.78926C611.693 7.35199 611.73 7.9025 611.785 8.42264C612.311 13.3229 613.978 18.0832 616.621 22.2413C617.105 22.9987 618.108 23.2238 618.866 22.7402C619.623 22.2596 619.848 21.2527 619.365 20.4953Z" fill="#100F0D"/>
<path d="M545.541 94.5352C555.445 90.9946 570.693 88.0532 583.341 88.0593C587.411 88.0593 591.213 88.3635 594.458 89.0266C595.337 89.206 596.195 88.6372 596.375 87.7582C596.554 86.8791 595.988 86.0183 595.106 85.8388C591.569 85.121 587.572 84.8107 583.341 84.8077C570.2 84.8168 554.788 87.7947 544.449 91.4721C543.603 91.7733 543.162 92.7041 543.463 93.5497C543.764 94.3953 544.695 94.8363 545.541 94.5352Z" fill="#100F0D"/>
<path d="M584.725 73.5773C602.394 66.8155 616.137 50.892 620.246 32.4285C620.441 31.5525 619.888 30.6825 619.011 30.4909C618.135 30.2962 617.265 30.8468 617.071 31.7259C613.232 49.076 600.171 64.2087 583.566 70.5416C582.726 70.861 582.307 71.801 582.626 72.6405C582.948 73.477 583.885 73.8997 584.725 73.5773Z" fill="#100F0D"/>
<path d="M518.746 103.6C528.097 101.057 537.033 94.9218 540.705 85.614C541.69 83.0894 542.165 80.3791 542.165 77.6781C542.162 70.3109 538.639 62.8222 531.801 59.4732C530.995 59.0808 530.022 59.4185 529.63 60.2276C529.237 61.0336 529.575 62.007 530.381 62.3993C535.814 65.0122 538.916 71.2904 538.913 77.6781C538.913 79.9989 538.506 82.3137 537.675 84.4278C534.554 92.4549 526.515 98.1308 517.895 100.461C517.028 100.695 516.517 101.589 516.751 102.456C516.985 103.323 517.879 103.834 518.746 103.6Z" fill="#100F0D"/>
<path d="M515.306 85.3008H515.768V82.0492H515.306C514.406 82.0492 513.679 82.7762 513.679 83.6735C513.679 84.5708 514.406 85.3008 515.306 85.3008H515.768V82.0492H515.306C514.406 82.0492 513.679 82.7762 513.679 83.6735C513.679 84.5708 514.406 85.3008 515.306 85.3008Z" fill="#100F0D"/>
<path d="M510.457 97.5706L511.206 96.8193C511.841 96.1835 511.841 95.1554 511.206 94.5197C510.57 93.887 509.539 93.887 508.906 94.5227L508.158 95.274C507.522 95.9067 507.522 96.9379 508.158 97.5706C508.793 98.2063 509.825 98.2063 510.457 97.5706Z" fill="#100F0D"/>
<path d="M522.804 89.5471C522.302 89.5471 521.803 89.5471 521.305 89.5471C520.407 89.5471 519.677 90.2741 519.677 91.1745C519.677 92.0718 520.407 92.7988 521.305 92.7988C521.803 92.7988 522.302 92.7988 522.804 92.7988C523.701 92.7988 524.428 92.0718 524.428 91.1745C524.428 90.2741 523.701 89.5471 522.804 89.5471Z" fill="#100F0D"/>
<path d="M510.184 88.9231V88.1717C510.184 87.2744 509.457 86.5475 508.557 86.5475C507.659 86.5475 506.932 87.2744 506.932 88.1717V88.9231C506.932 89.8204 507.659 90.5474 508.557 90.5474C509.457 90.5474 510.184 89.8204 510.184 88.9231Z" fill="#100F0D"/>
<path d="M645.022 41.5603H644.273C643.376 41.5603 642.649 42.2873 642.649 43.1846C642.649 44.082 643.376 44.812 644.273 44.812H645.022C645.919 44.812 646.649 44.082 646.649 43.1846C646.649 42.2873 645.919 41.5603 645.022 41.5603Z" fill="#100F0D"/>
<path d="M652.754 51.4729C653.505 51.7253 654.253 51.9747 655.008 52.2242C655.859 52.5071 656.781 52.0478 657.064 51.1931C657.347 50.3414 656.885 49.4228 656.033 49.1399C655.282 48.8904 654.533 48.641 653.788 48.3916C652.936 48.1057 652.015 48.565 651.729 49.4166C651.443 50.2653 651.902 51.1869 652.754 51.4729Z" fill="#100F0D"/>
<path d="M659.667 35.2848L658.916 34.5365C658.28 33.9008 657.252 33.9008 656.616 34.5365C655.984 35.1722 655.984 36.2034 656.619 36.8361L657.371 37.5874C658.006 38.2201 659.034 38.2201 659.67 37.5843C660.303 36.9486 660.303 35.9205 659.667 35.2848Z" fill="#100F0D"/>
<path d="M655.169 41.2863L654.421 40.535C653.788 39.8993 652.757 39.8993 652.121 40.535C651.488 41.1677 651.485 42.1989 652.121 42.8346L652.869 43.5829C653.502 44.2186 654.533 44.2186 655.169 43.5859C655.805 42.9502 655.805 41.9221 655.169 41.2863Z" fill="#100F0D"/>
<path d="M643.397 31.9358V32.6871C643.397 33.5844 644.124 34.3145 645.022 34.3145C645.919 34.3145 646.649 33.5844 646.649 32.6871V31.9358C646.649 31.0385 645.919 30.3115 645.022 30.3115C644.124 30.3115 643.397 31.0385 643.397 31.9358Z" fill="#100F0D"/>
<path d="M639.023 39.3089H638.272C637.374 39.3089 636.647 40.0359 636.647 40.9333C636.647 41.8336 637.374 42.5605 638.272 42.5605H639.023C639.923 42.5605 640.65 41.8336 640.65 40.9333C640.65 40.0359 639.923 39.3089 639.023 39.3089Z" fill="#100F0D"/>
<path d="M9.96067 10.913C11.4207 8.21492 13.4098 5.55082 15.8227 3.50251C18.2231 1.46657 21.0999 0.00620034 24.2799 1.20868e-05C26.2504 -0.00308204 28.2952 0.587811 30.2409 1.84712C33.9004 4.22032 36.1059 8.2705 36.5669 12.5682C36.8298 15.059 36.9597 17.5622 36.9597 20.0623C36.9566 36.1115 31.602 52.1175 21.8269 64.6796C19.3553 67.848 15.6061 69.822 11.6373 69.8282C10.9908 69.8282 10.3381 69.7756 9.68845 69.6642C5.85884 69.0423 3.26039 66.6227 1.86527 63.6957C0.439225 60.7686 0.00308668 57.3342 -7.03815e-06 54.0823C-7.03815e-06 53.2995 0.0247389 52.5259 0.0742308 51.7741C0.801178 40.1866 4.07087 28.7816 9.57709 18.6421C10.4896 16.962 11.5167 15.2262 12.8406 13.6853C14.1615 12.1475 15.8041 10.7954 17.8921 10.0002C18.8851 9.62269 19.943 9.41534 21.0133 9.41534C22.1641 9.41534 23.3365 9.65979 24.4222 10.2013C26.3896 11.1759 27.6115 12.8592 28.2425 14.626C28.8829 16.402 29.0345 18.2986 29.0376 20.0839C29.0376 20.6377 29.0221 21.1792 29.0005 21.7021C28.6014 30.6225 27.2558 39.4965 24.9914 48.1229C24.3418 50.6013 23.0735 52.9745 21.0937 54.7381C19.2965 56.3471 17.2796 57.133 15.3339 57.1268C12.4137 57.1176 9.90191 55.4653 8.15414 53.2376C6.3971 50.9943 5.30824 48.0981 5.30206 45.1525C5.30206 44.6946 5.32986 44.2336 5.38555 43.7757C5.7784 40.6321 7.05597 37.8442 8.71093 35.3534C9.66988 33.8682 11.2413 33.1071 12.6983 33.1288C14.0192 33.135 15.2411 33.6579 16.1784 34.5087C17.1126 35.3565 17.7808 36.6003 17.7838 38.036C17.7838 38.8745 17.5456 39.7502 17.0693 40.5609C16.6362 41.3066 16.1258 42.0089 15.5442 42.6494C14.972 43.2837 13.9944 43.3332 13.3603 42.7608C12.7261 42.1883 12.6767 41.2106 13.2489 40.5763C13.6851 40.0936 14.0687 39.5677 14.3966 39.0046C14.6224 38.6147 14.6874 38.3052 14.6905 38.036C14.6905 37.5874 14.4832 37.1542 14.0934 36.7922C13.7067 36.4363 13.1623 36.2198 12.6983 36.2229C12.1817 36.2446 11.761 36.3869 11.2877 37.0614C9.8122 39.2892 8.77282 41.6221 8.45729 44.1593C8.41398 44.4842 8.39544 44.8152 8.39544 45.1525C8.38925 47.3122 9.2461 49.6329 10.5855 51.3253C11.9312 53.0364 13.6604 54.042 15.3339 54.0327C16.466 54.0265 17.6817 53.6212 19.0366 52.4269C20.4689 51.1583 21.4804 49.3358 22.0001 47.337C24.2088 38.924 25.5204 30.2667 25.9102 21.566C25.9318 21.074 25.9442 20.5789 25.9442 20.0839C25.9473 18.4873 25.7864 16.9187 25.3348 15.6841C24.8708 14.4434 24.2088 13.5677 23.0364 12.9674C22.4239 12.6611 21.7341 12.5095 21.0133 12.5095C20.3421 12.5095 19.6492 12.6426 18.9934 12.8932C17.4962 13.4625 16.2774 14.4372 15.1854 15.7027C14.0996 16.9651 13.1654 18.5153 12.2962 20.118C7.0096 29.8552 3.85743 40.8332 3.16142 51.9689C3.11502 52.662 3.09338 53.3706 3.09338 54.0823C3.08719 57.0433 3.52955 60.0755 4.64316 62.3373C5.78462 64.6053 7.38699 66.1091 10.2051 66.6135C10.6814 66.6939 11.1609 66.734 11.6373 66.734C14.5544 66.7402 17.4683 65.2458 19.3862 62.7766C28.7189 50.7962 33.8694 35.4246 33.8663 20.0623C33.8663 17.6674 33.7426 15.2756 33.489 12.8962C33.1208 9.42462 31.3267 6.22226 28.5643 4.44933C27.0547 3.47777 25.6503 3.10033 24.2799 3.09414C22.0929 3.09104 19.8657 4.12749 17.821 5.86329C15.7855 7.58672 13.979 9.97548 12.6829 12.3827C12.2776 13.1346 11.3403 13.4161 10.5886 13.0108C9.83694 12.6023 9.55544 11.6649 9.96067 10.913Z" fill="#100F0D"/>
<path d="M28.7627 1.08636C42.021 4.1743 55.8886 7.43245 67.2537 15.6597C76.8215 22.6122 84.103 33.8996 84.1309 45.6975C84.1309 47.9624 83.8552 50.2396 83.274 52.4952C81.4121 59.6736 76.7126 65.4659 70.7461 69.5935C64.7728 73.7272 57.5126 76.2428 50.3081 76.9018C48.613 77.0565 46.9178 77.1307 45.2319 77.1307C32.7037 77.1245 20.5281 73.161 8.85062 69.3274C8.04015 69.0582 7.59779 68.1856 7.86691 67.3718C8.13294 66.5612 9.00839 66.1188 9.81885 66.388C21.484 70.2309 33.3688 74.0428 45.2319 74.0366C46.8312 74.0366 48.4304 73.9686 50.0266 73.8201C56.7083 73.2136 63.5014 70.8527 68.986 67.05C74.4761 63.2442 78.6401 58.0431 80.2799 51.7187C80.7934 49.7261 81.0375 47.7118 81.0375 45.6975C81.0653 35.227 74.3588 24.6142 65.4378 18.166C54.7595 10.4121 41.3218 7.16949 28.0636 4.10011C27.2315 3.90518 26.7118 3.07596 26.9067 2.24364C27.0985 1.41132 27.9306 0.891432 28.7627 1.08636Z" fill="#100F0D"/>
<path d="M83.0321 50.5337C134.442 66.1157 188.161 74.0366 241.877 74.0366C254.709 74.0366 267.544 73.5849 280.344 72.6753C281.195 72.6165 281.934 73.257 281.996 74.111C282.057 74.9619 281.415 75.7013 280.564 75.7632C267.689 76.676 254.784 77.1308 241.877 77.1308C187.858 77.1308 133.838 69.1664 82.1356 53.4947C81.3186 53.2472 80.8583 52.384 81.1061 51.564C81.3523 50.7472 82.2163 50.2861 83.0321 50.5337Z" fill="#100F0D"/>
<path d="M153.083 89.6528L154.131 90.7913C143.623 100.43 136.954 114.214 135.911 128.431V128.447V128.453V128.456L134.408 128.326H135.915L135.911 128.456L134.408 128.326H135.915H134.448L135.478 127.28C135.717 127.491 135.929 127.949 135.915 128.326H134.448L135.478 127.28L134.565 128.209L134.819 126.918C134.906 126.946 135.12 126.952 135.478 127.28L134.565 128.209L134.819 126.918L134.686 127.59L134.739 126.906L134.819 126.918L134.686 127.59L134.739 126.906H134.747C134.881 126.912 135.463 126.841 136.196 126.693C138.825 126.179 143.781 124.824 148.207 123.515C150.422 122.859 152.52 122.215 154.144 121.692C154.957 121.429 155.653 121.2 156.185 121.015C156.704 120.835 157.098 120.677 157.154 120.65C164.565 117.085 171.324 112.159 177.043 106.243C182.699 100.395 187.351 93.5606 190.571 86.1037C191.425 84.1668 192.304 82.1464 192.278 80.6488C192.257 79.668 192.032 78.9533 191.156 78.1148C189.934 76.9668 187.942 76.4996 185.758 76.5057C184.475 76.5027 183.156 76.6574 181.987 76.8585C171.767 78.585 161.766 83.7707 154.131 90.7913L153.083 89.6528L152.036 88.511C160.105 81.1068 170.579 75.658 181.471 73.8078C182.754 73.5912 184.23 73.4116 185.758 73.4116C188.312 73.4178 191.118 73.8943 193.254 75.8405C194.759 77.205 195.397 79.0027 195.372 80.6488C195.35 83.1767 194.209 85.4386 193.408 87.3322C190.033 95.151 185.167 102.289 179.268 108.394C173.298 114.57 166.248 119.712 158.493 123.438C158.124 123.611 157.658 123.778 156.952 124.022C154.527 124.855 149.732 126.327 145.185 127.605C142.915 128.246 140.709 128.834 138.896 129.267C137.987 129.483 137.176 129.66 136.492 129.787C135.796 129.914 135.265 129.994 134.747 130C134.535 129.994 134.333 129.997 133.984 129.892L133.309 129.483C133.037 129.242 132.808 128.747 132.821 128.326L132.827 128.187V128.184L134.37 128.32L132.827 128.206C133.938 113.174 140.938 98.7062 152.036 88.511L153.083 89.6528Z" fill="#100F0D"/>
<path d="M192.684 78.8727C170.133 91.2647 150.462 108.889 135.673 129.951L133.143 128.171C148.207 106.72 168.225 88.7863 191.193 76.1592L192.684 78.8727Z" fill="#100F0D"/>
<path d="M995.039 11.913C993.579 9.21492 991.59 6.55082 989.177 4.50251C986.777 2.46657 983.9 1.0062 980.72 1.00001C978.75 0.996918 976.705 1.58781 974.759 2.84712C971.1 5.22032 968.894 9.2705 968.433 13.5682C968.17 16.059 968.04 18.5622 968.04 21.0623C968.043 37.1115 973.398 53.1175 983.173 65.6796C985.645 68.848 989.394 70.822 993.363 70.8282C994.009 70.8282 994.662 70.7756 995.312 70.6642C999.141 70.0423 1001.74 67.6227 1003.13 64.6957C1004.56 61.7686 1005 58.3342 1005 55.0823C1005 54.2995 1004.98 53.5259 1004.93 52.7741C1004.2 41.1866 1000.93 29.7816 995.423 19.6421C994.51 17.962 993.483 16.2262 992.159 14.6853C990.839 13.1475 989.196 11.7954 987.108 11.0002C986.115 10.6227 985.057 10.4153 983.987 10.4153C982.836 10.4153 981.664 10.6598 980.578 11.2013C978.61 12.1759 977.389 13.8592 976.757 15.626C976.117 17.402 975.966 19.2986 975.962 21.0839C975.962 21.6377 975.978 22.1792 976 22.7021C976.399 31.6225 977.744 40.4965 980.009 49.1229C980.658 51.6013 981.926 53.9745 983.906 55.7381C985.704 57.3471 987.72 58.133 989.666 58.1268C992.586 58.1176 995.098 56.4653 996.846 54.2376C998.603 51.9943 999.692 49.0981 999.698 46.1525C999.698 45.6946 999.67 45.2336 999.614 44.7757C999.222 41.6321 997.944 38.8442 996.289 36.3534C995.33 34.8682 993.759 34.1071 992.302 34.1288C990.981 34.135 989.759 34.6579 988.822 35.5087C987.887 36.3565 987.219 37.6003 987.216 39.036C987.216 39.8745 987.454 40.7502 987.931 41.5609C988.364 42.3066 988.874 43.0089 989.456 43.6494C990.028 44.2837 991.006 44.3332 991.64 43.7608C992.274 43.1883 992.323 42.2106 991.751 41.5763C991.315 41.0936 990.931 40.5677 990.603 40.0046C990.378 39.6147 990.313 39.3052 990.31 39.036C990.31 38.5874 990.517 38.1542 990.907 37.7922C991.293 37.4363 991.838 37.2198 992.302 37.2229C992.818 37.2446 993.239 37.3869 993.712 38.0614C995.188 40.2892 996.227 42.6221 996.543 45.1593C996.586 45.4842 996.605 45.8152 996.605 46.1525C996.611 48.3122 995.754 50.6329 994.414 52.3253C993.069 54.0364 991.34 55.042 989.666 55.0327C988.534 55.0265 987.318 54.6212 985.963 53.4269C984.531 52.1583 983.52 50.3358 983 48.337C980.791 39.924 979.48 31.2667 979.09 22.566C979.068 22.074 979.056 21.5789 979.056 21.0839C979.053 19.4873 979.214 17.9187 979.665 16.6841C980.129 15.4434 980.791 14.5677 981.964 13.9674C982.576 13.6611 983.266 13.5095 983.987 13.5095C984.658 13.5095 985.351 13.6426 986.007 13.8932C987.504 14.4625 988.723 15.4372 989.815 16.7027C990.9 17.9651 991.835 19.5153 992.704 21.118C997.99 30.8552 1001.14 41.8332 1001.84 52.9689C1001.88 53.662 1001.91 54.3706 1001.91 55.0823C1001.91 58.0433 1001.47 61.0755 1000.36 63.3373C999.215 65.6053 997.613 67.1091 994.795 67.6135C994.319 67.6939 993.839 67.734 993.363 67.734C990.446 67.7402 987.532 66.2458 985.614 63.7766C976.281 51.7962 971.131 36.4246 971.134 21.0623C971.134 18.6674 971.257 16.2756 971.511 13.8962C971.879 10.4246 973.673 7.22226 976.436 5.44933C977.945 4.47777 979.35 4.10033 980.72 4.09414C982.907 4.09104 985.134 5.12749 987.179 6.86329C989.214 8.58672 991.021 10.9755 992.317 13.3827C992.722 14.1346 993.66 14.4161 994.411 14.0108C995.163 13.6023 995.445 12.6649 995.039 11.913Z" fill="#100F0D"/>
<path d="M976.237 2.08636C962.979 5.1743 949.111 8.43245 937.746 16.6597C928.178 23.6122 920.897 34.8996 920.869 46.6975C920.869 48.9624 921.145 51.2396 921.726 53.4952C923.588 60.6736 928.287 66.4659 934.254 70.5935C940.227 74.7272 947.487 77.2428 954.692 77.9018C956.387 78.0565 958.082 78.1307 959.768 78.1307C972.296 78.1245 984.472 74.161 996.149 70.3274C996.96 70.0582 997.402 69.1856 997.133 68.3718C996.867 67.5612 995.992 67.1188 995.181 67.388C983.516 71.2309 971.631 75.0428 959.768 75.0366C958.169 75.0366 956.57 74.9686 954.973 74.8201C948.292 74.2136 941.499 71.8527 936.014 68.05C930.524 64.2442 926.36 59.0431 924.72 52.7187C924.207 50.7261 923.963 48.7118 923.963 46.6975C923.935 36.227 930.641 25.6142 939.562 19.166C950.241 11.4121 963.678 8.16949 976.936 5.10011C977.769 4.90518 978.288 4.07596 978.093 3.24364C977.902 2.41132 977.069 1.89143 976.237 2.08636Z" fill="#100F0D"/>
<path d="M921.968 51.5337C870.558 67.1157 816.839 75.0366 763.123 75.0366C750.291 75.0366 737.456 74.5849 724.656 73.6753C723.805 73.6165 723.066 74.257 723.004 75.111C722.943 75.9619 723.585 76.7013 724.436 76.7632C737.311 77.676 750.216 78.1308 763.123 78.1308C817.142 78.1308 871.162 70.1664 922.864 54.4947C923.681 54.2472 924.142 53.384 923.894 52.564C923.648 51.7472 922.784 51.2861 921.968 51.5337Z" fill="#100F0D"/>
<path d="M851.917 90.6528L850.869 91.7913C861.377 101.43 868.046 115.214 869.089 129.431V129.447V129.453V129.456L870.592 129.326H869.085L869.089 129.456L870.592 129.326H869.085H870.552L869.522 128.28C869.283 128.491 869.071 128.949 869.085 129.326H870.552L869.522 128.28L870.435 129.209L870.181 127.918C870.094 127.946 869.88 127.952 869.522 128.28L870.435 129.209L870.181 127.918L870.314 128.59L870.261 127.906L870.181 127.918L870.314 128.59L870.261 127.906H870.253C870.119 127.912 869.537 127.841 868.804 127.693C866.175 127.179 861.219 125.824 856.793 124.515C854.578 123.859 852.48 123.215 850.856 122.692C850.043 122.429 849.347 122.2 848.815 122.015C848.296 121.835 847.902 121.677 847.846 121.65C840.435 118.085 833.676 113.159 827.957 107.243C822.301 101.395 817.649 94.5606 814.429 87.1037C813.575 85.1668 812.696 83.1464 812.722 81.6488C812.743 80.668 812.968 79.9533 813.844 79.1148C815.066 77.9668 817.058 77.4996 819.242 77.5057C820.525 77.5027 821.844 77.6574 823.013 77.8585C833.233 79.585 843.234 84.7707 850.869 91.7913L851.917 90.6528L852.964 89.511C844.895 82.1068 834.421 76.658 823.529 74.8078C822.246 74.5912 820.77 74.4116 819.242 74.4116C816.688 74.4178 813.882 74.8943 811.746 76.8405C810.241 78.205 809.603 80.0027 809.628 81.6488C809.65 84.1767 810.791 86.4386 811.592 88.3322C814.967 96.151 819.833 103.289 825.732 109.394C831.702 115.57 838.752 120.712 846.507 124.438C846.876 124.611 847.342 124.778 848.048 125.022C850.473 125.855 855.268 127.327 859.815 128.605C862.085 129.246 864.291 129.834 866.104 130.267C867.013 130.483 867.824 130.66 868.508 130.787C869.204 130.914 869.735 130.994 870.253 131C870.465 130.994 870.667 130.997 871.016 130.892L871.691 130.483C871.963 130.242 872.192 129.747 872.179 129.326L872.173 129.187V129.184L870.63 129.32L872.173 129.206C871.062 114.174 864.062 99.7062 852.964 89.511L851.917 90.6528Z" fill="#100F0D"/>
<path d="M812.316 79.8727C834.867 92.2647 854.538 109.889 869.327 130.951L871.857 129.171C856.793 107.72 836.775 89.7863 813.807 77.1592L812.316 79.8727Z" fill="#100F0D"/>
</svg>
