<svg width="355" height="64" viewBox="0 0 355 64" fill="none" xmlns="http://www.w3.org/2000/svg">
<path d="M178.157 37.7516C171.407 30.3474 161.177 27.4737 151.336 27.4706C149.941 27.4706 148.555 27.5287 147.182 27.6388C136.147 28.5436 125.824 32.3711 115.541 35.1683C100.976 39.1456 83.5318 41.3498 67.8104 41.3467C57.6233 41.3498 48.1571 40.4204 40.7078 38.4945C39.8231 38.2652 38.9197 38.788 38.6908 39.6623C38.4588 40.5336 38.9878 41.4292 39.8725 41.6554C47.724 43.6823 57.4192 44.6147 67.8104 44.6147C83.8412 44.6147 101.511 42.383 116.419 38.3171C126.891 35.4557 137.029 31.7352 147.454 30.8976C148.738 30.7906 150.034 30.7386 151.336 30.7386C160.564 30.7325 169.842 33.4717 175.698 39.9374C176.307 40.6069 177.353 40.6649 178.034 40.0596C178.714 39.4574 178.77 38.4242 178.157 37.7516Z" fill="#100F0D"/>
<path d="M2.05393 23.3193C5.97655 30.3231 11.8265 38.027 19.0066 42.3344C22.0878 44.1656 25.7444 45.1224 29.3453 45.1255C31.9098 45.1255 34.4496 44.6363 36.7265 43.5755C39.0002 42.5208 41.0079 40.8669 42.3876 38.6047C43.7581 36.3669 44.3366 33.8876 44.3366 31.4267C44.3211 26.4283 42.0566 21.4545 39.1023 17.5292C34.762 11.8155 30.3073 8.28461 26.8642 3.51556C26.3321 2.78186 25.2989 2.61365 24.5564 3.13947C23.814 3.66529 23.6438 4.68642 24.179 5.42012C27.9841 10.6416 32.4233 14.1389 36.4542 19.4858C39.0992 22.9708 41.0419 27.4433 41.0265 31.4267C41.0265 33.3985 40.5779 35.242 39.5601 36.9142C38.5362 38.5803 37.0791 39.7939 35.3158 40.6224C33.5525 41.4448 31.4829 41.8575 29.3453 41.8575C26.3445 41.8605 23.2262 41.0382 20.7173 39.5371C14.3508 35.7586 8.66793 28.4277 4.94949 21.7419C4.50711 20.9501 3.50174 20.6627 2.70361 21.0998C1.90238 21.5339 1.61155 22.5275 2.05393 23.3193Z" fill="#100F0D"/>
<path d="M61.0263 41.3409C53.0914 41.9523 45.8494 47.1952 42.8703 54.4863C42.397 55.6603 42.0629 56.9962 42.0598 58.378C42.0598 59.1851 42.1773 60.0136 42.4991 60.8145C42.8146 61.6124 43.356 62.3767 44.1232 62.9514C45.141 63.7218 46.3444 64.003 47.4426 64C48.9399 63.9939 50.3289 63.5384 51.5168 62.9912C58.468 59.7262 63.0588 52.4381 63.0774 44.8687C63.0774 44.4774 63.065 44.0831 63.0403 43.6918C62.9815 42.7899 62.1957 42.1082 61.2831 42.1632C60.3736 42.2213 59.6807 42.9978 59.7395 43.8996C59.7611 44.2237 59.7704 44.5477 59.7704 44.8687C59.792 51.1143 55.8292 57.3906 50.1061 60.0349H50.1092C49.2214 60.4538 48.2129 60.7381 47.4426 60.732C46.8641 60.7259 46.465 60.6036 46.1309 60.356C45.871 60.1542 45.704 59.931 45.571 59.6069C45.4411 59.286 45.3668 58.8641 45.3668 58.378C45.3637 57.5495 45.5926 56.5529 45.9391 55.703C48.3861 49.6225 54.6691 45.0705 61.2738 44.5997C62.1834 44.5325 62.867 43.7499 62.799 42.848C62.7309 41.9492 61.9359 41.2737 61.0263 41.3409Z" fill="#100F0D"/>
<path d="M47.7148 62.8138C51.7797 55.8834 56.9892 49.598 63.0711 44.297C63.7548 43.7009 63.8197 42.6676 63.2165 41.992C62.6133 41.3164 61.5677 41.2491 60.8809 41.8483C54.5329 47.3847 49.0976 53.936 44.8532 61.1752C44.3954 61.9547 44.6645 62.9544 45.4565 63.4069C46.2453 63.8593 47.2569 63.5933 47.7148 62.8138Z" fill="#100F0D"/>
<path d="M82.3225 41.1085C82.4338 40.2556 82.4895 39.4027 82.4895 38.5528C82.4771 31.5918 78.8917 24.7561 72.9861 20.8706C71.5445 19.9382 69.7658 19.1525 67.823 19.1372C66.6506 19.1281 65.3667 19.4796 64.3428 20.3662L64.3459 20.3631C62.8857 21.6196 62.4712 23.3988 62.4774 24.9396C62.4774 25.8384 62.6104 26.7066 62.8022 27.5106C64.7202 35.2787 71.5755 41.4325 79.5847 42.5789C80.488 42.7073 81.3233 42.0838 81.4532 41.1911C81.5801 40.2984 80.9521 39.4699 80.0487 39.3446C73.4657 38.4489 67.5477 33.1357 66.0195 26.7464C65.8741 26.1472 65.7813 25.5113 65.7843 24.9396C65.7874 23.9094 66.0535 23.2154 66.5083 22.8333H66.5114C66.8578 22.5429 67.2414 22.4114 67.823 22.4053C68.7666 22.3869 70.1184 22.8975 71.1548 23.5914C76.0797 26.8014 79.1949 32.7107 79.1825 38.5528C79.1825 39.2651 79.1361 39.9774 79.0433 40.6866C78.9258 41.5793 79.563 42.4017 80.4694 42.5178C81.3758 42.634 82.2049 42.0012 82.3225 41.1085Z" fill="#100F0D"/>
<path d="M63.7485 23.8633C69.7933 29.2071 74.9596 35.5231 78.9782 42.4841C79.4298 43.2698 80.4382 43.5418 81.2333 43.0955C82.0252 42.6492 82.3037 41.6495 81.8489 40.8669C77.654 33.5971 72.2651 27.006 65.9543 21.4268C65.2737 20.8277 64.2281 20.8827 63.6186 21.5583C63.0123 22.2308 63.068 23.2611 63.7485 23.8633Z" fill="#100F0D"/>
<path d="M110.672 37.4399C103.148 40.014 97.4841 46.8924 96.4663 54.6941C96.4075 55.171 96.3735 55.6693 96.3735 56.1768C96.3766 57.3599 96.5499 58.5949 97.0572 59.7536C97.5553 60.903 98.474 62.0097 99.8445 62.5692C100.491 62.8382 101.165 62.9543 101.809 62.9543C103.928 62.9238 105.663 61.8507 107.009 60.7624C111.619 56.941 114.18 51.0929 114.186 45.2324C114.186 43.1995 113.877 41.1634 113.221 39.2099C112.933 38.3539 111.999 37.8893 111.133 38.1705C110.264 38.4549 109.793 39.3781 110.081 40.2371C110.619 41.839 110.879 43.5296 110.879 45.2324C110.885 50.1513 108.677 55.1374 104.887 58.2525C103.888 59.1024 102.619 59.7138 101.809 59.6863L101.122 59.5549C100.674 59.3623 100.361 59.0443 100.086 58.4451C99.8228 57.8551 99.6774 57.0236 99.6805 56.1768C99.6805 55.816 99.7053 55.4492 99.7486 55.1037C100.559 48.6074 105.475 42.64 111.745 40.5306C112.608 40.2371 113.069 39.3078 112.772 38.4548C112.475 37.6019 111.535 37.1465 110.672 37.4399Z" fill="#100F0D"/>
<path d="M103.284 61.5391C105.443 53.8169 108.877 46.4371 113.406 39.791C113.914 39.042 113.716 38.0271 112.958 37.5226C112.2 37.0182 111.173 37.2169 110.662 37.9659C105.932 44.9085 102.353 52.6062 100.098 60.6708C99.8533 61.539 100.37 62.4378 101.252 62.6794C102.13 62.9209 103.043 62.4103 103.284 61.5391Z" fill="#100F0D"/>
<path d="M131.216 31.8947C130.195 24.096 124.531 17.2176 117.007 14.6466C115.925 14.2798 114.715 14.0352 113.471 14.0321C112.59 14.0321 111.68 14.1575 110.811 14.5091C109.942 14.8545 109.11 15.4537 108.519 16.3127C107.866 17.2482 107.615 18.3212 107.618 19.3117C107.628 20.9198 108.194 22.3811 108.853 23.6131C112.352 30.0299 119.473 34.108 126.792 34.1233C127.507 34.1233 128.228 34.0836 128.945 34.001C129.852 33.9002 130.501 33.0869 130.396 32.1912C130.294 31.2955 129.471 30.6535 128.565 30.7544C127.977 30.8216 127.383 30.8553 126.792 30.8553C120.732 30.8736 114.607 27.3488 111.77 22.0692C111.266 21.1552 110.916 20.0913 110.925 19.3117C110.929 18.8226 111.031 18.471 111.244 18.1623C111.448 17.8718 111.693 17.6884 112.061 17.5355C112.423 17.3858 112.915 17.3001 113.471 17.3001C114.251 17.2971 115.151 17.4713 115.934 17.7373C122.205 19.8436 127.123 25.8142 127.937 32.3074C128.051 33.2031 128.877 33.8359 129.784 33.7228C130.69 33.6097 131.331 32.7904 131.216 31.8947Z" fill="#100F0D"/>
<path d="M108.837 19.8528C116.051 23.5091 122.665 28.3301 128.333 34.0652C128.97 34.7103 130.016 34.7225 130.672 34.0927C131.324 33.4599 131.337 32.4266 130.696 31.7816C124.778 25.7928 117.883 20.7639 110.347 16.9456C109.533 16.5328 108.537 16.8508 108.123 17.6518C107.705 18.4558 108.027 19.4401 108.837 19.8528Z" fill="#100F0D"/>
<path d="M15.6039 9.85914C15.1677 10.5134 13.9983 11.7117 12.7516 12.7175C11.5173 13.7355 10.1005 14.616 9.41369 14.8238H9.41678C8.85066 15.0164 8.50417 15.2579 8.27834 15.3771L8.09274 15.4719L8.27834 15.9519V15.4474L8.09274 15.4719L8.27834 15.9519V15.4474V16.2637L8.65269 15.533L8.27834 15.4474V16.2637L8.65269 15.533H8.65578L8.45779 15.9182L8.85993 15.7165L8.65578 15.533L8.45779 15.9182L8.85993 15.7165H8.85683H8.86303H8.85993H8.85683H8.86303V15.6951V15.6798L7.45858 15.7104H8.86303V15.6798L7.45858 15.7104H8.86303C8.85684 15.6309 8.92183 15.3588 9.11982 14.9645C10.2521 12.528 12.9403 10.8985 15.805 8.86253C16.3866 8.44065 17.098 8.22663 17.7879 8.22663C18.8088 8.2358 19.6657 8.66074 20.1452 9.45558C20.405 9.8958 20.4855 10.2504 20.4886 10.6204C20.4948 11.2195 20.2133 11.9593 19.6379 12.7481C19.0749 13.5337 18.2582 14.3224 17.4322 14.995C15.1027 16.8995 12.6588 18.6635 10.1128 20.2807V20.2776C8.73311 21.1734 7.208 21.8796 6.14382 21.8551C5.55295 21.8429 5.08892 21.7145 4.51971 21.2651C3.74632 20.6445 3.31012 19.6295 3.30702 18.5137C3.30702 18.0704 3.37815 17.621 3.51736 17.1991C5.89012 9.90187 12.9527 4.39301 20.6123 3.30163L21.0733 3.26805C22.3292 3.26499 23.5265 4.01094 24.0029 5.12066L24.0802 5.54862C24.1112 6.22118 23.5419 7.62745 22.552 9.07651C21.5775 10.5409 20.2659 12.0908 19.0779 13.4298C18.4778 14.1085 18.5489 15.1418 19.2357 15.7348C19.9225 16.3279 20.9681 16.2607 21.5683 15.582C22.7902 14.2002 24.1854 12.5646 25.3114 10.8771C26.422 9.1743 27.3532 7.46541 27.3872 5.54862C27.3872 4.98 27.2851 4.3839 27.0376 3.8214C25.9858 1.44299 23.6007 0.00615736 21.0733 4.31941e-05C20.7608 4.31941e-05 20.4484 0.0244909 20.1359 0.0672901C11.2544 1.36655 3.22041 7.57855 0.371249 16.1934C0.123765 16.9485 0 17.7311 0 18.5137C0 20.458 0.770318 22.4482 2.42227 23.7933C3.54833 24.7196 4.89712 25.1323 6.14382 25.1231C8.42996 25.0956 10.3387 23.9951 11.8978 23.0321V23.029C14.5552 21.3446 17.1104 19.5011 19.5389 17.514C20.5041 16.7253 21.5126 15.7746 22.3324 14.6465C23.1398 13.5246 23.7894 12.1795 23.7956 10.6204C23.7987 9.67877 23.5357 8.69133 22.9882 7.78949C21.8467 5.87881 19.7802 4.94945 17.7879 4.95863C16.4175 4.95863 15.0285 5.37741 13.8529 6.22423C11.2512 8.14102 7.90713 9.93859 6.13144 13.5643C5.89014 14.0809 5.56532 14.781 5.55604 15.7104L5.55914 15.7562L7.21108 15.7165H5.55604C5.55913 16.224 5.66738 16.7222 5.91486 17.2052C6.15926 17.6791 6.56761 18.153 7.16157 18.4495L7.16467 18.4526C7.51115 18.6268 7.9164 18.7155 8.27834 18.7155C9.09504 18.6972 9.57763 18.3914 9.90555 18.2233C10.2273 18.0337 10.4377 17.9237 10.4593 17.9237H10.4624C11.9164 17.4254 13.4074 16.4013 14.8521 15.2396C16.2814 14.0687 17.559 12.8214 18.3448 11.6873C18.8552 10.9413 18.6572 9.92634 17.9024 9.41886C17.1444 8.91444 16.1174 9.11015 15.6039 9.85914Z" fill="#100F0D"/>
<path d="M179.302 39.9374C185.158 33.4717 194.436 30.7325 203.664 30.7386C204.966 30.7386 206.262 30.7906 207.546 30.8976C217.971 31.7352 228.109 35.4557 238.581 38.3171C253.492 42.383 271.159 44.6147 287.19 44.6147C297.581 44.6147 307.276 43.6823 315.128 41.6554C316.012 41.4292 316.541 40.5336 316.309 39.6623C316.08 38.788 315.177 38.2652 314.292 38.4945C306.843 40.4204 297.374 41.3498 287.19 41.3467C271.468 41.3498 254.024 39.1456 239.462 35.1683C229.173 32.3711 218.853 28.5436 207.815 27.6388C206.445 27.5287 205.059 27.4706 203.664 27.4706C193.823 27.4737 183.593 30.3474 176.843 37.7516C176.23 38.4242 176.289 39.4574 176.967 40.0596C177.647 40.6649 178.693 40.6069 179.302 39.9374Z" fill="#100F0D"/>
<path d="M350.051 21.7419C346.332 28.4277 340.646 35.7586 334.283 39.5371C331.774 41.0382 328.656 41.8605 325.655 41.8575C323.517 41.8575 321.448 41.4448 319.688 40.6224C317.921 39.7939 316.464 38.5803 315.443 36.9142C314.422 35.242 313.977 33.3985 313.974 31.4267C313.958 27.4433 315.901 22.9708 318.549 19.4858C322.574 14.1389 327.016 10.6416 330.824 5.42012C331.356 4.68642 331.186 3.66529 330.444 3.13947C329.701 2.61365 328.668 2.78186 328.136 3.51556C324.696 8.28461 320.235 11.8155 315.901 17.5292C312.947 21.4545 310.682 26.4283 310.667 31.4267C310.664 33.8907 311.242 36.3669 312.613 38.6047C313.995 40.8669 316 42.5208 318.274 43.5755C320.551 44.6363 323.094 45.1255 325.655 45.1255C329.256 45.1224 332.912 44.1656 335.991 42.3344C343.171 38.027 349.021 30.3231 352.946 23.3193C353.389 22.5275 353.098 21.5339 352.297 21.0998C351.498 20.6627 350.493 20.9501 350.051 21.7419Z" fill="#100F0D"/>
<path d="M293.726 44.5997C300.331 45.0705 306.614 49.6225 309.061 55.703C309.408 56.5529 309.64 57.5465 309.637 58.3749C309.637 58.861 309.559 59.2829 309.429 59.6039C309.296 59.9279 309.129 60.1542 308.869 60.356C308.535 60.6036 308.133 60.7259 307.558 60.732C306.787 60.7381 305.779 60.4538 304.894 60.0349C299.171 57.3906 295.211 51.1143 295.23 44.8718C295.23 44.5477 295.239 44.2237 295.261 43.9027C295.323 43.0009 294.63 42.2244 293.72 42.1632C292.808 42.1052 292.022 42.7869 291.963 43.6887C291.935 44.0831 291.923 44.4805 291.923 44.8718C291.945 52.4411 296.532 59.7262 303.483 62.9912C304.671 63.5384 306.057 63.9939 307.558 64C308.656 64.003 309.859 63.7218 310.874 62.9514C311.641 62.3767 312.186 61.6124 312.501 60.8145C312.823 60.0136 312.94 59.182 312.944 58.3749C312.94 56.9962 312.603 55.6603 312.13 54.4863C309.148 47.1952 301.909 41.9523 293.974 41.3409C293.064 41.2737 292.269 41.9492 292.201 42.848C292.133 43.7499 292.817 44.5325 293.726 44.5997Z" fill="#100F0D"/>
<path d="M310.147 61.1752C305.899 53.936 300.467 47.3847 294.116 41.8483C293.432 41.2491 292.387 41.3164 291.783 41.992C291.177 42.6676 291.245 43.7009 291.929 44.297C298.011 49.598 303.22 55.8834 307.285 62.8138C307.743 63.5933 308.758 63.8593 309.546 63.4069C310.335 62.9544 310.604 61.9547 310.147 61.1752Z" fill="#100F0D"/>
<path d="M275.957 40.6866C275.864 39.9804 275.818 39.2682 275.818 38.5559C275.805 32.7138 278.921 26.8044 283.842 23.5914C284.882 22.8975 286.234 22.3869 287.177 22.4053C287.759 22.4114 288.142 22.5429 288.489 22.8333C288.947 23.2154 289.213 23.9093 289.216 24.9365C289.216 25.5113 289.126 26.1472 288.981 26.7464C287.453 33.1357 281.535 38.4489 274.952 39.3446C274.048 39.4699 273.417 40.2984 273.547 41.1911C273.674 42.0838 274.512 42.7073 275.416 42.5789C283.425 41.4325 290.28 35.2787 292.195 27.5106C292.39 26.7097 292.523 25.8384 292.523 24.9365C292.529 23.3988 292.115 21.6227 290.654 20.3631C289.634 19.4796 288.35 19.1281 287.177 19.1372C285.234 19.1525 283.456 19.9382 282.014 20.8706C276.109 24.7561 272.523 31.5949 272.511 38.5559C272.511 39.4057 272.566 40.2587 272.678 41.1055C272.795 42.0012 273.624 42.634 274.531 42.5178C275.434 42.4017 276.075 41.5793 275.957 40.6866Z" fill="#100F0D"/>
<path d="M289.046 21.4268C282.732 27.006 277.346 33.5971 273.151 40.8669C272.7 41.6495 272.975 42.6492 273.77 43.0955C274.562 43.5418 275.573 43.2698 276.025 42.4841C280.041 35.5231 285.204 29.2071 291.248 23.8633C291.929 23.2611 291.988 22.2308 291.378 21.5583C290.769 20.8827 289.726 20.8277 289.046 21.4268Z" fill="#100F0D"/>
<path d="M243.255 40.5306C249.526 42.64 254.441 48.6074 255.252 55.1037C255.295 55.4522 255.32 55.816 255.32 56.1798C255.323 57.0266 255.178 57.8551 254.912 58.4451C254.636 59.0443 254.327 59.3623 253.878 59.5549L253.192 59.6863C252.378 59.7138 251.113 59.1024 250.113 58.2525C246.321 55.1374 244.112 50.1513 244.121 45.2324C244.121 43.5296 244.381 41.839 244.916 40.2371C245.204 39.3781 244.734 38.4549 243.868 38.1705C243.001 37.8893 242.064 38.3539 241.779 39.2099C241.124 41.1634 240.814 43.1995 240.814 45.2324C240.82 51.0929 243.379 56.941 247.991 60.7624C249.337 61.8507 251.069 62.9238 253.192 62.9543C253.835 62.9543 254.509 62.8382 255.153 62.5692C256.523 62.0097 257.442 60.903 257.943 59.7566C258.45 58.598 258.624 57.3629 258.627 56.1798C258.627 55.6724 258.593 55.1741 258.531 54.691C257.516 46.8924 251.852 40.014 244.329 37.4399C243.465 37.1465 242.525 37.6019 242.228 38.4548C241.931 39.3078 242.392 40.2371 243.255 40.5306Z" fill="#100F0D"/>
<path d="M254.905 60.6678C252.65 52.6062 249.068 44.9085 244.338 37.9659C243.827 37.2169 242.8 37.0182 242.042 37.5226C241.287 38.0271 241.086 39.042 241.597 39.791C246.123 46.4371 249.557 53.8169 251.719 61.5391C251.96 62.4103 252.873 62.9209 253.751 62.6794C254.633 62.4378 255.15 61.539 254.905 60.6678Z" fill="#100F0D"/>
<path d="M227.063 32.3074C227.88 25.8111 232.796 19.8436 239.066 17.7373C239.849 17.4713 240.749 17.2971 241.529 17.3001C242.086 17.3001 242.578 17.3858 242.943 17.5355C243.311 17.6884 243.552 17.8718 243.759 18.1623C243.97 18.468 244.072 18.8226 244.075 19.3117C244.084 20.0913 243.735 21.1552 243.23 22.0692C240.394 27.3488 234.268 30.8736 228.208 30.8553C227.617 30.8553 227.023 30.8216 226.435 30.7544C225.529 30.6535 224.706 31.2955 224.604 32.1912C224.499 33.0869 225.149 33.9002 226.055 34.001C226.773 34.0836 227.493 34.1233 228.208 34.1233C235.524 34.108 242.649 30.0299 246.148 23.61C246.806 22.3811 247.373 20.9198 247.382 19.3117C247.385 18.3212 247.137 17.2512 246.485 16.3127C245.891 15.4537 245.059 14.8545 244.192 14.5091C243.32 14.1575 242.414 14.0321 241.529 14.0321C240.288 14.0352 239.076 14.2798 237.993 14.6466C230.469 17.2176 224.805 24.096 223.784 31.8947C223.67 32.7904 224.31 33.6097 225.217 33.7228C226.123 33.8359 226.949 33.2031 227.063 32.3074Z" fill="#100F0D"/>
<path d="M244.653 16.9455C237.12 20.7638 230.222 25.7927 224.301 31.7815C223.663 32.4266 223.676 33.4598 224.328 34.0895C224.981 34.7224 226.03 34.7102 226.667 34.0651C232.334 28.3301 238.949 23.509 246.163 19.8528C246.976 19.4401 247.295 18.4557 246.88 17.6517C246.463 16.8507 245.467 16.5328 244.653 16.9455Z" fill="#100F0D"/>
<path d="M337.49 12.7236C338.737 13.5765 340.247 14.6832 341.497 15.6339C342.124 16.1108 342.688 16.548 343.121 16.8934C343.544 17.2297 343.879 17.511 343.909 17.5446L343.906 17.5416C344.519 18.1041 345.314 18.7063 346.573 18.746C346.981 18.746 347.427 18.6543 347.835 18.4495C348.429 18.153 348.838 17.6791 349.082 17.2052C349.329 16.7253 349.441 16.2301 349.444 15.7257V15.7165C349.438 14.7841 349.113 14.084 348.868 13.5643C348.123 12.0143 347.38 10.5898 346.124 9.29967C344.868 8.01264 343.179 6.96403 340.732 5.98576C339.544 5.51497 338.251 5.19096 336.927 5.18791C336.021 5.18791 335.09 5.34378 334.214 5.76566C333.342 6.17837 332.553 6.87542 332.009 7.79255C331.464 8.69133 331.198 9.67877 331.201 10.6204C331.207 12.1795 331.86 13.5246 332.668 14.6465C333.484 15.7746 334.496 16.7253 335.461 17.514C337.893 19.5011 340.448 21.3446 343.099 23.029C344.658 23.9981 346.57 25.0956 348.856 25.1231C350.103 25.1323 351.452 24.7196 352.578 23.7933C354.23 22.4482 355 20.458 355 18.5137C355 17.7311 354.876 16.9485 354.629 16.1934C351.776 7.56938 343.727 1.35126 334.839 0.06423C334.53 0.0214308 334.22 4.31941e-05 333.911 4.31941e-05C331.384 0.00310028 329.008 1.4491 327.962 3.8214C327.721 4.36556 327.613 4.94939 327.616 5.50884C327.653 7.39506 328.621 8.91138 329.688 10.4827C330.777 12.0449 332.089 13.6407 333.181 15.2671C333.688 16.0191 334.715 16.2209 335.476 15.7226C336.234 15.2212 336.442 14.2062 335.934 13.4573C334.725 11.6628 333.388 10.0364 332.411 8.63019C331.408 7.2331 330.883 6.03466 330.923 5.50884L330.997 5.1176C331.473 4.00788 332.664 3.26499 333.911 3.26805L334.363 3.29857C342.032 4.38384 349.11 9.8927 351.482 17.1991C351.622 17.6241 351.693 18.0704 351.693 18.5137C351.69 19.6295 351.254 20.6445 350.48 21.2681C349.911 21.7145 349.447 21.8429 348.856 21.8551C347.789 21.8796 346.267 21.1734 344.884 20.2776C342.344 18.6635 339.897 16.8995 337.568 14.995C336.742 14.3224 335.922 13.5337 335.359 12.7481C334.787 11.9593 334.502 11.2195 334.508 10.6204C334.514 10.2504 334.595 9.8958 334.855 9.45558C335.093 9.06733 335.34 8.86252 335.662 8.70355C335.984 8.54764 336.408 8.45591 336.927 8.45591C337.682 8.45285 338.61 8.66076 339.492 9.01538C341.688 9.89888 342.898 10.7059 343.746 11.5711C344.593 12.4362 345.159 13.4634 345.88 14.9645C346.078 15.3619 346.146 15.6339 346.137 15.7165V15.7073V15.7226L346.254 15.7501L346.159 15.6859L346.137 15.7226L346.254 15.7501L346.159 15.6859L346.564 15.9672L346.344 15.533L346.159 15.6859L346.564 15.9672L346.344 15.533L346.573 15.9824V15.478L346.344 15.533L346.573 15.9824V15.478V15.6492L346.623 15.4811L346.573 15.478V15.6492L346.623 15.4811L346.22 15.206L346.214 15.2029C345.976 14.9767 345.664 14.7229 345.196 14.3469C343.817 13.2525 341.351 11.3907 339.374 10.0364C338.623 9.52281 337.592 9.70627 337.073 10.4491C336.553 11.192 336.739 12.21 337.49 12.7236Z" fill="#100F0D"/>
</svg>
