<svg width="529" height="244" viewBox="0 0 529 244" fill="none" xmlns="http://www.w3.org/2000/svg">
<path fill-rule="evenodd" clip-rule="evenodd" d="M373.503 171.275C367.958 168.714 361.633 168.28 355.867 169.934C363.394 187.282 379.962 185.086 385.762 183.705C383.001 177.749 378.575 173.618 373.503 171.275ZM351.458 169.49L351.435 169.435C351.067 168.422 351.59 167.293 352.608 166.914C359.836 164.186 368.065 164.429 375.184 167.718C381.662 170.711 387.22 176.216 390.255 184.277C390.633 185.283 390.119 186.417 389.107 186.806L389.024 186.836C388.611 186.978 361.364 196.367 351.458 169.49Z" fill="#3D3F41"/>
<path fill-rule="evenodd" clip-rule="evenodd" d="M353.546 170.415C353.028 170.264 352.734 169.719 352.892 169.199C353.049 168.679 353.598 168.382 354.116 168.533C369.828 173.15 373.245 175.173 385.185 182.243L388.051 183.939C388.516 184.212 388.661 184.811 388.384 185.277C388.106 185.742 387.504 185.9 387.042 185.627L384.175 183.932C372.41 176.968 369.043 174.972 353.546 170.415Z" fill="#3D3F41"/>
<path fill-rule="evenodd" clip-rule="evenodd" d="M355.221 164.754C361.116 163.667 366.622 160.455 370.527 155.672C374.092 151.298 376.319 145.602 376.273 139.007C370.472 140.356 354.634 145.783 355.221 164.754ZM353.56 168.945C352.481 169.052 351.528 168.268 351.433 167.188L351.432 167.134C348.98 139.111 376.28 134.953 377.823 134.738L377.974 134.721C379.052 134.619 379.996 135.411 380.081 136.488C380.771 145.098 378.107 152.534 373.544 158.125C368.533 164.268 361.226 168.172 353.56 168.945Z" fill="#3D3F41"/>
<path fill-rule="evenodd" clip-rule="evenodd" d="M354.239 166.807C353.838 167.175 353.216 167.155 352.852 166.755C352.487 166.359 352.519 165.737 352.92 165.368C364.928 154.346 367.114 151.044 374.747 139.511L376.61 136.705C376.912 136.253 377.518 136.123 377.97 136.419C378.421 136.712 378.54 137.32 378.242 137.772L376.382 140.581C368.638 152.274 366.419 155.623 354.239 166.807Z" fill="#3D3F41"/>
<path fill-rule="evenodd" clip-rule="evenodd" d="M410.392 155.4C404.297 154.763 398.145 156.386 393.193 159.797C405.918 173.731 420.964 166.352 426.039 163.19C421.5 158.459 415.966 155.982 410.392 155.4ZM388.854 160.791L388.821 160.751C388.14 159.918 388.273 158.686 389.116 157.996C395.118 153.101 403.027 150.688 410.858 151.505C417.977 152.25 425.028 155.656 430.502 162.284C431.186 163.113 431.06 164.349 430.222 165.044L430.159 165.093C430.092 165.145 407.008 183.105 388.854 160.791Z" fill="#3D3F41"/>
<path fill-rule="evenodd" clip-rule="evenodd" d="M391.133 160.991C390.595 161.011 390.142 160.592 390.128 160.055C390.111 159.513 390.539 159.059 391.08 159.038C407.512 158.352 411.408 159.162 425.025 161.994L428.291 162.673C428.822 162.781 429.156 163.296 429.042 163.827C428.929 164.355 428.408 164.7 427.879 164.59L424.606 163.911C411.171 161.119 407.323 160.317 391.133 160.991Z" fill="#3D3F41"/>
<path fill-rule="evenodd" clip-rule="evenodd" d="M390.913 155.125C396.167 152.207 400.374 147.407 402.55 141.641C404.54 136.374 404.829 130.293 402.674 124.087C397.581 127.225 384.266 137.429 390.913 155.125ZM390.682 159.599C389.693 160.05 388.536 159.613 388.101 158.633L388.075 158.577C376.442 132.218 402.762 119.553 402.838 119.516L402.915 119.482C403.911 119.044 405.065 119.49 405.49 120.477C408.909 128.376 408.76 136.246 406.216 142.987C403.422 150.386 397.726 156.406 390.682 159.599Z" fill="#3D3F41"/>
<path fill-rule="evenodd" clip-rule="evenodd" d="M390.635 157.368C390.373 157.845 389.777 158.02 389.304 157.762C388.831 157.507 388.663 156.912 388.927 156.436C396.81 142.182 397.829 138.366 401.39 125.037L402.256 121.802C402.395 121.278 402.932 120.963 403.452 121.096C403.977 121.224 404.284 121.759 404.148 122.28L403.282 125.518C399.667 139.041 398.635 142.909 390.635 157.368Z" fill="#3D3F41"/>
<path fill-rule="evenodd" clip-rule="evenodd" d="M439.196 134.345C433.057 134.639 427.211 137.169 422.821 141.284C437.533 153.108 451.323 143.545 455.869 139.655C450.659 135.678 444.803 134.074 439.196 134.345ZM418.676 142.924L418.635 142.886C417.84 142.167 417.785 140.933 418.514 140.126C423.718 134.383 431.186 130.805 439.057 130.427C446.22 130.082 453.715 132.377 460.142 138.087C460.944 138.8 461.01 140.032 460.291 140.846L460.228 140.912C460.174 140.973 440.035 162.185 418.676 142.924Z" fill="#3D3F41"/>
<path fill-rule="evenodd" clip-rule="evenodd" d="M420.963 142.776C420.431 142.878 419.922 142.528 419.824 142C419.727 141.467 420.083 140.951 420.616 140.852C436.781 137.689 440.766 137.901 454.688 138.629L458.026 138.805C458.565 138.835 458.974 139.3 458.938 139.839C458.9 140.376 458.434 140.793 457.893 140.763L454.556 140.589C440.831 139.866 436.903 139.658 420.963 142.776Z" fill="#3D3F41"/>
<path fill-rule="evenodd" clip-rule="evenodd" d="M419.856 137.023C424.622 133.348 428.062 127.975 429.345 121.957C430.516 116.459 429.881 110.41 426.801 104.613C422.231 108.485 410.594 120.569 419.856 137.023ZM420.301 141.467C419.392 142.057 418.183 141.803 417.604 140.901L417.572 140.855C402.564 117.399 424.688 101.211 426.193 100.146L426.345 100.04C427.261 99.4566 428.471 99.7184 429.047 100.628C433.627 107.904 434.674 115.688 433.173 122.721C431.526 130.448 426.795 137.252 420.301 141.467Z" fill="#3D3F41"/>
<path fill-rule="evenodd" clip-rule="evenodd" d="M419.924 139.272C419.736 139.781 419.173 140.047 418.665 139.866C418.159 139.684 417.901 139.125 418.088 138.615C423.737 123.365 424.168 119.448 425.676 105.748L426.045 102.422C426.106 101.885 426.589 101.49 427.127 101.545C427.665 101.595 428.053 102.075 427.991 102.614L427.627 105.941C426.097 119.817 425.658 123.79 419.924 139.272Z" fill="#3D3F41"/>
<path fill-rule="evenodd" clip-rule="evenodd" d="M464.836 103.349C459.097 105.596 454.35 109.856 451.497 115.147C469.279 121.574 479.318 108.141 482.396 103.017C476.161 100.933 470.078 101.295 464.836 103.349ZM448.075 118.027L448.025 118.009C447.032 117.585 446.585 116.434 447.019 115.438C450.127 108.352 456.085 102.584 463.453 99.6993C470.16 97.0752 478.029 96.8296 485.966 100.148C486.965 100.565 487.423 101.714 486.995 102.716L486.912 102.891C486.05 104.649 473.66 128.951 448.075 118.027Z" fill="#3D3F41"/>
<path fill-rule="evenodd" clip-rule="evenodd" d="M450.208 117.15C449.736 117.417 449.141 117.255 448.876 116.789C448.614 116.319 448.782 115.724 449.253 115.452C463.623 107.277 467.479 106.197 480.946 102.423L484.176 101.517C484.696 101.372 485.234 101.673 485.374 102.192C485.517 102.712 485.208 103.252 484.688 103.4L481.448 104.313C468.159 108.034 464.355 109.1 450.208 117.15Z" fill="#3D3F41"/>
<path fill-rule="evenodd" clip-rule="evenodd" d="M447.306 112.077C450.657 107.078 452.202 100.911 451.492 94.8262C450.841 89.2611 448.297 83.7635 443.512 79.2862C440.409 84.4033 433.222 99.5297 447.306 112.077ZM449.161 116.132C448.486 116.987 447.253 117.136 446.407 116.471L446.358 116.432C424.489 99.0697 440.503 76.617 441.508 75.2563L441.607 75.1211C442.294 74.2746 443.526 74.1323 444.366 74.8069C451.061 80.1967 454.554 87.2089 455.387 94.3228C456.297 102.139 453.983 110.074 449.161 116.132Z" fill="#3D3F41"/>
<path fill-rule="evenodd" clip-rule="evenodd" d="M448.092 114.185C448.076 114.727 447.622 115.159 447.082 115.147C446.54 115.137 446.116 114.69 446.132 114.148C446.613 97.9467 445.765 94.1117 442.804 80.716L442.088 77.463C441.972 76.9367 442.307 76.4093 442.833 76.2878C443.362 76.1663 443.884 76.4931 444.001 77.0194L444.718 80.274C447.721 93.8631 448.578 97.7507 448.092 114.185Z" fill="#3D3F41"/>
<path fill-rule="evenodd" clip-rule="evenodd" d="M465.297 71.8065C462.832 77.4631 462.515 83.8042 464.271 89.4988C481.463 81.2392 478.98 64.7769 477.499 59.0363C471.596 62.0478 467.543 66.6454 465.297 71.8065ZM463.904 93.9258L463.851 93.9491C462.847 94.3625 461.709 93.8885 461.308 92.8895C458.451 85.7798 458.549 77.5421 461.707 70.2886C464.585 63.6804 469.986 57.8875 477.987 54.5117C478.989 54.0901 480.134 54.5542 480.543 55.5516L480.572 55.6269L480.575 55.6236C480.603 55.7039 490.764 82.8121 463.904 93.9258Z" fill="#3D3F41"/>
<path fill-rule="evenodd" clip-rule="evenodd" d="M464.388 91.4764C464.123 91.9542 463.526 92.127 463.053 91.8656C462.583 91.6074 462.413 91.0109 462.678 90.5364C462.708 90.4869 472.385 73.2518 477.401 57.0157C477.56 56.4976 478.109 56.2003 478.625 56.353C479.141 56.5058 479.43 57.0524 479.269 57.5689C474.185 74.0271 464.417 91.4253 464.388 91.4764Z" fill="#3D3F41"/>
<path fill-rule="evenodd" clip-rule="evenodd" d="M287.209 164.226C286.237 163.762 285.832 162.597 286.304 161.616C286.778 160.639 287.953 160.218 288.924 160.68C296.471 164.242 304.402 166.666 312.431 167.941C320.545 169.229 328.742 169.338 336.738 168.271C337.81 168.126 338.787 168.878 338.916 169.95C339.048 171.019 338.286 172.006 337.212 172.151C328.817 173.275 320.234 173.16 311.768 171.815C303.39 170.488 295.108 167.955 287.209 164.226Z" fill="#3D3F41"/>
<path fill-rule="evenodd" clip-rule="evenodd" d="M462.354 89.3528C462.851 88.3893 464.034 88.0027 464.992 88.4877C465.947 88.9743 466.321 90.1509 465.823 91.1161C457.503 107.098 443.733 127.05 421.555 143.203C399.391 159.343 368.852 171.691 327.016 172.478C325.937 172.496 325.057 171.633 325.052 170.555C325.048 169.476 325.922 168.582 327.002 168.566C367.892 167.798 397.687 155.769 419.278 140.043C440.853 124.329 454.259 104.912 462.354 89.3528Z" fill="#3D3F41"/>
<path fill-rule="evenodd" clip-rule="evenodd" d="M329.113 160.953C324.413 164.963 318.427 167.138 312.446 167.141C315.305 148.329 331.833 145.848 337.776 145.569C336.625 152.077 333.409 157.29 329.113 160.953ZM308.311 168.792L308.301 168.854C308.204 169.93 308.994 170.872 310.071 170.958C317.734 171.584 325.608 169.066 331.636 163.919C337.122 159.235 341.084 152.386 341.968 143.77C342.074 142.694 341.292 141.744 340.219 141.652L340.13 141.642C339.697 141.622 311.043 140.131 308.311 168.792Z" fill="#3D3F41"/>
<path fill-rule="evenodd" clip-rule="evenodd" d="M310.086 167.32C309.626 167.61 309.481 168.215 309.767 168.673C310.048 169.13 310.653 169.269 311.116 168.978C325.092 160.166 327.875 157.265 337.593 147.136L339.925 144.71C340.303 144.315 340.294 143.698 339.909 143.326C339.522 142.952 338.901 142.969 338.526 143.36L336.193 145.788C326.613 155.769 323.872 158.628 310.086 167.32Z" fill="#3D3F41"/>
<path fill-rule="evenodd" clip-rule="evenodd" d="M313.138 172.313C319.098 171.724 325.221 173.297 330.197 176.826C334.748 180.052 338.336 184.926 339.968 191.296C334.031 191.607 317.388 190.767 313.138 172.313ZM310.474 168.733C309.407 168.932 308.687 169.95 308.869 171.017L308.88 171.071C313.626 198.771 341.003 195.205 342.545 194.982L342.694 194.96C343.758 194.758 344.467 193.732 344.279 192.673C342.759 184.178 338.302 177.744 332.486 173.62C326.097 169.088 318.065 167.353 310.474 168.733Z" fill="#3D3F41"/>
<path fill-rule="evenodd" clip-rule="evenodd" d="M311.67 170.607C311.189 170.364 310.597 170.558 310.348 171.039C310.097 171.525 310.284 172.115 310.761 172.358C325.138 179.655 328.083 182.232 338.369 191.233L340.873 193.423C341.279 193.777 341.898 193.735 342.261 193.324C342.618 192.914 342.582 192.294 342.175 191.94L339.669 189.751C329.24 180.624 326.252 178.009 311.67 170.607Z" fill="#3D3F41"/>
<path fill-rule="evenodd" clip-rule="evenodd" d="M428.834 134.253C428.233 134.25 427.755 133.759 427.762 133.158C427.777 132.558 428.275 132.074 428.874 132.075C437.485 132.126 447.18 131.053 456.852 127.885C464.757 125.299 472.653 121.307 479.938 115.376C480.407 114.995 481.095 115.062 481.471 115.527C481.849 115.991 481.771 116.68 481.304 117.062C473.797 123.172 465.656 127.286 457.503 129.953C447.579 133.203 437.647 134.303 428.834 134.253Z" fill="#3D3F41"/>
<path fill-rule="evenodd" clip-rule="evenodd" d="M489.004 109.414C487.877 108.985 486.525 109.188 485.323 110.485C484.083 111.816 483.723 113.054 483.9 114.084C484.003 114.683 484.287 115.228 484.68 115.693C485.097 116.18 485.632 116.576 486.213 116.849C487.247 117.339 488.404 117.435 489.241 116.964L489.294 116.931C491.222 115.773 491.833 114.203 491.635 112.792C491.533 112.039 491.205 111.318 490.738 110.722C490.274 110.132 489.671 109.668 489.004 109.414ZM483.733 109.007C485.653 106.943 487.891 106.646 489.8 107.372C490.833 107.764 491.757 108.476 492.46 109.368C493.154 110.254 493.635 111.33 493.797 112.47C494.099 114.681 493.224 117.093 490.402 118.792L490.323 118.839C488.824 119.698 486.905 119.597 485.268 118.825C484.415 118.425 483.629 117.841 483.016 117.119C482.38 116.374 481.925 115.479 481.752 114.477C481.467 112.813 481.959 110.914 483.733 109.007Z" fill="#3D3F41"/>
<path fill-rule="evenodd" clip-rule="evenodd" d="M485.935 114.784C486.073 115.011 486.001 115.309 485.773 115.451C485.546 115.594 485.247 115.524 485.109 115.296C485.106 115.293 484.219 113.827 485.68 111.978C487.05 110.242 488.133 110.083 488.136 110.086C488.399 110.038 488.649 110.213 488.69 110.475C488.735 110.737 488.554 110.986 488.291 111.034C488.29 111.036 487.571 111.134 486.44 112.569C485.397 113.889 485.933 114.782 485.935 114.784Z" fill="#3D3F41"/>
<path fill-rule="evenodd" clip-rule="evenodd" d="M457.181 103.723C456.647 104.005 455.992 103.809 455.712 103.279C455.435 102.747 455.646 102.089 456.178 101.805C463.821 97.7418 471.891 92.1853 478.942 84.8109C484.701 78.7809 489.788 71.5302 493.408 62.8783C493.641 62.3219 494.281 62.0537 494.835 62.2801C495.392 62.5065 495.652 63.1436 495.419 63.7C491.688 72.6136 486.447 80.0869 480.502 86.3052C473.269 93.8711 465.004 99.5685 457.181 103.723Z" fill="#3D3F41"/>
<path fill-rule="evenodd" clip-rule="evenodd" d="M496.122 53.7636C494.921 53.927 493.821 54.7498 493.375 56.4518C492.915 58.2049 493.184 59.4593 493.833 60.2762C494.207 60.7467 494.721 61.0883 495.293 61.3064C495.89 61.5342 496.551 61.627 497.197 61.5886C498.347 61.5191 499.417 61.056 499.937 60.2417L499.964 60.189C501.117 58.256 500.907 56.5958 500.064 55.4583C499.614 54.8503 498.982 54.3764 498.281 54.0786C497.592 53.7857 496.834 53.6656 496.122 53.7636ZM491.264 55.9231C491.978 53.2047 493.821 51.8782 495.853 51.6013C496.956 51.4549 498.112 51.6333 499.16 52.0767C500.198 52.5169 501.138 53.2286 501.822 54.1471C503.146 55.9334 503.521 58.4563 501.832 61.2841L501.784 61.3649C500.869 62.8285 499.12 63.6569 497.303 63.7634C496.359 63.8201 495.385 63.6849 494.497 63.3456C493.581 62.9983 492.751 62.4353 492.118 61.6413C491.074 60.3261 490.606 58.431 491.264 55.9231Z" fill="#3D3F41"/>
<path fill-rule="evenodd" clip-rule="evenodd" d="M495.967 59.9171C496.198 60.0486 496.278 60.3437 496.142 60.5744C496.01 60.8083 495.712 60.8907 495.483 60.7574C495.478 60.7558 493.994 59.8997 494.406 57.5887C494.792 55.4175 495.674 54.7635 495.676 54.7619C495.885 54.598 496.191 54.6322 496.35 54.8414C496.515 55.0489 496.475 55.3529 496.267 55.5184C496.264 55.5217 495.677 55.9489 495.359 57.7421C495.066 59.3923 495.966 59.9155 495.967 59.9171Z" fill="#3D3F41"/>
<path fill-rule="evenodd" clip-rule="evenodd" d="M452.985 102.484C453.031 103.082 453.554 103.528 454.152 103.479C454.751 103.428 455.203 102.901 455.159 102.302C454.542 93.7189 454.978 83.9816 457.502 74.1314C459.566 66.0785 463.031 57.9431 468.475 50.2896C468.826 49.7949 468.714 49.1142 468.225 48.7708C467.735 48.4258 467.056 48.5466 466.705 49.0413C461.099 56.9256 457.522 65.3129 455.393 73.619C452.804 83.7242 452.357 93.7012 452.985 102.484Z" fill="#3D3F41"/>
<path fill-rule="evenodd" clip-rule="evenodd" d="M474.798 43.1477C475.302 44.243 475.183 45.6048 473.972 46.888C472.721 48.2109 471.51 48.6518 470.47 48.5433C469.866 48.4814 469.301 48.2336 468.812 47.8705C468.297 47.4879 467.865 46.9833 467.555 46.422C467 45.4206 466.825 44.274 467.241 43.4045L467.269 43.3535C468.302 41.3539 469.829 40.6434 471.25 40.7463C472.008 40.8007 472.749 41.0753 473.375 41.5065C473.994 41.9279 474.5 42.4994 474.798 43.1477ZM475.549 48.3757C477.484 46.3262 477.634 44.0743 476.784 42.2226C476.32 41.2141 475.552 40.3404 474.616 39.7009C473.684 39.0631 472.578 38.6546 471.428 38.5714C469.199 38.4111 466.848 39.4436 465.339 42.3688L465.296 42.4512C464.539 44.0041 464.766 45.9089 465.644 47.4944C466.1 48.3142 466.734 49.0606 467.496 49.6239C468.281 50.2069 469.207 50.605 470.215 50.7105C471.895 50.8873 473.762 50.2699 475.549 48.3757Z" fill="#3D3F41"/>
<path fill-rule="evenodd" clip-rule="evenodd" d="M469.632 46.5604C469.398 46.4354 469.104 46.5276 468.981 46.7648C468.855 47.002 468.941 47.2937 469.177 47.417C469.18 47.4203 470.704 48.2072 472.452 46.6284C474.099 45.1488 474.182 44.0597 474.182 44.0564C474.214 43.7902 474.021 43.555 473.756 43.5304C473.491 43.5041 473.254 43.6993 473.223 43.9655C473.224 43.9671 473.174 44.6866 471.812 45.9116C470.563 47.039 469.635 46.5604 469.632 46.5604Z" fill="#3D3F41"/>
<path fill-rule="evenodd" clip-rule="evenodd" d="M406.864 147.437C406.906 148.038 407.429 148.481 408.028 148.43C408.628 148.382 409.081 147.854 409.037 147.255C408.422 138.673 408.851 128.936 411.378 119.086C413.443 111.033 416.909 102.896 422.35 95.2457C422.701 94.751 422.591 94.072 422.102 93.7253C421.613 93.3819 420.929 93.501 420.58 93.9941C414.972 101.88 411.398 110.267 409.272 118.572C406.679 128.68 406.233 138.652 406.864 147.437Z" fill="#3D3F41"/>
<path fill-rule="evenodd" clip-rule="evenodd" d="M428.676 88.1014C429.177 89.1967 429.062 90.5585 427.849 91.8434C426.598 93.1662 425.385 93.6088 424.344 93.497C423.742 93.4367 423.177 93.189 422.687 92.8242C422.176 92.4448 421.744 91.9369 421.43 91.3757C420.878 90.3743 420.7 89.2277 421.116 88.3616L421.147 88.3072C422.179 86.3092 423.707 85.6003 425.128 85.6999C425.886 85.7543 426.624 86.0322 427.253 86.4601C427.874 86.8832 428.376 87.4547 428.676 88.1014ZM429.425 93.331C431.359 91.2831 431.511 89.0263 430.659 87.1763C430.197 86.1694 429.431 85.2941 428.494 84.6546C427.56 84.0185 426.453 83.6083 425.306 83.525C423.079 83.3664 420.726 84.4005 419.216 87.3208L419.176 87.4065C418.414 88.9578 418.642 90.8642 419.521 92.4464C419.975 93.2711 420.611 94.0159 421.373 94.5793C422.159 95.1638 423.081 95.5604 424.095 95.6658C425.772 95.8393 427.639 95.2219 429.425 93.331Z" fill="#3D3F41"/>
<path fill-rule="evenodd" clip-rule="evenodd" d="M423.511 91.5134C423.277 91.3885 422.983 91.4838 422.857 91.7177C422.73 91.9549 422.821 92.25 423.056 92.3733C423.058 92.3749 424.581 93.1618 426.332 91.5846C427.974 90.1018 428.062 89.0127 428.062 89.0094C428.091 88.7449 427.9 88.5112 427.635 88.4833C427.369 88.4587 427.13 88.6523 427.103 88.9201C427.102 88.9217 427.051 89.6412 425.691 90.8678C424.441 91.9937 423.513 91.5151 423.511 91.5134Z" fill="#3D3F41"/>
<path fill-rule="evenodd" clip-rule="evenodd" d="M367.024 165.631C366.512 165.327 366.345 164.658 366.658 164.142C366.97 163.625 367.64 163.452 368.155 163.756C375.521 168.128 384.379 172.07 394.27 174.176C402.357 175.899 411.141 176.393 420.374 174.895C420.969 174.796 421.526 175.201 421.615 175.795C421.706 176.389 421.296 176.95 420.701 177.045C411.186 178.593 402.128 178.079 393.79 176.303C383.639 174.141 374.563 170.108 367.024 165.631Z" fill="#3D3F41"/>
<path fill-rule="evenodd" clip-rule="evenodd" d="M429.545 172.372C428.794 171.432 427.529 170.931 425.848 171.454C424.114 171.99 423.181 172.887 422.814 173.874C422.603 174.444 422.571 175.063 422.678 175.665C422.79 176.3 423.046 176.912 423.409 177.443C424.053 178.388 424.995 179.056 425.955 179.068L426.014 179.064C428.251 179.024 429.563 177.964 430.104 176.639C430.393 175.929 430.478 175.142 430.374 174.384C430.272 173.638 429.989 172.929 429.545 172.372ZM425.224 169.369C427.908 168.538 429.982 169.405 431.251 170.995C431.943 171.859 432.38 172.94 432.532 174.071C432.684 175.191 432.559 176.371 432.12 177.445C431.272 179.524 429.306 181.183 426.029 181.243L425.937 181.24C424.219 181.238 422.622 180.185 421.605 178.689C421.075 177.911 420.693 177.01 420.529 176.071C420.358 175.103 420.417 174.094 420.776 173.135C421.363 171.545 422.745 170.138 425.224 169.369Z" fill="#3D3F41"/>
<path fill-rule="evenodd" clip-rule="evenodd" d="M424.211 175.506C424.215 175.772 424.004 175.997 423.738 176.005C423.47 176.015 423.25 175.805 423.243 175.537C423.243 175.534 423.219 173.812 425.404 172.936C427.451 172.112 428.46 172.52 428.463 172.523C428.711 172.612 428.837 172.89 428.742 173.142C428.645 173.392 428.367 173.52 428.119 173.428C428.116 173.428 427.451 173.153 425.758 173.832C424.197 174.459 424.212 175.505 424.211 175.506Z" fill="#3D3F41"/>
<path fill-rule="evenodd" clip-rule="evenodd" d="M155.497 171.275C161.042 168.714 167.367 168.28 173.133 169.934C165.606 187.282 149.038 185.086 143.238 183.705C145.999 177.749 150.425 173.618 155.497 171.275ZM177.542 169.49L177.565 169.435C177.933 168.422 177.41 167.293 176.392 166.914C169.164 164.186 160.935 164.429 153.816 167.718C147.338 170.711 141.78 176.216 138.745 184.277C138.367 185.283 138.881 186.417 139.893 186.806L139.976 186.836C140.389 186.978 167.636 196.367 177.542 169.49Z" fill="#3D3F41"/>
<path fill-rule="evenodd" clip-rule="evenodd" d="M175.454 170.415C175.972 170.264 176.266 169.719 176.108 169.199C175.951 168.679 175.402 168.382 174.884 168.533C159.172 173.15 155.755 175.173 143.815 182.243L140.949 183.939C140.484 184.212 140.339 184.811 140.616 185.277C140.894 185.742 141.496 185.9 141.958 185.627L144.825 183.932C156.59 176.968 159.957 174.972 175.454 170.415Z" fill="#3D3F41"/>
<path fill-rule="evenodd" clip-rule="evenodd" d="M173.779 164.754C167.884 163.667 162.378 160.455 158.473 155.672C154.908 151.298 152.681 145.602 152.727 139.007C158.528 140.356 174.366 145.783 173.779 164.754ZM175.44 168.945C176.519 169.052 177.472 168.268 177.567 167.188L177.568 167.134C180.02 139.111 152.72 134.953 151.177 134.738L151.026 134.721C149.948 134.619 149.004 135.411 148.919 136.488C148.229 145.098 150.893 152.534 155.456 158.125C160.467 164.268 167.774 168.172 175.44 168.945Z" fill="#3D3F41"/>
<path fill-rule="evenodd" clip-rule="evenodd" d="M174.761 166.807C175.162 167.175 175.784 167.155 176.148 166.755C176.513 166.359 176.481 165.737 176.08 165.368C164.072 154.346 161.886 151.044 154.253 139.511L152.39 136.705C152.088 136.253 151.482 136.123 151.03 136.419C150.579 136.712 150.46 137.32 150.758 137.772L152.618 140.581C160.362 152.274 162.581 155.623 174.761 166.807Z" fill="#3D3F41"/>
<path fill-rule="evenodd" clip-rule="evenodd" d="M118.608 155.4C124.703 154.763 130.855 156.386 135.807 159.797C123.082 173.731 108.036 166.352 102.961 163.19C107.5 158.459 113.034 155.982 118.608 155.4ZM140.146 160.791L140.179 160.751C140.86 159.918 140.727 158.686 139.884 157.996C133.882 153.101 125.973 150.688 118.142 151.505C111.023 152.25 103.972 155.656 98.4981 162.284C97.8137 163.113 97.9396 164.349 98.7779 165.044L98.8406 165.093C98.9082 165.145 121.992 183.105 140.146 160.791Z" fill="#3D3F41"/>
<path fill-rule="evenodd" clip-rule="evenodd" d="M137.867 160.991C138.405 161.011 138.858 160.592 138.872 160.055C138.889 159.513 138.461 159.059 137.92 159.038C121.488 158.352 117.592 159.162 103.975 161.994L100.709 162.673C100.178 162.781 99.8442 163.296 99.9575 163.827C100.071 164.355 100.592 164.7 101.121 164.59L104.394 163.911C117.829 161.119 121.677 160.317 137.867 160.991Z" fill="#3D3F41"/>
<path fill-rule="evenodd" clip-rule="evenodd" d="M138.087 155.125C132.833 152.207 128.626 147.407 126.45 141.641C124.46 136.374 124.171 130.293 126.326 124.087C131.419 127.225 144.734 137.429 138.087 155.125ZM138.318 159.599C139.307 160.05 140.464 159.613 140.899 158.633L140.925 158.577C152.558 132.218 126.238 119.553 126.162 119.516L126.085 119.482C125.089 119.044 123.935 119.49 123.51 120.477C120.091 128.376 120.24 136.246 122.784 142.987C125.578 150.386 131.274 156.406 138.318 159.599Z" fill="#3D3F41"/>
<path fill-rule="evenodd" clip-rule="evenodd" d="M138.365 157.368C138.627 157.845 139.223 158.02 139.696 157.762C140.169 157.507 140.337 156.912 140.073 156.436C132.19 142.182 131.171 138.366 127.61 125.037L126.744 121.802C126.605 121.278 126.068 120.963 125.548 121.096C125.023 121.224 124.716 121.759 124.852 122.28L125.718 125.518C129.333 139.041 130.365 142.909 138.365 157.368Z" fill="#3D3F41"/>
<path fill-rule="evenodd" clip-rule="evenodd" d="M89.8041 134.345C95.9432 134.639 101.789 137.169 106.179 141.284C91.4667 153.108 77.6768 143.545 73.1311 139.655C78.3408 135.678 84.1972 134.074 89.8041 134.345ZM110.324 142.924L110.365 142.886C111.16 142.167 111.215 140.933 110.486 140.126C105.282 134.383 97.8142 130.805 89.9425 130.427C82.7803 130.082 75.2846 132.377 68.8576 138.087C68.0558 138.8 67.9896 140.032 68.7088 140.846L68.7716 140.912C68.8262 140.973 88.9648 162.185 110.324 142.924Z" fill="#3D3F41"/>
<path fill-rule="evenodd" clip-rule="evenodd" d="M108.037 142.776C108.569 142.878 109.078 142.528 109.176 142C109.273 141.467 108.917 140.951 108.384 140.852C92.219 137.689 88.2339 137.901 74.3123 138.629L70.9738 138.805C70.4355 138.835 70.0262 139.3 70.0624 139.839C70.1002 140.376 70.5658 140.793 71.1074 140.763L74.4442 140.589C88.1688 139.866 92.0965 139.658 108.037 142.776Z" fill="#3D3F41"/>
<path fill-rule="evenodd" clip-rule="evenodd" d="M109.144 137.023C104.378 133.348 100.938 127.975 99.6543 121.957C98.4842 116.459 99.1184 110.41 102.199 104.613C106.769 108.485 118.405 120.569 109.144 137.023ZM108.698 141.467C109.608 142.057 110.817 141.803 111.396 140.901L111.428 140.855C126.436 117.399 104.312 101.211 102.807 100.146L102.655 100.04C101.738 99.4566 100.528 99.7184 99.9527 100.628C95.3726 107.904 94.3256 115.688 95.827 122.721C97.4739 130.448 102.205 137.252 108.698 141.467Z" fill="#3D3F41"/>
<path fill-rule="evenodd" clip-rule="evenodd" d="M109.076 139.272C109.264 139.781 109.827 140.047 110.335 139.866C110.841 139.684 111.099 139.125 110.912 138.615C105.263 123.365 104.832 119.448 103.324 105.748L102.955 102.422C102.894 101.885 102.411 101.49 101.873 101.545C101.335 101.595 100.947 102.075 101.009 102.614L101.373 105.941C102.903 119.817 103.342 123.79 109.076 139.272Z" fill="#3D3F41"/>
<path fill-rule="evenodd" clip-rule="evenodd" d="M64.1642 103.349C69.9033 105.596 74.6499 109.856 77.5032 115.147C59.7207 121.574 49.6815 108.141 46.6042 103.017C52.8386 100.933 58.9223 101.295 64.1642 103.349ZM80.9246 118.027L80.9754 118.009C81.9677 117.585 82.4154 116.434 81.9807 115.438C78.8733 108.352 72.9155 102.584 65.5471 99.6993C58.8404 97.0752 50.9711 96.8296 43.0336 100.148C42.0346 100.565 41.5771 101.714 42.0052 102.716L42.0884 102.891C42.9497 104.649 55.3398 128.951 80.9246 118.027Z" fill="#3D3F41"/>
<path fill-rule="evenodd" clip-rule="evenodd" d="M78.7914 117.15C79.2642 117.417 79.8592 117.255 80.124 116.789C80.3854 116.319 80.2175 115.724 79.7463 115.452C65.3772 107.277 61.5204 106.197 48.0537 102.423L44.8235 101.517C44.3037 101.372 43.7654 101.673 43.6258 102.192C43.4829 102.712 43.7916 103.252 44.3113 103.4L47.5514 104.313C60.8405 108.034 64.6447 109.1 78.7914 117.15Z" fill="#3D3F41"/>
<path fill-rule="evenodd" clip-rule="evenodd" d="M81.6939 112.077C78.3432 107.078 76.7978 100.911 77.5073 94.8262C78.1592 89.2611 80.703 83.7635 85.4876 79.2862C88.5911 84.4033 95.7773 99.5297 81.6939 112.077ZM79.839 116.132C80.5141 116.987 81.7465 117.136 82.5928 116.471L82.6418 116.432C104.511 99.0697 88.497 76.617 87.492 75.2563L87.3926 75.1211C86.706 74.2746 85.4738 74.1323 84.634 74.8069C77.939 80.1967 74.4458 87.2089 73.613 94.3228C72.7024 102.139 75.0172 110.074 79.839 116.132Z" fill="#3D3F41"/>
<path fill-rule="evenodd" clip-rule="evenodd" d="M80.9076 114.185C80.924 114.727 81.3782 115.159 81.9183 115.147C82.4601 115.137 82.8842 114.69 82.8677 114.148C82.3867 97.9467 83.2348 94.1117 86.1961 80.716L86.9116 77.463C87.0282 76.9367 86.6932 76.4093 86.1671 76.2878C85.6377 76.1663 85.116 76.4931 84.9993 77.0194L84.2822 80.274C81.2795 93.8631 80.4219 97.7507 80.9076 114.185Z" fill="#3D3F41"/>
<path fill-rule="evenodd" clip-rule="evenodd" d="M63.7035 71.8065C66.1683 77.4631 66.4849 83.8042 64.7289 89.4988C47.5369 81.2392 50.0195 64.7769 51.5011 59.0363C57.4041 62.0478 61.4567 66.6454 63.7035 71.8065ZM65.0961 93.9258L65.1488 93.9491C66.1529 94.3625 67.291 93.8885 67.692 92.8895C70.5492 85.7798 70.4507 77.5421 67.293 70.2886C64.4151 63.6804 59.0137 57.8875 51.0135 54.5117C50.011 54.0901 48.8662 54.5542 48.457 55.5516L48.4279 55.6269L48.4246 55.6236C48.3972 55.7039 38.2357 82.8121 65.0961 93.9258Z" fill="#3D3F41"/>
<path fill-rule="evenodd" clip-rule="evenodd" d="M64.6116 91.4764C64.8773 91.9542 65.4743 92.127 65.9472 91.8656C66.4168 91.6074 66.5872 91.0109 66.3215 90.5364C66.2917 90.4869 56.6149 73.2518 51.5989 57.0157C51.4397 56.4976 50.8911 56.2003 50.3749 56.353C49.8587 56.5058 49.5698 57.0524 49.7306 57.5689C54.8153 74.0271 64.5834 91.4253 64.6116 91.4764Z" fill="#3D3F41"/>
<path fill-rule="evenodd" clip-rule="evenodd" d="M241.791 164.226C242.763 163.762 243.168 162.597 242.696 161.616C242.222 160.639 241.047 160.218 240.076 160.68C232.529 164.242 224.598 166.666 216.569 167.941C208.455 169.229 200.258 169.338 192.262 168.271C191.19 168.126 190.213 168.878 190.084 169.95C189.952 171.019 190.714 172.006 191.788 172.151C200.183 173.275 208.766 173.16 217.232 171.815C225.61 170.488 233.892 167.955 241.791 164.226Z" fill="#3D3F41"/>
<path fill-rule="evenodd" clip-rule="evenodd" d="M66.6456 89.3528C66.1487 88.3893 64.9658 88.0027 64.0084 88.4877C63.0525 88.9743 62.6789 90.1509 63.1774 91.1161C71.4969 107.098 85.2671 127.05 107.445 143.203C129.609 159.343 160.148 171.691 201.984 172.478C203.063 172.496 203.943 171.633 203.948 170.555C203.952 169.476 203.078 168.582 201.998 168.566C161.108 167.798 131.313 155.769 109.722 140.043C88.1466 124.329 74.7408 104.912 66.6456 89.3528Z" fill="#3D3F41"/>
<path fill-rule="evenodd" clip-rule="evenodd" d="M199.887 160.953C204.587 164.963 210.573 167.138 216.554 167.141C213.695 148.329 197.167 145.848 191.224 145.569C192.375 152.077 195.591 157.29 199.887 160.953ZM220.689 168.792L220.699 168.854C220.796 169.93 220.006 170.872 218.929 170.958C211.266 171.584 203.392 169.066 197.364 163.919C191.878 159.235 187.916 152.386 187.032 143.77C186.926 142.694 187.708 141.744 188.781 141.652L188.87 141.642C189.303 141.622 217.957 140.131 220.689 168.792Z" fill="#3D3F41"/>
<path fill-rule="evenodd" clip-rule="evenodd" d="M218.914 167.32C219.374 167.61 219.519 168.215 219.233 168.673C218.952 169.13 218.347 169.269 217.884 168.978C203.908 160.166 201.125 157.265 191.407 147.136L189.075 144.71C188.697 144.315 188.706 143.698 189.091 143.326C189.478 142.952 190.099 142.969 190.474 143.36L192.807 145.788C202.387 155.769 205.128 158.628 218.914 167.32Z" fill="#3D3F41"/>
<path fill-rule="evenodd" clip-rule="evenodd" d="M215.862 172.313C209.902 171.724 203.779 173.297 198.803 176.826C194.252 180.052 190.664 184.926 189.032 191.296C194.969 191.607 211.612 190.767 215.862 172.313ZM218.526 168.733C219.593 168.932 220.313 169.95 220.131 171.017L220.12 171.071C215.374 198.771 187.997 195.205 186.455 194.982L186.306 194.96C185.242 194.758 184.533 193.732 184.721 192.673C186.241 184.178 190.698 177.744 196.514 173.62C202.903 169.088 210.935 167.353 218.526 168.733Z" fill="#3D3F41"/>
<path fill-rule="evenodd" clip-rule="evenodd" d="M217.329 170.607C217.811 170.364 218.403 170.558 218.652 171.039C218.903 171.525 218.716 172.115 218.238 172.358C203.861 179.655 200.917 182.232 190.631 191.233L188.127 193.423C187.721 193.777 187.101 193.735 186.739 193.324C186.382 192.914 186.418 192.294 186.824 191.94L189.331 189.751C199.759 180.624 202.748 178.009 217.329 170.607Z" fill="#3D3F41"/>
<path fill-rule="evenodd" clip-rule="evenodd" d="M100.166 134.253C100.767 134.25 101.245 133.759 101.238 133.158C101.223 132.558 100.725 132.074 100.126 132.075C91.5149 132.126 81.8197 131.053 72.1478 127.885C64.2427 125.299 56.347 121.307 49.0616 115.376C48.593 114.995 47.9054 115.062 47.529 115.527C47.151 115.991 47.2292 116.68 47.6962 117.062C55.2027 123.172 63.3437 127.286 71.4972 129.953C81.4209 133.203 91.3527 134.303 100.166 134.253Z" fill="#3D3F41"/>
<path fill-rule="evenodd" clip-rule="evenodd" d="M39.996 109.414C41.123 108.985 42.4755 109.188 43.6771 110.485C44.9167 111.816 45.2774 113.054 45.0998 114.084C44.9968 114.683 44.7128 115.228 44.32 115.693C43.9027 116.18 43.3683 116.576 42.7871 116.849C41.7525 117.339 40.5956 117.435 39.7586 116.964L39.7059 116.931C37.7778 115.773 37.1672 114.203 37.3653 112.792C37.4674 112.039 37.7946 111.318 38.2621 110.722C38.7264 110.132 39.3294 109.668 39.996 109.414ZM45.2672 109.007C43.3466 106.943 41.1085 106.646 39.2003 107.372C38.1667 107.764 37.2434 108.476 36.5397 109.368C35.8457 110.254 35.3648 111.33 35.2027 112.47C34.9011 114.681 35.7763 117.093 38.5976 118.792L38.6768 118.839C40.1762 119.698 42.0949 119.597 43.7319 118.825C44.5849 118.425 45.371 117.841 45.9838 117.119C46.6196 116.374 47.0754 115.479 47.2482 114.477C47.5335 112.813 47.0407 110.914 45.2672 109.007Z" fill="#3D3F41"/>
<path fill-rule="evenodd" clip-rule="evenodd" d="M43.0651 114.784C42.9269 115.011 42.9993 115.309 43.2268 115.451C43.4542 115.594 43.7526 115.524 43.8908 115.296C43.894 115.293 44.7814 113.827 43.3202 111.978C41.9501 110.242 40.8671 110.083 40.8638 110.086C40.6009 110.038 40.3507 110.213 40.3097 110.475C40.2653 110.737 40.4458 110.986 40.7088 111.034C40.7104 111.036 41.4285 111.134 42.5604 112.569C43.603 113.889 43.0667 114.782 43.0651 114.784Z" fill="#3D3F41"/>
<path fill-rule="evenodd" clip-rule="evenodd" d="M71.8192 103.723C72.3529 104.005 73.0085 103.809 73.2876 103.279C73.565 102.747 73.3541 102.089 72.822 101.805C65.1788 97.7418 57.1092 92.1853 50.0579 84.8109C44.2988 78.7809 39.2119 71.5302 35.5924 62.8783C35.3591 62.3219 34.7187 62.0537 34.1652 62.2801C33.6084 62.5065 33.348 63.1436 33.5813 63.7C37.3124 72.6136 42.5534 80.0869 48.4976 86.3052C55.7307 93.8711 63.9964 99.5685 71.8192 103.723Z" fill="#3D3F41"/>
<path fill-rule="evenodd" clip-rule="evenodd" d="M32.8778 53.7636C34.079 53.927 35.1791 54.7498 35.6248 56.4518C36.0854 58.2049 35.8157 59.4593 35.1673 60.2762C34.7926 60.7467 34.2791 61.0883 33.7075 61.3064C33.1096 61.5342 32.4485 61.627 31.8031 61.5886C30.6533 61.5191 29.5833 61.056 29.0627 60.2417L29.0361 60.189C27.883 58.256 28.0928 56.5958 28.9363 55.4583C29.3857 54.8503 30.0181 54.3764 30.719 54.0786C31.4084 53.7857 32.1662 53.6656 32.8778 53.7636ZM37.7362 55.9231C37.0216 53.2047 35.1794 51.8782 33.1468 51.6013C32.0442 51.4549 30.8878 51.6333 29.8398 52.0767C28.8015 52.5169 27.8619 53.2286 27.178 54.1471C25.8542 55.9334 25.479 58.4563 27.1679 61.2841L27.216 61.3649C28.1313 62.8285 29.8801 63.6569 31.6966 63.7634C32.6411 63.8201 33.6155 63.6849 34.5032 63.3456C35.4189 62.9983 36.2495 62.4353 36.8816 61.6413C37.9259 60.3261 38.3936 58.431 37.7362 55.9231Z" fill="#3D3F41"/>
<path fill-rule="evenodd" clip-rule="evenodd" d="M33.0325 59.9171C32.8019 60.0486 32.7216 60.3437 32.8576 60.5744C32.9904 60.8083 33.2881 60.8907 33.5171 60.7574C33.5221 60.7558 35.0059 59.8997 34.5943 57.5887C34.2082 55.4175 33.3258 54.7635 33.3241 54.7619C33.1146 54.598 32.8095 54.6322 32.6499 54.8414C32.4853 55.0489 32.5249 55.3529 32.7328 55.5184C32.7361 55.5217 33.3233 55.9489 33.6414 57.7421C33.934 59.3923 33.0342 59.9155 33.0325 59.9171Z" fill="#3D3F41"/>
<path fill-rule="evenodd" clip-rule="evenodd" d="M76.0145 102.484C75.969 103.082 75.4463 103.528 74.8484 103.479C74.2488 103.428 73.7973 102.901 73.8412 102.302C74.4581 93.7189 74.0219 83.9816 71.4983 74.1314C69.434 66.0785 65.9687 57.9431 60.5247 50.2896C60.1736 49.7949 60.2859 49.1142 60.7747 48.7708C61.2651 48.4258 61.944 48.5466 62.2951 49.0413C67.9015 56.9256 71.4784 65.3129 73.6066 73.619C76.1958 83.7242 76.6433 93.7012 76.0145 102.484Z" fill="#3D3F41"/>
<path fill-rule="evenodd" clip-rule="evenodd" d="M54.2021 43.1477C53.6982 44.243 53.8167 45.6048 55.0281 46.888C56.2791 48.2109 57.4902 48.6518 58.5305 48.5433C59.1343 48.4814 59.6992 48.2336 60.1879 47.8705C60.7027 47.4879 61.1347 46.9833 61.4448 46.422C62.0001 45.4206 62.1753 44.274 61.7595 43.4045L61.7312 43.3535C60.6976 41.3539 59.1713 40.6434 57.7501 40.7463C56.9919 40.8007 56.2514 41.0753 55.6253 41.5065C55.0056 41.9279 54.5002 42.4994 54.2021 43.1477ZM53.4512 48.3757C51.5159 46.3262 51.3658 44.0743 52.2163 42.2226C52.6796 41.2141 53.4475 40.3404 54.3844 39.7009C55.3163 39.0631 56.4221 38.6546 57.5725 38.5714C59.8011 38.4111 62.152 39.4436 63.6609 42.3688L63.7041 42.4512C64.4607 44.0041 64.2344 45.9089 63.3559 47.4944C62.8996 48.3142 62.2656 49.0606 61.504 49.6239C60.7195 50.2069 59.7927 50.605 58.7852 50.7105C57.1051 50.8873 55.2377 50.2699 53.4512 48.3757Z" fill="#3D3F41"/>
<path fill-rule="evenodd" clip-rule="evenodd" d="M59.3678 46.5604C59.6018 46.4354 59.8963 46.5276 60.0192 46.7648C60.1455 47.002 60.0586 47.2937 59.8229 47.417C59.8197 47.4203 58.296 48.2072 56.5475 46.6284C54.9014 45.1488 54.8176 44.0597 54.8175 44.0564C54.7863 43.7902 54.9786 43.555 55.2445 43.5304C55.5087 43.5041 55.7463 43.6993 55.7775 43.9655C55.7758 43.9671 55.8262 44.6866 57.1883 45.9116C58.4365 47.039 59.3645 46.5604 59.3678 46.5604Z" fill="#3D3F41"/>
<path fill-rule="evenodd" clip-rule="evenodd" d="M122.136 147.437C122.094 148.038 121.571 148.481 120.972 148.43C120.372 148.382 119.919 147.854 119.963 147.255C120.578 138.673 120.149 128.936 117.622 119.086C115.557 111.033 112.091 102.896 106.65 95.2457C106.299 94.751 106.409 94.072 106.898 93.7253C107.387 93.3819 108.071 93.501 108.42 93.9941C114.028 101.88 117.602 110.267 119.728 118.572C122.321 128.68 122.767 138.652 122.136 147.437Z" fill="#3D3F41"/>
<path fill-rule="evenodd" clip-rule="evenodd" d="M100.324 88.1014C99.8232 89.1967 99.9384 90.5585 101.151 91.8434C102.402 93.1662 103.615 93.6088 104.656 93.497C105.258 93.4367 105.823 93.189 106.313 92.8242C106.824 92.4448 107.256 91.9369 107.57 91.3757C108.122 90.3743 108.3 89.2277 107.884 88.3616L107.853 88.3072C106.821 86.3092 105.293 85.6003 103.872 85.6999C103.114 85.7543 102.376 86.0322 101.747 86.4601C101.126 86.8832 100.624 87.4547 100.324 88.1014ZM99.5746 93.331C97.641 91.2831 97.4892 89.0263 98.3413 87.1763C98.8031 86.1694 99.5693 85.2941 100.506 84.6546C101.44 84.0185 102.547 83.6083 103.694 83.525C105.921 83.3664 108.274 84.4005 109.784 87.3208L109.824 87.4065C110.586 88.9578 110.358 90.8642 109.479 92.4464C109.025 93.2711 108.389 94.0159 107.627 94.5793C106.841 95.1638 105.919 95.5604 104.905 95.6658C103.228 95.8393 101.361 95.2219 99.5746 93.331Z" fill="#3D3F41"/>
<path fill-rule="evenodd" clip-rule="evenodd" d="M105.489 91.5134C105.723 91.3885 106.017 91.4838 106.143 91.7177C106.27 91.9549 106.179 92.25 105.944 92.3733C105.942 92.3749 104.419 93.1618 102.668 91.5846C101.026 90.1018 100.938 89.0127 100.938 89.0094C100.909 88.7449 101.1 88.5112 101.365 88.4833C101.631 88.4587 101.87 88.6523 101.897 88.9201C101.898 88.9217 101.949 89.6412 103.309 90.8678C104.559 91.9937 105.487 91.5151 105.489 91.5134Z" fill="#3D3F41"/>
<path fill-rule="evenodd" clip-rule="evenodd" d="M161.976 165.631C162.488 165.327 162.655 164.658 162.342 164.142C162.03 163.625 161.36 163.452 160.845 163.756C153.479 168.128 144.621 172.07 134.73 174.176C126.643 175.899 117.859 176.393 108.626 174.895C108.031 174.796 107.474 175.201 107.385 175.795C107.294 176.389 107.704 176.95 108.299 177.045C117.814 178.593 126.872 178.079 135.21 176.303C145.361 174.141 154.437 170.108 161.976 165.631Z" fill="#3D3F41"/>
<path fill-rule="evenodd" clip-rule="evenodd" d="M99.4554 172.372C100.206 171.432 101.471 170.931 103.152 171.454C104.886 171.99 105.819 172.887 106.186 173.874C106.397 174.444 106.429 175.063 106.322 175.665C106.21 176.3 105.954 176.912 105.591 177.443C104.947 178.388 104.005 179.056 103.045 179.068L102.986 179.064C100.749 179.024 99.4374 177.964 98.8956 176.639C98.6072 175.929 98.5219 175.142 98.6256 174.384C98.7277 173.638 99.0106 172.929 99.4554 172.372ZM103.776 169.369C101.092 168.538 99.0184 169.405 97.7492 170.995C97.0568 171.859 96.6202 172.94 96.4679 174.071C96.3156 175.191 96.4411 176.371 96.8795 177.445C97.7281 179.524 99.6937 181.183 102.971 181.243L103.063 181.24C104.781 181.238 106.378 180.185 107.395 178.689C107.925 177.911 108.307 177.01 108.471 176.071C108.642 175.103 108.583 174.094 108.224 173.135C107.637 171.545 106.255 170.138 103.776 169.369Z" fill="#3D3F41"/>
<path fill-rule="evenodd" clip-rule="evenodd" d="M104.789 175.506C104.784 175.772 104.996 175.997 105.262 176.005C105.53 176.015 105.75 175.804 105.756 175.537C105.756 175.533 105.78 173.811 103.596 172.936C101.549 172.112 100.54 172.52 100.536 172.523C100.289 172.612 100.163 172.89 100.258 173.142C100.355 173.392 100.633 173.52 100.88 173.428C100.884 173.428 101.548 173.153 103.242 173.832C104.802 174.459 104.788 175.504 104.789 175.506Z" fill="#3D3F41"/>
<path fill-rule="evenodd" clip-rule="evenodd" d="M213.633 125.446C213.192 124.465 213.821 123.38 215.035 123.025C216.249 122.669 217.592 123.175 218.033 124.159C218.245 124.632 218.394 125.473 218.603 126.687C219.764 133.379 223.244 153.399 246.377 160.659C247.15 160.9 247.893 161.12 248.607 161.317C261.574 164.876 275.029 164.197 286.141 160.756C297.119 157.355 305.756 151.272 309.274 143.945C309.424 143.636 309.557 143.351 309.662 143.089C310.197 141.82 310.406 140.518 310.297 139.272C310.162 137.734 309.548 136.288 308.46 135.104C307.373 133.917 305.8 132.959 303.755 132.4C302.088 131.942 300.096 131.739 297.78 131.871C296.493 131.948 295.373 131.163 295.279 130.122C295.188 129.079 296.158 128.177 297.445 128.1C300.396 127.93 303.005 128.206 305.245 128.823C308.252 129.646 310.582 131.072 312.213 132.856C313.847 134.643 314.77 136.768 314.964 138.998C315.117 140.729 314.826 142.534 314.086 144.294C313.933 144.662 313.783 144.997 313.633 145.308C309.627 153.649 299.981 160.515 287.805 164.291C275.764 168.021 261.178 168.75 247.114 164.891C246.274 164.662 245.466 164.424 244.693 164.18C219.003 156.115 215.235 134.452 213.98 127.204C213.813 126.252 213.698 125.596 213.633 125.446Z" fill="#3D3F41"/>
<path fill-rule="evenodd" clip-rule="evenodd" d="M216.458 126.161C215.197 126.39 213.945 125.746 213.663 124.729C213.381 123.707 214.174 122.693 215.435 122.466C219.902 121.646 224.096 121.326 228.011 121.441C239.358 121.767 248.314 125.684 254.967 131.427C261.521 137.091 265.801 144.523 267.905 152.009C269.092 156.224 269.592 160.473 269.416 164.432C269.369 165.479 268.287 166.296 266.994 166.26C265.701 166.225 264.693 165.349 264.734 164.303C264.895 160.659 264.434 156.738 263.338 152.838C261.401 145.955 257.498 139.151 251.549 134.011C245.698 128.959 237.824 125.511 227.849 125.226C224.325 125.12 220.531 125.411 216.458 126.161Z" fill="#3D3F41"/>
<path fill-rule="evenodd" clip-rule="evenodd" d="M260.225 105.277C260.222 105.288 260.219 105.303 260.219 105.288L260.225 105.277ZM289.718 107.54C288.701 107.757 287.599 107.939 286.594 108.101C285.912 108.213 285.274 108.318 284.907 108.383C280.084 109.274 273.233 109.588 267.746 108.724C264.011 108.133 261.036 107.034 260.234 105.262C260.281 105.174 260.446 105.041 260.707 104.874C261.245 104.53 262.036 104.207 263.008 103.922C266.365 102.931 271.352 102.543 275.787 103.175C278.911 103.622 283.296 104.748 287.167 106.361C288.058 106.731 288.919 107.122 289.718 107.54ZM299.532 111.989C301.283 120.095 300.022 130.402 293.668 139.604C288.519 147.057 280.061 153.788 267.194 158.049C265.997 158.443 264.631 157.979 264.143 157.009C263.655 156.042 264.228 154.937 265.427 154.54C277.195 150.643 284.91 144.527 289.577 137.764C293.786 131.675 295.543 125.059 295.579 119.072C290.471 123.181 282.068 124.712 273.113 124.368C267.502 124.151 261.662 123.207 256.328 121.714C250.941 120.213 246.009 118.135 242.28 115.672C239.538 113.861 237.421 111.839 236.187 109.662C236.052 110.12 235.926 110.584 235.817 111.055C234.853 115.175 234.953 119.487 236.569 122.29C237.116 123.234 236.61 124.357 235.438 124.797C234.271 125.238 232.878 124.833 232.334 123.886C230.288 120.342 230.097 115.175 231.226 110.364C232.243 106.011 234.374 101.858 237.219 99.3603C237.398 99.131 237.589 98.9018 237.792 98.6696C238.18 98.2347 238.629 97.8056 239.141 97.3912C244.205 93.2766 254.324 91.6601 264.61 91.9658C274.738 92.2685 285.207 94.4198 291.155 97.8673C291.952 98.3228 292.687 98.8225 293.351 99.3544C298.135 103.199 298.794 105.926 297.36 107.936C298.576 109.182 299.358 110.54 299.532 111.989ZM294.8 112.074L294.773 111.945C294.609 111.419 294.265 110.896 293.78 110.382C291.837 111.102 289.518 111.481 287.508 111.81C287.026 111.889 286.562 111.963 285.93 112.08C280.598 113.062 272.983 113.412 266.853 112.442C261.604 111.613 257.295 109.788 255.831 106.546C255.543 105.905 255.482 105.274 255.62 104.645C255.849 103.59 256.622 102.676 257.812 101.914C258.759 101.306 259.993 100.783 261.416 100.365C265.433 99.1781 271.358 98.7079 276.587 99.4544C280.113 99.9569 285.019 101.212 289.307 102.993C290.521 103.501 291.699 104.051 292.792 104.648C292.304 103.989 291.435 103.134 290.056 102.029C289.606 101.664 289.06 101.3 288.437 100.939C283.22 97.9231 273.751 96.0245 264.452 95.7483C255.305 95.4808 246.506 96.7534 242.447 100.054L242.168 100.292C242.062 100.698 241.795 101.074 241.371 101.359C241.233 101.447 241.098 101.547 240.966 101.65C240.822 101.847 240.693 102.041 240.572 102.235C240.313 102.661 240.111 103.072 239.964 103.475L239.884 103.728C238.897 106.919 241.169 110.055 245.227 112.739C248.525 114.914 252.954 116.771 257.853 118.135C262.806 119.519 268.19 120.395 273.33 120.589C282.685 120.95 291.191 119.11 294.435 114.014C294.644 113.688 294.779 113.373 294.838 113.085C294.891 112.853 294.9 112.621 294.87 112.386L294.8 112.074Z" fill="#3D3F41"/>
<path fill-rule="evenodd" clip-rule="evenodd" d="M270.782 94.5314C270.033 95.3779 268.572 95.5718 267.52 94.9664C266.471 94.358 266.233 93.1736 266.985 92.3272C268.934 90.1405 271.529 88.1743 274.509 86.6108C278.576 84.4771 283.385 83.0722 288.266 82.84C293.245 82.5961 298.312 83.5542 302.788 86.1611C305.18 87.5483 307.393 89.4087 309.315 91.804C314.294 98.0024 316.707 106.096 316.878 113.691C317.066 121.855 314.647 129.556 310.027 133.876C309.183 134.664 307.708 134.749 306.732 134.064C305.756 133.382 305.65 132.192 306.494 131.404C310.35 127.801 312.363 121.062 312.199 113.77C312.037 106.799 309.871 99.4219 305.398 93.8584C303.814 91.8834 302.006 90.358 300.066 89.2294C296.54 87.178 292.516 86.4227 288.545 86.6167C284.478 86.8136 280.463 87.9892 277.051 89.7761C274.559 91.084 272.396 92.7181 270.782 94.5314Z" fill="#3D3F41"/>
<path fill-rule="evenodd" clip-rule="evenodd" d="M268.901 91.8012C269.903 92.4595 270.056 93.6469 269.239 94.461C268.428 95.2693 266.953 95.3897 265.95 94.7343C260.014 90.8313 255.385 88.3743 250.606 87.1311C245.953 85.9203 240.992 85.8262 234.324 86.6374C228.707 88.6947 224.302 93.065 222.006 99.2898C219.79 105.306 219.544 113.027 222.048 122.073C222.327 123.093 221.527 124.107 220.264 124.33C219.003 124.554 217.754 123.907 217.472 122.887C214.794 113.2 215.097 104.824 217.533 98.2083C220.272 90.7784 225.721 85.5411 232.728 83.0783C232.907 83.0136 233.101 82.9724 233.304 82.946C240.878 82.0026 246.562 82.1084 252.037 83.5308C257.46 84.9416 262.518 87.6072 268.901 91.8012Z" fill="#3D3F41"/>
<path fill-rule="evenodd" clip-rule="evenodd" d="M230.903 132.397C230.318 132.18 230.062 131.618 230.333 131.142C230.603 130.669 231.297 130.463 231.884 130.681C240.646 133.94 246.867 138.466 251.211 143.183C257.468 149.972 259.834 157.164 260.284 161.537L261.025 168.741C261.078 169.264 260.601 169.72 259.955 169.764C259.314 169.808 258.75 169.423 258.697 168.9L257.953 161.696C257.527 157.57 255.282 150.766 249.336 144.315C245.198 139.824 239.264 135.512 230.903 132.397Z" fill="#3D3F41"/>
<path fill-rule="evenodd" clip-rule="evenodd" d="M265.41 149.585C264.904 149.908 264.17 149.843 263.764 149.435C263.361 149.026 263.447 148.43 263.952 148.106L266.209 146.663C273.216 142.205 276.416 140.168 278.853 134.078C279.05 133.582 279.711 133.311 280.325 133.47C280.939 133.629 281.277 134.164 281.081 134.66C278.421 141.303 275.047 143.451 267.658 148.147L265.41 149.585Z" fill="#3D3F41"/>
<path fill-rule="evenodd" clip-rule="evenodd" d="M280.349 126.275C280.367 125.752 280.904 125.341 281.551 125.355C282.195 125.367 282.703 125.805 282.688 126.325C282.668 126.948 282.686 127.501 282.7 127.959C282.741 129.155 282.771 129.905 281.924 130.319C281.369 130.59 280.649 130.443 280.32 129.999C279.987 129.549 280.164 128.967 280.719 128.7C281.046 128.544 280.381 128.535 280.367 128.015C280.346 127.533 280.328 126.951 280.349 126.275Z" fill="#3D3F41"/>
<path fill-rule="evenodd" clip-rule="evenodd" d="M282.579 91.833C281.933 91.7919 281.456 91.3305 281.509 90.8132C281.568 90.293 282.135 89.908 282.779 89.9521C289.245 90.4164 294.4 92.5649 298.312 95.739C302.714 99.3099 305.515 104.174 306.826 109.373C309.274 119.095 304.484 128.562 304.472 128.591C304.234 129.073 303.549 129.308 302.952 129.114C302.356 128.917 302.068 128.368 302.306 127.889C302.318 127.862 306.844 118.919 304.531 109.743C303.308 104.891 300.716 100.365 296.657 97.0704C293.118 94.199 288.448 92.2563 282.579 91.833Z" fill="#3D3F41"/>
<path fill-rule="evenodd" clip-rule="evenodd" d="M268.896 161.211C268.252 161.238 267.705 160.835 267.676 160.315C267.643 159.795 268.14 159.351 268.784 159.325C276.034 159.063 283.761 156.394 290.127 152.876C297.26 148.938 302.618 143.992 303.599 140.242C303.729 139.733 304.349 139.407 304.981 139.513C305.61 139.619 306.015 140.118 305.883 140.63C304.784 144.841 299.035 150.243 291.441 154.44C284.763 158.128 276.607 160.929 268.896 161.211Z" fill="#3D3F41"/>
<path fill-rule="evenodd" clip-rule="evenodd" d="M229.51 122.86C229.554 123.383 229.066 123.833 228.423 123.868C227.779 123.904 227.22 123.513 227.176 122.99C226.486 114.467 228.393 106.44 232.249 100.383C236.073 94.3784 241.818 90.2873 248.878 89.4908C249.516 89.4203 250.112 89.7818 250.201 90.302C250.289 90.8193 249.842 91.2983 249.198 91.3689C242.95 92.0713 237.81 95.7891 234.33 101.247C230.659 107.01 228.849 114.687 229.51 122.86Z" fill="#3D3F41"/>
</svg>
