<svg width="160" height="160" viewBox="0 0 160 160" fill="none" xmlns="http://www.w3.org/2000/svg">
<g clip-path="url(#clip0_296_19683)">
<path d="M48.6097 41.6125C47.7234 40.9079 46.4338 41.055 45.7292 41.9413C45.7271 41.9437 45.725 41.9465 45.7233 41.9489C45.0214 42.8275 45.1651 44.1088 46.0437 44.8106C46.0485 44.8144 46.0531 44.8183 46.058 44.8218C46.9442 45.5264 48.2338 45.3792 48.9385 44.493C49.6431 43.6071 49.4959 42.3174 48.6097 41.6125Z" fill="black"/>
<path d="M157.959 157.211H154.138V74.6378C154.215 38.3767 124.882 8.91903 88.6205 8.84198C83.046 8.83012 77.4928 9.52846 72.0947 10.9195C72.4611 9.75089 72.3405 8.48357 71.76 7.40521C70.9982 6.15881 69.6988 5.3388 68.2457 5.18783C66.7507 5.02815 65.2438 5.35588 63.9504 6.1222C63.9504 2.73337 61.6912 0 58.9299 0C56.1686 0 53.9234 2.78916 53.9094 6.1222C52.6159 5.35588 51.1091 5.02815 49.6141 5.18783C48.1561 5.33461 46.8504 6.15497 46.0858 7.40521C45.3756 8.69694 45.3185 10.2488 45.9324 11.5889C46.5422 12.9623 47.5791 14.102 48.8889 14.8383C47.5819 15.5844 46.5464 16.7273 45.9324 18.1016C45.3188 19.4418 45.3756 20.9936 46.0858 22.2854C46.3836 22.7689 46.772 23.1904 47.2294 23.5265C43.5425 26.4743 40.1812 29.8077 37.2024 33.4699C37.0814 33.6282 36.9914 33.8081 36.9374 33.9998C35.2133 34.5284 34.022 36.1018 33.9809 37.9046C33.8372 38.0061 33.7142 38.1341 33.6183 38.2812C32.7955 39.4945 32.0424 40.7635 31.3033 42.0326C29.2794 40.4613 26.4843 40.3385 24.3304 41.7258C24.3304 38.337 22.0712 35.5896 19.3099 35.5896C16.5487 35.5896 14.2894 38.3788 14.2755 41.7258C11.3469 40.0383 7.84648 40.6241 6.46585 43.0088C5.08522 45.3935 6.34034 48.7126 9.25501 50.414C6.27061 52.1154 5.01549 55.4345 6.39612 57.8332C7.7907 60.2179 11.2771 60.7897 14.2058 59.1162C14.2058 62.505 16.4789 65.2384 19.2402 65.2384C21.5409 65.0728 23.456 63.4076 23.9399 61.1523C23.4797 63.3557 23.1311 65.601 22.894 67.8323V67.902C22.7437 68.0764 22.6084 68.2629 22.4896 68.4599C21.7748 69.7495 21.7128 71.301 22.3222 72.6436C22.932 74.0169 23.9689 75.1566 25.2787 75.893C23.9668 76.6328 22.9292 77.7777 22.3222 79.1563C21.7173 80.4982 21.7741 82.0458 22.4756 83.34L22.5453 83.4237V157.183H4.41582C3.64566 157.183 3.02124 157.807 3.02124 158.578C3.02124 159.348 3.64566 159.972 4.41582 159.972H49.6141C50.3843 159.972 51.0087 159.348 51.0087 158.578C51.0087 157.807 50.3843 157.183 49.6141 157.183H34.2737V90.5639C34.6018 90.6487 34.9393 90.6908 35.2778 90.6894C38.067 90.6894 40.2844 87.9003 40.2983 84.5672C41.5935 85.3287 43.1 85.6515 44.5936 85.4877C47.0369 85.3172 48.8795 83.1985 48.709 80.7552C48.6696 80.1904 48.5225 79.6381 48.2753 79.1284C47.6683 77.7498 46.6311 76.6049 45.3188 75.8651C46.6287 75.1287 47.6655 73.989 48.2753 72.6157C49.3446 70.4036 48.4183 67.7438 46.2065 66.6741C45.7009 66.4297 45.1535 66.2833 44.5936 66.2425C43.1 66.0786 41.5935 66.4015 40.2983 67.1629C40.459 64.4717 38.7869 62.0096 36.2262 61.1662C37.0127 58.2962 38.0391 55.4973 39.2942 52.7987C40.3656 52.7416 41.4102 52.441 42.3484 51.9202C42.3484 55.295 44.6076 58.0424 47.3688 58.0424C50.1301 58.0424 52.3893 55.2532 52.4033 51.9202C55.3319 53.5937 58.8323 53.0219 60.2129 50.6371C60.9231 49.3454 60.9803 47.7936 60.3663 46.4534C59.7628 45.077 58.7308 43.9324 57.4237 43.1901C60.3384 41.4887 61.6075 38.1696 60.2129 35.7849C58.827 33.8175 56.2823 33.0417 54.0349 33.9022C55.8754 32.3762 57.8184 30.9785 59.8503 29.7185C59.9521 29.6446 60.0414 29.5553 60.1153 29.4535C60.8656 29.2283 61.5437 28.8099 62.0816 28.2402C62.2769 28.2322 62.4676 28.1799 62.6395 28.0868C63.8249 27.4314 65.0521 26.8596 66.2793 26.3018C66.4742 66.4684 92.6483 101.888 130.988 113.867C124.435 127.369 121.094 142.203 121.226 157.211H74.4237C73.6535 157.211 73.0291 157.835 73.0291 158.605C73.0291 159.376 73.6535 160 74.4237 160H157.959C158.729 160 159.354 159.376 159.354 158.605C159.354 157.835 158.729 157.211 157.959 157.211ZM43.7429 30.2902C42.8379 31.4973 42.3484 32.9654 42.3484 34.474C41.7797 34.1546 41.1696 33.9155 40.5354 33.7627C41.5256 32.5913 42.5994 31.4199 43.7429 30.2902ZM22.7266 53.775C22.3013 53.2408 21.5517 53.0934 20.9555 53.4263C20.3541 53.7669 20.093 54.4966 20.3419 55.1416C20.9085 56.3922 21.2752 57.724 21.4297 59.0883C21.4297 60.9152 20.3977 62.4492 19.1984 62.4492C17.999 62.4492 16.9531 60.9152 16.9531 59.0883C17.118 57.7122 17.4991 56.371 18.0827 55.1137C18.3229 54.4869 18.0827 53.7777 17.5109 53.4263C16.9182 53.0902 16.169 53.2318 15.7398 53.761C14.9362 54.8944 13.9568 55.8923 12.8391 56.7175C11.2632 57.624 9.42236 57.5124 8.80874 56.4665C8.19513 55.4206 9.03187 53.7331 10.6077 52.8127C11.8827 52.2726 13.2323 51.9296 14.6102 51.7946C15.3803 51.7946 16.0048 51.1702 16.0048 50.4001C16.0048 49.6299 15.3803 49.0055 14.6102 49.0055C13.2292 48.8782 11.8779 48.5296 10.6077 47.9735C9.03187 47.067 8.20907 45.4075 8.80874 44.3615C9.40841 43.3156 11.2632 43.1901 12.8391 44.1105C13.9568 44.9358 14.9362 45.9336 15.7398 47.067C16.169 47.5963 16.9182 47.7378 17.5109 47.4017C18.1123 47.0611 18.3735 46.3314 18.1245 45.6864C17.5409 44.4292 17.1598 43.0879 16.9949 41.7118C16.9949 39.8849 18.0269 38.337 19.2402 38.337C20.4535 38.337 21.4297 39.9268 21.4297 41.7537C21.263 43.1294 20.882 44.4707 20.3001 45.7282C19.9828 46.4301 20.2948 47.2563 20.9967 47.5733C21.5991 47.8456 22.31 47.6573 22.6987 47.1228C23.4982 45.9775 24.4835 44.9734 25.6134 44.1524C27.1893 43.2459 29.0441 43.3574 29.6437 44.4034C30.2434 45.4493 29.4206 47.1089 27.8447 48.0153C26.5746 48.5714 25.2233 48.9201 23.8423 49.0473C23.1548 49.1516 22.6489 49.7464 22.6569 50.4419C22.6489 51.1375 23.1548 51.7322 23.8423 51.8365C25.2201 51.9714 26.5697 52.3145 27.8447 52.8545C29.4206 53.775 30.2434 55.4345 29.6437 56.4804C29.0441 57.5264 27.1893 57.6379 25.6134 56.7315C24.4984 55.9076 23.5236 54.9094 22.7266 53.775ZM31.5264 157.127H25.3345V85.3203C27.0247 85.7185 28.8032 85.449 30.2992 84.5672C30.2908 85.9824 30.7197 87.3655 31.5264 88.5278V157.127ZM37.551 67.2047C37.3899 68.5798 37.0134 69.921 36.4353 71.1793C36.1418 71.8912 36.481 72.7067 37.1933 72.9999C37.77 73.2377 38.4341 73.0634 38.8201 72.5739C39.6164 71.439 40.5912 70.4405 41.7068 69.6174C42.4791 69.1432 43.3845 68.933 44.2868 69.0177C44.8537 69.0839 45.3631 69.3946 45.6814 69.8684C45.9429 70.3955 45.9429 71.0147 45.6814 71.5419C45.3069 72.3657 44.6759 73.0456 43.8824 73.4803C42.6109 74.0305 41.2599 74.3739 39.8799 74.4984C39.1098 74.4984 38.4854 75.1228 38.4854 75.893C38.4854 76.6631 39.1098 77.2875 39.8799 77.2875C41.2592 77.4148 42.6098 77.7586 43.8824 78.3056C44.6759 78.7403 45.3069 79.4206 45.6814 80.244C45.9432 80.7761 45.9432 81.3995 45.6814 81.9315C45.3589 82.3987 44.8506 82.7037 44.2868 82.7682C43.3866 82.8484 42.484 82.6434 41.7068 82.1825C40.5978 81.3465 39.624 80.3445 38.8201 79.2121C38.3435 78.6072 37.4666 78.5033 36.8617 78.9799C36.3719 79.3658 36.1979 80.03 36.4353 80.6066C37.0179 81.868 37.3948 83.2145 37.551 84.5951C37.551 86.4081 36.533 87.9561 35.3197 87.9561C34.1064 87.9561 33.0884 86.4081 33.0884 84.5951C33.2445 83.2145 33.6214 81.868 34.204 80.6066C34.4474 79.9693 34.1936 79.2494 33.6043 78.9053C33.3931 78.7801 33.1525 78.7125 32.9071 78.71C32.4852 78.7086 32.0853 78.8983 31.8193 79.226C31.0198 80.3626 30.0457 81.3649 28.9325 82.1965C27.3566 83.1029 25.5018 82.9914 24.9022 81.9454C24.6403 81.4134 24.6403 80.79 24.9022 80.258C25.2766 79.4345 25.9077 78.7543 26.7012 78.3195C27.9737 77.7725 29.3244 77.4287 30.7036 77.3015C31.4738 77.3015 32.0982 76.6771 32.0982 75.9069C32.0982 75.1368 31.4738 74.5123 30.7036 74.5123C29.3237 74.3879 27.9727 74.0445 26.7012 73.4943C25.9077 73.0595 25.2766 72.3797 24.9022 71.5558C24.6407 71.0287 24.6407 70.4095 24.9022 69.8823C25.2205 69.4085 25.7299 69.0979 26.2968 69.0316C27.199 68.9469 28.1045 69.1572 28.8767 69.6313C29.9924 70.4545 30.9672 71.453 31.7635 72.5878C32.2401 73.1927 33.1169 73.297 33.7218 72.82C34.2117 72.4341 34.3857 71.7699 34.1479 71.1932C33.5677 69.936 33.1912 68.5944 33.0322 67.2187C32.9102 65.8586 33.6131 64.5571 34.8173 63.9135C34.956 63.8926 35.0969 63.8926 35.2357 63.9135C36.533 63.8299 37.551 65.3778 37.551 67.2047ZM33.2696 61.5985C31.3538 62.7933 30.2211 64.9201 30.2992 67.1768C29.004 66.4154 27.4975 66.0926 26.0039 66.2564H25.8923C26.1587 64.1611 26.531 62.0804 27.008 60.0227C28.9635 60.3518 30.9285 59.4927 32.0145 57.8332C33.4091 55.4345 32.14 52.1154 29.2254 50.414C31.1617 49.3761 32.4305 47.4178 32.5863 45.2262C32.662 45.1547 32.7237 45.0696 32.7676 44.9752C33.4928 43.6643 34.2598 42.4231 35.0408 41.168L35.0547 41.2237C35.6491 42.0587 36.4148 42.7574 37.3 43.2738C36.0013 43.992 34.9655 45.1059 34.3435 46.4534C33.7299 47.7936 33.7867 49.3454 34.4969 50.6371C34.9599 51.415 35.6582 52.0255 36.4911 52.3804C35.1488 55.3526 34.0708 58.4374 33.2696 61.5985ZM57.8142 37.2631C58.4278 38.3091 57.5911 39.9686 56.0152 40.8751C54.743 41.4228 53.392 41.7662 52.0128 41.8931C51.2426 41.8931 50.6182 42.5176 50.6182 43.2877C50.6182 44.0579 51.2426 44.6823 52.0128 44.6823C53.392 44.8092 54.743 45.1526 56.0152 45.7003C56.7488 46.1337 57.3328 46.7808 57.6887 47.5551C57.9443 48.0886 57.9443 48.7091 57.6887 49.2426C57.0751 50.2885 55.2343 50.4001 53.6584 49.4936C52.5427 48.6603 51.5641 47.6583 50.7577 46.5231C50.2811 45.9182 49.4042 45.814 48.7993 46.2909C48.3095 46.6769 48.1355 47.3411 48.3733 47.9177C48.9562 49.1798 49.3373 50.5259 49.5029 51.9062C49.5029 53.7331 48.4709 55.2672 47.2576 55.2672C46.0443 55.2672 45.1379 53.7192 45.1379 51.8923C45.3021 50.5134 45.6786 49.168 46.2535 47.9038C46.4969 47.2664 46.2431 46.5465 45.6539 46.2024C45.0612 45.8551 44.3036 45.9911 43.8688 46.5231C43.0561 47.6576 42.0729 48.6596 40.9541 49.4936C39.3783 50.4001 37.5235 50.2885 36.9238 49.2426C36.6703 48.7088 36.6703 48.0889 36.9238 47.5551C37.3038 46.7355 37.9335 46.0567 38.7228 45.6167C39.995 45.0689 41.346 44.7255 42.7252 44.5986C43.4954 44.5986 44.1198 43.9742 44.1198 43.204C44.1198 42.4339 43.4954 41.8095 42.7252 41.8095C41.3456 41.7108 39.9905 41.3953 38.7089 40.8751C37.9195 40.4351 37.2899 39.7563 36.9098 38.9366C36.6386 38.3921 36.6386 37.7519 36.9098 37.2074L36.9238 37.2631C37.5235 36.2033 39.3783 36.0917 40.9541 37.0121C42.0691 37.836 43.0439 38.8341 43.8409 39.9686C44.2718 40.5055 45.0298 40.6474 45.626 40.3033C46.2221 39.9582 46.4767 39.2295 46.2256 38.588C45.6532 37.3276 45.277 35.9874 45.11 34.6134C45.11 32.7865 46.142 31.2386 47.3413 31.2386C48.5406 31.2386 49.4889 32.6331 49.5726 34.3903C49.5095 34.6183 49.5095 34.8596 49.5726 35.0876C49.3338 36.2876 48.974 37.4605 48.4988 38.588C48.2499 39.233 48.511 39.9627 49.1124 40.3033C49.7051 40.6394 50.4543 40.4979 50.8835 39.9686C51.6823 38.831 52.6623 37.8325 53.7842 37.0121C55.3598 36.0917 57.2006 36.2172 57.8142 37.2631ZM51.8873 31.9916C51.2677 29.9576 49.4495 28.5226 47.327 28.3936C46.3072 28.3978 45.3205 28.758 44.5378 29.4117C46.3979 27.6266 48.3632 25.9549 50.423 24.4051C51.6488 24.3901 52.8495 24.0586 53.9094 23.4429C53.8571 25.4483 54.7381 27.3644 56.2941 28.6307C54.7685 29.6749 53.2975 30.7968 51.8873 31.9916ZM63.8806 24.2517C63.9183 23.9836 63.9417 23.7134 63.9504 23.4429C64.2178 23.5872 64.4925 23.7172 64.7732 23.8333L63.8806 24.2517ZM65.2055 21.0302C64.0905 20.2064 63.1157 19.2082 62.3187 18.0737C61.8421 17.4688 60.9653 17.3649 60.3604 17.8415C59.8705 18.2275 59.6966 18.8917 59.9343 19.4683C60.518 20.7245 60.8945 22.0664 61.05 23.4429C61.05 25.2698 60.032 26.8038 58.8187 26.8038C57.6054 26.8038 56.5873 25.2698 56.5873 23.4429C56.7428 22.0664 57.1194 20.7245 57.703 19.4683C57.9802 18.7498 57.6225 17.9426 56.9039 17.6651C56.7449 17.6038 56.5762 17.572 56.4061 17.5717C55.9842 17.5703 55.5843 17.76 55.3183 18.0877C54.5171 19.2183 53.5426 20.2162 52.4315 21.0442C51.6544 21.5051 50.7517 21.7101 49.8515 21.6299C48.9203 21.5912 48.1969 20.805 48.2356 19.8741C48.2467 19.6039 48.3227 19.3407 48.457 19.1061L48.5127 19.0782C48.8921 18.2648 49.5228 17.595 50.3117 17.1676C51.5857 16.6251 52.9356 16.2817 54.3142 16.1496C55.0843 16.1496 55.7088 15.5251 55.7088 14.755C55.7088 13.9848 55.0843 13.3604 54.3142 13.3604C52.9329 13.2356 51.5812 12.8873 50.3117 12.3284C49.5168 11.9024 48.8844 11.226 48.5127 10.4039C48.253 9.87152 48.253 9.24885 48.5127 8.71646C48.8269 8.24091 49.3397 7.93306 49.9073 7.87972C50.8079 7.79081 51.7133 7.99616 52.4873 8.46544C53.5984 9.29347 54.5729 10.2913 55.3741 11.4219C55.8507 12.0268 56.7275 12.1307 57.3324 11.6541C57.8222 11.2682 57.9962 10.604 57.7588 10.0274C57.1807 8.76911 56.8042 7.42787 56.6431 6.05282C56.6431 4.22592 57.6612 2.69189 58.8745 2.69189C60.0877 2.69189 61.1058 4.22592 61.1058 6.05282C60.9503 7.42927 60.5737 8.7712 59.9901 10.0274C59.6966 10.7393 60.0358 11.5548 60.7481 11.848C61.3247 12.0858 61.9889 11.9114 62.3748 11.4219C63.176 10.2913 64.1505 9.29347 65.2616 8.46544C66.0356 7.99616 66.941 7.79081 67.8416 7.87972C68.4092 7.93306 68.9221 8.24091 69.2362 8.71646C69.4959 9.24885 69.4959 9.87152 69.2362 10.4039C68.8593 11.2225 68.2282 11.8975 67.4372 12.3284C66.1671 12.8845 64.8157 13.2332 63.4347 13.3604C62.6646 13.3604 62.0401 13.9848 62.0401 14.755C62.0401 15.5251 62.6646 16.1496 63.4347 16.1496C64.8126 16.2845 66.1622 16.6276 67.4372 17.1676C68.2286 17.5985 68.8593 18.2735 69.2362 19.0921C69.498 19.6242 69.498 20.2475 69.2362 20.7796C68.6362 21.8252 66.7814 21.9367 65.2055 21.0302ZM69.0545 25.3395C69.0625 25.2513 69.0625 25.1627 69.0545 25.0745C71.2168 24.2437 73.4293 23.5496 75.6788 22.9966V30.7783C75.6788 31.5485 76.3032 32.1729 77.0734 32.1729H77.3662C83.7272 30.8491 90.2741 30.679 96.6951 31.6709H96.9043C96.9785 31.6789 97.0531 31.6789 97.1274 31.6709H97.2948C97.4147 31.6402 97.528 31.5883 97.6294 31.5175L97.7549 31.4338C97.8477 31.3641 97.9279 31.2794 97.992 31.1828L98.1036 31.0433C98.1527 30.9457 98.1901 30.8428 98.2152 30.7365C98.2186 30.6807 98.2186 30.6249 98.2152 30.5692L98.9543 22.6758C101.031 23.0454 103.084 23.5342 105.104 24.1402L104.63 32.5076C104.63 32.5076 104.63 32.5076 104.63 32.6052C104.624 32.6889 104.624 32.7726 104.63 32.8563C104.622 32.949 104.622 33.0424 104.63 33.1352C104.662 33.2032 104.699 33.2684 104.742 33.3304C104.795 33.4186 104.861 33.4985 104.937 33.5675C104.983 33.6212 105.04 33.6641 105.104 33.693C105.195 33.7645 105.293 33.8255 105.397 33.8743C111.233 35.8581 116.689 38.8198 121.533 42.6323C121.776 42.8212 122.075 42.9241 122.383 42.9251C122.531 42.953 122.682 42.953 122.829 42.9251C123.274 42.777 123.615 42.4154 123.736 41.9629L125.256 36.3846C126.853 37.8862 128.357 39.4837 129.761 41.168C129.722 41.2586 129.689 41.3517 129.663 41.4469C126.556 62.8502 130.994 84.6677 142.214 103.157V106.42L132.452 111.427C94.614 99.8989 68.8356 64.8939 69.0545 25.3395ZM78.44 29.0909V22.383C81.7142 21.7701 85.0381 21.4619 88.3694 21.4626C91.0017 21.4622 93.6305 21.6533 96.2349 22.0343L95.6212 28.6865C89.9066 27.955 84.1139 28.0913 78.44 29.0909ZM107.461 31.5593L107.894 25.0885C113.442 27.2459 118.597 30.3038 123.15 34.1393L121.756 39.1179C117.374 35.9331 112.56 33.388 107.461 31.5593ZM142.354 157.127H123.987C123.918 142.09 127.371 127.246 134.07 113.784L142.354 109.516V157.127ZM142.354 97.3555C133.618 81.0487 130.094 62.4552 132.257 44.0826C138.83 53.2293 142.362 64.2109 142.354 75.4746V97.3555ZM151.349 157.127H145.143V108.08L151.349 104.9V157.127ZM151.349 74.6378V101.762L145.143 104.942V75.4746C145.188 44.1503 119.832 18.7201 88.5082 18.6745C84.6295 18.6689 80.7606 19.0611 76.9618 19.8449C76.7892 19.8522 76.6191 19.8898 76.4597 19.9564C75.0652 20.2772 73.6009 20.6398 72.1923 21.0581C72.4294 20.0377 72.3367 18.9684 71.9274 18.004C71.3134 16.6297 70.2779 15.4868 68.9709 14.7407C69.4248 14.4789 69.8501 14.1703 70.2399 13.8203C70.5701 14.0221 70.9689 14.0776 71.3416 13.9737C104.845 4.56934 139.628 24.1053 149.032 57.6083C150.588 63.1511 151.377 68.8807 151.377 74.6378H151.349Z" fill="black"/>
<path d="M19.2333 52.4689C20.3605 52.4689 21.2743 51.5551 21.2743 50.4279C21.2743 49.3007 20.3605 48.387 19.2333 48.387C18.1062 48.387 17.1924 49.3007 17.1924 50.4279C17.1924 51.5551 18.1062 52.4689 19.2333 52.4689Z" fill="black"/>
<path d="M36.5965 74.2671C36.5941 74.265 36.5913 74.2629 36.5888 74.2612C35.7022 73.5632 34.4182 73.7128 33.716 74.5959C33.0114 75.4822 33.1585 76.7718 34.0448 77.4764C34.931 78.181 36.2207 78.0339 36.9253 77.1476C37.6299 76.2617 37.4828 74.9721 36.5965 74.2671Z" fill="black"/>
<path d="M60.2406 13.1491C59.3544 12.4445 58.0648 12.5916 57.3601 13.4779C57.358 13.4803 57.356 13.4831 57.3542 13.4855C56.6562 14.3721 56.8058 15.6562 57.6889 16.3584C58.5752 17.063 59.8648 16.9159 60.5694 16.0296C61.274 15.1437 61.1269 13.8541 60.2406 13.1491Z" fill="black"/>
<path d="M137.417 104.398C121.854 91.196 112.892 71.8124 112.914 51.4041C112.914 50.6339 112.29 50.0095 111.52 50.0095C110.749 50.0095 110.125 50.6339 110.125 51.4041C110.099 72.6285 119.419 92.7879 135.604 106.518C136.189 107.018 137.07 106.95 137.57 106.364C138.071 105.779 138.002 104.899 137.417 104.398Z" fill="black"/>
<path d="M131.016 104.817C120.177 98.0047 111.439 88.3207 105.774 76.8413C105.452 76.1415 104.624 75.8347 103.924 76.1562C103.224 76.4776 102.918 77.3057 103.239 78.0057C103.251 78.0319 103.264 78.0573 103.278 78.0828C109.165 90.0225 118.251 100.093 129.524 107.174C129.744 107.316 130 107.393 130.263 107.397C131.033 107.407 131.666 106.791 131.676 106.021C131.682 105.531 131.432 105.074 131.016 104.817Z" fill="black"/>
<path d="M43.3107 88.472C42.9669 88.3287 42.5806 88.3287 42.2368 88.472C41.883 88.601 41.5964 88.8673 41.4419 89.2111C40.023 92.4029 39.918 96.025 41.1491 99.2939C42.3627 102.574 44.8241 105.241 47.9965 106.713C48.3399 106.856 48.7265 106.856 49.0703 106.713C49.4193 106.576 49.7034 106.312 49.8652 105.974C52.8032 99.3281 49.8913 91.5529 43.3107 88.472ZM47.8291 103.436C45.959 102.206 44.5281 100.414 43.743 98.3177C42.9669 96.2248 42.8742 93.9398 43.478 91.7911C47.3023 94.3167 49.0602 99.0213 47.8291 103.436Z" fill="black"/>
<path d="M20.1328 73.7174C19.9797 73.5822 19.7988 73.4821 19.6028 73.4246C19.6028 73.3409 19.6726 73.2851 19.7005 73.2015C19.7761 72.8343 19.7005 72.4526 19.4913 72.1416C15.5331 66.0811 7.46512 64.2807 1.30596 68.0833C0.984163 68.2831 0.757544 68.6056 0.678401 68.9759C0.59891 69.3409 0.669337 69.723 0.873642 70.0358C2.79084 72.9515 5.77489 74.9994 9.18533 75.7396C9.97083 75.901 10.7685 75.9941 11.5701 76.0185C11.0098 76.4421 10.483 76.9086 9.99419 77.4131C7.57564 79.969 6.26718 83.3784 6.35434 86.8962C6.35434 87.6664 6.97876 88.2908 7.74891 88.2908C15.0049 88.0039 20.6997 81.9681 20.5651 74.7076C20.5599 74.3328 20.404 73.9761 20.1328 73.7174ZM4.09512 69.715C6.15631 68.8096 8.45213 68.585 10.6496 69.0735V69.0596C12.8112 69.5452 14.7636 70.702 16.228 72.3647C12.0379 74.2143 7.13251 73.1432 4.09512 69.715ZM14.9589 82.1407V82.1268C13.428 83.7497 11.4208 84.8437 9.22717 85.2506C9.80906 80.7053 13.2572 77.0543 17.762 76.2137C17.4764 78.4357 16.4954 80.5104 14.9589 82.1407Z" fill="black"/>
<path d="M37.7185 20.5421C37.5365 19.7936 36.7824 19.3344 36.0342 19.5161C36.0237 19.5185 36.0136 19.5213 36.0032 19.5241C32.629 20.4204 29.7401 22.6033 27.9565 25.6044C27.9565 25.716 27.8449 25.8415 27.7752 25.9531L26.799 22.0622C26.799 21.9925 26.7292 21.9367 26.7013 21.867C30.0142 15.6308 27.8777 7.8926 21.8343 4.2395C21.5173 4.0446 21.1359 3.98429 20.7744 4.07215C20.4093 4.16489 20.0977 4.40127 19.9097 4.7276C16.3546 10.8331 18.1916 18.6528 24.0935 22.5364C24.0802 22.6103 24.0802 22.6856 24.0935 22.7595L24.5955 24.7259C21.3308 20.9947 16.2654 19.3829 11.4446 20.5421C10.6961 20.7241 10.2369 21.4782 10.4186 22.2264C10.421 22.2369 10.4238 22.247 10.4266 22.2575C11.2982 25.6616 13.4849 28.5808 16.507 30.3739C18.564 31.6043 20.9156 32.2548 23.3125 32.2566C24.2507 32.2454 25.1854 32.138 26.1017 31.9358C26.0563 33.1645 26.1784 34.3938 26.4643 35.5896C26.5539 35.9522 26.7847 36.2636 27.1058 36.4543C27.4283 36.6481 27.8156 36.7035 28.1796 36.6077C35.2027 34.7424 39.4426 27.6011 37.7185 20.5421ZM17.9713 28.0171C16.0405 26.8913 14.5281 25.1683 13.662 23.1081C15.8808 22.8836 18.1132 23.3721 20.0353 24.5027C21.9556 25.6372 23.461 27.3578 24.3306 29.4116C22.1163 29.6362 19.8881 29.1474 17.9713 28.0171ZM24.7071 19.552C22.989 18.1271 21.768 16.1935 21.2206 14.0294C20.6625 11.8685 20.8138 9.58492 21.653 7.51676C25.176 10.4401 26.4099 15.3027 24.7071 19.552ZM28.9187 33.428C28.7085 31.2005 29.2116 28.964 30.3551 27.0409C31.491 25.1219 33.2112 23.6165 35.2641 22.7456C35.6856 27.3048 33.1241 31.6172 28.9187 33.428Z" fill="black"/>
<path d="M102.859 149.122H82.4007C81.6305 149.122 81.0061 149.747 81.0061 150.517C81.0061 151.287 81.6305 151.911 82.4007 151.911H102.859C103.629 151.911 104.254 151.287 104.254 150.517C104.254 149.747 103.629 149.122 102.859 149.122Z" fill="black"/>
</g>
<defs>
<clipPath id="clip0_296_19683">
<rect width="160" height="160" fill="white"/>
</clipPath>
</defs>
</svg>
