<svg width="160" height="160" viewBox="0 0 160 160" fill="none" xmlns="http://www.w3.org/2000/svg">
<path d="M155 57.5H151.035L156.768 51.7675C157.117 51.4179 157.355 50.9725 157.451 50.4876C157.548 50.0027 157.498 49.5001 157.309 49.0434C157.12 48.5866 156.8 48.1962 156.389 47.9215C155.978 47.6468 155.494 47.5001 155 47.5H151.035L156.768 41.7675C157.117 41.4179 157.355 40.9725 157.451 40.4876C157.548 40.0027 157.498 39.5001 157.309 39.0434C157.12 38.5866 156.8 38.1962 156.389 37.9215C155.978 37.6468 155.494 37.5001 155 37.5H151.035L156.768 31.7675C157.117 31.4179 157.355 30.9725 157.451 30.4876C157.548 30.0027 157.498 29.5001 157.309 29.0434C157.12 28.5866 156.8 28.1962 156.389 27.9215C155.978 27.6468 155.494 27.5001 155 27.5H151.035L156.768 21.7675C157.117 21.4179 157.355 20.9725 157.451 20.4876C157.548 20.0027 157.498 19.5001 157.309 19.0434C157.12 18.5866 156.8 18.1962 156.389 17.9215C155.978 17.6468 155.494 17.5001 155 17.5H115C114.506 17.5001 114.022 17.6468 113.611 17.9215C113.2 18.1962 112.88 18.5866 112.691 19.0434C112.502 19.5001 112.452 20.0027 112.549 20.4876C112.645 20.9725 112.883 21.4179 113.232 21.7675L118.965 27.5H115C114.506 27.5001 114.022 27.6468 113.611 27.9215C113.2 28.1962 112.88 28.5866 112.691 29.0434C112.502 29.5001 112.452 30.0027 112.549 30.4876C112.645 30.9725 112.883 31.4179 113.232 31.7675L118.965 37.5H115C114.506 37.5001 114.022 37.6468 113.611 37.9215C113.2 38.1962 112.88 38.5866 112.691 39.0434C112.502 39.5001 112.452 40.0027 112.549 40.4876C112.645 40.9725 112.883 41.4179 113.232 41.7675L118.965 47.5H115C114.506 47.5001 114.022 47.6468 113.611 47.9215C113.2 48.1962 112.88 48.5866 112.691 49.0434C112.502 49.5001 112.452 50.0027 112.549 50.4876C112.645 50.9725 112.883 51.4179 113.232 51.7675L118.965 57.5H97.5V52.25C100.321 51.6698 102.857 50.1346 104.678 47.9031C106.5 45.6717 107.496 42.8805 107.5 40V20C107.5 18.0109 106.71 16.1032 105.303 14.6967C103.897 13.2902 101.989 12.5 100 12.5H92.5C92.5 9.84784 91.4464 7.3043 89.5711 5.42893C87.6957 3.55357 85.1522 2.5 82.5 2.5C79.8478 2.5 77.3043 3.55357 75.4289 5.42893C73.5536 7.3043 72.5 9.84784 72.5 12.5H65C63.0109 12.5 61.1032 13.2902 59.6967 14.6967C58.2902 16.1032 57.5 18.0109 57.5 20V40C57.5036 42.8805 58.5002 45.6717 60.3218 47.9031C62.1434 50.1346 64.6785 51.6698 67.5 52.25V57.5H42.5V52.25C45.3215 51.6698 47.8566 50.1346 49.6782 47.9031C51.4998 45.6717 52.4964 42.8805 52.5 40V20C52.5 18.0109 51.7098 16.1032 50.3033 14.6967C48.8968 13.2902 46.9891 12.5 45 12.5H37.5C37.5 9.84784 36.4464 7.3043 34.5711 5.42893C32.6957 3.55357 30.1522 2.5 27.5 2.5C24.8478 2.5 22.3043 3.55357 20.4289 5.42893C18.5536 7.3043 17.5 9.84784 17.5 12.5H10C8.01088 12.5 6.10322 13.2902 4.6967 14.6967C3.29018 16.1032 2.5 18.0109 2.5 20V40C2.50364 42.8805 3.50023 45.6717 5.3218 47.9031C7.14337 50.1346 9.67853 51.6698 12.5 52.25V57.5H5C4.33696 57.5 3.70107 57.7634 3.23223 58.2322C2.76339 58.7011 2.5 59.337 2.5 60V75C2.5 75.663 2.76339 76.2989 3.23223 76.7678C3.70107 77.2366 4.33696 77.5 5 77.5H12.5V155C12.5 155.663 12.7634 156.299 13.2322 156.768C13.7011 157.237 14.337 157.5 15 157.5H25C25.663 157.5 26.2989 157.237 26.7678 156.768C27.2366 156.299 27.5 155.663 27.5 155V127.5H132.5V155C132.5 155.663 132.763 156.299 133.232 156.768C133.701 157.237 134.337 157.5 135 157.5H145C145.663 157.5 146.299 157.237 146.768 156.768C147.237 156.299 147.5 155.663 147.5 155V77.5H155C155.663 77.5 156.299 77.2366 156.768 76.7678C157.237 76.2989 157.5 75.663 157.5 75V60C157.5 59.337 157.237 58.7011 156.768 58.2322C156.299 57.7634 155.663 57.5 155 57.5ZM121.035 22.5H148.965L143.965 27.5H126.035L121.035 22.5ZM121.035 32.5H148.965L143.965 37.5H126.035L121.035 32.5ZM121.035 42.5H148.965L143.965 47.5H126.035L121.035 42.5ZM121.035 52.5H148.965L143.965 57.5H126.035L121.035 52.5ZM27.5 77.5H51.465L73.965 100C75.5656 101.601 77.7365 102.5 80 102.5C82.2635 102.5 84.4344 101.601 86.035 100L108.535 77.5H132.5V112.5H27.5V77.5ZM82.5 96.465C81.8257 97.1064 80.9306 97.4641 80 97.4641C79.0694 97.4641 78.1743 97.1064 77.5 96.465L43.535 62.5H116.465L82.5 96.465ZM82.5 7.5C83.8261 7.5 85.0979 8.02678 86.0355 8.96447C86.9732 9.90215 87.5 11.1739 87.5 12.5H77.5C77.5 11.1739 78.0268 9.90215 78.9645 8.96447C79.9021 8.02678 81.1739 7.5 82.5 7.5ZM65 17.5H100C100.663 17.5 101.299 17.7634 101.768 18.2322C102.237 18.7011 102.5 19.337 102.5 20V22.5H62.5V20C62.5 19.337 62.7634 18.7011 63.2322 18.2322C63.7011 17.7634 64.337 17.5 65 17.5ZM62.5 40V27.5H102.5V40C102.5 41.9891 101.71 43.8968 100.303 45.3033C98.8968 46.7098 96.9891 47.5 95 47.5H70C68.0109 47.5 66.1032 46.7098 64.6967 45.3033C63.2902 43.8968 62.5 41.9891 62.5 40ZM72.5 52.5H92.5V57.5H72.5V52.5ZM27.5 7.5C28.8261 7.5 30.0979 8.02678 31.0355 8.96447C31.9732 9.90215 32.5 11.1739 32.5 12.5H22.5C22.5 11.1739 23.0268 9.90215 23.9645 8.96447C24.9021 8.02678 26.1739 7.5 27.5 7.5ZM10 17.5H45C45.663 17.5 46.2989 17.7634 46.7678 18.2322C47.2366 18.7011 47.5 19.337 47.5 20V22.5H7.5V20C7.5 19.337 7.76339 18.7011 8.23223 18.2322C8.70107 17.7634 9.33696 17.5 10 17.5ZM7.5 40V27.5H47.5V40C47.5 41.9891 46.7098 43.8968 45.3033 45.3033C43.8968 46.7098 41.9891 47.5 40 47.5H15C13.0109 47.5 11.1032 46.7098 9.6967 45.3033C8.29018 43.8968 7.5 41.9891 7.5 40ZM17.5 52.5H37.5V57.5H17.5V52.5ZM7.5 62.5H36.465L46.465 72.5H7.5V62.5ZM17.5 152.5V77.5H22.5V152.5H17.5ZM27.5 122.5V117.5H132.5V122.5H27.5ZM142.5 152.5H137.5V77.5H142.5V152.5ZM152.5 72.5H113.535L123.535 62.5H152.5V72.5Z" fill="black"/>
</svg>
