<svg width="120" height="120" viewBox="0 0 120 120" fill="none" xmlns="http://www.w3.org/2000/svg">
<g clip-path="url(#clip0_332_948)">
<path d="M105.9 54.1875L99.4444 53.1131C98.6209 52.977 97.8382 52.6588 97.1535 52.1816C96.4687 51.7044 95.8991 51.0804 95.4862 50.355L86.5706 34.755C85.0922 32.1741 82.9592 30.0288 80.3868 28.5355C77.8144 27.0423 74.8937 26.2539 71.9194 26.25H40.5806C37.6064 26.2537 34.6859 27.0418 32.1135 28.5347C29.5412 30.0276 27.4081 32.1726 25.9294 34.7531L16.8356 50.6662C16.4574 51.3244 15.9505 51.8996 15.3452 52.3577C14.7399 52.8158 14.0486 53.1473 13.3125 53.3325L7.09875 54.885C5.55164 55.2723 4.12936 56.049 2.96723 57.1412C1.80509 58.2334 0.941761 59.6049 0.459375 61.125C0.43875 61.1737 0.436875 61.2319 0.42 61.2825C0.148541 62.1564 0.00702841 63.0655 0 63.9806L0 76.875C0.00297723 79.3605 0.991654 81.7433 2.74916 83.5008C4.50667 85.2583 6.88951 86.247 9.375 86.25H16.2844C17.3448 88.4934 19.0208 90.3893 21.117 91.7171C23.2133 93.0448 25.6436 93.7498 28.125 93.7498C30.6064 93.7498 33.0367 93.0448 35.133 91.7171C37.2292 90.3893 38.9052 88.4934 39.9656 86.25H80.0344C81.0948 88.4934 82.7708 90.3893 84.867 91.7171C86.9633 93.0448 89.3936 93.7498 91.875 93.7498C94.3564 93.7498 96.7867 93.0448 98.883 91.7171C100.979 90.3893 102.655 88.4934 103.716 86.25H110.625C113.11 86.247 115.493 85.2583 117.251 83.5008C119.008 81.7433 119.997 79.3605 120 76.875V70.8319C120.01 66.8348 118.597 62.9648 116.013 59.9149C113.429 56.8651 109.844 54.8347 105.9 54.1875ZM114.176 63.75C114.918 64.9059 115.473 66.1714 115.821 67.5H114.375C112.888 67.4996 111.46 66.912 110.404 65.865C109.81 65.2665 109.355 64.5443 109.073 63.75H114.176ZM3.76875 63.75H6.97312L6.03562 67.5H3.75V63.9806C3.75 63.9019 3.76688 63.8269 3.76875 63.75ZM28.125 90C26.2708 90 24.4582 89.4502 22.9165 88.42C21.3748 87.3899 20.1732 85.9257 19.4636 84.2127C18.7541 82.4996 18.5684 80.6146 18.9301 78.796C19.2919 76.9775 20.1848 75.307 21.4959 73.9959C22.807 72.6848 24.4775 71.7919 26.296 71.4301C28.1146 71.0684 29.9996 71.2541 31.7127 71.9636C33.4257 72.6732 34.8899 73.8748 35.92 75.4165C36.9502 76.9582 37.5 78.7708 37.5 80.625C37.497 83.1105 36.5083 85.4933 34.7508 87.2508C32.9933 89.0083 30.6105 89.997 28.125 90ZM91.875 90C90.0208 90 88.2082 89.4502 86.6665 88.42C85.1248 87.3899 83.9232 85.9257 83.2136 84.2127C82.5041 82.4996 82.3184 80.6146 82.6801 78.796C83.0419 76.9775 83.9348 75.307 85.2459 73.9959C86.557 72.6848 88.2275 71.7919 90.046 71.4301C91.8646 71.0684 93.7496 71.2541 95.4627 71.9636C97.1757 72.6732 98.6399 73.8748 99.67 75.4165C100.7 76.9582 101.25 78.7708 101.25 80.625C101.247 83.1105 100.258 85.4933 98.5008 87.2508C96.7433 89.0083 94.3605 89.997 91.875 90ZM110.625 82.5H104.85C105.135 80.6307 105.013 78.7219 104.492 76.9043C103.971 75.0866 103.063 73.403 101.831 71.9687C100.599 70.5344 99.0711 69.3833 97.3528 68.5941C95.6344 67.8049 93.7659 67.3964 91.875 67.3964C89.9841 67.3964 88.1156 67.8049 86.3972 68.5941C84.6789 69.3833 83.1514 70.5344 81.9192 71.9687C80.6871 73.403 79.7794 75.0866 79.2583 76.9043C78.7372 78.7219 78.6149 80.6307 78.9 82.5H41.1C41.3851 80.6307 41.2629 78.7219 40.7417 76.9043C40.2206 75.0866 39.3129 73.403 38.0808 71.9687C36.8486 70.5344 35.3211 69.3833 33.6028 68.5941C31.8844 67.8049 30.0159 67.3964 28.125 67.3964C26.2341 67.3964 24.3656 67.8049 22.6472 68.5941C20.9289 69.3833 19.4014 70.5344 18.1692 71.9687C16.9371 73.403 16.0294 75.0866 15.5083 76.9043C14.9872 78.7219 14.8649 80.6307 15.15 82.5H9.375C7.88316 82.5 6.45242 81.9074 5.39752 80.8525C4.34263 79.7976 3.75 78.3668 3.75 76.875V71.25H7.5C7.91799 71.25 8.32399 71.1103 8.65351 70.8531C8.98304 70.596 9.21718 70.2361 9.31875 69.8306L11.1937 62.3306C11.263 62.0542 11.2683 61.7655 11.2093 61.4867C11.1503 61.2079 11.0285 60.9462 10.8531 60.7215C10.6778 60.4968 10.4535 60.315 10.1974 60.19C9.94127 60.065 9.66001 60 9.375 60H5.41687C6.13169 59.2824 7.02796 58.7724 8.01 58.5244L14.2256 56.97C15.4513 56.6605 16.6022 56.1076 17.6098 55.3442C18.6174 54.5808 19.4611 53.6225 20.0906 52.5262L29.1844 36.6131C30.3348 34.6061 31.994 32.938 33.9949 31.7769C35.9957 30.6159 38.2673 30.003 40.5806 30H71.9194C74.2327 30.003 76.5043 30.6159 78.5051 31.7769C80.506 32.938 82.1652 34.6061 83.3156 36.6131L92.2294 52.2131C92.9169 53.423 93.8662 54.4639 95.0078 55.2596C96.1494 56.0554 97.4545 56.586 98.8275 56.8125L105.283 57.8888C107.171 58.2011 108.968 58.9216 110.548 60H106.875C106.378 60 105.901 60.1975 105.549 60.5492C105.198 60.9008 105 61.3777 105 61.875C104.999 63.1065 105.24 64.3261 105.711 65.4641C106.182 66.6021 106.872 67.6361 107.743 68.5069C108.614 69.3777 109.648 70.0682 110.786 70.5389C111.924 71.0096 113.144 71.2512 114.375 71.25H116.25V76.875C116.25 78.3668 115.657 79.7976 114.602 80.8525C113.548 81.9074 112.117 82.5 110.625 82.5Z" fill="black"/>
<path d="M85.2337 44.0344C84.9777 43.608 84.5626 43.3007 84.08 43.1803C83.5974 43.0599 83.0867 43.1361 82.6603 43.3922C82.2339 43.6483 81.9267 44.0633 81.8062 44.5459C81.6858 45.0285 81.762 45.5392 82.0181 45.9656L84.8138 50.625H61.875V35.625H72.6281C73.5992 35.6277 74.5532 35.8804 75.3982 36.3589C76.2432 36.8374 76.9507 37.5255 77.4525 38.3569L78.6413 40.3406C78.8974 40.767 79.3124 41.0743 79.795 41.1947C80.2776 41.3151 80.7883 41.2389 81.2147 40.9828C81.6411 40.7267 81.9483 40.3117 82.0688 39.8291C82.1892 39.3465 82.113 38.8358 81.8569 38.4094L80.6662 36.4256C79.8301 35.0406 78.6513 33.8943 77.2434 33.0972C75.8355 32.3002 74.246 31.8792 72.6281 31.875H60C59.5027 31.875 59.0258 32.0725 58.6742 32.4242C58.3225 32.7758 58.125 33.2527 58.125 33.75V52.5C58.125 52.9973 58.3225 53.4742 58.6742 53.8258C59.0258 54.1775 59.5027 54.375 60 54.375H88.125C88.4569 54.3749 88.7828 54.2868 89.0694 54.1196C89.3561 53.9523 89.5932 53.712 89.7566 53.4232C89.92 53.1343 90.0038 52.8073 89.9995 52.4754C89.9951 52.1436 89.9028 51.8189 89.7319 51.5344L85.2337 44.0344Z" fill="black"/>
<path d="M52.4999 31.875H39.8718C38.2539 31.8792 36.6644 32.3002 35.2565 33.0972C33.8486 33.8943 32.6698 35.0406 31.8336 36.4256L22.768 51.5344C22.5971 51.8189 22.5048 52.1436 22.5004 52.4754C22.4961 52.8073 22.5799 53.1343 22.7433 53.4232C22.9067 53.712 23.1438 53.9523 23.4305 54.1196C23.7171 54.2868 24.043 54.3749 24.3749 54.375H52.4999C52.9972 54.375 53.4741 54.1775 53.8257 53.8258C54.1773 53.4742 54.3749 52.9973 54.3749 52.5V33.75C54.3749 33.2527 54.1773 32.7758 53.8257 32.4242C53.4741 32.0725 52.9972 31.875 52.4999 31.875ZM50.6249 50.625H27.6861L35.0474 38.3569C35.5492 37.5255 36.2567 36.8374 37.1017 36.3589C37.9467 35.8804 38.9007 35.6277 39.8718 35.625H50.6249V50.625Z" fill="black"/>
<path d="M63.75 56.25H60C59.5027 56.25 59.0258 56.4475 58.6742 56.7992C58.3225 57.1508 58.125 57.6277 58.125 58.125C58.125 58.6223 58.3225 59.0992 58.6742 59.4508C59.0258 59.8025 59.5027 60 60 60H63.75C64.2473 60 64.7242 59.8025 65.0758 59.4508C65.4275 59.0992 65.625 58.6223 65.625 58.125C65.625 57.6277 65.4275 57.1508 65.0758 56.7992C64.7242 56.4475 64.2473 56.25 63.75 56.25Z" fill="black"/>
<path d="M28.125 56.25H24.375C23.8777 56.25 23.4008 56.4475 23.0492 56.7992C22.6975 57.1508 22.5 57.6277 22.5 58.125C22.5 58.6223 22.6975 59.0992 23.0492 59.4508C23.4008 59.8025 23.8777 60 24.375 60H28.125C28.6223 60 29.0992 59.8025 29.4508 59.4508C29.8025 59.0992 30 58.6223 30 58.125C30 57.6277 29.8025 57.1508 29.4508 56.7992C29.0992 56.4475 28.6223 56.25 28.125 56.25Z" fill="black"/>
<path d="M91.875 75C90.7625 75 89.6749 75.3299 88.7499 75.948C87.8249 76.5661 87.1039 77.4446 86.6782 78.4724C86.2524 79.5002 86.141 80.6312 86.3581 81.7224C86.5751 82.8135 87.1109 83.8158 87.8975 84.6025C88.6842 85.3891 89.6865 85.9249 90.7776 86.1419C91.8688 86.359 92.9998 86.2476 94.0276 85.8218C95.0554 85.3961 95.9339 84.6751 96.552 83.7501C97.1701 82.8251 97.5 81.7375 97.5 80.625C97.5 79.1332 96.9074 77.7024 95.8525 76.6475C94.7976 75.5926 93.3668 75 91.875 75ZM91.875 82.5C91.5042 82.5 91.1417 82.39 90.8333 82.184C90.525 81.978 90.2846 81.6851 90.1427 81.3425C90.0008 80.9999 89.9637 80.6229 90.036 80.2592C90.1084 79.8955 90.287 79.5614 90.5492 79.2992C90.8114 79.037 91.1455 78.8584 91.5092 78.786C91.8729 78.7137 92.2499 78.7508 92.5925 78.8927C92.9351 79.0346 93.228 79.275 93.434 79.5833C93.64 79.8917 93.75 80.2542 93.75 80.625C93.75 81.1223 93.5525 81.5992 93.2008 81.9508C92.8492 82.3025 92.3723 82.5 91.875 82.5Z" fill="black"/>
<path d="M28.125 75C27.0125 75 25.9249 75.3299 24.9999 75.948C24.0749 76.5661 23.3539 77.4446 22.9282 78.4724C22.5024 79.5002 22.391 80.6312 22.6081 81.7224C22.8251 82.8135 23.3609 83.8158 24.1475 84.6025C24.9342 85.3891 25.9365 85.9249 27.0276 86.1419C28.1188 86.359 29.2498 86.2476 30.2776 85.8218C31.3054 85.3961 32.1839 84.6751 32.802 83.7501C33.4201 82.8251 33.75 81.7375 33.75 80.625C33.75 79.1332 33.1574 77.7024 32.1025 76.6475C31.0476 75.5926 29.6168 75 28.125 75ZM28.125 82.5C27.7542 82.5 27.3917 82.39 27.0833 82.184C26.775 81.978 26.5346 81.6851 26.3927 81.3425C26.2508 80.9999 26.2137 80.6229 26.286 80.2592C26.3584 79.8955 26.537 79.5614 26.7992 79.2992C27.0614 79.037 27.3955 78.8584 27.7592 78.786C28.1229 78.7137 28.4999 78.7508 28.8425 78.8927C29.1851 79.0346 29.478 79.275 29.684 79.5833C29.89 79.8917 30 80.2542 30 80.625C30 81.1223 29.8025 81.5992 29.4508 81.9508C29.0992 82.3025 28.6223 82.5 28.125 82.5Z" fill="black"/>
</g>
<defs>
<clipPath id="clip0_332_948">
<rect width="120" height="120" fill="white"/>
</clipPath>
</defs>
</svg>
