<svg width="120" height="120" viewBox="0 0 120 120" fill="none" xmlns="http://www.w3.org/2000/svg">
<g clip-path="url(#clip0_332_788)">
<path d="M75 67.5C76.0369 67.5 76.875 66.6619 76.875 65.625V62.6025L80.0325 63.6544C81.0244 63.9844 82.0781 63.4519 82.4044 62.4694C82.7325 61.4869 82.2019 60.4237 81.2194 60.0975L75.5944 58.2225C75.0225 58.0256 74.3925 58.1269 73.905 58.4794C73.4138 58.8319 73.125 59.3981 73.125 60V65.625C73.125 66.6619 73.9631 67.5 75 67.5Z" fill="black"/>
<path d="M113.209 82.9069C118.691 67.9406 112.335 56.0006 107.16 46.3237C101.364 35.4956 98.4656 29.0269 106.254 22.0181C107.023 21.3262 107.085 20.1394 106.393 19.3706C105.701 18.6 104.514 18.5381 103.746 19.2319C93.3938 28.5487 98.4731 38.0419 103.853 48.0937C109.041 57.7912 114.874 68.76 109.294 82.6369C105.444 83.19 102.349 86.0587 101.497 89.805L100.935 88.9612C100.798 88.7569 100.62 88.5787 100.416 88.4419L86.73 79.3181L88.7194 78.6544C89.19 78.4987 89.58 78.1594 89.8031 77.715C89.8838 77.5519 91.7363 73.7831 91.8694 68.1375L97.125 61.125C97.5525 60.5569 97.62 59.7956 97.3013 59.16C96.9844 58.5262 96.3356 58.125 95.625 58.125C95.625 58.125 95.6231 58.125 95.6213 58.125L89.0119 58.1362C84.1837 52.9219 75.6975 52.5 73.125 52.5C66.9412 52.5 62.0288 56.8481 59.7975 59.235C56.8594 56.9475 49.8056 52.5 39.375 52.5C27.4387 52.5 20.0044 55.5 18.285 56.2725C17.4956 56.3062 15.4294 56.25 13.7419 55.3369C12.0656 54.4275 11.25 52.8862 11.25 50.625C11.25 30.9937 5.0025 30 3.75 30C2.81625 30 2.025 30.6862 1.89375 31.6087C1.81687 32.1506 0 44.955 0 52.5C0 63.1894 8.08875 67.83 13.365 69.0919L14.9494 78.6C14.4319 80.1731 13.125 84.3469 13.125 86.25C13.125 94.5919 21.0394 100.622 21.375 100.875C21.6994 101.119 22.0931 101.25 22.5 101.25H37.5C37.515 101.252 37.53 101.25 37.5356 101.25C38.5725 101.25 39.4106 100.412 39.4106 99.375C39.4106 99.0225 39.3131 98.6925 39.1444 98.4094C38.5669 96.8831 36.3319 91.875 31.875 91.875H29.2838L28.7663 90.8381L33.6225 88.41C35.3325 89.5219 36.8906 90.4275 38.4356 91.1812C40.5319 96.885 45.525 100.706 45.7463 100.873C46.0706 101.119 46.4681 101.25 46.875 101.25H58.125C58.7269 101.25 59.2931 100.961 59.6456 100.472C59.9981 99.9825 60.0938 99.3525 59.9025 98.7825C59.73 98.265 58.4925 94.8075 55.8956 92.9906C60.0206 91.89 63.5981 89.8444 65.4356 88.6537C67.9087 90.8944 73.7156 95.625 78.75 95.625C81.0675 95.625 82.3256 94.995 83.3381 94.4906C84.1969 94.0594 84.8175 93.75 86.25 93.75C87.2344 93.75 89.2144 95.1225 90.8063 96.2269C93.1387 97.8469 95.3419 99.375 97.5 99.375C100.337 99.375 102.289 98.4769 103.393 97.7662C105.113 99.8737 107.698 101.25 110.625 101.25C115.794 101.25 120 97.0444 120 91.875C120 87.6094 117.116 84.0375 113.209 82.9069ZM47.5425 97.5C46.7344 96.8081 45.0244 95.2031 43.5881 93.045C45.4856 93.4819 47.5781 93.6994 50.0156 93.7312C50.4731 94.9031 51.3581 95.625 52.5 95.625C53.5106 95.625 54.4106 96.5025 55.095 97.5H47.5425ZM97.5 95.625C96.5156 95.625 94.5356 94.2525 92.9437 93.1481C90.6113 91.5281 88.4081 90 86.25 90C83.9325 90 82.6744 90.63 81.6619 91.1344C80.8031 91.5656 80.1825 91.875 78.75 91.875C74.7844 91.875 68.8875 86.8556 66.9506 84.9244C66.2887 84.2644 65.2463 84.1931 64.5 84.7481C64.4306 84.8006 57.3919 90 50.625 90C46.455 90 43.59 89.3944 40.8337 88.1756C40.8187 88.1681 40.8019 88.1644 40.7869 88.155C38.8725 87.3037 37.005 86.1637 34.7906 84.6881C34.2319 84.3169 33.5156 84.27 32.9119 84.5719L25.4119 88.3219C24.4856 88.785 24.1106 89.9118 24.5737 90.8381L26.4487 94.5881C26.7656 95.2237 27.4144 95.625 28.125 95.625H31.875C32.8856 95.625 33.7856 96.5025 34.47 97.5H23.1675C21.645 96.2025 16.875 91.6987 16.875 86.25C16.875 85.1287 17.9137 81.54 18.6506 79.3481C18.75 79.0575 18.7744 78.7444 18.7238 78.4425L16.8488 67.1925C16.7156 66.3844 16.0744 65.7581 15.2644 65.6437C14.7956 65.5781 3.75 63.8681 3.75 52.5C3.75 47.5369 4.605 39.9356 5.15438 35.5612C6.2475 37.5994 7.5 41.8481 7.5 50.625C7.5 55.2506 9.92437 57.5325 11.9569 58.635C15.1969 60.3881 18.9263 59.9925 18.9263 59.9925C19.1531 59.97 19.3856 59.9062 19.5881 59.8031C19.6594 59.7656 26.8369 56.25 39.375 56.25C51.5025 56.25 58.6087 63.135 58.6744 63.2006C59.0588 63.585 59.6194 63.7762 60.1294 63.7444C60.6712 63.705 61.1719 63.435 61.4963 63.0019C61.5488 62.9344 66.675 56.25 73.125 56.25C77.7825 56.25 83.7919 57.5437 86.685 61.1812C87.0394 61.6275 87.5813 61.8881 88.1513 61.8881H88.155L91.8675 61.8825L88.5 66.375C88.2562 66.6994 88.125 67.0931 88.125 67.5C88.125 71.2575 87.21 74.1225 86.7319 75.3619L82.6575 76.7212C79.0837 74.8369 74.2162 71.6006 74.1656 71.565C73.2994 70.9894 72.1387 71.2219 71.565 72.0844C70.9894 72.9469 71.2219 74.1094 72.0844 74.685C72.3169 74.8387 98.0231 91.3519 98.0231 91.3519L100.496 95.0625C99.7894 95.3587 98.79 95.625 97.5 95.625ZM110.625 97.5C107.524 97.5 105 94.9762 105 91.875C105 88.7737 107.524 86.25 110.625 86.25C113.726 86.25 116.25 88.7737 116.25 91.875C116.25 94.9762 113.726 97.5 110.625 97.5Z" fill="black"/>
</g>
<defs>
<clipPath id="clip0_332_788">
<rect width="120" height="120" fill="white"/>
</clipPath>
</defs>
</svg>
