<svg width="32" height="32" viewBox="0 0 32 32" fill="none" xmlns="http://www.w3.org/2000/svg">
<path d="M14.208 18.304L11.424 15.52C11.1893 15.2853 10.9013 15.168 10.56 15.168C10.2186 15.168 9.91995 15.296 9.66395 15.552C9.42928 15.7867 9.31195 16.0853 9.31195 16.448C9.31195 16.8107 9.42928 17.1093 9.66395 17.344L13.312 20.992C13.5466 21.2267 13.8453 21.344 14.208 21.344C14.5706 21.344 14.8693 21.2267 15.104 20.992L22.368 13.728C22.6026 13.4933 22.72 13.2053 22.72 12.864C22.72 12.5227 22.592 12.224 22.336 11.968C22.1013 11.7333 21.8026 11.616 21.44 11.616C21.0773 11.616 20.7786 11.7333 20.544 11.968L14.208 18.304ZM16 28.8C14.2293 28.8 12.5653 28.4638 11.008 27.7914C9.45062 27.1198 8.09595 26.208 6.94395 25.056C5.79195 23.904 4.88016 22.5493 4.20859 20.992C3.53616 19.4347 3.19995 17.7707 3.19995 16C3.19995 14.2293 3.53616 12.5653 4.20859 11.008C4.88016 9.45068 5.79195 8.09601 6.94395 6.94401C8.09595 5.79201 9.45062 4.8798 11.008 4.20737C12.5653 3.5358 14.2293 3.20001 16 3.20001C17.7706 3.20001 19.4346 3.5358 20.992 4.20737C22.5493 4.8798 23.904 5.79201 25.056 6.94401C26.208 8.09601 27.1197 9.45068 27.7913 11.008C28.4637 12.5653 28.8 14.2293 28.8 16C28.8 17.7707 28.4637 19.4347 27.7913 20.992C27.1197 22.5493 26.208 23.904 25.056 25.056C23.904 26.208 22.5493 27.1198 20.992 27.7914C19.4346 28.4638 17.7706 28.8 16 28.8Z" fill="#F9F5F0"/>
</svg>
