<svg width="160" height="160" viewBox="0 0 160 160" fill="none" xmlns="http://www.w3.org/2000/svg">
<path d="M113.242 89.2749C112.654 88.1192 111.241 87.6586 110.086 88.2457C108.93 88.833 108.47 90.2456 109.057 91.4013C116.148 105.355 124.546 127.367 125.217 154.214L119.458 151.989C117.286 151.15 115.018 150.658 112.732 150.506C111.79 138.878 109.505 127.366 105.926 116.263L105.385 114.583C104.987 113.349 103.664 112.671 102.431 113.069C101.197 113.467 100.52 114.789 100.917 116.023L101.458 117.703C104.905 128.396 107.115 139.48 108.038 150.678C106.449 150.902 104.876 151.288 103.348 151.848L101.032 152.697C96.7439 154.269 92.0574 154.174 87.8366 152.429C85.8044 151.589 83.6952 151.056 81.5647 150.822V119.025C81.5647 117.728 80.5142 116.678 79.2177 116.678C77.9216 116.678 76.8707 117.728 76.8707 119.025V150.797C74.7218 151.01 72.592 151.529 70.5375 152.358L70.4609 152.389C66.0961 154.153 61.2847 154.162 56.9127 152.416L56.519 152.258C54.4245 151.422 52.2487 150.908 50.0538 150.712C51.0051 139.716 53.1975 128.834 56.5838 118.329L57.1252 116.649C57.5229 115.415 56.8451 114.092 55.6115 113.695C54.3773 113.297 53.0555 113.975 52.6577 115.209L52.1163 116.889C48.5727 127.883 46.2954 139.277 45.3366 150.787C43.3686 151.023 41.4206 151.511 39.5389 152.265L34.7851 154.168C35.4194 129.351 42.7042 108.778 48.8596 95.6663C54.6107 83.4149 60.4282 75.3115 62.3599 72.7623H97.6414C98.8475 74.3517 101.563 78.0953 104.812 83.6327C105.468 84.7508 106.906 85.1248 108.024 84.4692C109.142 83.8133 109.516 82.375 108.861 81.2572C105.175 74.9763 102.186 70.9567 101.071 69.5187V61.9538C103.227 56.413 107.065 47.4149 108.703 45.6196C115.426 38.2519 116.687 27.4444 111.841 18.7269L110.821 16.8903C109.812 15.0756 109.121 13.1185 108.765 11.0735L107.179 1.9452C106.983 0.820827 106.007 0 104.866 0H98.492C98.3962 0 98.3027 0.00751043 98.21 0.0184631C98.1744 0.0222184 98.1387 0.0294158 98.103 0.0347357C98.0686 0.0403686 98.0342 0.0450626 98.0004 0.0522601C97.73 0.106711 97.4659 0.207163 97.2215 0.361439L92.2089 3.52177C84.7967 8.19482 75.2181 8.19513 67.8056 3.52177L62.7927 0.361126C62.3909 0.107649 61.9412 -0.00657163 61.4984 0.00219054C61.48 0.00219054 61.4618 0 61.4434 0H55.0695C53.9285 0 52.9525 0.820827 52.7572 1.94489L51.1703 11.0735C50.8148 13.1185 50.1233 15.0753 49.1147 16.89L48.0942 18.7263C45.7203 22.9976 44.7646 27.8202 45.33 32.6738C45.3304 32.6754 45.3304 32.6766 45.3304 32.6782C45.8971 37.5334 47.9377 42.0083 51.2323 45.619C51.4176 45.8221 51.9646 46.5196 53.0417 48.6066C53.4585 49.4142 54.279 49.8777 55.1293 49.8777C55.4917 49.8777 55.8594 49.7935 56.2036 49.6158C57.3555 49.0215 57.8077 47.6058 57.2131 46.4539C56.2045 44.4993 55.4059 43.2288 54.6999 42.4549C52.0725 39.5753 50.445 36.0062 49.9928 32.134C49.5409 28.2617 50.3032 24.4136 52.1971 21.006L53.2176 19.1697C54.4821 16.8947 55.3493 14.4407 55.7949 11.8765L57.0438 4.69402H59.1987C59.6931 10.1804 61.9841 14.8131 65.8795 18.1643C69.6447 21.4035 74.6479 23.1872 79.9678 23.1872C85.2871 23.1872 90.2909 21.4032 94.0562 18.1643C97.9516 14.8131 100.243 10.1801 100.737 4.69402H102.892L104.14 11.8771C104.586 14.4413 105.453 16.895 106.718 19.1701L107.738 21.0067C111.603 27.9594 110.597 36.5789 105.235 42.4552C102.844 45.0763 98.7912 54.9454 97.1217 59.1672H62.8106C62.4012 58.1385 61.8057 56.6637 61.1073 54.9986C60.6059 53.8035 59.2309 53.2405 58.0352 53.7421C56.8398 54.2434 56.2774 55.6191 56.7788 56.8142C57.7573 59.1468 58.5437 61.1352 58.8648 61.9551V69.6007C57.0476 71.9505 50.8931 80.3237 44.6791 93.5252C38.0039 107.707 30.0466 130.345 30.0466 157.653C30.0466 158.432 30.4331 159.16 31.0781 159.596C31.723 160.033 32.5429 160.121 33.2658 159.832L41.2835 156.622C43.2966 155.816 45.4042 155.388 47.519 155.327H47.5237C47.5278 155.327 47.5315 155.327 47.5356 155.327C49.9859 155.258 52.4456 155.685 54.7785 156.617L55.1721 156.775C60.6732 158.972 66.7276 158.96 72.2177 156.742L72.2944 156.711C74.4308 155.848 76.6695 155.409 78.9104 155.385C79.0115 155.399 79.1138 155.408 79.2184 155.408C79.3141 155.408 79.408 155.4 79.5009 155.389C81.7209 155.438 83.9343 155.894 86.0438 156.766C91.3549 158.962 97.2515 159.082 102.648 157.104L104.964 156.255C109.106 154.737 113.653 154.777 117.767 156.367L126.761 159.842C127.035 159.948 127.322 160 127.607 160C128.074 160 128.538 159.86 128.934 159.588C129.573 159.151 129.954 158.427 129.954 157.653C129.953 128.319 120.865 104.278 113.242 89.2749ZM90.9947 14.6059C88.0803 17.1128 84.1646 18.4932 79.9678 18.4932C75.7711 18.4932 71.855 17.1125 68.941 14.6059C66.6199 12.6091 65.054 9.97322 64.3039 6.86328L65.3022 7.49259C74.2355 13.1248 85.779 13.1245 94.7124 7.49259L95.6186 6.92117C94.8629 10.0061 93.3013 12.6216 90.9947 14.6059ZM96.3769 63.8615V68.0683H63.5585V63.8615H96.3769Z" fill="black"/>
</svg>
