<svg width="140" height="200" viewBox="0 0 140 200" fill="none" xmlns="http://www.w3.org/2000/svg">
<path d="M32.7624 30.9762C40.8247 36.0238 49.3891 38.6145 58.4088 38.6125C61.5263 38.6125 64.6944 38.3057 67.917 37.686C68.4444 37.5857 68.7908 37.0703 68.6915 36.5372C68.5903 36.0042 68.0824 35.652 67.5531 35.7543C64.4453 36.3504 61.3979 36.6454 58.4088 36.6454C49.7588 36.6435 41.5836 34.1806 33.7879 29.3042C33.3306 29.019 32.7313 29.1606 32.4471 29.6229C32.165 30.0852 32.307 30.691 32.7624 30.9762Z" fill="#100F0D"/>
<path d="M32.3222 29.9437C29.0841 45.9107 25.8459 61.8777 22.6097 77.8467C21.6017 82.8215 20.5703 87.9478 20.5684 93.1291C20.5684 94.628 20.6559 96.1309 20.8564 97.6358C21.7574 104.361 25.3225 111.191 31.6275 114.126C32.116 114.352 32.6939 114.134 32.9177 113.64C33.1415 113.146 32.9255 112.562 32.4371 112.336C26.9629 109.828 23.6119 103.624 22.7848 97.3741C22.5961 95.9657 22.5144 94.5513 22.5144 93.1291C22.5124 88.2133 23.5049 83.2129 24.5168 78.2401C27.753 62.2731 30.9912 46.3061 34.2274 30.3391C34.3363 29.8061 33.9958 29.2868 33.4704 29.1786C32.943 29.0684 32.4292 29.4107 32.3222 29.9437Z" fill="#100F0D"/>
<path d="M38.2617 115.327C38.8396 115.418 39.4196 115.463 39.9956 115.463C44.6232 115.447 48.9141 112.693 51.7008 109.08C54.8066 105.032 56.2934 100.11 57.5797 95.3849C62.7853 76.182 65.7471 56.4775 68.6972 36.8674C68.777 36.3304 68.4131 35.8288 67.8819 35.7482C67.3506 35.6656 66.8544 36.0354 66.7726 36.5724C63.8244 56.1824 60.8685 75.8083 55.7018 94.8656C54.435 99.5552 52.9832 104.211 50.1635 107.872C47.6823 111.114 43.8176 113.51 39.9956 113.496C39.5169 113.496 39.0381 113.459 38.5614 113.384C38.0301 113.299 37.5319 113.667 37.4502 114.204C37.3665 114.741 37.7304 115.243 38.2617 115.327Z" fill="#100F0D"/>
<path d="M33.2723 31.124C45.1644 31.1692 56.3598 32.495 67.1951 37.161C67.6914 37.3734 68.2615 37.1413 68.4717 36.6417C68.6838 36.1421 68.4522 35.5637 67.958 35.3513C56.7918 30.5437 45.3026 29.2021 33.2782 29.1569C32.7411 29.1549 32.3032 29.5936 32.3013 30.1384C32.2993 30.6814 32.7333 31.122 33.2723 31.124Z" fill="#100F0D"/>
<path d="M31.8595 113.653C27.2086 138.431 22.5596 163.211 17.9086 187.99C17.8074 188.523 18.1557 189.039 18.6831 189.139C19.2105 189.241 19.7203 188.889 19.8195 188.356C24.4705 163.577 29.1215 138.799 33.7705 114.019C33.8717 113.486 33.5253 112.971 32.996 112.87C32.4686 112.768 31.9588 113.118 31.8595 113.653Z" fill="#100F0D"/>
<path d="M36.9732 114.44C32.9236 139.385 28.1169 164.204 22.5552 188.85C22.4365 189.379 22.7654 189.906 23.2889 190.026C23.8124 190.148 24.3339 189.816 24.4526 189.287C30.0221 164.601 34.8384 139.743 38.892 114.757C38.9795 114.222 38.6195 113.716 38.0902 113.628C37.559 113.539 37.0588 113.903 36.9732 114.44Z" fill="#100F0D"/>
<path d="M18.6341 187.402C12.5937 187.768 6.60001 188.893 0.832042 190.74C0.320242 190.904 0.0361232 191.457 0.197642 191.976C0.361106 192.493 0.90794 192.78 1.41974 192.615C7.03397 190.817 12.872 189.722 18.7508 189.365C19.286 189.332 19.6947 188.866 19.6636 188.325C19.6305 187.782 19.1693 187.369 18.6341 187.402Z" fill="#100F0D"/>
<path d="M23.6319 189.871C28.9192 192.403 33.9963 195.381 38.7932 198.77C39.233 199.081 39.8402 198.973 40.1477 198.528C40.4551 198.084 40.3481 197.47 39.9083 197.159C35.0219 193.707 29.8513 190.672 24.4648 188.093C23.9783 187.861 23.3984 188.069 23.1687 188.561C22.9391 189.053 23.1454 189.639 23.6319 189.871Z" fill="#100F0D"/>
<path d="M0.742621 193.414C13.5045 196.569 26.496 198.77 39.579 199.996C40.1142 200.045 40.5871 199.648 40.6377 199.107C40.6864 198.566 40.2933 198.088 39.7581 198.037C26.7705 196.821 13.8723 194.636 1.2038 191.504C0.68227 191.374 0.154894 191.697 0.0284039 192.226C-0.100033 192.753 0.219145 193.286 0.742621 193.414Z" fill="#100F0D"/>
<path d="M32.5053 50.0293C38.6916 53.3931 45.705 55.1399 52.7184 55.1418C55.1743 55.1418 57.6282 54.9274 60.0491 54.4927C60.5784 54.3983 60.9306 53.8868 60.8372 53.3518C60.7418 52.8167 60.2378 52.4607 59.7085 52.5551C57.4025 52.9701 55.0614 53.1747 52.7184 53.1747C46.0242 53.1747 39.3202 51.5027 33.4277 48.2983C32.9548 48.0406 32.3652 48.2196 32.1102 48.6976C31.8553 49.1756 32.0324 49.7717 32.5053 50.0293Z" fill="#100F0D"/>
<path d="M32.9045 48.9874C29.0339 62.8673 26.7648 77.2015 26.1635 91.6106C26.1246 92.5469 26.0916 93.4951 26.0916 94.453C26.0935 96.6562 26.2589 98.9026 26.9186 101.09C28.3606 105.927 32.4978 109.37 37.6022 109.364L37.8552 109.36L37.8337 108.376L37.2285 109.147C37.3356 109.234 38.3163 109.983 40.0288 109.983C41.3988 109.987 43.1794 109.488 45.2149 107.94C47.2563 106.389 49.5779 103.803 52.1641 99.5518C53.575 97.2228 54.6764 94.0557 55.5832 90.5759C58.2921 80.1561 59.1639 66.9313 59.1678 66.8998L58.1987 66.8349L59.162 66.9687C59.7185 62.885 60.0143 58.7698 60.0824 54.6526C60.0902 54.1097 59.6621 53.6632 59.125 53.6533C58.5879 53.6455 58.1462 54.0782 58.1364 54.6211C58.0703 58.6635 57.7803 62.7001 57.2335 66.6992L57.2277 66.768C57.2277 66.77 57.2023 67.1261 57.1498 67.7811C56.9669 70.0688 56.4298 75.9328 55.3673 82.1508C54.3164 88.357 52.6896 94.9567 50.5061 98.5211C48.0094 102.628 45.8201 105.024 44.0473 106.366C42.2706 107.709 40.9396 108.014 40.0288 108.016C39.4606 108.016 39.0422 107.894 38.7717 107.78L38.4837 107.635L38.4312 107.599L38.4273 107.597L38.0809 108.063L38.4409 107.607L38.4273 107.597L38.0809 108.063L38.4409 107.607C38.2619 107.463 38.042 107.389 37.8143 107.393L37.6022 107.397C33.391 107.389 30.0302 104.625 28.779 100.518C28.201 98.6037 28.0376 96.5559 28.0376 94.453C28.0376 93.5403 28.0687 92.6178 28.1076 91.6932C28.7031 77.4376 30.9468 63.2528 34.7785 49.5205C34.9245 48.9972 34.6228 48.4543 34.1052 48.3068C33.5876 48.1592 33.0504 48.4641 32.9045 48.9874Z" fill="#100F0D"/>
<path d="M34.4614 49.9158C42.7222 49.9866 50.9713 51.3852 58.802 54.0388C59.3119 54.2119 59.8646 53.9346 60.0339 53.4192C60.2051 52.9038 59.9307 52.3471 59.4209 52.174C51.3936 49.4535 42.944 48.0215 34.4789 47.9487C33.9418 47.9428 33.502 48.3795 33.4981 48.9224C33.4923 49.4653 33.9243 49.9099 34.4614 49.9158Z" fill="#100F0D"/>
<path d="M106.212 29.3042C98.4147 34.1806 90.2415 36.6435 81.5895 36.6454C78.6005 36.6454 75.555 36.3504 72.4452 35.7543C71.9179 35.652 71.408 36.0042 71.3088 36.5372C71.2076 37.0703 71.5559 37.5857 72.0833 37.686C75.3039 38.3057 78.474 38.6125 81.5895 38.6125C90.6112 38.6145 99.1736 36.0238 107.236 30.9762C107.693 30.691 107.835 30.0852 107.551 29.6229C107.269 29.1606 106.67 29.019 106.212 29.3042Z" fill="#100F0D"/>
<path d="M105.77 30.3391C109.009 46.3061 112.245 62.2731 115.485 78.2401C116.493 83.2129 117.487 88.2153 117.485 93.1311C117.485 94.5533 117.404 95.9677 117.215 97.3741C116.388 103.624 113.037 109.828 107.563 112.336C107.074 112.562 106.858 113.146 107.082 113.64C107.306 114.134 107.884 114.352 108.372 114.126C114.677 111.191 118.242 104.361 119.143 97.6358C119.344 96.1329 119.431 94.63 119.431 93.1311C119.429 87.9478 118.398 82.8235 117.39 77.8467C114.152 61.8777 110.916 45.9107 107.678 29.9437C107.569 29.4107 107.055 29.0684 106.529 29.1786C106.002 29.2868 105.663 29.8061 105.77 30.3391Z" fill="#100F0D"/>
<path d="M101.439 113.384C100.962 113.459 100.483 113.496 100.005 113.496C96.1807 113.51 92.3178 111.114 89.8367 107.872C87.0169 104.211 85.5652 99.5552 84.2964 94.8656C79.1298 75.8083 76.1757 56.1824 73.2256 36.5724C73.1458 36.0354 72.6495 35.6656 72.1183 35.7482C71.587 35.8288 71.2212 36.3304 71.3029 36.8674C74.2531 56.4775 77.2149 76.18 82.4205 95.3849C83.7068 100.11 85.1935 105.032 88.2994 109.08C91.086 112.693 95.377 115.447 100.005 115.463C100.581 115.463 101.161 115.418 101.738 115.327C102.27 115.243 102.634 114.741 102.55 114.204C102.468 113.667 101.97 113.299 101.439 113.384Z" fill="#100F0D"/>
<path d="M106.72 29.1569C94.698 29.2021 83.2069 30.5437 72.0427 35.3513C71.5484 35.5637 71.3168 36.1421 71.5289 36.6417C71.7391 37.1413 72.3112 37.3734 72.8055 37.161C83.6408 32.495 94.8362 31.1692 106.728 31.124C107.265 31.122 107.699 30.6814 107.697 30.1384C107.695 29.5936 107.258 29.1549 106.72 29.1569Z" fill="#100F0D"/>
<path d="M106.228 114.019C110.879 138.799 115.53 163.577 120.179 188.356C120.28 188.889 120.788 189.241 121.317 189.139C121.845 189.039 122.191 188.523 122.092 187.99C117.441 163.211 112.79 138.431 108.141 113.653C108.04 113.118 107.532 112.768 107.002 112.87C106.475 112.971 106.129 113.486 106.228 114.019Z" fill="#100F0D"/>
<path d="M101.106 114.757C105.161 139.743 109.976 164.601 115.545 189.287C115.666 189.816 116.187 190.148 116.711 190.026C117.234 189.906 117.563 189.379 117.443 188.85C111.883 164.204 107.074 139.385 103.027 114.44C102.939 113.903 102.439 113.539 101.91 113.628C101.378 113.716 101.018 114.222 101.106 114.757Z" fill="#100F0D"/>
<path d="M121.249 189.365C127.128 189.722 132.964 190.817 138.58 192.615C139.092 192.78 139.639 192.493 139.801 191.976C139.964 191.457 139.68 190.904 139.168 190.74C133.398 188.893 127.406 187.768 121.366 187.402C120.831 187.369 120.37 187.782 120.337 188.325C120.305 188.866 120.714 189.332 121.249 189.365Z" fill="#100F0D"/>
<path d="M115.536 188.093C110.149 190.672 104.979 193.707 100.094 197.159C99.6524 197.47 99.5454 198.084 99.8529 198.528C100.16 198.973 100.767 199.081 101.209 198.77C106.004 195.381 111.079 192.403 116.369 189.871C116.855 189.639 117.061 189.053 116.832 188.561C116.602 188.069 116.022 187.861 115.536 188.093Z" fill="#100F0D"/>
<path d="M138.796 191.504C126.128 194.636 113.229 196.821 100.242 198.037C99.7067 198.088 99.3136 198.566 99.3622 199.107C99.4128 199.648 99.8857 200.045 100.421 199.996C113.504 198.77 126.495 196.569 139.259 193.414C139.781 193.286 140.1 192.753 139.972 192.226C139.845 191.699 139.318 191.374 138.796 191.504Z" fill="#100F0D"/>
<path d="M106.57 48.2983C100.68 51.5027 93.9757 53.1747 87.2795 53.1747C84.9385 53.1747 82.5954 52.9701 80.2914 52.5551C79.762 52.4607 79.2561 52.8167 79.1627 53.3518C79.0693 53.8868 79.4215 54.3983 79.9508 54.4927C82.3697 54.9274 84.8256 55.1418 87.2795 55.1418C94.2949 55.1399 101.308 53.3931 107.493 50.0293C107.966 49.7717 108.143 49.1756 107.89 48.6976C107.635 48.2196 107.045 48.0406 106.57 48.2983Z" fill="#100F0D"/>
<path d="M105.222 49.5205C109.054 63.2528 111.297 77.4376 111.893 91.6932C111.932 92.6217 111.963 93.5462 111.963 94.4629C111.963 96.5638 111.798 98.6076 111.222 100.518C109.968 104.625 106.61 107.389 102.396 107.397L102.186 107.393C101.957 107.389 101.739 107.463 101.56 107.607L101.918 108.063L101.573 107.597L101.56 107.607L101.918 108.063L101.573 107.597L101.48 107.656C101.276 107.772 100.77 108.016 99.9698 108.016C99.061 108.014 97.73 107.709 95.9533 106.366C94.1804 105.024 91.9892 102.628 89.4944 98.5211C88.2548 96.489 87.1748 93.4518 86.2991 90.0762C84.9797 85.007 84.0943 79.1667 83.5436 74.605C83.2672 72.3231 83.0746 70.362 82.952 68.9712C82.8274 67.5805 82.7749 66.77 82.7729 66.768L82.7671 66.6992C82.2222 62.7001 81.9303 58.6635 81.8641 54.6211C81.8544 54.0763 81.4107 53.6435 80.8736 53.6533C80.3365 53.6632 79.9084 54.1097 79.9181 54.6546C79.9862 58.7698 80.282 62.885 80.8386 66.9687L81.8019 66.8349L80.8327 66.8998C80.8327 66.9175 81.2258 72.809 82.2845 79.8139C82.8157 83.3173 83.5124 87.1 84.4173 90.5759C85.3242 94.0557 86.4256 97.2228 87.8364 99.5518C90.4207 103.803 92.7443 106.389 94.7837 107.94C96.8192 109.488 98.5998 109.987 99.9698 109.983C101.682 109.983 102.665 109.234 102.772 109.147L102.165 108.376L102.145 109.36L102.396 109.364C107.503 109.37 111.64 105.927 113.082 101.092C113.742 98.9046 113.907 96.6641 113.909 94.4629C113.909 93.5029 113.876 92.5489 113.837 91.6106C113.236 77.2015 110.967 62.8673 107.094 48.9874C106.948 48.4641 106.411 48.1592 105.893 48.3068C105.378 48.4543 105.076 48.9972 105.222 49.5205Z" fill="#100F0D"/>
<path d="M46.7132 5.21104C49.0659 9.05083 50.9769 13.168 52.3897 17.4543C52.559 17.9697 53.1097 18.249 53.6196 18.0759C54.1294 17.9047 54.4057 17.3481 54.2364 16.8327C52.775 12.4008 50.8017 8.14399 48.3653 4.17437C48.0832 3.7121 47.4838 3.57045 47.0265 3.85568C46.5691 4.14288 46.4291 4.74877 46.7132 5.21104Z" fill="#100F0D"/>
<path d="M29.0688 16.764C32.3362 18.739 35.6055 20.714 38.8728 22.687C39.334 22.9644 39.9314 22.8129 40.2058 22.3467C40.4821 21.8805 40.3323 21.2766 39.8711 20.9972C36.6038 19.0242 33.3345 17.0492 30.0671 15.0762C29.6059 14.7969 29.0085 14.9503 28.7322 15.4165C28.4578 15.8827 28.6076 16.4867 29.0688 16.764Z" fill="#100F0D"/>
<path d="M68.9773 0.989283C69.0104 6.04474 69.0435 11.1002 69.0766 16.1557C69.0805 16.6986 69.5183 17.1372 70.0554 17.1333C70.5925 17.1293 71.0265 16.6848 71.0226 16.1418C70.9895 11.0884 70.9564 6.03297 70.9233 0.975546C70.9194 0.432625 70.4816 -0.00406456 69.9445 -0.0001297C69.4074 0.00183678 68.9734 0.446362 68.9773 0.989283Z" fill="#100F0D"/>
<path d="M89.0799 5.91145C86.6454 9.88303 84.6702 14.1398 83.2087 18.5717C83.0394 19.0871 83.3158 19.6438 83.8257 19.8149C84.3355 19.9861 84.8862 19.7087 85.0555 19.1933C86.4683 14.907 88.3793 10.7879 90.734 6.94812C91.0161 6.48585 90.876 5.88 90.4187 5.59477C89.9614 5.30757 89.362 5.45115 89.0799 5.91145Z" fill="#100F0D"/>
<path d="M106.471 15.0762C103.202 17.0492 99.9347 19.0242 96.6673 20.9972C96.2061 21.2766 96.0543 21.8805 96.3307 22.3467C96.6051 22.8129 97.2025 22.9644 97.6637 22.687C100.933 20.714 104.2 18.739 107.47 16.764C107.931 16.4867 108.081 15.8827 107.804 15.4165C107.53 14.9503 106.932 14.7969 106.471 15.0762Z" fill="#100F0D"/>
<path d="M105.522 47.9487C97.0566 48.0215 88.6051 49.4535 80.5797 52.174C80.0699 52.3471 79.7955 52.9038 79.9667 53.4192C80.136 53.9346 80.6887 54.2119 81.1986 54.0388C89.0293 51.3852 97.2784 49.9866 105.537 49.9158C106.074 49.9099 106.506 49.4653 106.502 48.9224C106.497 48.3795 106.059 47.9428 105.522 47.9487Z" fill="#100F0D"/>
</svg>
