<svg width="120" height="120" viewBox="0 0 120 120" fill="none" xmlns="http://www.w3.org/2000/svg">
<mask id="mask0_332_1197" style="mask-type:luminance" maskUnits="userSpaceOnUse" x="0" y="0" width="120" height="120">
<path d="M0 1.52588e-05H120V120H0V1.52588e-05Z" fill="white"/>
</mask>
<g mask="url(#mask0_332_1197)">
<path d="M107.584 27.4303C122.994 49.8804 120.722 80.813 100.769 100.762C78.2531 123.274 41.7473 123.274 19.2309 100.762C-3.28529 78.2499 -3.28529 41.7509 19.2309 19.2387C39.1699 -0.696304 70.0792 -2.97817 92.5295 12.3931" stroke="black" stroke-width="2" stroke-miterlimit="10" stroke-linecap="round" stroke-linejoin="round"/>
<path d="M40.8801 92.3694C35.6789 88.2423 31.844 82.4649 30.1657 75.8312C29.5516 73.4099 29.2261 70.8753 29.2261 68.2627" stroke="black" stroke-width="2" stroke-miterlimit="10" stroke-linecap="round" stroke-linejoin="round"/>
<path d="M90.7739 68.2626C90.7739 70.8754 90.4484 73.4097 89.8343 75.8311C88.156 82.4648 84.3216 88.2424 79.1201 92.3693" stroke="black" stroke-width="2" stroke-miterlimit="10" stroke-linecap="round" stroke-linejoin="round"/>
<path d="M90.7739 63.2493V68.2626V68.3411C90.7636 72.4905 87.3537 75.8313 83.2031 75.8313H36.7969C32.6465 75.8313 29.2366 72.4905 29.2261 68.3411V68.2626V63.2493H90.7739Z" stroke="black" stroke-width="2" stroke-miterlimit="10" stroke-linecap="round" stroke-linejoin="round"/>
<path d="M79.1202 92.3694C73.8704 96.538 67.2261 99.0284 60.0001 99.0284C52.7741 99.0284 46.1298 96.538 40.8802 92.3694C45.4398 86.8897 52.3124 83.402 60.0001 83.402C67.6878 83.402 74.5606 86.8897 79.1202 92.3694Z" stroke="black" stroke-width="2" stroke-miterlimit="10" stroke-linecap="round" stroke-linejoin="round"/>
<path d="M83.8681 36.0961C78.7203 38.6259 75.0031 43.7308 74.5259 49.863C80.6105 44.658 89.3454 44.5647 95.4959 49.1761" stroke="black" stroke-width="2" stroke-miterlimit="10" stroke-linecap="round" stroke-linejoin="round"/>
<path d="M36.132 36.0961C41.28 38.6259 44.997 43.7308 45.4742 49.863C39.3898 44.658 30.6546 44.5647 24.5044 49.1761" stroke="black" stroke-width="2" stroke-miterlimit="10" stroke-linecap="round" stroke-linejoin="round"/>
</g>
</svg>
