<svg width="120" height="120" viewBox="0 0 120 120" fill="none" xmlns="http://www.w3.org/2000/svg">
<g clip-path="url(#clip0_332_1131)">
<mask id="mask0_332_1131" style="mask-type:luminance" maskUnits="userSpaceOnUse" x="0" y="0" width="120" height="120">
<path d="M0 7.62939e-06H120V120H0V7.62939e-06Z" fill="white"/>
</mask>
<g mask="url(#mask0_332_1131)">
<path d="M16.9603 71.6485H116.367C117.403 71.6485 118.242 72.488 118.242 73.5235V77.539C118.242 78.5745 117.403 79.414 116.367 79.414H3.63281C2.59734 79.414 1.75781 78.5745 1.75781 77.539V73.5235C1.75781 72.488 2.59734 71.6485 3.63281 71.6485H8.75719" stroke="black" stroke-width="2" stroke-miterlimit="10" stroke-linecap="round" stroke-linejoin="round"/>
<path d="M116.367 118.242H3.63281C2.59734 118.242 1.75781 117.403 1.75781 116.367V112.352C1.75781 111.316 2.59734 110.477 3.63281 110.477H116.367C117.403 110.477 118.242 111.316 118.242 112.352V116.367C118.242 117.403 117.403 118.242 116.367 118.242Z" stroke="black" stroke-width="2" stroke-miterlimit="10" stroke-linecap="round" stroke-linejoin="round"/>
<path d="M67.8322 9.52344H52.168C51.1325 9.52344 50.293 8.68391 50.293 7.64844V3.63289C50.293 2.59719 51.1325 1.75789 52.168 1.75789H67.8322C68.8677 1.75789 69.7072 2.59719 69.7072 3.63289V7.64844C69.7072 8.68391 68.8677 9.52344 67.8322 9.52344Z" stroke="black" stroke-width="2" stroke-miterlimit="10" stroke-linecap="round" stroke-linejoin="round"/>
<path d="M50.6605 87.3215H44.176V102.711H50.6605" stroke="black" stroke-width="2" stroke-miterlimit="10" stroke-linecap="round" stroke-linejoin="round"/>
<path d="M50.1826 95.0162H44.176" stroke="black" stroke-width="2" stroke-miterlimit="10" stroke-linecap="round" stroke-linejoin="round"/>
<path d="M74.5889 87.6548V102.466" stroke="black" stroke-width="2" stroke-miterlimit="10" stroke-linecap="round" stroke-linejoin="round"/>
<path d="M84.944 95.175C84.944 99.3279 82.6392 102.614 78.9825 102.678C77.7651 102.699 74.6193 102.711 74.6193 102.711C74.6193 102.711 74.5999 97.2516 74.5999 95.1584C74.5999 93.4392 74.5889 87.6392 74.5889 87.6392H78.8575C82.8684 87.6392 84.944 91.0221 84.944 95.175Z" stroke="black" stroke-width="2" stroke-miterlimit="10" stroke-linecap="round" stroke-linejoin="round"/>
<path d="M25.3669 87.1797L30.6769 102.478C30.7885 102.791 31.2322 102.788 31.3393 102.473L36.4105 87.2083" stroke="black" stroke-width="2" stroke-miterlimit="10" stroke-linecap="round" stroke-linejoin="round"/>
<path d="M92.7095 87.1797V97.867C92.7095 99.6869 93.6125 100.912 95.146 101.892C95.893 102.37 96.8363 102.709 98.0089 102.711C99.0242 102.712 99.8727 102.477 100.575 102.124C102.362 101.224 103.502 99.8568 103.502 97.8557V87.1797" stroke="black" stroke-width="2" stroke-miterlimit="10" stroke-linecap="round" stroke-linejoin="round"/>
<path d="M60.2991 95.2982L66.8231 102.711" stroke="black" stroke-width="2" stroke-miterlimit="10" stroke-linecap="round" stroke-linejoin="round"/>
<path d="M58.4263 87.1797V102.711" stroke="black" stroke-width="2" stroke-miterlimit="10" stroke-linecap="round" stroke-linejoin="round"/>
<path d="M66.8232 91.2161C66.8232 93.4455 64.8685 95.2525 62.5585 95.2525C61.4126 95.2525 58.46 95.2703 58.46 95.2703C58.46 95.2703 58.4415 92.3397 58.4415 91.2161C58.4415 90.2931 58.4312 87.1797 58.4312 87.1797H62.5585C64.8685 87.1797 66.8232 88.9869 66.8232 91.2161Z" stroke="black" stroke-width="2" stroke-miterlimit="10" stroke-linecap="round" stroke-linejoin="round"/>
<path d="M17.7796 94.9453C17.7796 99.2342 14.3027 102.711 10.0138 102.711C5.72501 102.711 2.24829 99.2342 2.24829 94.9453C2.24829 90.6565 5.72501 87.1798 10.0138 87.1798C14.3027 87.1798 17.7796 90.6565 17.7796 94.9453Z" stroke="black" stroke-width="2" stroke-miterlimit="10" stroke-linecap="round" stroke-linejoin="round"/>
<path d="M117.752 87.3215H111.267V102.711H117.752" stroke="black" stroke-width="2" stroke-miterlimit="10" stroke-linecap="round" stroke-linejoin="round"/>
<path d="M117.274 95.0162H111.267" stroke="black" stroke-width="2" stroke-miterlimit="10" stroke-linecap="round" stroke-linejoin="round"/>
<path d="M54.1758 9.52346V17.289" stroke="black" stroke-width="2" stroke-miterlimit="10" stroke-linecap="round" stroke-linejoin="round"/>
<path d="M65.8242 9.52346V17.289" stroke="black" stroke-width="2" stroke-miterlimit="10" stroke-linecap="round" stroke-linejoin="round"/>
<path d="M63.8827 56.1171C63.8827 58.2617 62.1444 60 60.0001 60C57.8555 60 56.1172 58.2617 56.1172 56.1171C56.1172 53.9728 57.8555 52.2345 60.0001 52.2345C62.1444 52.2345 63.8827 53.9728 63.8827 56.1171Z" stroke="black" stroke-width="2" stroke-miterlimit="10" stroke-linecap="round" stroke-linejoin="round"/>
<path d="M60 52.2344V32.8204" stroke="black" stroke-width="2" stroke-miterlimit="10" stroke-linecap="round" stroke-linejoin="round"/>
<path d="M63.8828 56.1171H75.5312" stroke="black" stroke-width="2" stroke-miterlimit="10" stroke-linecap="round" stroke-linejoin="round"/>
<path d="M86.9059 71.6484C89.549 67.0795 91.0623 61.7753 91.0623 56.1171C91.0623 38.962 77.1552 25.0546 59.9999 25.0546C42.8446 25.0546 28.9375 38.962 28.9375 56.1171C28.9375 61.7753 30.4509 67.0795 33.0939 71.6484H86.9059Z" stroke="black" stroke-width="2" stroke-miterlimit="10" stroke-linecap="round" stroke-linejoin="round"/>
<path d="M29.7966 31.7146C24.4025 38.3825 21.1716 46.8725 21.1716 56.1172C21.1716 61.6398 22.3273 66.8919 24.4058 71.6483H95.5939C97.6726 66.8919 98.828 61.6398 98.828 56.1172C98.828 34.6731 81.444 17.289 59.9998 17.289C50.7551 17.289 42.2651 20.5199 35.5972 25.914" stroke="black" stroke-width="2" stroke-miterlimit="10" stroke-linecap="round" stroke-linejoin="round"/>
</g>
</g>
<defs>
<clipPath id="clip0_332_1131">
<rect width="120" height="120" fill="white"/>
</clipPath>
</defs>
</svg>
