<svg width="120" height="120" viewBox="0 0 120 120" fill="none" xmlns="http://www.w3.org/2000/svg">
<mask id="mask0_332_1182" style="mask-type:luminance" maskUnits="userSpaceOnUse" x="0" y="0" width="120" height="120">
<path d="M0 1.52588e-05H120V120H0V1.52588e-05Z" fill="white"/>
</mask>
<g mask="url(#mask0_332_1182)">
<path d="M109.113 46.4575C119.026 36.5411 118.941 20.4107 108.857 10.6012C98.8809 0.895964 82.7365 1.20252 73.1189 11.2638C68.9133 15.6632 66.6115 21.2123 66.2123 26.8708C65.5941 35.6371 62.0086 43.9291 55.797 50.1431L55.0315 50.9085L68.7342 64.6157L68.9046 64.4449C75.3087 58.0392 83.8673 54.3482 92.906 53.7803C98.8073 53.4096 104.603 50.969 109.113 46.4575Z" stroke="black" stroke-width="2" stroke-miterlimit="10" stroke-linecap="round" stroke-linejoin="round"/>
<path d="M84.8277 55.1571C96.2183 70.1503 101.385 85.7255 95.2475 91.8645C87.6198 99.4946 65.4195 89.6579 47.8766 72.1093C30.3334 54.5604 20.4999 32.3532 28.1277 24.7231C34.2507 18.5979 49.7652 23.7291 64.7227 35.07" stroke="black" stroke-width="2" stroke-miterlimit="10" stroke-linecap="round" stroke-linejoin="round"/>
<path d="M71.9096 91.8864C70.2821 97.1362 67.3909 102.078 63.2354 106.235C49.5737 119.901 27.4236 119.901 13.7619 106.235C0.100195 92.5687 0.100195 70.4116 13.7619 56.7454C17.7953 52.7109 22.5686 49.8674 27.6446 48.2149" stroke="black" stroke-width="2" stroke-miterlimit="10" stroke-linecap="round" stroke-linejoin="round"/>
<path d="M58.5168 83.3743C58.0957 87.8766 56.1621 92.2643 52.7158 95.7118C44.8638 103.566 32.1335 103.566 24.2817 95.7118C16.4299 87.8574 16.4299 75.1229 24.2817 67.2685C27.6042 63.9448 31.8004 62.0276 36.131 61.5169" stroke="black" stroke-width="2" stroke-miterlimit="10" stroke-linecap="round" stroke-linejoin="round"/>
</g>
</svg>
