<svg width="120" height="120" viewBox="0 0 120 120" fill="none" xmlns="http://www.w3.org/2000/svg">
<path d="M96.0938 47.1196V62.6017" stroke="black" stroke-width="2" stroke-miterlimit="10" stroke-linecap="round" stroke-linejoin="round"/>
<mask id="mask0_332_901" style="mask-type:luminance" maskUnits="userSpaceOnUse" x="0" y="0" width="120" height="120">
<path d="M0 7.62939e-06H120V120H0V7.62939e-06Z" fill="white"/>
</mask>
<g mask="url(#mask0_332_901)">
<path d="M23.9062 20.4141V11.1329C23.9062 5.95552 28.1039 1.75787 33.2812 1.75787H86.7187C91.8961 1.75787 96.0937 5.95552 96.0937 11.1329V38.9164" stroke="black" stroke-width="2" stroke-miterlimit="10" stroke-linecap="round" stroke-linejoin="round"/>
<path d="M96.0937 99.5414V108.867C96.0937 114.045 91.8961 118.242 86.7187 118.242H33.2812C28.1039 118.242 23.9062 114.045 23.9062 108.867V57.3539" stroke="black" stroke-width="2" stroke-miterlimit="10" stroke-linecap="round" stroke-linejoin="round"/>
<path d="M30.9375 20.3273V12.3047C30.9375 10.3641 32.5125 8.78905 34.4531 8.78905H40.9102C41.4281 8.78905 41.8969 8.99999 42.2367 9.33749C42.5766 9.67734 42.7852 10.1461 42.7852 10.6641C42.7852 12.4148 44.2031 13.8328 45.9539 13.8328H74.0461C75.7969 13.8328 77.2148 12.4148 77.2148 10.6641C77.2148 9.62812 78.0539 8.78905 79.0898 8.78905H85.5469C87.4875 8.78905 89.0625 10.3641 89.0625 12.3047V62.5148" stroke="black" stroke-width="2" stroke-miterlimit="10" stroke-linecap="round" stroke-linejoin="round"/>
<path d="M89.0625 99.9609V107.695C89.0625 109.636 87.4875 111.211 85.5469 111.211H34.4531C32.5125 111.211 30.9375 109.636 30.9375 107.695V57.7734" stroke="black" stroke-width="2" stroke-miterlimit="10" stroke-linecap="round" stroke-linejoin="round"/>
<path d="M61.7578 7.79529C61.7578 8.76607 60.9708 9.5531 60 9.5531C59.0292 9.5531 58.2422 8.76607 58.2422 7.79529C58.2422 6.82451 59.0292 6.03748 60 6.03748C60.9708 6.03748 61.7578 6.82451 61.7578 7.79529Z" fill="black"/>
<path d="M8.8335 40.2067C9.51342 50.073 17.8984 57.7734 27.9102 57.7734H45.1576C45.9927 57.7734 46.4111 56.7637 45.8204 56.1731L42.2141 52.5665C41.781 52.1334 41.7611 51.4455 42.1534 50.9749C45.0109 47.5471 46.6783 43.0926 46.5121 38.2436C46.1706 28.2956 38.0219 20.2567 28.0705 20.0435C19.8421 19.8672 12.7792 24.9597 10.0234 32.1796" stroke="black" stroke-width="2" stroke-miterlimit="10" stroke-linecap="round" stroke-linejoin="round"/>
<path d="M29.4141 38.9062C29.4141 39.877 28.627 40.6641 27.6562 40.6641C26.6855 40.6641 25.8984 39.877 25.8984 38.9062C25.8984 37.9355 26.6855 37.1484 27.6562 37.1484C28.627 37.1484 29.4141 37.9355 29.4141 38.9062Z" fill="black"/>
<path d="M36.4453 38.9062C36.4453 39.877 35.6583 40.6641 34.6875 40.6641C33.7167 40.6641 32.9297 39.877 32.9297 38.9062C32.9297 37.9355 33.7167 37.1484 34.6875 37.1484C35.6583 37.1484 36.4453 37.9355 36.4453 38.9062Z" fill="black"/>
<path d="M22.3828 38.9062C22.3828 39.877 21.5958 40.6641 20.625 40.6641C19.6542 40.6641 18.8672 39.877 18.8672 38.9062C18.8672 37.9355 19.6542 37.1484 20.625 37.1484C21.5958 37.1484 22.3828 37.9355 22.3828 38.9062Z" fill="black"/>
<path d="M52.2656 57.7734H78.3579" stroke="black" stroke-width="2" stroke-miterlimit="10" stroke-linecap="round" stroke-linejoin="round"/>
<path d="M52.2656 50.7422H78.3579" stroke="black" stroke-width="2" stroke-miterlimit="10" stroke-linecap="round" stroke-linejoin="round"/>
<path d="M55.7812 43.7109H78.3579" stroke="black" stroke-width="2" stroke-miterlimit="10" stroke-linecap="round" stroke-linejoin="round"/>
<path d="M67.811 99.9609H41.7188" stroke="black" stroke-width="2" stroke-miterlimit="10" stroke-linecap="round" stroke-linejoin="round"/>
<path d="M67.811 92.9297H41.7188" stroke="black" stroke-width="2" stroke-miterlimit="10" stroke-linecap="round" stroke-linejoin="round"/>
<path d="M64.2954 85.8984H41.7188" stroke="black" stroke-width="2" stroke-miterlimit="10" stroke-linecap="round" stroke-linejoin="round"/>
<path d="M77.8466 93.1625C74.9889 89.7347 73.3215 85.2802 73.4879 80.431C73.8292 70.4832 81.9782 62.4444 91.9295 62.2311C102.625 62.0016 111.352 70.6754 111.209 81.3519C111.071 91.7126 102.452 99.961 92.0898 99.961H74.8424C74.0071 99.961 73.5887 98.9511 74.1796 98.3605L77.7859 94.7541C78.219 94.321 78.2387 93.6331 77.8466 93.1625Z" stroke="black" stroke-width="2" stroke-miterlimit="10" stroke-linecap="round" stroke-linejoin="round"/>
<path d="M90.5859 81.0938C90.5859 82.0645 91.373 82.8516 92.3438 82.8516C93.3145 82.8516 94.1016 82.0645 94.1016 81.0938C94.1016 80.123 93.3145 79.3359 92.3438 79.3359C91.373 79.3359 90.5859 80.123 90.5859 81.0938Z" fill="black"/>
<path d="M83.5547 81.0938C83.5547 82.0645 84.3417 82.8516 85.3125 82.8516C86.2833 82.8516 87.0703 82.0645 87.0703 81.0938C87.0703 80.123 86.2833 79.3359 85.3125 79.3359C84.3417 79.3359 83.5547 80.123 83.5547 81.0938Z" fill="black"/>
<path d="M97.6172 81.0938C97.6172 82.0645 98.4042 82.8516 99.375 82.8516C100.346 82.8516 101.133 82.0645 101.133 81.0938C101.133 80.123 100.346 79.3359 99.375 79.3359C98.4042 79.3359 97.6172 80.123 97.6172 81.0938Z" fill="black"/>
</g>
</svg>
