<svg width="160" height="127" viewBox="0 0 160 127" fill="none" xmlns="http://www.w3.org/2000/svg">
<path fill-rule="evenodd" clip-rule="evenodd" d="M80.8278 30.1983C81.5629 30.661 81.783 31.6311 81.3203 32.3681C80.8576 33.1031 79.8857 33.3232 79.1525 32.8624C71.5707 28.0883 62.2482 25.7041 51.5078 27.0175C41.8925 28.1947 31.1372 32.3251 19.4603 40.3398C10.0091 46.8303 4.92161 56.4363 3.53919 66.8315C2.44781 75.0365 3.65672 83.7414 6.84505 91.8102C10.0334 99.8808 15.1993 107.3 22.02 112.935C31.3891 120.669 43.8999 125.037 58.7184 123.085C70.8822 121.485 80.2233 117.069 87.0291 110.963C92.9617 105.636 96.9821 99.0096 99.2693 91.827C101.57 84.6127 102.126 76.8349 101.126 69.2475C99.7283 58.6303 95.2826 48.403 88.3033 40.629C87.7212 39.9816 87.7735 38.9854 88.4208 38.4015C89.0663 37.8213 90.0626 37.8735 90.6428 38.5208C98.0493 46.7706 102.766 57.6023 104.243 68.8389C105.301 76.8666 104.708 85.1108 102.266 92.7766C99.8122 100.474 95.4971 107.582 89.1242 113.306C81.8688 119.817 71.9661 124.514 59.127 126.205C43.3476 128.281 30.0104 123.617 20.0107 115.36C12.7684 109.381 7.28907 101.515 3.91231 92.9687C0.535554 84.4205 -0.744249 75.1708 0.421759 66.4248C1.91798 55.1807 7.43274 44.7781 17.6861 37.741C29.8089 29.4185 41.038 25.1202 51.1254 23.887C62.6343 22.4784 72.6546 25.053 80.8278 30.1983Z" fill="#3D3F41"/>
<path fill-rule="evenodd" clip-rule="evenodd" d="M71.8914 36.1459C72.6842 36.4966 73.0481 37.4275 72.6955 38.2241C72.3466 39.0189 71.4157 39.3808 70.621 39.0301C65.0801 36.5899 58.543 35.5712 51.0954 36.5414C44.2673 37.4331 36.6668 39.9928 28.3536 44.6568C20.2438 49.2051 15.4305 56.5948 13.5518 64.8912C12.065 71.4526 12.4045 78.5885 14.3932 85.3532C16.3839 92.1236 20.0236 98.5133 25.1317 103.575C32.1426 110.52 41.9465 114.97 54.0879 114.477C66.5185 113.974 75.7159 109.604 81.9676 103.172C85.7156 99.3155 88.417 94.7 90.1315 89.7206C91.8534 84.7133 92.5773 79.3478 92.359 74.0178C91.9262 63.3446 87.7472 52.817 80.3016 45.5821C79.6766 44.9758 79.6636 43.9814 80.268 43.3583C80.8744 42.7352 81.8705 42.7221 82.4937 43.3266C90.5288 51.1342 95.0399 62.4491 95.5026 73.8946C95.7358 79.6184 94.9616 85.3756 93.1146 90.743C91.2565 96.1402 88.3144 101.155 84.2231 105.366C77.4416 112.345 67.5333 117.08 54.2091 117.619C41.1088 118.151 30.5084 113.328 22.9135 105.804C17.4174 100.36 13.5089 93.5022 11.3728 86.2413C9.23852 78.9729 8.87659 71.2884 10.4829 64.1991C12.55 55.0706 17.8595 46.9328 26.8126 41.9087C35.484 37.0432 43.4688 34.3642 50.6868 33.4239C58.7519 32.3736 65.8505 33.4874 71.8914 36.1459Z" fill="#3D3F41"/>
<path fill-rule="evenodd" clip-rule="evenodd" d="M35.0549 27.3904C35.8776 27.6647 36.3216 28.5583 36.0474 29.381C35.7694 30.2038 34.8795 30.6478 34.0549 30.3754C30.4823 29.1665 24.3556 25.8531 20.4472 21.7656C18.6077 19.8384 17.2234 17.7116 16.7346 15.4915C16.2141 13.111 16.701 10.6988 18.6879 8.40595C20.6524 6.13923 24.1523 4.01056 29.7304 2.19345C42.9185 -2.09559 48.3623 0.411804 49.9798 5.37433C51.9965 11.5738 47.1105 21.5436 44.9781 25.8979C44.6591 26.5509 44.4072 27.0621 44.2523 27.4259C43.9109 28.2243 42.9875 28.5975 42.1871 28.2579C41.3887 27.9184 41.0155 26.993 41.3569 26.1927C41.5043 25.8494 41.7897 25.2636 42.1573 24.5174C44.118 20.5119 48.6086 11.3443 46.9836 6.35004C45.9165 3.06843 41.62 1.63751 30.7062 5.18964C25.7101 6.81459 22.6728 8.61304 21.0666 10.4656C19.8166 11.9077 19.5013 13.3871 19.8166 14.8274C20.1673 16.4281 21.2587 18.0586 22.7288 19.5959C26.2679 23.2954 31.8162 26.2972 35.0549 27.3904Z" fill="#3D3F41"/>
<path fill-rule="evenodd" clip-rule="evenodd" d="M17.7066 16.8292C17.2924 16.6967 17.0648 16.2527 17.1954 15.8404C17.3297 15.4262 17.7737 15.1986 18.186 15.3311C27.3816 18.2918 39.3476 13.2826 45.4146 9.98425C46.6422 9.31636 47.6235 8.7212 48.2895 8.27532C48.3063 8.26226 48.3231 8.25295 48.338 8.24548C48.5265 8.13914 48.7448 8.11678 48.9444 8.17274C48.9369 8.11678 48.9369 8.05704 48.9425 7.99734C48.991 7.56639 49.379 7.25483 49.8119 7.30147C50.1066 7.33505 50.31 7.47501 50.4369 7.70821C50.4537 7.74552 50.4723 7.78281 50.4872 7.82199C50.644 8.23615 50.1813 8.90776 49.1664 9.58498C48.463 10.0495 47.4388 10.6726 46.1683 11.3648C39.8793 14.7844 27.4413 19.9634 17.7066 16.8292Z" fill="#3D3F41"/>
<path fill-rule="evenodd" clip-rule="evenodd" d="M21.8128 8.56636C21.5721 8.2063 21.6728 7.71567 22.0347 7.47501C22.3967 7.23621 22.8854 7.33508 23.1261 7.697L27.6148 14.5028L30.5065 3.74752C30.6184 3.32775 31.0494 3.07776 31.471 3.1897C31.624 3.23074 31.7546 3.31465 31.8534 3.42472L39.5976 11.2137L41.9017 3.13186C42.0211 2.71209 42.4557 2.4714 42.8755 2.5908C43.2953 2.70833 43.5359 3.14488 43.4184 3.56465L40.7431 12.9375C40.7077 13.0625 40.6405 13.18 40.5416 13.2808C40.2319 13.5867 39.7338 13.5849 39.4279 13.277L31.6725 5.47508L28.6856 16.5997C28.6353 16.7788 28.5252 16.9411 28.3592 17.053C27.9935 17.2918 27.5066 17.193 27.2678 16.8292L21.8128 8.56636Z" fill="#3D3F41"/>
<path fill-rule="evenodd" clip-rule="evenodd" d="M27.9096 17.5624C27.6093 17.249 27.6223 16.7509 27.9376 16.4524C28.251 16.152 28.751 16.1633 29.0495 16.4786L38.3944 26.3271L39.3981 13.4898C39.4279 13.0552 39.8066 12.7305 40.2413 12.7622C40.6741 12.7958 41.0006 13.1745 40.9671 13.6073L39.8253 28.2095C39.8104 28.3979 39.7283 28.5826 39.5828 28.7225C39.2675 29.021 38.7694 29.0099 38.4709 28.6946L27.9096 17.5624Z" fill="#3D3F41"/>
<path fill-rule="evenodd" clip-rule="evenodd" d="M74.6563 108.756C75.2719 109.368 75.2757 110.366 74.6637 110.983C74.05 111.597 73.0537 111.601 72.438 110.989C64.4625 103.08 58.7463 92.7841 56.4684 81.9524C54.9554 74.7586 54.9591 67.3185 56.8191 60.1807C58.6847 53.0242 62.4122 46.1811 68.343 40.1962C76.3614 32.1107 88.4039 25.6034 105.323 22.0457C117.48 19.4879 128.806 22.6707 137.968 29.3384C145.104 34.5322 150.917 41.8417 154.773 50.1885C158.629 58.5315 160.538 67.9286 159.868 77.2958C158.941 90.2319 153.113 103.107 140.719 113.095C130.873 121.031 120.894 124.955 111.383 125.828C100.605 126.817 90.4691 123.886 81.8295 118.44C81.0926 117.975 80.8725 117.003 81.3351 116.27C81.7959 115.533 82.7698 115.313 83.5048 115.776C91.5904 120.873 101.057 123.619 111.099 122.697C120.015 121.876 129.414 118.166 138.749 110.642C150.385 101.263 155.859 89.1928 156.725 77.0738C157.355 68.2438 155.553 59.3822 151.913 51.5074C148.275 43.6308 142.809 36.7486 136.117 31.8774C127.643 25.7116 117.183 22.7658 105.963 25.1277C89.7024 28.5473 78.1841 34.7412 70.5762 42.4163C65.0577 47.9833 61.5932 54.3338 59.8619 60.9698C58.1306 67.617 58.1325 74.5701 59.5485 81.3106C61.7014 91.5397 67.1099 101.276 74.6563 108.756Z" fill="#3D3F41"/>
<path fill-rule="evenodd" clip-rule="evenodd" d="M82.3929 104.642C83.0533 105.207 83.1298 106.2 82.5645 106.86C82.0011 107.52 81.0068 107.597 80.3464 107.032C73.1936 100.877 67.7908 92.5843 65.2424 83.6461C63.5484 77.7041 63.11 71.4655 64.248 65.3631C65.3897 59.242 68.1117 53.2777 72.7328 47.9103C78.9751 40.6568 88.6707 34.4947 102.611 30.5191C112.674 27.6498 122.371 29.6478 130.457 34.7018C136.746 38.6326 142.055 44.4197 145.783 51.19C149.503 57.9492 151.659 65.7101 151.652 73.6054C151.641 84.5118 147.516 95.6551 137.721 104.759C129.94 111.992 121.808 115.871 113.884 117.164C104.905 118.632 96.2283 116.774 88.6558 112.716C87.8909 112.309 87.6017 111.356 88.0084 110.591C88.417 109.826 89.3703 109.535 90.1352 109.944C97.1256 113.69 105.124 115.408 113.381 114.059C120.716 112.86 128.283 109.233 135.576 102.453C144.669 94.0021 148.497 83.6872 148.508 73.6054C148.516 66.2623 146.501 59.0256 143.023 52.7049C139.548 46.3973 134.621 41.0187 128.793 37.3771C121.425 32.7727 112.607 30.9444 103.472 33.5507C90.1707 37.3454 80.9769 43.153 75.1226 49.955C70.8802 54.8858 68.3841 60.3427 67.3412 65.9284C66.2983 71.5308 66.705 77.2844 68.274 82.7823C70.6582 91.1365 75.7065 98.8863 82.3929 104.642Z" fill="#3D3F41"/>
<path fill-rule="evenodd" clip-rule="evenodd" d="M86.3666 115.179C86.0327 114.899 85.986 114.405 86.2659 114.071C86.542 113.737 87.0382 113.694 87.3721 113.97C87.3852 113.981 92.3832 118.251 100.474 118.671C100.907 118.692 101.243 119.063 101.221 119.498C101.198 119.932 100.827 120.264 100.394 120.242C91.7732 119.794 86.3815 115.19 86.3666 115.179Z" fill="#3D3F41"/>
<path fill-rule="evenodd" clip-rule="evenodd" d="M83.8257 41.3416C83.5141 41.0375 83.5067 40.5393 83.8089 40.2278C84.1111 39.9162 84.6111 39.9107 84.9226 40.2129C84.9469 40.2371 93.663 48.6193 95.6686 57.0948C95.7675 57.5164 95.5025 57.9418 95.079 58.0407C94.6555 58.1377 94.2302 57.8746 94.135 57.4493C92.2339 49.429 83.8499 41.364 83.8257 41.3416Z" fill="#3D3F41"/>
<path fill-rule="evenodd" clip-rule="evenodd" d="M14.6712 46.4627C15.0537 46.2537 15.5313 46.3937 15.7402 46.7761C15.951 47.1548 15.8111 47.6362 15.4286 47.8432C15.4119 47.8544 9.40646 51.1193 6.39163 62.8073C6.28529 63.229 5.85622 63.4827 5.43646 63.3745C5.01483 63.2681 4.76296 62.839 4.8693 62.4193C8.05577 50.0596 14.6526 46.4739 14.6712 46.4627Z" fill="#3D3F41"/>
<path fill-rule="evenodd" clip-rule="evenodd" d="M153.934 65.2979C153.842 64.8744 154.113 64.4547 154.536 64.3614C154.963 64.2718 155.383 64.5405 155.473 64.9658C155.48 64.9957 157.724 75.139 154.92 84.135C152.141 93.0414 151.15 94.5134 151.146 94.5171C150.9 94.8753 150.411 94.9668 150.053 94.7186C149.695 94.4724 149.605 93.9817 149.853 93.6235C149.855 93.6216 150.708 92.3512 153.415 83.6667C156.094 75.0719 153.939 65.3278 153.934 65.2979Z" fill="#3D3F41"/>
</svg>
