<svg width="120" height="120" viewBox="0 0 120 120" fill="none" xmlns="http://www.w3.org/2000/svg">
<mask id="mask0_332_641" style="mask-type:luminance" maskUnits="userSpaceOnUse" x="0" y="0" width="120" height="120">
<path d="M0 7.62939e-06H120V120H0V7.62939e-06Z" fill="white"/>
</mask>
<g mask="url(#mask0_332_641)">
<path d="M106.598 69.3275V17.2888C106.598 13.0002 103.121 9.52346 98.8321 9.52346H83.301" stroke="black" stroke-width="2" stroke-miterlimit="10" stroke-linecap="round" stroke-linejoin="round"/>
<path d="M5.63696 51.8673V83.2969C5.63696 87.5855 9.11368 91.0623 13.4025 91.0623H56.1982" stroke="black" stroke-width="2" stroke-miterlimit="10" stroke-linecap="round" stroke-linejoin="round"/>
<path d="M28.9336 9.52342H13.4023C9.11368 9.52342 5.63696 13.0001 5.63696 17.2887V44.836" stroke="black" stroke-width="2" stroke-miterlimit="10" stroke-linecap="round" stroke-linejoin="round"/>
<path d="M73.5888 9.52344H38.6409" stroke="black" stroke-width="2" stroke-miterlimit="10" stroke-linecap="round" stroke-linejoin="round"/>
<path d="M17.655 98.8281H13.4023C9.11368 98.8281 5.63696 95.3513 5.63696 91.0628V83.297" stroke="black" stroke-width="2" stroke-miterlimit="10" stroke-linecap="round" stroke-linejoin="round"/>
<path d="M57.7756 98.8281H24.6863" stroke="black" stroke-width="2" stroke-miterlimit="10" stroke-linecap="round" stroke-linejoin="round"/>
<path d="M38.6407 16.3184C38.6407 18.9989 36.4678 21.1718 33.7873 21.1718C31.1065 21.1718 28.9336 18.9989 28.9336 16.3184V6.61127C28.9336 3.93072 31.1065 1.75783 33.7873 1.75783C36.4678 1.75783 38.6407 3.93072 38.6407 6.61127V16.3184Z" stroke="black" stroke-width="2" stroke-miterlimit="10" stroke-linecap="round" stroke-linejoin="round"/>
<path d="M28.9337 17.2891H25.051" stroke="black" stroke-width="2" stroke-miterlimit="10" stroke-linecap="round" stroke-linejoin="round"/>
<path d="M38.6409 17.2891H42.5235" stroke="black" stroke-width="2" stroke-miterlimit="10" stroke-linecap="round" stroke-linejoin="round"/>
<path d="M5.63696 36.7031H106.598" stroke="black" stroke-width="2" stroke-miterlimit="10" stroke-linecap="round" stroke-linejoin="round"/>
<path d="M5.63696 28.9376H106.598" stroke="black" stroke-width="2" stroke-miterlimit="10" stroke-linecap="round" stroke-linejoin="round"/>
<path d="M83.2957 16.3184C83.2957 18.9989 81.1229 21.1718 78.4423 21.1718C75.7618 21.1718 73.5889 18.9989 73.5889 16.3184V6.61127C73.5889 3.93072 75.7618 1.75783 78.4423 1.75783C81.1229 1.75783 83.2957 3.93072 83.2957 6.61127V16.3184Z" stroke="black" stroke-width="2" stroke-miterlimit="10" stroke-linecap="round" stroke-linejoin="round"/>
<path d="M73.5887 17.2891H69.7058" stroke="black" stroke-width="2" stroke-miterlimit="10" stroke-linecap="round" stroke-linejoin="round"/>
<path d="M83.2957 17.2891H87.1785" stroke="black" stroke-width="2" stroke-miterlimit="10" stroke-linecap="round" stroke-linejoin="round"/>
<path d="M19.2958 52.2344H15.28C14.2446 52.2344 13.405 51.3948 13.405 50.3594V46.3438C13.405 45.3081 14.2446 44.4688 15.28 44.4688H19.2958C20.3313 44.4688 21.1708 45.3081 21.1708 46.3438V50.3594C21.1708 51.3948 20.3313 52.2344 19.2958 52.2344Z" stroke="black" stroke-width="2" stroke-miterlimit="10" stroke-linecap="round" stroke-linejoin="round"/>
<path d="M34.8268 52.2344H30.8113C29.7756 52.2344 28.9363 51.3948 28.9363 50.3594V46.3438C28.9363 45.3081 29.7756 44.4688 30.8113 44.4688H34.8268C35.8623 44.4688 36.7018 45.3081 36.7018 46.3438V50.3594C36.7018 51.3948 35.8623 52.2344 34.8268 52.2344Z" stroke="black" stroke-width="2" stroke-miterlimit="10" stroke-linecap="round" stroke-linejoin="round"/>
<path d="M50.3581 52.2344H46.3425C45.3068 52.2344 44.4675 51.3948 44.4675 50.3594V46.3438C44.4675 45.3081 45.3068 44.4688 46.3425 44.4688H50.3581C51.3938 44.4688 52.2331 45.3081 52.2331 46.3438V50.3594C52.2331 51.3948 51.3938 52.2344 50.3581 52.2344Z" stroke="black" stroke-width="2" stroke-miterlimit="10" stroke-linecap="round" stroke-linejoin="round"/>
<path d="M65.8893 52.2344H61.8738C60.8381 52.2344 59.9988 51.3948 59.9988 50.3594V46.3438C59.9988 45.3081 60.8381 44.4688 61.8738 44.4688H65.8893C66.925 44.4688 67.7643 45.3081 67.7643 46.3438V50.3594C67.7643 51.3948 66.925 52.2344 65.8893 52.2344Z" stroke="black" stroke-width="2" stroke-miterlimit="10" stroke-linecap="round" stroke-linejoin="round"/>
<path d="M81.4181 52.2344H77.4026C76.3669 52.2344 75.5276 51.3948 75.5276 50.3594V46.3438C75.5276 45.3081 76.3669 44.4688 77.4026 44.4688H81.4181C82.4536 44.4688 83.2931 45.3081 83.2931 46.3438V50.3594C83.2931 51.3948 82.4536 52.2344 81.4181 52.2344Z" stroke="black" stroke-width="2" stroke-miterlimit="10" stroke-linecap="round" stroke-linejoin="round"/>
<path d="M96.9494 52.2344H92.9338C91.8981 52.2344 91.0588 51.3948 91.0588 50.3594V46.3438C91.0588 45.3081 91.8981 44.4688 92.9338 44.4688H96.9494C97.9851 44.4688 98.8244 45.3081 98.8244 46.3438V50.3594C98.8244 51.3948 97.9851 52.2344 96.9494 52.2344Z" stroke="black" stroke-width="2" stroke-miterlimit="10" stroke-linecap="round" stroke-linejoin="round"/>
<path d="M19.2958 67.7656H15.28C14.2446 67.7656 13.405 66.9261 13.405 65.8906V61.8751C13.405 60.8394 14.2446 60.0001 15.28 60.0001H19.2958C20.3313 60.0001 21.1708 60.8394 21.1708 61.8751V65.8906C21.1708 66.9261 20.3313 67.7656 19.2958 67.7656Z" stroke="black" stroke-width="2" stroke-miterlimit="10" stroke-linecap="round" stroke-linejoin="round"/>
<path d="M34.8268 67.7656H30.8113C29.7756 67.7656 28.9363 66.9261 28.9363 65.8906V61.8751C28.9363 60.8394 29.7756 60.0001 30.8113 60.0001H34.8268C35.8623 60.0001 36.7018 60.8394 36.7018 61.8751V65.8906C36.7018 66.9261 35.8623 67.7656 34.8268 67.7656Z" stroke="black" stroke-width="2" stroke-miterlimit="10" stroke-linecap="round" stroke-linejoin="round"/>
<path d="M50.3581 67.7656H46.3425C45.3068 67.7656 44.4675 66.9261 44.4675 65.8906V61.8751C44.4675 60.8394 45.3068 60.0001 46.3425 60.0001H50.3581C51.3938 60.0001 52.2331 60.8394 52.2331 61.8751V65.8906C52.2331 66.9261 51.3938 67.7656 50.3581 67.7656Z" stroke="black" stroke-width="2" stroke-miterlimit="10" stroke-linecap="round" stroke-linejoin="round"/>
<path d="M65.4396 67.7656H61.9401C60.8678 67.7656 59.9988 66.8966 59.9988 65.8243V61.9414C59.9988 60.8691 60.8678 60.0001 61.9401 60.0001H65.823C66.8953 60.0001 67.7643 60.8691 67.7643 61.9414V65.8243" stroke="black" stroke-width="2" stroke-miterlimit="10" stroke-linecap="round" stroke-linejoin="round"/>
<path d="M19.2958 83.2969H15.28C14.2446 83.2969 13.405 82.4573 13.405 81.4219V77.4063C13.405 76.3709 14.2446 75.5313 15.28 75.5313H19.2958C20.3313 75.5313 21.1708 76.3709 21.1708 77.4063V81.4219C21.1708 82.4573 20.3313 83.2969 19.2958 83.2969Z" stroke="black" stroke-width="2" stroke-miterlimit="10" stroke-linecap="round" stroke-linejoin="round"/>
<path d="M34.8268 83.2969H30.8113C29.7756 83.2969 28.9363 82.4573 28.9363 81.4219V77.4063C28.9363 76.3709 29.7756 75.5313 30.8113 75.5313H34.8268C35.8623 75.5313 36.7018 76.3709 36.7018 77.4063V81.4219C36.7018 82.4573 35.8623 83.2969 34.8268 83.2969Z" stroke="black" stroke-width="2" stroke-miterlimit="10" stroke-linecap="round" stroke-linejoin="round"/>
<path d="M50.3581 83.2969H46.3425C45.3068 83.2969 44.4675 82.4573 44.4675 81.4219V77.4063C44.4675 76.3709 45.3068 75.5313 46.3425 75.5313H50.3581C51.3938 75.5313 52.2331 76.3709 52.2331 77.4063V81.4219C52.2331 82.4573 51.3938 83.2969 50.3581 83.2969Z" stroke="black" stroke-width="2" stroke-miterlimit="10" stroke-linecap="round" stroke-linejoin="round"/>
<path d="M56.1172 89.1211C56.1172 73.0378 69.1552 60 85.2383 60C101.321 60 114.359 73.0378 114.359 89.1211C114.359 105.204 101.321 118.242 85.2383 118.242C69.1552 118.242 56.1172 105.204 56.1172 89.1211Z" stroke="black" stroke-width="2" stroke-miterlimit="10" stroke-linecap="round" stroke-linejoin="round"/>
<path d="M63.8831 89.1211C63.8831 77.3269 73.4441 67.7655 85.2384 67.7655C97.0326 67.7655 106.594 77.3269 106.594 89.1211C106.594 100.915 97.0326 110.477 85.2384 110.477C73.4441 110.477 63.8831 100.915 63.8831 89.1211Z" stroke="black" stroke-width="2" stroke-miterlimit="10" stroke-linecap="round" stroke-linejoin="round"/>
<path d="M89.1213 89.1211C89.1213 91.2654 87.3829 93.004 85.2386 93.004C83.0941 93.004 81.3557 91.2654 81.3557 89.1211C81.3557 86.9768 83.0941 85.2382 85.2386 85.2382C87.3829 85.2382 89.1213 86.9768 89.1213 89.1211Z" stroke="black" stroke-width="2" stroke-miterlimit="10" stroke-linecap="round" stroke-linejoin="round"/>
<path d="M85.2383 85.2382V75.5311" stroke="black" stroke-width="2" stroke-miterlimit="10" stroke-linecap="round" stroke-linejoin="round"/>
<path d="M89.1211 89.1211H94.9455" stroke="black" stroke-width="2" stroke-miterlimit="10" stroke-linecap="round" stroke-linejoin="round"/>
</g>
</svg>
