<svg width="160" height="160" viewBox="0 0 160 160" fill="none" xmlns="http://www.w3.org/2000/svg">
<path d="M154.985 147.224L142.806 37.62C142.659 36.3016 142.164 35.0459 141.374 33.9805C140.584 32.9151 139.525 32.078 138.306 31.5544L123.485 25.2019C123.463 25.1928 123.441 25.1872 123.419 25.1787C123.405 25.1731 123.392 25.1647 123.378 25.1594L104.411 18.0469L99.8213 6.57156C99.6357 6.10764 99.3154 5.70996 98.9016 5.42983C98.4879 5.14971 97.9997 4.99999 97.5 5H62.5C62.0003 4.99999 61.5121 5.14971 61.0984 5.42983C60.6846 5.70996 60.3643 6.10764 60.1788 6.57156L55.1788 19.0716C55.0547 19.3816 54.9941 19.7133 55.0004 20.0471C55.0066 20.381 55.0797 20.7102 55.2153 21.0153L65.2153 43.5153C65.3705 43.8648 65.6038 44.174 65.8973 44.4192C66.1908 44.6644 66.5366 44.839 66.9082 44.9295C67.2797 45.0201 67.6671 45.0242 68.0404 44.9416C68.4138 44.8589 68.7633 44.6917 69.0619 44.4528L77.4994 37.7028V150H40V148.429L48.9531 142.034C49.3882 141.724 49.7122 141.282 49.8776 140.773C50.043 140.265 50.041 139.717 49.8719 139.209L40 109.594V29.2325L50.8778 25.1531L49.1222 20.4719L36.6222 25.1594C36.5969 25.1688 36.5744 25.1828 36.5494 25.1934C36.4934 25.2163 36.4366 25.2366 36.3819 25.2641L22.8728 32.0184C21.4234 32.7469 20.2473 33.9231 19.5187 35.3725L5.26406 63.8819C5.09037 64.229 4.99996 64.6118 5 65V107.5C4.99996 107.888 5.09037 108.271 5.26406 108.618L27.7641 153.618C27.9256 153.941 28.1553 154.226 28.4373 154.451C28.7193 154.677 29.0469 154.839 29.3975 154.926C29.7481 155.013 30.1134 155.023 30.4683 154.956C30.8232 154.888 31.1591 154.744 31.4531 154.534L35 152V152.5C35 153.163 35.2634 153.799 35.7322 154.268C36.2011 154.737 36.837 155 37.5 155H80C80.663 155 81.2989 154.737 81.7678 154.268C82.2366 153.799 82.5 153.163 82.5 152.5V37.7019L90.9375 44.4519C91.2361 44.6908 91.5856 44.858 91.9589 44.9406C92.3323 45.0233 92.7197 45.0192 93.0912 44.9286C93.4628 44.8381 93.8086 44.6635 94.1021 44.4183C94.3955 44.1731 94.6288 43.8639 94.7841 43.5144L103.827 23.1669L120 29.2325V150H87.5V155H122.5C123.163 155 123.799 154.737 124.268 154.268C124.737 153.799 125 153.163 125 152.5V122.708L130.034 152.911C130.09 153.251 130.217 153.576 130.406 153.865C130.594 154.155 130.84 154.402 131.129 154.591C131.418 154.78 131.742 154.907 132.083 154.965C132.423 155.023 132.771 155.009 133.106 154.925L153.106 149.925C153.693 149.779 154.207 149.424 154.553 148.927C154.898 148.43 155.052 147.825 154.985 147.224ZM30.9278 148.765L10 106.91V65.5903L23.9909 37.6087C24.2337 37.1256 24.6258 36.7336 25.1091 36.4909L35 31.545V93.375L29.8894 76.7647L25.1106 78.2353L35.1106 110.735H35.1144C35.12 110.754 35.1219 110.773 35.1281 110.792L40.6609 127.39L28.6131 135.421L31.3869 139.581L42.2997 132.306L44.5444 139.04L30.9278 148.765ZM80 28.1406L76.0516 22.5H83.9484L80 28.1406ZM87.4484 17.5H72.5516L67.3016 10H92.6984L87.4484 17.5ZM68.4688 38.5234L60.2131 19.9487L63.1038 12.7219L76.6072 32.0125L68.4688 38.5234ZM91.5312 38.5234L83.3928 32.0125L96.8962 12.7219L99.7869 19.9487L91.5312 38.5234ZM134.521 149.418L125 92.2931V31.2913L136.337 36.1503C136.744 36.3247 137.096 36.6037 137.36 36.9588C137.623 37.3139 137.788 37.7324 137.837 38.1719L148.663 135.605L137.089 137.534L137.911 142.466L149.216 140.582L149.774 145.605L134.521 149.418Z" fill="black"/>
<path d="M101.382 87.2359C101.729 87.4095 102.112 87.4999 102.5 87.4999C102.888 87.4999 103.271 87.4095 103.618 87.2359L113.618 82.2359C114.033 82.0283 114.383 81.7092 114.627 81.3142C114.871 80.9193 115 80.4642 115 80V62.5C115 61.837 114.737 61.2011 114.268 60.7322C113.799 60.2634 113.163 60 112.5 60H92.5C91.837 60 91.2011 60.2634 90.7322 60.7322C90.2634 61.2011 90 61.837 90 62.5V80C90 80.4642 90.1293 80.9193 90.3734 81.3142C90.6174 81.7092 90.9666 82.0283 91.3819 82.2359L101.382 87.2359ZM95 65H110V78.455L102.5 82.205L95 78.455V65Z" fill="black"/>
<path d="M67.5 50H72.5V55H67.5V50Z" fill="black"/>
<path d="M67.5 75H72.5V80H67.5V75Z" fill="black"/>
<path d="M67.5 100H72.5V105H67.5V100Z" fill="black"/>
<path d="M67.5 125H72.5V130H67.5V125Z" fill="black"/>
</svg>
